<svg viewBox="-12.8 -12.8 138.18330249197703 153.6" xmlns="http://www.w3.org/2000/svg"><g stroke="black" stroke-width="0.4" stroke-linecap="round"><path d="M 57.157676649772945 2.5 L 46.76537180435968 8.5 M 43.30127018922193 10.5 L 32.042939940024226 17 M 29.444863728670914 18.5 L 18.186533479473212 25 M 14.722431864335457 27 L 4.330127018922193 33 M 10.392304845413264 32.5 L 19.05255888325765 27.5 M 22.516660498395403 25.5 L 29.444863728670914 21.5 M 32.90896534380867 19.5 L 33.77499074759311 19 M 31.17691453623979 22.5 L 34.64101615137754 20.5 M 38.1051177665153 18.5 L 41.569219381653056 16.5 M 48.49742261192856 12.5 L 50.22947341949744 11.5 M 50.22947341949744 13.5 L 51.96152422706631 12.5 M 52.827549630850754 13 L 50.22947341949744 14.5 M 45.89934640057525 19 L 42.43524478543749 21 M 41.569219381653056 21.5 L 28.578838324886473 29 M 25.11473670974872 31 L 16.454482671904334 36 M 17.32050807568877 36.5 L 25.11473670974872 32 M 25.980762113533157 31.5 L 34.64101615137754 26.5 M 35.50704155516198 26 L 38.97114317029974 24 M 42.43524478543749 22 L 45.033320996790806 20.5 M 45.89934640057525 20 L 52.827549630850754 16 M 56.29165124598851 14 L 66.68395609140177 8 M 65.81793068761733 9.5 L 56.29165124598851 15 M 16.454482671904334 38 L 14.722431864335457 39 M 4.330127018922193 46 L 7.794228634059947 44 M 15.588457268119894 39.5 L 16.454482671904334 39 M 19.918584287042087 37 L 21.650635094610966 36 M 45.89934640057525 22 L 52.827549630850754 18 M 57.157676649772945 15.5 L 61.48780366869514 13 M 66.68395609140177 11 L 59.75575286112626 15 M 52.827549630850754 19 L 45.89934640057525 23 M 45.033320996790806 23.5 L 42.43524478543749 25 M 17.32050807568877 40.5 L 19.918584287042087 39 M 23.38268590217984 37 L 25.980762113533157 35.5 M 35.50704155516198 30 L 38.97114317029974 28 M 42.43524478543749 26 L 48.49742261192856 22.5 M 56.29165124598851 18 L 59.75575286112626 16 M 67.54998149518622 11.5 L 70.14805770653953 10 M 54.55960043841963 20 L 52.827549630850754 21 M 40.703193977868615 28 L 35.50704155516198 31 M 25.980762113533157 37.5 L 27.712812921102035 36.5 M 31.17691453623979 34.5 L 34.64101615137754 32.5 M 35.50704155516198 32 L 38.97114317029974 30 M 42.43524478543749 28 L 48.49742261192856 24.5 M 59.75575286112626 18 L 61.48780366869514 17 M 62.35382907247958 17.5 L 59.75575286112626 19 M 58.88972745734183 19.5 L 42.43524478543749 29 M 38.97114317029974 31 L 32.042939940024226 35 M 20.784609690826528 41.5 L 19.05255888325765 42.5 M 6.928203230275509 49.5 L 4.330127018922193 51 M 32.042939940024226 36 L 33.77499074759311 35 M 37.23909236273086 33 L 40.703193977868615 31 M 41.569219381653056 30.5 L 46.76537180435968 27.5 M 51.09549882328188 25 L 54.55960043841963 23 M 54.55960043841963 24 L 51.96152422706631 25.5 M 48.49742261192856 27.5 L 38.1051177665153 33.5 M 34.64101615137754 35.5 L 32.042939940024226 37 M 30.31088913245535 38 L 27.712812921102035 39.5 M 14.722431864335457 48 L 15.588457268119894 47.5 M 16.454482671904334 47 L 17.32050807568877 46.5 M 31.17691453623979 38.5 L 32.042939940024226 38 M 56.29165124598851 24 L 59.75575286112626 22 M 60.6217782649107 22.5 L 57.157676649772945 24.5 M 25.11473670974872 43 L 23.38268590217984 44 M 51.09549882328188 30 L 50.22947341949744 30.5 M 37.23909236273086 38 L 34.64101615137754 39.5 M 14.722431864335457 52 L 25.11473670974872 46 M 28.578838324886473 44 L 32.042939940024226 42 M 58.88972745734183 26.5 L 59.75575286112626 26 M 77.07626093681503 17 L 70.14805770653953 21 M 31.17691453623979 43.5 L 28.578838324886473 45 M 25.11473670974872 47 L 23.38268590217984 48 M 9.526279441628825 56 L 5.196152422706632 58.5 M 14.722431864335457 54 L 15.588457268119894 53.5 M 16.454482671904334 53 L 22.516660498395403 49.5 M 50.22947341949744 33.5 L 51.09549882328188 33 M 70.14805770653953 22 L 76.2102355330306 18.5 M 77.07626093681503 18 L 80.5403625519528 16 M 79.67433714816835 17.5 L 77.07626093681503 19 M 62.35382907247958 27.5 L 59.75575286112626 29 M 31.17691453623979 45.5 L 28.578838324886473 47 M 25.11473670974872 49 L 23.38268590217984 50 M 4.330127018922193 62 L 8.660254037844386 59.5 M 23.38268590217984 51 L 25.11473670974872 50 M 26.846787517317598 49 L 31.17691453623979 46.5 M 32.042939940024226 46 L 37.23909236273086 43 M 38.1051177665153 42.5 L 51.09549882328188 35 M 51.96152422706631 34.5 L 54.55960043841963 33 M 59.75575286112626 30 L 61.48780366869514 29 M 63.21985447626402 28 L 64.08587988004845 27.5 M 65.81793068761733 26.5 L 66.68395609140177 26 M 80.5403625519528 19 L 70.14805770653953 25 M 51.96152422706631 35.5 L 49.363448015713 37 M 38.1051177665153 43.5 L 35.50704155516198 45 M 15.588457268119894 56.5 L 14.722431864335457 57 M 9.526279441628825 60 L 5.196152422706632 62.5 M 14.722431864335457 58 L 15.588457268119894 57.5 M 23.38268590217984 53 L 25.11473670974872 52 M 28.578838324886473 50 L 31.17691453623979 48.5 M 59.75575286112626 32 L 61.48780366869514 31 M 62.35382907247958 30.5 L 63.21985447626402 30 M 81.40638795573723 19.5 L 83.13843876330611 18.5 M 62.35382907247958 31.5 L 59.75575286112626 33 M 22.516660498395403 54.5 L 17.32050807568877 57.5 M 11.258330249197702 61 L 6.928203230275509 63.5 M 7.794228634059947 64 L 10.392304845413264 62.5 M 11.258330249197702 62 L 12.12435565298214 61.5 M 18.186533479473212 58 L 26.846787517317598 53 M 28.578838324886473 52 L 31.17691453623979 50.5 M 38.1051177665153 46.5 L 40.703193977868615 45 M 51.96152422706631 38.5 L 54.55960043841963 37 M 70.14805770653953 28 L 73.61215932167728 26 M 76.2102355330306 25.5 L 73.61215932167728 27 M 62.35382907247958 33.5 L 59.75575286112626 35 M 58.88972745734183 35.5 L 56.29165124598851 37 M 52.827549630850754 39 L 42.43524478543749 45 M 38.97114317029974 47 L 32.042939940024226 51 M 31.17691453623979 51.5 L 28.578838324886473 53 M 25.11473670974872 55 L 19.05255888325765 58.5 M 11.258330249197702 63 L 9.526279441628825 64 M 11.258330249197702 64 L 12.12435565298214 63.5 M 14.722431864335457 62 L 15.588457268119894 61.5 M 19.918584287042087 59 L 25.11473670974872 56 M 28.578838324886473 54 L 38.97114317029974 48 M 42.43524478543749 46 L 52.827549630850754 40 M 56.29165124598851 38 L 63.21985447626402 34 M 71.01408311032397 30.5 L 70.14805770653953 31 M 68.41600689897065 32 L 64.9519052838329 34 M 15.588457268119894 62.5 L 14.722431864335457 63 M 15.588457268119894 63.5 L 16.454482671904334 63 M 17.32050807568877 62.5 L 18.186533479473212 62 M 19.05255888325765 61.5 L 19.918584287042087 61 M 89.20061658979718 22 L 87.4685657822283 23 M 73.61215932167728 31 L 71.8801085141084 32 M 61.48780366869514 38 L 59.75575286112626 39 M 20.784609690826528 61.5 L 19.918584287042087 62 M 26.846787517317598 59 L 37.23909236273086 53 M 40.703193977868615 51 L 51.09549882328188 45 M 72.74613391789285 32.5 L 74.47818472546172 31.5 M 71.8801085141084 34 L 68.41600689897065 36 M 51.09549882328188 46 L 41.569219381653056 51.5 M 38.1051177665153 53.5 L 27.712812921102035 59.5 M 24.24871130596428 61.5 L 22.516660498395403 62.5 M 15.588457268119894 67.5 L 16.454482671904334 67 M 17.32050807568877 66.5 L 18.186533479473212 66 M 19.05255888325765 65.5 L 19.918584287042087 65 M 23.38268590217984 63 L 25.11473670974872 62 M 30.31088913245535 59 L 38.1051177665153 54.5 M 41.569219381653056 52.5 L 42.43524478543749 52 M 51.96152422706631 46.5 L 52.827549630850754 46 M 73.61215932167728 34 L 74.47818472546172 33.5 M 76.2102355330306 32.5 L 77.07626093681503 32 M 90.93266739736605 25 L 84.00446416709055 29 M 43.30127018922193 52.5 L 42.43524478543749 53 M 38.97114317029974 55 L 31.17691453623979 59.5 M 6.928203230275509 73.5 L 5.196152422706632 74.5 M 32.042939940024226 60 L 38.97114317029974 56 M 84.00446416709055 30 L 90.06664199358161 26.5 M 62.35382907247958 43.5 L 56.29165124598851 47 M 25.11473670974872 65 L 19.918584287042087 68 M 13.856406460551018 71.5 L 12.990381056766578 72 M 4.330127018922193 78 L 10.392304845413264 74.5 M 19.05255888325765 69.5 L 21.650635094610966 68 M 22.516660498395403 67.5 L 25.11473670974872 66 M 56.29165124598851 48 L 58.88972745734183 46.5 M 59.75575286112626 46 L 62.35382907247958 44.5 M 63.21985447626402 44 L 64.9519052838329 43 M 68.41600689897065 41 L 71.8801085141084 39 M 77.07626093681503 36 L 77.94228634059948 35.5 M 79.67433714816835 34.5 L 82.27241335952166 33 M 90.93266739736605 28 L 92.66471820493493 27 M 94.39676901250381 27 L 84.00446416709055 33 M 25.11473670974872 67 L 22.516660498395403 68.5 M 21.650635094610966 69 L 18.186533479473212 71 M 17.32050807568877 71.5 L 16.454482671904334 72 M 15.588457268119894 72.5 L 14.722431864335457 73 M 10.392304845413264 75.5 L 5.196152422706632 78.5 M 11.258330249197702 76 L 12.12435565298214 75.5 M 14.722431864335457 74 L 21.650635094610966 70 M 22.516660498395403 69.5 L 25.980762113533157 67.5 M 61.48780366869514 47 L 64.9519052838329 45 M 70.14805770653953 42 L 73.61215932167728 40 M 74.47818472546172 39.5 L 76.2102355330306 38.5 M 84.00446416709055 34 L 87.4685657822283 32 M 77.07626093681503 39 L 70.14805770653953 43 M 67.54998149518622 44.5 L 65.81793068761733 45.5 M 61.48780366869514 48 L 59.75575286112626 49 M 54.55960043841963 52 L 52.827549630850754 53 M 40.703193977868615 60 L 38.1051177665153 61.5 M 26.846787517317598 68 L 25.11473670974872 69 M 12.990381056766578 76 L 6.928203230275509 79.5 M 11.258330249197702 78 L 12.990381056766578 77 M 24.24871130596428 70.5 L 26.846787517317598 69 M 27.712812921102035 68.5 L 30.31088913245535 67 M 39.837168574084174 61.5 L 40.703193977868615 61 M 43.30127018922193 59.5 L 51.09549882328188 55 M 63.21985447626402 48 L 67.54998149518622 45.5 M 88.33459118601273 33.5 L 89.20061658979718 33 M 90.06664199358161 33.5 L 87.4685657822283 35 M 53.693575034635195 54.5 L 52.827549630850754 55 M 51.96152422706631 55.5 L 43.30127018922193 60.5 M 39.837168574084174 62.5 L 38.1051177665153 63.5 M 31.17691453623979 67.5 L 28.578838324886473 69 M 26.846787517317598 70 L 24.24871130596428 71.5 M 12.990381056766578 78 L 12.12435565298214 78.5 M 7.794228634059947 81 L 5.196152422706632 82.5 M 24.24871130596428 72.5 L 25.980762113533157 71.5 M 28.578838324886473 70 L 31.17691453623979 68.5 M 43.30127018922193 61.5 L 52.827549630850754 56 M 64.9519052838329 49 L 77.07626093681503 42 M 72.74613391789285 45.5 L 65.81793068761733 49.5 M 54.55960043841963 56 L 51.96152422706631 57.5 M 48.49742261192856 59.5 L 43.30127018922193 62.5 M 41.569219381653056 63.5 L 32.042939940024226 69 M 30.31088913245535 70 L 27.712812921102035 71.5 M 24.24871130596428 73.5 L 22.516660498395403 74.5 M 20.784609690826528 75.5 L 13.856406460551018 79.5 M 21.650635094610966 76 L 22.516660498395403 75.5 M 31.17691453623979 70.5 L 32.042939940024226 70 M 42.43524478543749 64 L 43.30127018922193 63.5 M 58.88972745734183 54.5 L 59.75575286112626 54 M 87.4685657822283 38 L 89.20061658979718 37 M 93.53074360871936 35.5 L 90.93266739736605 37 M 90.06664199358161 37.5 L 89.20061658979718 38 M 74.47818472546172 46.5 L 67.54998149518622 50.5 M 22.516660498395403 76.5 L 21.650635094610966 77 M 11.258330249197702 84 L 12.12435565298214 83.5 M 16.454482671904334 81 L 19.918584287042087 79 M 20.784609690826528 78.5 L 23.38268590217984 77 M 26.846787517317598 75 L 29.444863728670914 73.5 M 30.31088913245535 73 L 37.23909236273086 69 M 40.703193977868615 67 L 41.569219381653056 66.5 M 68.41600689897065 51 L 75.34421012924616 47 M 38.1051177665153 69.5 L 31.17691453623979 73.5 M 30.31088913245535 74 L 27.712812921102035 75.5 M 25.980762113533157 76.5 L 21.650635094610966 79 M 20.784609690826528 79.5 L 13.856406460551018 83.5 M 21.650635094610966 80 L 22.516660498395403 79.5 M 31.17691453623979 74.5 L 32.042939940024226 74 M 38.1051177665153 70.5 L 40.703193977868615 69 M 42.43524478543749 68 L 48.49742261192856 64.5 M 58.88972745734183 58.5 L 59.75575286112626 58 M 77.07626093681503 48 L 77.94228634059948 47.5 M 87.4685657822283 42 L 88.33459118601273 41.5 M 90.93266739736605 40 L 95.26279441628824 37.5 M 104.78907385791707 33 L 97.86087062764156 37 M 54.55960043841963 62 L 51.96152422706631 63.5 M 50.22947341949744 64.5 L 49.363448015713 65 M 59.75575286112626 60 L 62.35382907247958 58.5 M 89.20061658979718 43 L 90.06664199358161 42.5 M 97.86087062764156 38 L 103.92304845413263 34.5 M 67.54998149518622 56.5 L 65.81793068761733 57.5 M 62.35382907247958 59.5 L 59.75575286112626 61 M 27.712812921102035 80.5 L 30.31088913245535 79 M 45.89934640057525 70 L 46.76537180435968 69.5 M 49.363448015713 68 L 50.22947341949744 67.5 M 63.21985447626402 60 L 65.81793068761733 58.5 M 80.5403625519528 50 L 81.40638795573723 49.5 M 87.4685657822283 46 L 93.53074360871936 42.5 M 54.55960043841963 66 L 51.09549882328188 68 M 49.363448015713 69 L 47.63139720814412 70 M 45.89934640057525 71 L 43.30127018922193 72.5 M 40.703193977868615 74 L 38.1051177665153 75.5 M 31.17691453623979 79.5 L 28.578838324886473 81 M 27.712812921102035 81.5 L 24.24871130596428 83.5 M 12.12435565298214 90.5 L 11.258330249197702 91 M 21.650635094610966 86 L 22.516660498395403 85.5 M 28.578838324886473 82 L 31.17691453623979 80.5 M 32.042939940024226 80 L 38.1051177665153 76.5 M 43.30127018922193 73.5 L 45.89934640057525 72 M 48.49742261192856 70.5 L 49.363448015713 70 M 51.96152422706631 68.5 L 52.827549630850754 68 M 56.29165124598851 66 L 58.88972745734183 64.5 M 59.75575286112626 64 L 65.81793068761733 60.5 M 84.00446416709055 50 L 87.4685657822283 48 M 96.12881982007268 43 L 102.19099764656376 39.5 M 88.33459118601273 48.5 L 84.00446416709055 51 M 75.34421012924616 56 L 62.35382907247958 63.5 M 59.75575286112626 65 L 52.827549630850754 69 M 38.97114317029974 77 L 32.042939940024226 81 M 31.17691453623979 82.5 L 38.97114317029974 78 M 42.43524478543749 76 L 43.30127018922193 75.5 M 53.693575034635195 69.5 L 59.75575286112626 66 M 63.21985447626402 64 L 70.14805770653953 60 M 51.96152422706631 72.5 L 54.55960043841963 71 M 86.60254037844386 52.5 L 88.33459118601273 51.5 M 96.12881982007268 47 L 102.19099764656376 43.5 M 61.48780366869514 68 L 59.75575286112626 69 M 24.24871130596428 89.5 L 13.856406460551018 95.5 M 59.75575286112626 70 L 61.48780366869514 69 M 77.07626093681503 60 L 77.94228634059948 59.5 M 79.67433714816835 58.5 L 80.5403625519528 58 M 89.20061658979718 53 L 91.7986928011505 51.5 M 103.92304845413263 44.5 L 104.78907385791707 44 M 104.78907385791707 45 L 103.92304845413263 45.5 M 103.05702305034819 46 L 102.19099764656376 46.5 M 59.75575286112626 71 L 58.023702053557386 72 M 42.43524478543749 81 L 32.042939940024226 87 M 28.578838324886473 89 L 18.186533479473212 95 M 96.12881982007268 51 L 102.19099764656376 47.5 M 106.52112466548594 46 L 105.65509926170151 46.5 M 56.29165124598851 76 L 60.6217782649107 73.5 M 63.21985447626402 72 L 70.14805770653953 68 M 77.07626093681503 64 L 77.94228634059948 63.5 M 79.67433714816835 62.5 L 80.5403625519528 62 M 103.92304845413263 48.5 L 104.78907385791707 48 M 105.65509926170151 47.5 L 108.25317547305482 46 M 59.75575286112626 75 L 57.157676649772945 76.5 M 89.20061658979718 59 L 91.7986928011505 57.5 M 59.75575286112626 78 L 60.6217782649107 77.5 M 63.21985447626402 76 L 64.08587988004845 75.5 M 80.5403625519528 66 L 81.40638795573723 65.5 M 83.13843876330611 64.5 L 84.00446416709055 64 M 94.39676901250381 58 L 95.26279441628824 57.5 M 96.12881982007268 57 L 102.19099764656376 53.5 M 66.68395609140177 75 L 64.9519052838329 76 M 63.21985447626402 77 L 61.48780366869514 78 M 59.75575286112626 79 L 57.157676649772945 80.5 M 57.157676649772945 81.5 L 59.75575286112626 80 M 62.35382907247958 78.5 L 63.21985447626402 78 M 65.81793068761733 76.5 L 66.68395609140177 76 M 77.94228634059948 69.5 L 79.67433714816835 68.5 M 91.7986928011505 61.5 L 92.66471820493493 61 M 97.86087062764156 58 L 103.92304845413263 54.5 M 104.78907385791707 54 L 105.65509926170151 53.5 M 104.78907385791707 55 L 97.86087062764156 59 M 92.66471820493493 62 L 91.7986928011505 62.5 M 78.80831174438391 70 L 77.94228634059948 70.5 M 56.29165124598851 84 L 57.157676649772945 83.5 M 68.41600689897065 77 L 69.28203230275508 76.5 M 70.14805770653953 76 L 77.07626093681503 72 M 77.07626093681503 73 L 68.41600689897065 78 M 52.827549630850754 87 L 42.43524478543749 93 M 38.97114317029974 95 L 28.578838324886473 101 M 29.444863728670914 101.5 L 31.17691453623979 100.5 M 32.042939940024226 100 L 38.97114317029974 96 M 42.43524478543749 94 L 52.827549630850754 88 M 71.01408311032397 77.5 L 77.07626093681503 74 M 86.60254037844386 68.5 L 88.33459118601273 67.5 M 89.20061658979718 68 L 87.4685657822283 69 M 28.578838324886473 104 L 29.444863728670914 103.5 M 31.17691453623979 102.5 L 32.042939940024226 102 M 72.74613391789285 78.5 L 80.5403625519528 74 M 90.93266739736605 68 L 93.53074360871936 66.5 M 102.19099764656376 61.5 L 103.92304845413263 60.5 M 104.78907385791707 60 L 108.25317547305482 58 M 105.65509926170151 60.5 L 103.05702305034819 62 M 56.29165124598851 89 L 45.89934640057525 95 M 42.43524478543749 97 L 32.042939940024226 103 M 71.01408311032397 81.5 L 71.8801085141084 81 M 90.06664199358161 70.5 L 91.7986928011505 69.5 M 70.14805770653953 83 L 69.28203230275508 83.5 M 72.74613391789285 82.5 L 74.47818472546172 81.5 M 90.93266739736605 72 L 94.39676901250381 70 M 104.78907385791707 64 L 105.65509926170151 63.5 M 45.89934640057525 102 L 56.29165124598851 96 M 59.75575286112626 94 L 70.14805770653953 88 M 76.2102355330306 84.5 L 77.94228634059948 83.5 M 94.39676901250381 74 L 95.26279441628824 73.5 M 96.99484522385713 72.5 L 97.86087062764156 72 M 80.5403625519528 83 L 78.80831174438391 84 M 76.2102355330306 85.5 L 74.47818472546172 86.5 M 72.74613391789285 87.5 L 71.01408311032397 88.5 M 71.8801085141084 89 L 76.2102355330306 86.5 M 79.67433714816835 84.5 L 80.5403625519528 84 M 84.00446416709055 84 L 90.93266739736605 80 M 85.73651497465941 84 L 82.27241335952166 86 M 45.89934640057525 107 L 42.43524478543749 109 M 43.30127018922193 109.5 L 45.033320996790806 108.5 M 87.4685657822283 84 L 90.93266739736605 82 M 91.7986928011505 81.5 L 92.66471820493493 81 M 82.27241335952166 88 L 79.67433714816835 89.5 M 42.43524478543749 112 L 43.30127018922193 111.5 M 45.033320996790806 110.5 L 45.89934640057525 110 M 80.5403625519528 90 L 83.13843876330611 88.5 M 85.73651497465941 87 L 94.39676901250381 82 M 102.19099764656376 77.5 L 103.92304845413263 76.5 M 104.78907385791707 76 L 105.65509926170151 75.5 M 105.65509926170151 76.5 L 103.05702305034819 78 M 84.87048957087498 88.5 L 84.00446416709055 89 M 80.5403625519528 92 L 85.73651497465941 89 M 67.54998149518622 100.5 L 65.81793068761733 101.5 M 56.29165124598851 108 L 66.68395609140177 102 M 70.14805770653953 100 L 80.5403625519528 94 M 84.00446416709055 92 L 88.33459118601273 89.5 M 104.78907385791707 80 L 105.65509926170151 79.5 M 87.4685657822283 91 L 84.00446416709055 93 M 78.80831174438391 96 L 70.14805770653953 101 M 66.68395609140177 103 L 64.08587988004845 104.5 M 64.08587988004845 105.5 L 65.81793068761733 104.5 M 69.28203230275508 102.5 L 77.94228634059948 97.5 M 78.80831174438391 98 L 70.14805770653953 103 M 66.68395609140177 105 L 64.08587988004845 106.5 M 52.827549630850754 113 L 51.96152422706631 113.5 M 64.08587988004845 107.5 L 66.68395609140177 106 M 70.14805770653953 104 L 79.67433714816835 98.5 M 80.5403625519528 98 L 82.27241335952166 97 M 54.55960043841963 116 L 51.96152422706631 117.5 M 80.5403625519528 102 L 81.40638795573723 101.5 M 83.13843876330611 100.5 L 86.60254037844386 98.5 M 88.33459118601273 97.5 L 94.39676901250381 94 M 97.86087062764156 92 L 104.78907385791707 88 M 105.65509926170151 88.5 L 100.45894683899488 91.5 M 99.59292143521044 92 L 97.86087062764156 93 M 94.39676901250381 95 L 87.4685657822283 99 M 78.80831174438391 104 L 69.28203230275508 109.5 M 65.81793068761733 111.5 L 56.29165124598851 117 M 57.157676649772945 117.5 L 64.9519052838329 113 M 68.41600689897065 111 L 77.94228634059948 105.5 M 82.27241335952166 103 L 92.66471820493493 97 M 79.67433714816835 106.5 L 80.5403625519528 106 M 99.59292143521044 95 L 100.45894683899488 94.5 M 80.5403625519528 16 L 70.14805770653953 10 M 66.68395609140177 8 L 57.157676649772945 2.5 M 83.13843876330611 18.5 L 89.20061658979718 22 M 66.68395609140177 11 L 77.07626093681503 17 M 80.5403625519528 19 L 90.93266739736605 25 M 94.39676901250381 27 L 104.78907385791707 33 M 93.53074360871936 27.5 L 92.66471820493493 27 M 77.94228634059948 20.5 L 77.07626093681503 20 M 64.08587988004845 12.5 L 62.35382907247958 11.5 M 72.74613391789285 20.5 L 75.34421012924616 22 M 88.33459118601273 30.5 L 85.73651497465941 29 M 74.47818472546172 22.5 L 71.8801085141084 21 M 59.75575286112626 15 L 70.14805770653953 21 M 73.61215932167728 23 L 84.00446416709055 29 M 87.4685657822283 31 L 97.86087062764156 37 M 98.726896031426 37.5 L 102.19099764656376 39.5 M 97.86087062764156 38 L 87.4685657822283 32 M 84.00446416709055 30 L 73.61215932167728 24 M 70.14805770653953 22 L 59.75575286112626 16 M 56.29165124598851 14 L 46.76537180435968 8.5 M 47.63139720814412 10 L 57.157676649772945 15.5 M 108.25317547305482 46 L 104.78907385791707 44 M 48.49742261192856 12.5 L 50.22947341949744 13.5 M 59.75575286112626 19 L 70.14805770653953 25 M 73.61215932167728 27 L 84.00446416709055 33 M 87.4685657822283 35 L 90.93266739736605 37 M 102.19099764656376 43.5 L 103.92304845413263 44.5 M 104.78907385791707 45 L 106.52112466548594 46 M 105.65509926170151 46.5 L 103.92304845413263 45.5 M 90.06664199358161 37.5 L 87.4685657822283 36 M 84.00446416709055 34 L 80.5403625519528 32 M 56.29165124598851 18 L 43.30127018922193 10.5 M 88.33459118601273 37.5 L 89.20061658979718 38 M 103.05702305034819 46 L 105.65509926170151 47.5 M 104.78907385791707 48 L 102.19099764656376 46.5 M 96.12881982007268 43 L 90.93266739736605 40 M 88.33459118601273 38.5 L 59.75575286112626 22 M 51.96152422706631 18.5 L 58.88972745734183 22.5 M 65.81793068761733 26.5 L 73.61215932167728 31 M 74.47818472546172 31.5 L 76.2102355330306 32.5 M 79.67433714816835 34.5 L 88.33459118601273 39.5 M 90.93266739736605 41 L 95.26279441628824 43.5 M 102.19099764656376 47.5 L 103.92304845413263 48.5 M 72.74613391789285 31.5 L 71.01408311032397 30.5 M 64.08587988004845 27.5 L 71.8801085141084 32 M 72.74613391789285 32.5 L 74.47818472546172 33.5 M 77.94228634059948 35.5 L 88.33459118601273 41.5 M 96.12881982007268 47 L 95.26279441628824 46.5 M 90.93266739736605 44 L 90.06664199358161 43.5 M 89.20061658979718 43 L 88.33459118601273 42.5 M 87.4685657822283 42 L 77.07626093681503 36 M 73.61215932167728 34 L 63.21985447626402 28 M 62.35382907247958 27.5 L 57.157676649772945 24.5 M 56.29165124598851 24 L 54.55960043841963 23 M 41.569219381653056 16.5 L 45.89934640057525 19 M 54.55960043841963 24 L 58.88972745734183 26.5 M 68.41600689897065 32 L 71.8801085141084 34 M 104.78907385791707 53 L 105.65509926170151 53.5 M 63.21985447626402 30 L 62.35382907247958 29.5 M 74.47818472546172 37.5 L 76.2102355330306 38.5 M 102.19099764656376 53.5 L 103.92304845413263 54.5 M 96.12881982007268 51 L 87.4685657822283 46 M 61.48780366869514 31 L 59.75575286112626 30 M 51.96152422706631 25.5 L 51.09549882328188 25 M 38.1051177665153 18.5 L 42.43524478543749 21 M 46.76537180435968 23.5 L 48.49742261192856 24.5 M 64.9519052838329 34 L 68.41600689897065 36 M 87.4685657822283 47 L 88.33459118601273 47.5 M 89.20061658979718 48 L 94.39676901250381 51 M 87.4685657822283 48 L 77.07626093681503 42 M 73.61215932167728 40 L 71.8801085141084 39 M 67.54998149518622 36.5 L 65.81793068761733 35.5 M 64.9519052838329 35 L 63.21985447626402 34 M 62.35382907247958 33.5 L 60.6217782649107 32.5 M 45.033320996790806 23.5 L 38.97114317029974 20 M 38.1051177665153 19.5 L 32.90896534380867 16.5 M 32.042939940024226 17 L 32.90896534380867 17.5 M 105.65509926170151 60.5 L 100.45894683899488 57.5 M 88.33459118601273 50.5 L 86.60254037844386 49.5 M 48.49742261192856 27.5 L 46.76537180435968 26.5 M 38.1051177665153 21.5 L 32.90896534380867 18.5 M 32.90896534380867 19.5 L 42.43524478543749 25 M 45.89934640057525 27 L 46.76537180435968 27.5 M 85.73651497465941 50 L 88.33459118601273 51.5 M 99.59292143521044 58 L 103.92304845413263 60.5 M 97.86087062764156 58 L 96.12881982007268 57 M 94.39676901250381 56 L 89.20061658979718 53 M 88.33459118601273 52.5 L 87.4685657822283 52 M 84.00446416709055 50 L 73.61215932167728 44 M 70.14805770653953 42 L 68.41600689897065 41 M 64.9519052838329 39 L 59.75575286112626 36 M 58.88972745734183 35.5 L 54.55960043841963 33 M 51.09549882328188 31 L 50.22947341949744 30.5 M 42.43524478543749 26 L 38.97114317029974 24 M 33.77499074759311 21 L 29.444863728670914 18.5 M 50.22947341949744 31.5 L 51.09549882328188 32 M 58.88972745734183 36.5 L 62.35382907247958 38.5 M 63.21985447626402 39 L 64.9519052838329 40 M 68.41600689897065 42 L 70.14805770653953 43 M 72.74613391789285 44.5 L 86.60254037844386 52.5 M 87.4685657822283 53 L 88.33459118601273 53.5 M 89.20061658979718 54 L 102.19099764656376 61.5 M 103.05702305034819 62 L 105.65509926170151 63.5 M 104.78907385791707 64 L 94.39676901250381 58 M 88.33459118601273 54.5 L 80.5403625519528 50 M 77.07626093681503 48 L 75.34421012924616 47 M 74.47818472546172 46.5 L 72.74613391789285 45.5 M 42.43524478543749 28 L 37.23909236273086 25 M 29.444863728670914 21.5 L 31.17691453623979 22.5 M 38.1051177665153 26.5 L 42.43524478543749 29 M 50.22947341949744 33.5 L 51.09549882328188 34 M 51.96152422706631 34.5 L 56.29165124598851 37 M 59.75575286112626 39 L 62.35382907247958 40.5 M 61.48780366869514 41 L 48.49742261192856 33.5 M 38.97114317029974 28 L 35.50704155516198 26 M 38.97114317029974 29 L 41.569219381653056 30.5 M 89.20061658979718 59 L 88.33459118601273 58.5 M 68.41600689897065 47 L 67.54998149518622 46.5 M 65.81793068761733 45.5 L 64.9519052838329 45 M 63.21985447626402 44 L 61.48780366869514 43 M 40.703193977868615 31 L 38.1051177665153 29.5 M 48.49742261192856 36.5 L 52.827549630850754 39 M 91.7986928011505 61.5 L 92.66471820493493 62 M 68.41600689897065 51 L 67.54998149518622 50.5 M 65.81793068761733 49.5 L 64.9519052838329 49 M 63.21985447626402 48 L 61.48780366869514 47 M 38.1051177665153 33.5 L 37.23909236273086 33 M 23.38268590217984 25 L 20.784609690826528 23.5 M 20.784609690826528 24.5 L 28.578838324886473 29 M 29.444863728670914 29.5 L 34.64101615137754 32.5 M 77.94228634059948 57.5 L 79.67433714816835 58.5 M 28.578838324886473 30 L 23.38268590217984 27 M 18.186533479473212 25 L 22.516660498395403 27.5 M 48.49742261192856 42.5 L 56.29165124598851 47 M 59.75575286112626 49 L 61.48780366869514 50 M 105.65509926170151 76.5 L 72.74613391789285 57.5 M 62.35382907247958 51.5 L 59.75575286112626 50 M 56.29165124598851 48 L 47.63139720814412 43 M 34.64101615137754 35.5 L 33.77499074759311 35 M 22.516660498395403 28.5 L 19.05255888325765 26.5 M 19.05255888325765 27.5 L 25.11473670974872 31 M 25.980762113533157 31.5 L 31.17691453623979 34.5 M 51.09549882328188 46 L 51.96152422706631 46.5 M 59.75575286112626 51 L 62.35382907247958 52.5 M 71.8801085141084 58 L 79.67433714816835 62.5 M 83.13843876330611 64.5 L 88.33459118601273 67.5 M 89.20061658979718 68 L 91.7986928011505 69.5 M 96.99484522385713 72.5 L 103.92304845413263 76.5 M 14.722431864335457 27 L 17.32050807568877 28.5 M 45.033320996790806 44.5 L 48.49742261192856 46.5 M 70.14805770653953 59 L 77.94228634059948 63.5 M 81.40638795573723 65.5 L 86.60254037844386 68.5 M 87.4685657822283 69 L 90.06664199358161 70.5 M 95.26279441628824 73.5 L 102.19099764656376 77.5 M 103.05702305034819 78 L 105.65509926170151 79.5 M 104.78907385791707 80 L 94.39676901250381 74 M 90.93266739736605 72 L 80.5403625519528 66 M 77.07626093681503 64 L 70.14805770653953 60 M 67.54998149518622 58.5 L 65.81793068761733 57.5 M 62.35382907247958 55.5 L 59.75575286112626 54 M 25.980762113533157 35.5 L 31.17691453623979 38.5 M 34.64101615137754 40.5 L 37.23909236273086 42 M 38.1051177665153 42.5 L 42.43524478543749 45 M 54.55960043841963 52 L 62.35382907247958 56.5 M 64.9519052838329 58 L 68.41600689897065 60 M 42.43524478543749 46 L 34.64101615137754 41.5 M 24.24871130596428 36.5 L 25.980762113533157 37.5 M 52.827549630850754 53 L 62.35382907247958 58.5 M 65.81793068761733 60.5 L 66.68395609140177 61 M 77.94228634059948 67.5 L 79.67433714816835 68.5 M 63.21985447626402 60 L 62.35382907247958 59.5 M 59.75575286112626 58 L 53.693575034635195 54.5 M 32.042939940024226 42 L 27.712812921102035 39.5 M 23.38268590217984 37 L 21.650635094610966 36 M 34.64101615137754 44.5 L 38.97114317029974 47 M 54.55960043841963 56 L 58.88972745734183 58.5 M 51.96152422706631 55.5 L 51.09549882328188 55 M 10.392304845413264 32.5 L 16.454482671904334 36 M 104.78907385791707 88 L 94.39676901250381 82 M 90.93266739736605 80 L 80.5403625519528 74 M 77.07626093681503 72 L 70.14805770653953 68 M 63.21985447626402 64 L 62.35382907247958 63.5 M 61.48780366869514 63 L 59.75575286112626 62 M 51.96152422706631 57.5 L 51.09549882328188 57 M 43.30127018922193 52.5 L 42.43524478543749 52 M 41.569219381653056 51.5 L 40.703193977868615 51 M 31.17691453623979 45.5 L 29.444863728670914 44.5 M 28.578838324886473 44 L 19.918584287042087 39 M 10.392304845413264 34.5 L 16.454482671904334 38 M 23.38268590217984 42 L 28.578838324886473 45 M 41.569219381653056 52.5 L 42.43524478543749 53 M 92.66471820493493 83 L 91.7986928011505 82.5 M 78.80831174438391 75 L 77.94228634059948 74.5 M 77.07626093681503 74 L 76.2102355330306 73.5 M 62.35382907247958 65.5 L 59.75575286112626 64 M 50.22947341949744 58.5 L 49.363448015713 58 M 21.650635094610966 42 L 18.186533479473212 40 M 4.330127018922193 33 L 14.722431864335457 39 M 20.784609690826528 42.5 L 21.650635094610966 43 M 23.38268590217984 44 L 28.578838324886473 47 M 29.444863728670914 47.5 L 31.17691453623979 48.5 M 34.64101615137754 50.5 L 40.703193977868615 54 M 48.49742261192856 58.5 L 50.22947341949744 59.5 M 54.55960043841963 62 L 58.88972745734183 64.5 M 59.75575286112626 65 L 62.35382907247958 66.5 M 90.93266739736605 84 L 89.20061658979718 83 M 59.75575286112626 66 L 58.88972745734183 65.5 M 48.49742261192856 59.5 L 47.63139720814412 59 M 40.703193977868615 55 L 33.77499074759311 51 M 28.578838324886473 48 L 26.846787517317598 47 M 25.980762113533157 46.5 L 17.32050807568877 41.5 M 38.1051177665153 54.5 L 38.97114317029974 55 M 56.29165124598851 66 L 51.96152422706631 63.5 M 31.17691453623979 51.5 L 30.31088913245535 51 M 28.578838324886473 50 L 26.846787517317598 49 M 23.38268590217984 48 L 25.980762113533157 49.5 M 31.17691453623979 52.5 L 34.64101615137754 54.5 M 51.09549882328188 64 L 54.55960043841963 66 M 55.42562584220407 66.5 L 56.29165124598851 67 M 97.86087062764156 92 L 87.4685657822283 86 M 84.00446416709055 84 L 73.61215932167728 78 M 70.14805770653953 76 L 63.21985447626402 72 M 28.578838324886473 52 L 25.11473670974872 50 M 24.24871130596428 50.5 L 28.578838324886473 53 M 48.49742261192856 64.5 L 52.827549630850754 67 M 59.75575286112626 71 L 67.54998149518622 75.5 M 68.41600689897065 76 L 81.40638795573723 83.5 M 82.27241335952166 84 L 84.00446416709055 85 M 87.4685657822283 87 L 97.86087062764156 93 M 99.59292143521044 95 L 89.20061658979718 89 M 85.73651497465941 87 L 83.13843876330611 85.5 M 81.40638795573723 84.5 L 80.5403625519528 84 M 69.28203230275508 77.5 L 68.41600689897065 77 M 67.54998149518622 76.5 L 66.68395609140177 76 M 28.578838324886473 54 L 23.38268590217984 51 M 16.454482671904334 47 L 15.588457268119894 46.5 M 39.837168574084174 61.5 L 40.703193977868615 62 M 50.22947341949744 67.5 L 52.827549630850754 69 M 53.693575034635195 69.5 L 60.6217782649107 73.5 M 64.08587988004845 75.5 L 74.47818472546172 81.5 M 77.94228634059948 83.5 L 88.33459118601273 89.5 M 94.39676901250381 94 L 88.33459118601273 90.5 M 85.73651497465941 89 L 84.87048957087498 88.5 M 71.8801085141084 81 L 63.21985447626402 76 M 54.55960043841963 71 L 49.363448015713 68 M 42.43524478543749 64 L 40.703193977868615 63 M 39.837168574084174 62.5 L 38.1051177665153 61.5 M 14.722431864335457 48 L 4.330127018922193 42 M 24.24871130596428 54.5 L 25.11473670974872 55 M 71.01408311032397 81.5 L 72.74613391789285 82.5 M 76.2102355330306 84.5 L 82.27241335952166 88 M 83.13843876330611 88.5 L 84.00446416709055 89 M 31.17691453623979 59.5 L 30.31088913245535 59 M 22.516660498395403 54.5 L 18.186533479473212 52 M 41.569219381653056 66.5 L 43.30127018922193 67.5 M 46.76537180435968 69.5 L 51.96152422706631 72.5 M 60.6217782649107 77.5 L 70.14805770653953 83 M 76.2102355330306 86.5 L 80.5403625519528 89 M 84.00446416709055 92 L 82.27241335952166 91 M 80.5403625519528 90 L 79.67433714816835 89.5 M 69.28203230275508 83.5 L 59.75575286112626 78 M 56.29165124598851 76 L 45.89934640057525 70 M 42.43524478543749 68 L 40.703193977868615 67 M 27.712812921102035 59.5 L 26.846787517317598 59 M 14.722431864335457 52 L 4.330127018922193 46 M 57.157676649772945 77.5 L 59.75575286112626 79 M 70.14805770653953 85 L 71.01408311032397 85.5 M 83.13843876330611 92.5 L 84.00446416709055 93 M 82.27241335952166 93 L 80.5403625519528 92 M 79.67433714816835 91.5 L 73.61215932167728 88 M 72.74613391789285 87.5 L 71.01408311032397 86.5 M 14.722431864335457 54 L 4.330127018922193 48 M 20.784609690826528 58.5 L 26.846787517317598 62 M 81.40638795573723 93.5 L 82.27241335952166 94 M 80.5403625519528 94 L 70.14805770653953 88 M 38.1051177665153 69.5 L 37.23909236273086 69 M 26.846787517317598 63 L 21.650635094610966 60 M 20.784609690826528 59.5 L 19.918584287042087 59 M 19.05255888325765 58.5 L 18.186533479473212 58 M 17.32050807568877 57.5 L 16.454482671904334 57 M 15.588457268119894 56.5 L 9.526279441628825 53 M 4.330127018922193 51 L 14.722431864335457 57 M 34.64101615137754 68.5 L 36.373066958946424 69.5 M 38.1051177665153 70.5 L 40.703193977868615 72 M 86.60254037844386 98.5 L 87.4685657822283 99 M 40.703193977868615 73 L 38.1051177665153 71.5 M 35.50704155516198 70 L 34.64101615137754 69.5 M 31.17691453623979 67.5 L 30.31088913245535 67 M 23.38268590217984 63 L 22.516660498395403 62.5 M 14.722431864335457 58 L 5.196152422706632 52.5 M 18.186533479473212 61 L 25.11473670974872 65 M 80.5403625519528 97 L 81.40638795573723 97.5 M 82.27241335952166 99 L 80.5403625519528 98 M 66.68395609140177 90 L 59.75575286112626 86 M 56.29165124598851 84 L 45.89934640057525 78 M 42.43524478543749 76 L 40.703193977868615 75 M 9.526279441628825 58 L 15.588457268119894 61.5 M 16.454482671904334 62 L 17.32050807568877 62.5 M 24.24871130596428 66.5 L 25.11473670974872 67 M 25.980762113533157 67.5 L 26.846787517317598 68 M 27.712812921102035 68.5 L 28.578838324886473 69 M 30.31088913245535 70 L 31.17691453623979 70.5 M 77.94228634059948 97.5 L 78.80831174438391 98 M 80.5403625519528 99 L 81.40638795573723 99.5 M 82.27241335952166 100 L 83.13843876330611 100.5 M 28.578838324886473 70 L 27.712812921102035 69.5 M 19.918584287042087 65 L 16.454482671904334 63 M 14.722431864335457 62 L 6.928203230275509 57.5 M 7.794228634059947 59 L 19.05255888325765 65.5 M 24.24871130596428 68.5 L 25.11473670974872 69 M 38.1051177665153 76.5 L 38.97114317029974 77 M 82.27241335952166 103 L 81.40638795573723 102.5 M 32.042939940024226 74 L 31.17691453623979 73.5 M 30.31088913245535 73 L 26.846787517317598 71 M 18.186533479473212 66 L 11.258330249197702 62 M 7.794228634059947 60 L 6.928203230275509 59.5 M 5.196152422706632 58.5 L 4.330127018922193 58 M 10.392304845413264 62.5 L 11.258330249197702 63 M 12.12435565298214 63.5 L 17.32050807568877 66.5 M 20.784609690826528 68.5 L 21.650635094610966 69 M 25.980762113533157 71.5 L 29.444863728670914 73.5 M 30.31088913245535 74 L 31.17691453623979 74.5 M 42.43524478543749 81 L 52.827549630850754 87 M 56.29165124598851 89 L 62.35382907247958 92.5 M 16.454482671904334 67 L 11.258330249197702 64 M 9.526279441628825 64 L 15.588457268119894 67.5 M 18.186533479473212 69 L 19.05255888325765 69.5 M 70.14805770653953 100 L 59.75575286112626 94 M 27.712812921102035 75.5 L 26.846787517317598 75 M 7.794228634059947 64 L 6.928203230275509 63.5 M 5.196152422706632 62.5 L 4.330127018922193 62 M 60.6217782649107 95.5 L 67.54998149518622 99.5 M 69.28203230275508 100.5 L 70.14805770653953 101 M 77.94228634059948 105.5 L 79.67433714816835 106.5 M 31.17691453623979 79.5 L 30.31088913245535 79 M 26.846787517317598 77 L 25.980762113533157 76.5 M 17.32050807568877 71.5 L 16.454482671904334 71 M 69.28203230275508 102.5 L 70.14805770653953 103 M 70.14805770653953 104 L 69.28203230275508 103.5 M 66.68395609140177 102 L 56.29165124598851 96 M 24.24871130596428 77.5 L 23.38268590217984 77 M 21.650635094610966 76 L 20.784609690826528 75.5 M 15.588457268119894 72.5 L 13.856406460551018 71.5 M 12.990381056766578 72 L 14.722431864335457 73 M 21.650635094610966 77 L 22.516660498395403 77.5 M 24.24871130596428 78.5 L 26.846787517317598 80 M 27.712812921102035 80.5 L 28.578838324886473 81 M 29.444863728670914 81.5 L 31.17691453623979 82.5 M 28.578838324886473 82 L 24.24871130596428 79.5 M 21.650635094610966 78 L 20.784609690826528 77.5 M 14.722431864335457 74 L 13.856406460551018 73.5 M 12.990381056766578 73 L 9.526279441628825 71 M 18.186533479473212 77 L 20.784609690826528 78.5 M 21.650635094610966 79 L 22.516660498395403 79.5 M 65.81793068761733 104.5 L 66.68395609140177 105 M 21.650635094610966 80 L 20.784609690826528 79.5 M 19.918584287042087 79 L 17.32050807568877 77.5 M 12.12435565298214 75.5 L 12.990381056766578 76 M 32.042939940024226 87 L 42.43524478543749 93 M 45.89934640057525 95 L 51.96152422706631 98.5 M 69.28203230275508 109.5 L 68.41600689897065 109 M 51.09549882328188 99 L 45.89934640057525 96 M 42.43524478543749 94 L 32.042939940024226 88 M 11.258330249197702 76 L 10.392304845413264 75.5 M 68.41600689897065 111 L 67.54998149518622 110.5 M 16.454482671904334 81 L 12.990381056766578 79 M 12.12435565298214 78.5 L 11.258330249197702 78 M 7.794228634059947 76 L 6.928203230275509 75.5 M 5.196152422706632 74.5 L 4.330127018922193 74 M 28.578838324886473 89 L 38.97114317029974 95 M 42.43524478543749 97 L 48.49742261192856 100.5 M 21.650635094610966 86 L 20.784609690826528 85.5 M 56.29165124598851 108 L 45.89934640057525 102 M 13.856406460551018 83.5 L 6.928203230275509 79.5 M 5.196152422706632 78.5 L 4.330127018922193 78 M 6.928203230275509 80.5 L 12.990381056766578 84 M 51.96152422706631 106.5 L 55.42562584220407 108.5 M 11.258330249197702 84 L 10.392304845413264 83.5 M 12.990381056766578 87 L 5.196152422706632 82.5 M 4.330127018922193 83 L 12.990381056766578 88 M 52.827549630850754 113 L 55.42562584220407 114.5 M 55.42562584220407 115.5 L 51.96152422706631 113.5 M 9.526279441628825 90 L 12.990381056766578 92 M 18.186533479473212 95 L 28.578838324886473 101 M 29.444863728670914 101.5 L 31.17691453623979 102.5 M 32.042939940024226 103 L 42.43524478543749 109 M 43.30127018922193 109.5 L 45.033320996790806 110.5 M 51.96152422706631 114.5 L 57.157676649772945 117.5 M 25.11473670974872 100 L 18.186533479473212 96 M 51.96152422706631 117.5 L 45.89934640057525 114 M 42.43524478543749 112 L 32.042939940024226 106 M 28.578838324886473 104 L 25.11473670974872 102 M 13.856406460551018 95.5 L 12.990381056766578 95 M 4.330127018922193 83 L 4.330127018922193 78 M 4.330127018922193 74 L 4.330127018922193 62 M 4.330127018922193 58 L 4.330127018922193 51 M 4.330127018922193 48 L 4.330127018922193 46 M 4.330127018922193 42 L 4.330127018922193 33 M 5.196152422706632 52.5 L 5.196152422706632 58.5 M 5.196152422706632 62.5 L 5.196152422706632 74.5 M 5.196152422706632 78.5 L 5.196152422706632 82.5 M 6.928203230275509 57.5 L 6.928203230275509 59.5 M 6.928203230275509 63.5 L 6.928203230275509 75.5 M 6.928203230275509 79.5 L 6.928203230275509 80.5 M 7.794228634059947 76 L 7.794228634059947 64 M 7.794228634059947 60 L 7.794228634059947 59 M 9.526279441628825 90 L 9.526279441628825 86 M 9.526279441628825 71 L 9.526279441628825 64 M 9.526279441628825 62 L 9.526279441628825 60 M 9.526279441628825 58 L 9.526279441628825 55 M 9.526279441628825 53 L 9.526279441628825 51 M 10.392304845413264 32.5 L 10.392304845413264 34.5 M 10.392304845413264 62.5 L 10.392304845413264 63.5 M 10.392304845413264 71.5 L 10.392304845413264 75.5 M 10.392304845413264 82.5 L 10.392304845413264 83.5 M 10.392304845413264 86.5 L 10.392304845413264 90.5 M 11.258330249197702 91 L 11.258330249197702 87 M 11.258330249197702 84 L 11.258330249197702 83 M 11.258330249197702 76 L 11.258330249197702 72 M 12.12435565298214 61.5 L 12.12435565298214 62.5 M 12.12435565298214 63.5 L 12.12435565298214 64.5 M 12.12435565298214 72.5 L 12.12435565298214 75.5 M 12.12435565298214 87.5 L 12.12435565298214 90.5 M 12.990381056766578 95 L 12.990381056766578 88 M 12.990381056766578 87 L 12.990381056766578 84 M 12.990381056766578 79 L 12.990381056766578 72 M 13.856406460551018 73.5 L 13.856406460551018 79.5 M 13.856406460551018 83.5 L 13.856406460551018 95.5 M 14.722431864335457 74 L 14.722431864335457 73 M 14.722431864335457 63 L 14.722431864335457 62 M 14.722431864335457 58 L 14.722431864335457 57 M 14.722431864335457 54 L 14.722431864335457 52 M 14.722431864335457 48 L 14.722431864335457 39 M 15.588457268119894 39.5 L 15.588457268119894 47.5 M 15.588457268119894 53.5 L 15.588457268119894 56.5 M 15.588457268119894 57.5 L 15.588457268119894 61.5 M 15.588457268119894 62.5 L 15.588457268119894 63.5 M 15.588457268119894 67.5 L 15.588457268119894 72.5 M 16.454482671904334 81 L 16.454482671904334 78 M 16.454482671904334 72 L 16.454482671904334 67 M 16.454482671904334 63 L 16.454482671904334 53 M 16.454482671904334 47 L 16.454482671904334 39 M 16.454482671904334 38 L 16.454482671904334 36 M 17.32050807568877 36.5 L 17.32050807568877 46.5 M 17.32050807568877 57.5 L 17.32050807568877 62.5 M 17.32050807568877 66.5 L 17.32050807568877 71.5 M 18.186533479473212 96 L 18.186533479473212 95 M 18.186533479473212 71 L 18.186533479473212 66 M 18.186533479473212 62 L 18.186533479473212 58 M 18.186533479473212 28 L 18.186533479473212 25 M 19.05255888325765 26.5 L 19.05255888325765 27.5 M 19.05255888325765 58.5 L 19.05255888325765 61.5 M 19.05255888325765 65.5 L 19.05255888325765 69.5 M 19.918584287042087 78 L 19.918584287042087 76 M 19.918584287042087 68 L 19.918584287042087 65 M 19.918584287042087 61 L 19.918584287042087 59 M 19.918584287042087 39 L 19.918584287042087 35 M 20.784609690826528 23.5 L 20.784609690826528 24.5 M 20.784609690826528 41.5 L 20.784609690826528 42.5 M 20.784609690826528 59.5 L 20.784609690826528 62.5 M 20.784609690826528 70.5 L 20.784609690826528 75.5 M 20.784609690826528 77.5 L 20.784609690826528 78.5 M 20.784609690826528 79.5 L 20.784609690826528 85.5 M 21.650635094610966 86 L 21.650635094610966 80 M 21.650635094610966 77 L 21.650635094610966 70 M 21.650635094610966 69 L 21.650635094610966 68 M 21.650635094610966 63 L 21.650635094610966 60 M 21.650635094610966 44 L 21.650635094610966 42 M 21.650635094610966 36 L 21.650635094610966 34 M 22.516660498395403 25.5 L 22.516660498395403 27.5 M 22.516660498395403 28.5 L 22.516660498395403 29.5 M 22.516660498395403 49.5 L 22.516660498395403 54.5 M 22.516660498395403 62.5 L 22.516660498395403 63.5 M 22.516660498395403 67.5 L 22.516660498395403 68.5 M 22.516660498395403 69.5 L 22.516660498395403 77.5 M 22.516660498395403 79.5 L 22.516660498395403 85.5 M 23.38268590217984 77 L 23.38268590217984 74 M 23.38268590217984 64 L 23.38268590217984 63 M 23.38268590217984 53 L 23.38268590217984 51 M 23.38268590217984 50 L 23.38268590217984 48 M 23.38268590217984 44 L 23.38268590217984 42 M 23.38268590217984 37 L 23.38268590217984 33 M 23.38268590217984 30 L 23.38268590217984 27 M 24.24871130596428 68.5 L 24.24871130596428 73.5 M 24.24871130596428 77.5 L 24.24871130596428 89.5 M 25.11473670974872 102 L 25.11473670974872 100 M 25.11473670974872 68 L 25.11473670974872 67 M 25.11473670974872 66 L 25.11473670974872 65 M 25.11473670974872 56 L 25.11473670974872 55 M 25.11473670974872 54 L 25.11473670974872 52 M 25.11473670974872 50 L 25.11473670974872 49 M 25.11473670974872 47 L 25.11473670974872 46 M 25.11473670974872 32 L 25.11473670974872 31 M 25.980762113533157 31.5 L 25.980762113533157 35.5 M 25.980762113533157 46.5 L 25.980762113533157 49.5 M 25.980762113533157 62.5 L 25.980762113533157 67.5 M 25.980762113533157 71.5 L 25.980762113533157 76.5 M 26.846787517317598 80 L 26.846787517317598 75 M 26.846787517317598 71 L 26.846787517317598 63 M 26.846787517317598 62 L 26.846787517317598 59 M 26.846787517317598 49 L 26.846787517317598 47 M 27.712812921102035 59.5 L 27.712812921102035 68.5 M 27.712812921102035 69.5 L 27.712812921102035 71.5 M 27.712812921102035 75.5 L 27.712812921102035 80.5 M 28.578838324886473 104 L 28.578838324886473 101 M 28.578838324886473 82 L 28.578838324886473 81 M 28.578838324886473 70 L 28.578838324886473 69 M 28.578838324886473 54 L 28.578838324886473 53 M 28.578838324886473 52 L 28.578838324886473 50 M 28.578838324886473 48 L 28.578838324886473 47 M 28.578838324886473 45 L 28.578838324886473 44 M 28.578838324886473 30 L 28.578838324886473 29 M 29.444863728670914 101.5 L 29.444863728670914 103.5 M 30.31088913245535 79 L 30.31088913245535 74 M 30.31088913245535 70 L 30.31088913245535 69 M 30.31088913245535 67 L 30.31088913245535 59 M 31.17691453623979 34.5 L 31.17691453623979 38.5 M 31.17691453623979 43.5 L 31.17691453623979 45.5 M 31.17691453623979 46.5 L 31.17691453623979 48.5 M 31.17691453623979 50.5 L 31.17691453623979 51.5 M 31.17691453623979 59.5 L 31.17691453623979 67.5 M 31.17691453623979 68.5 L 31.17691453623979 70.5 M 31.17691453623979 74.5 L 31.17691453623979 79.5 M 31.17691453623979 80.5 L 31.17691453623979 82.5 M 31.17691453623979 100.5 L 31.17691453623979 102.5 M 32.042939940024226 106 L 32.042939940024226 103 M 32.042939940024226 102 L 32.042939940024226 100 M 32.042939940024226 88 L 32.042939940024226 87 M 32.042939940024226 81 L 32.042939940024226 74 M 32.042939940024226 70 L 32.042939940024226 60 M 32.042939940024226 53 L 32.042939940024226 52 M 32.042939940024226 51 L 32.042939940024226 42 M 32.042939940024226 38 L 32.042939940024226 35 M 32.042939940024226 20 L 32.042939940024226 17 M 32.90896534380867 16.5 L 32.90896534380867 17.5 M 32.90896534380867 18.5 L 32.90896534380867 19.5 M 32.90896534380867 34.5 L 32.90896534380867 35.5 M 33.77499074759311 54 L 33.77499074759311 51 M 33.77499074759311 35 L 33.77499074759311 34 M 34.64101615137754 26.5 L 34.64101615137754 32.5 M 34.64101615137754 35.5 L 34.64101615137754 44.5 M 34.64101615137754 67.5 L 34.64101615137754 70.5 M 35.50704155516198 32 L 35.50704155516198 31 M 35.50704155516198 30 L 35.50704155516198 26 M 36.373066958946424 66.5 L 36.373066958946424 69.5 M 37.23909236273086 42 L 37.23909236273086 32 M 37.23909236273086 27 L 37.23909236273086 25 M 38.1051177665153 18.5 L 38.1051177665153 19.5 M 38.1051177665153 21.5 L 38.1051177665153 22.5 M 38.1051177665153 26.5 L 38.1051177665153 27.5 M 38.1051177665153 33.5 L 38.1051177665153 42.5 M 38.1051177665153 53.5 L 38.1051177665153 54.5 M 38.1051177665153 56.5 L 38.1051177665153 76.5 M 38.97114317029974 96 L 38.97114317029974 95 M 38.97114317029974 78 L 38.97114317029974 77 M 38.97114317029974 56 L 38.97114317029974 55 M 38.97114317029974 48 L 38.97114317029974 47 M 38.97114317029974 31 L 38.97114317029974 30 M 38.97114317029974 29 L 38.97114317029974 28 M 38.97114317029974 24 L 38.97114317029974 20 M 40.703193977868615 75 L 40.703193977868615 73 M 40.703193977868615 72 L 40.703193977868615 67 M 40.703193977868615 63 L 40.703193977868615 55 M 40.703193977868615 54 L 40.703193977868615 51 M 41.569219381653056 28.5 L 41.569219381653056 30.5 M 41.569219381653056 51.5 L 41.569219381653056 52.5 M 42.43524478543749 112 L 42.43524478543749 109 M 42.43524478543749 94 L 42.43524478543749 93 M 42.43524478543749 76 L 42.43524478543749 68 M 42.43524478543749 64 L 42.43524478543749 53 M 42.43524478543749 46 L 42.43524478543749 45 M 42.43524478543749 29 L 42.43524478543749 28 M 42.43524478543749 26 L 42.43524478543749 25 M 42.43524478543749 22 L 42.43524478543749 21 M 43.30127018922193 28.5 L 43.30127018922193 29.5 M 43.30127018922193 52.5 L 43.30127018922193 60.5 M 43.30127018922193 61.5 L 43.30127018922193 63.5 M 43.30127018922193 67.5 L 43.30127018922193 72.5 M 43.30127018922193 73.5 L 43.30127018922193 75.5 M 43.30127018922193 109.5 L 43.30127018922193 111.5 M 45.033320996790806 20.5 L 45.033320996790806 23.5 M 45.033320996790806 108.5 L 45.033320996790806 110.5 M 45.89934640057525 114 L 45.89934640057525 102 M 45.89934640057525 96 L 45.89934640057525 95 M 45.89934640057525 78 L 45.89934640057525 70 M 45.89934640057525 45 L 45.89934640057525 44 M 45.89934640057525 28 L 45.89934640057525 27 M 45.89934640057525 23 L 45.89934640057525 22 M 45.89934640057525 20 L 45.89934640057525 19 M 46.76537180435968 8.5 L 46.76537180435968 12.5 M 46.76537180435968 43.5 L 46.76537180435968 45.5 M 47.63139720814412 27 L 47.63139720814412 26 M 47.63139720814412 13 L 47.63139720814412 10 M 48.49742261192856 12.5 L 48.49742261192856 13.5 M 48.49742261192856 22.5 L 48.49742261192856 24.5 M 48.49742261192856 25.5 L 48.49742261192856 36.5 M 48.49742261192856 59.5 L 48.49742261192856 64.5 M 49.363448015713 71 L 49.363448015713 68 M 50.22947341949744 13.5 L 50.22947341949744 14.5 M 50.22947341949744 24.5 L 50.22947341949744 30.5 M 50.22947341949744 31.5 L 50.22947341949744 33.5 M 50.22947341949744 57.5 L 50.22947341949744 58.5 M 50.22947341949744 59.5 L 50.22947341949744 65.5 M 51.09549882328188 66 L 51.09549882328188 64 M 51.09549882328188 55 L 51.09549882328188 46 M 51.09549882328188 34 L 51.09549882328188 32 M 51.09549882328188 31 L 51.09549882328188 25 M 51.96152422706631 25.5 L 51.96152422706631 34.5 M 51.96152422706631 46.5 L 51.96152422706631 55.5 M 51.96152422706631 57.5 L 51.96152422706631 63.5 M 51.96152422706631 106.5 L 51.96152422706631 113.5 M 51.96152422706631 114.5 L 51.96152422706631 117.5 M 52.827549630850754 113 L 52.827549630850754 107 M 52.827549630850754 88 L 52.827549630850754 87 M 52.827549630850754 68 L 52.827549630850754 67 M 52.827549630850754 56 L 52.827549630850754 46 M 52.827549630850754 40 L 52.827549630850754 39 M 52.827549630850754 23 L 52.827549630850754 19 M 52.827549630850754 18 L 52.827549630850754 16 M 54.55960043841963 68 L 54.55960043841963 66 M 54.55960043841963 62 L 54.55960043841963 56 M 54.55960043841963 52 L 54.55960043841963 47 M 54.55960043841963 33 L 54.55960043841963 24 M 55.42562584220407 66.5 L 55.42562584220407 67.5 M 55.42562584220407 108.5 L 55.42562584220407 115.5 M 56.29165124598851 117 L 56.29165124598851 108 M 56.29165124598851 84 L 56.29165124598851 76 M 56.29165124598851 67 L 56.29165124598851 66 M 56.29165124598851 48 L 56.29165124598851 47 M 56.29165124598851 38 L 56.29165124598851 37 M 56.29165124598851 21 L 56.29165124598851 18 M 56.29165124598851 15 L 56.29165124598851 14 M 57.157676649772945 14.5 L 57.157676649772945 15.5 M 57.157676649772945 21.5 L 57.157676649772945 23.5 M 57.157676649772945 76.5 L 57.157676649772945 80.5 M 57.157676649772945 81.5 L 57.157676649772945 83.5 M 57.157676649772945 116.5 L 57.157676649772945 117.5 M 58.88972745734183 19.5 L 58.88972745734183 22.5 M 58.88972745734183 26.5 L 58.88972745734183 35.5 M 58.88972745734183 46.5 L 58.88972745734183 54.5 M 58.88972745734183 58.5 L 58.88972745734183 64.5 M 59.75575286112626 98 L 59.75575286112626 94 M 59.75575286112626 86 L 59.75575286112626 75 M 59.75575286112626 71 L 59.75575286112626 66 M 59.75575286112626 65 L 59.75575286112626 61 M 59.75575286112626 60 L 59.75575286112626 58 M 59.75575286112626 54 L 59.75575286112626 46 M 59.75575286112626 40 L 59.75575286112626 39 M 59.75575286112626 37 L 59.75575286112626 36 M 59.75575286112626 35 L 59.75575286112626 33 M 59.75575286112626 32 L 59.75575286112626 30 M 59.75575286112626 29 L 59.75575286112626 26 M 59.75575286112626 22 L 59.75575286112626 18 M 59.75575286112626 16 L 59.75575286112626 15 M 60.6217782649107 73.5 L 60.6217782649107 77.5 M 60.6217782649107 95.5 L 60.6217782649107 98.5 M 61.48780366869514 72 L 61.48780366869514 66 M 61.48780366869514 50 L 61.48780366869514 47 M 61.48780366869514 43 L 61.48780366869514 41 M 61.48780366869514 31 L 61.48780366869514 29 M 61.48780366869514 18 L 61.48780366869514 17 M 61.48780366869514 13 L 61.48780366869514 12 M 62.35382907247958 27.5 L 62.35382907247958 30.5 M 62.35382907247958 31.5 L 62.35382907247958 33.5 M 62.35382907247958 38.5 L 62.35382907247958 40.5 M 62.35382907247958 44.5 L 62.35382907247958 46.5 M 62.35382907247958 51.5 L 62.35382907247958 59.5 M 62.35382907247958 63.5 L 62.35382907247958 65.5 M 62.35382907247958 66.5 L 62.35382907247958 72.5 M 63.21985447626402 79 L 63.21985447626402 76 M 63.21985447626402 72 L 63.21985447626402 64 M 63.21985447626402 60 L 63.21985447626402 48 M 63.21985447626402 46 L 63.21985447626402 39 M 63.21985447626402 34 L 63.21985447626402 24 M 64.08587988004845 104.5 L 64.08587988004845 106.5 M 64.08587988004845 107.5 L 64.08587988004845 112.5 M 64.9519052838329 113 L 64.9519052838329 112 M 64.9519052838329 58 L 64.9519052838329 49 M 64.9519052838329 45 L 64.9519052838329 40 M 64.9519052838329 39 L 64.9519052838329 34 M 65.81793068761733 9.5 L 65.81793068761733 11.5 M 65.81793068761733 25.5 L 65.81793068761733 28.5 M 65.81793068761733 35.5 L 65.81793068761733 45.5 M 65.81793068761733 49.5 L 65.81793068761733 57.5 M 65.81793068761733 58.5 L 65.81793068761733 60.5 M 65.81793068761733 103.5 L 65.81793068761733 104.5 M 65.81793068761733 106.5 L 65.81793068761733 111.5 M 66.68395609140177 106 L 66.68395609140177 105 M 66.68395609140177 103 L 66.68395609140177 102 M 66.68395609140177 76 L 66.68395609140177 75 M 66.68395609140177 11 L 66.68395609140177 8 M 67.54998149518622 36.5 L 67.54998149518622 46.5 M 67.54998149518622 50.5 L 67.54998149518622 58.5 M 67.54998149518622 75.5 L 67.54998149518622 77.5 M 67.54998149518622 99.5 L 67.54998149518622 110.5 M 68.41600689897065 111 L 68.41600689897065 109 M 68.41600689897065 77 L 68.41600689897065 76 M 68.41600689897065 60 L 68.41600689897065 51 M 68.41600689897065 47 L 68.41600689897065 42 M 68.41600689897065 41 L 68.41600689897065 36 M 69.28203230275508 83.5 L 69.28203230275508 88.5 M 69.28203230275508 100.5 L 69.28203230275508 102.5 M 69.28203230275508 103.5 L 69.28203230275508 109.5 M 70.14805770653953 104 L 70.14805770653953 103 M 70.14805770653953 101 L 70.14805770653953 100 M 70.14805770653953 88 L 70.14805770653953 83 M 70.14805770653953 77 L 70.14805770653953 76 M 70.14805770653953 68 L 70.14805770653953 60 M 70.14805770653953 43 L 70.14805770653953 42 M 70.14805770653953 28 L 70.14805770653953 25 M 70.14805770653953 22 L 70.14805770653953 21 M 71.01408311032397 81.5 L 71.01408311032397 86.5 M 71.8801085141084 39 L 71.8801085141084 34 M 72.74613391789285 45.5 L 72.74613391789285 47.5 M 72.74613391789285 82.5 L 72.74613391789285 87.5 M 73.61215932167728 90 L 73.61215932167728 88 M 73.61215932167728 79 L 73.61215932167728 78 M 73.61215932167728 45 L 73.61215932167728 44 M 73.61215932167728 40 L 73.61215932167728 34 M 73.61215932167728 30 L 73.61215932167728 26 M 73.61215932167728 24 L 73.61215932167728 23 M 74.47818472546172 31.5 L 74.47818472546172 39.5 M 74.47818472546172 81.5 L 74.47818472546172 86.5 M 75.34421012924616 56 L 75.34421012924616 47 M 75.34421012924616 43 L 75.34421012924616 40 M 76.2102355330306 18.5 L 76.2102355330306 21.5 M 76.2102355330306 32.5 L 76.2102355330306 38.5 M 76.2102355330306 84.5 L 76.2102355330306 86.5 M 77.07626093681503 74 L 77.07626093681503 73 M 77.07626093681503 72 L 77.07626093681503 64 M 77.07626093681503 60 L 77.07626093681503 48 M 77.07626093681503 42 L 77.07626093681503 32 M 77.07626093681503 21 L 77.07626093681503 19 M 77.07626093681503 18 L 77.07626093681503 17 M 77.94228634059948 47.5 L 77.94228634059948 59.5 M 77.94228634059948 63.5 L 77.94228634059948 69.5 M 77.94228634059948 70.5 L 77.94228634059948 75.5 M 77.94228634059948 96.5 L 77.94228634059948 97.5 M 77.94228634059948 104.5 L 77.94228634059948 105.5 M 78.80831174438391 104 L 78.80831174438391 99 M 78.80831174438391 98 L 78.80831174438391 96 M 78.80831174438391 75 L 78.80831174438391 70 M 79.67433714816835 17.5 L 79.67433714816835 19.5 M 79.67433714816835 33.5 L 79.67433714816835 36.5 M 79.67433714816835 48.5 L 79.67433714816835 58.5 M 79.67433714816835 62.5 L 79.67433714816835 68.5 M 79.67433714816835 89.5 L 79.67433714816835 91.5 M 79.67433714816835 98.5 L 79.67433714816835 106.5 M 80.5403625519528 106 L 80.5403625519528 94 M 80.5403625519528 92 L 80.5403625519528 90 M 80.5403625519528 84 L 80.5403625519528 83 M 80.5403625519528 74 L 80.5403625519528 49 M 80.5403625519528 34 L 80.5403625519528 32 M 80.5403625519528 19 L 80.5403625519528 16 M 81.40638795573723 83.5 L 81.40638795573723 84.5 M 81.40638795573723 93.5 L 81.40638795573723 97.5 M 81.40638795573723 99.5 L 81.40638795573723 102.5 M 82.27241335952166 103 L 82.27241335952166 100 M 82.27241335952166 99 L 82.27241335952166 94 M 82.27241335952166 93 L 82.27241335952166 91 M 82.27241335952166 86 L 82.27241335952166 84 M 83.13843876330611 64.5 L 83.13843876330611 66.5 M 83.13843876330611 88.5 L 83.13843876330611 90.5 M 83.13843876330611 92.5 L 83.13843876330611 100.5 M 84.00446416709055 93 L 84.00446416709055 92 M 84.00446416709055 90 L 84.00446416709055 89 M 84.00446416709055 85 L 84.00446416709055 84 M 84.00446416709055 51 L 84.00446416709055 50 M 84.00446416709055 34 L 84.00446416709055 33 M 84.00446416709055 30 L 84.00446416709055 29 M 84.87048957087498 88.5 L 84.87048957087498 89.5 M 85.73651497465941 87 L 85.73651497465941 84 M 86.60254037844386 28.5 L 86.60254037844386 29.5 M 86.60254037844386 91.5 L 86.60254037844386 98.5 M 87.4685657822283 99 L 87.4685657822283 91 M 87.4685657822283 87 L 87.4685657822283 84 M 87.4685657822283 53 L 87.4685657822283 52 M 87.4685657822283 48 L 87.4685657822283 42 M 87.4685657822283 38 L 87.4685657822283 31 M 88.33459118601273 32.5 L 88.33459118601273 33.5 M 88.33459118601273 36.5 L 88.33459118601273 45.5 M 88.33459118601273 47.5 L 88.33459118601273 52.5 M 88.33459118601273 53.5 L 88.33459118601273 58.5 M 88.33459118601273 89.5 L 88.33459118601273 97.5 M 89.20061658979718 89 L 89.20061658979718 88 M 89.20061658979718 70 L 89.20061658979718 68 M 89.20061658979718 59 L 89.20061658979718 54 M 89.20061658979718 53 L 89.20061658979718 48 M 89.20061658979718 43 L 89.20061658979718 38 M 89.20061658979718 24 L 89.20061658979718 22 M 90.06664199358161 26.5 L 90.06664199358161 29.5 M 90.06664199358161 37.5 L 90.06664199358161 44.5 M 90.93266739736605 84 L 90.93266739736605 82 M 90.93266739736605 80 L 90.93266739736605 72 M 90.93266739736605 68 L 90.93266739736605 58 M 90.93266739736605 44 L 90.93266739736605 41 M 90.93266739736605 40 L 90.93266739736605 37 M 90.93266739736605 29 L 90.93266739736605 25 M 91.7986928011505 49.5 L 91.7986928011505 51.5 M 91.7986928011505 55.5 L 91.7986928011505 57.5 M 91.7986928011505 61.5 L 91.7986928011505 62.5 M 91.7986928011505 81.5 L 91.7986928011505 83.5 M 92.66471820493493 97 L 92.66471820493493 96 M 92.66471820493493 83 L 92.66471820493493 81 M 92.66471820493493 62 L 92.66471820493493 61 M 93.53074360871936 56.5 L 93.53074360871936 66.5 M 94.39676901250381 95 L 94.39676901250381 94 M 94.39676901250381 82 L 94.39676901250381 58 M 94.39676901250381 56 L 94.39676901250381 51 M 95.26279441628824 36.5 L 95.26279441628824 37.5 M 95.26279441628824 43.5 L 95.26279441628824 46.5 M 96.12881982007268 57 L 96.12881982007268 51 M 96.12881982007268 47 L 96.12881982007268 43 M 96.99484522385713 72.5 L 96.99484522385713 74.5 M 97.86087062764156 93 L 97.86087062764156 92 M 97.86087062764156 59 L 97.86087062764156 58 M 97.86087062764156 38 L 97.86087062764156 37 M 99.59292143521044 95 L 99.59292143521044 92 M 100.45894683899488 91.5 L 100.45894683899488 94.5 M 102.19099764656376 39.5 L 102.19099764656376 43.5 M 102.19099764656376 47.5 L 102.19099764656376 53.5 M 103.05702305034819 47 L 103.05702305034819 46 M 103.92304845413263 34.5 L 103.92304845413263 44.5 M 103.92304845413263 48.5 L 103.92304845413263 54.5 M 104.78907385791707 88 L 104.78907385791707 80 M 104.78907385791707 76 L 104.78907385791707 64 M 104.78907385791707 60 L 104.78907385791707 55 M 104.78907385791707 54 L 104.78907385791707 48 M 104.78907385791707 46 L 104.78907385791707 45 M 104.78907385791707 44 L 104.78907385791707 33 M 105.65509926170151 47.5 L 105.65509926170151 53.5 M 105.65509926170151 60.5 L 105.65509926170151 75.5 M 105.65509926170151 76.5 L 105.65509926170151 88.5 M 108.25317547305482 58 L 108.25317547305482 46 " /></g></svg>