<svg viewBox="-19.200000000000003 -19.200000000000003 206.4089283341811 230.4" xmlns="http://www.w3.org/2000/svg"><g stroke="black" stroke-width="0.4" stroke-linecap="round"><path d="M 75.34421012924616 10 L 25.11473670974872 39 M 19.05255888325765 43.5 L 25.11473670974872 40 M 71.8801085141084 13 L 87.4685657822283 4 M 90.06664199358161 3.5 L 72.74613391789285 13.5 M 8.660254037844386 50.5 L 6.928203230275509 51.5 M 7.794228634059947 52 L 9.526279441628825 51 M 20.784609690826528 44.5 L 24.24871130596428 42.5 M 73.61215932167728 14 L 90.93266739736605 4 M 90.06664199358161 5.5 L 74.47818472546172 14.5 M 24.24871130596428 43.5 L 21.650635094610966 45 M 25.11473670974872 45 L 21.650635094610966 47 M 19.918584287042087 48 L 19.05255888325765 48.5 M 19.918584287042087 49 L 20.784609690826528 48.5 M 21.650635094610966 48 L 24.24871130596428 46.5 M 96.99484522385713 7.5 L 79.67433714816835 17.5 M 15.588457268119894 54.5 L 13.856406460551018 55.5 M 14.722431864335457 56 L 16.454482671904334 55 M 80.5403625519528 18 L 97.86087062764156 8 M 96.99484522385713 9.5 L 81.40638795573723 18.5 M 103.92304845413263 11.5 L 86.60254037844386 21.5 M 22.516660498395403 58.5 L 20.784609690826528 59.5 M 21.650635094610966 60 L 23.38268590217984 59 M 87.4685657822283 22 L 104.78907385791707 12 M 103.92304845413263 13.5 L 88.33459118601273 22.5 M 3.4641016151377544 72.5 L 6.928203230275509 70.5 M 9.526279441628825 69 L 13.856406460551018 66.5 M 16.454482671904334 65 L 19.05255888325765 63.5 M 25.980762113533157 61.5 L 29.444863728670914 59.5 M 45.033320996790806 50.5 L 51.09549882328188 47 M 51.09549882328188 48 L 45.033320996790806 51.5 M 19.918584287042087 66 L 16.454482671904334 68 M 13.856406460551018 69.5 L 9.526279441628825 72 M 6.928203230275509 73.5 L 6.06217782649107 74 M 8.660254037844386 73.5 L 13.856406460551018 70.5 M 16.454482671904334 69 L 19.918584287042087 67 M 110.85125168440814 15.5 L 93.53074360871936 25.5 M 29.444863728670914 62.5 L 27.712812921102035 63.5 M 28.578838324886473 64 L 30.31088913245535 63 M 54.55960043841963 49 L 84.00446416709055 32 M 94.39676901250381 26 L 111.71727708819257 16 M 110.85125168440814 17.5 L 95.26279441628824 26.5 M 84.00446416709055 33 L 54.55960043841963 50 M 83.13843876330611 34.5 L 84.00446416709055 34 M 83.13843876330611 37.5 L 75.34421012924616 42 M 20.784609690826528 73.5 L 16.454482671904334 76 M 13.856406460551018 77.5 L 8.660254037844386 80.5 M 6.928203230275509 81.5 L 4.330127018922193 83 M 6.06217782649107 83 L 6.928203230275509 82.5 M 8.660254037844386 81.5 L 13.856406460551018 78.5 M 15.588457268119894 77.5 L 20.784609690826528 74.5 M 76.2102355330306 42.5 L 82.27241335952166 39 M 117.77945491468365 19.5 L 100.45894683899488 29.5 M 101.32497224277931 30 L 118.64548031846809 20 M 84.00446416709055 41 L 82.27241335952166 42 M 76.2102355330306 45.5 L 75.34421012924616 46 M 8.660254037844386 84.5 L 7.794228634059947 85 M 109.9852262806237 30 L 105.65509926170151 32.5 M 25.980762113533157 78.5 L 23.38268590217984 80 M 24.24871130596428 80.5 L 26.846787517317598 79 M 124.70765814495915 23.5 L 107.38715006927039 33.5 M 108.25317547305482 34 L 125.5736835487436 24 M 26.846787517317598 82 L 24.24871130596428 83.5 M 15.588457268119894 88.5 L 14.722431864335457 89 M 30.31088913245535 81 L 48.49742261192856 70.5 M 34.64101615137754 79.5 L 33.77499074759311 80 M 32.90896534380867 80.5 L 30.31088913245535 82 M 24.24871130596428 85.5 L 23.38268590217984 86 M 19.05255888325765 88.5 L 17.32050807568877 89.5 M 25.11473670974872 86 L 27.712812921102035 84.5 M 30.31088913245535 83 L 33.77499074759311 81 M 116.9134295108992 34 L 112.58330249197702 36.5 M 23.38268590217984 89 L 25.980762113533157 87.5 M 95.26279441628824 47.5 L 96.99484522385713 46.5 M 131.63586137523467 27.5 L 114.31535329954589 37.5 M 43.30127018922193 78.5 L 38.1051177665153 81.5 M 37.23909236273086 82 L 32.042939940024226 85 M 31.17691453623979 85.5 L 30.31088913245535 86 M 24.24871130596428 90.5 L 27.712812921102035 88.5 M 30.31088913245535 87 L 38.1051177665153 82.5 M 38.97114317029974 82 L 43.30127018922193 79.5 M 115.18137870333034 38 L 132.50188677901912 28 M 104.78907385791707 45 L 103.92304845413263 45.5 M 99.59292143521044 48 L 95.26279441628824 50.5 M 23.38268590217984 92 L 21.650635094610966 93 M 95.26279441628824 51.5 L 98.726896031426 49.5 M 99.59292143521044 49 L 100.45894683899488 48.5 M 103.05702305034819 48 L 102.19099764656376 48.5 M 102.19099764656376 49.5 L 103.05702305034819 49 M 108.25317547305482 46 L 118.64548031846809 40 M 124.70765814495915 37.5 L 118.64548031846809 41 M 43.30127018922193 84.5 L 42.43524478543749 85 M 49.363448015713 82 L 58.88972745734183 76.5 M 61.48780366869514 75 L 63.21985447626402 74 M 102.19099764656376 51.5 L 103.05702305034819 51 M 138.56406460551017 31.5 L 110.85125168440814 47.5 M 103.05702305034819 52 L 102.19099764656376 52.5 M 58.88972745734183 77.5 L 49.363448015713 83 M 31.17691453623979 94.5 L 38.1051177665153 90.5 M 103.92304845413263 52.5 L 107.38715006927039 50.5 M 108.25317547305482 50 L 110.85125168440814 48.5 M 111.71727708819257 48 L 139.43009000929462 32 M 32.042939940024226 95 L 30.31088913245535 96 M 29.444863728670914 97.5 L 31.17691453623979 96.5 M 113.44932789576146 49 L 124.70765814495915 42.5 M 109.11920087683926 52.5 L 108.25317547305482 53 M 65.81793068761733 77.5 L 53.693575034635195 84.5 M 51.09549882328188 87 L 53.693575034635195 85.5 M 95.26279441628824 61.5 L 96.12881982007268 61 M 111.71727708819257 52 L 113.44932789576146 51 M 131.63586137523467 41.5 L 127.30573435631247 44 M 109.11920087683926 54.5 L 108.25317547305482 55 M 103.05702305034819 58 L 102.19099764656376 58.5 M 43.30127018922193 92.5 L 42.43524478543749 93 M 33.77499074759311 98 L 32.042939940024226 99 M 99.59292143521044 61 L 101.32497224277931 60 M 145.4922678357857 35.5 L 129.03778516388135 45 M 116.9134295108992 52 L 114.31535329954589 53.5 M 102.19099764656376 60.5 L 101.32497224277931 61 M 29.444863728670914 103.5 L 30.31088913245535 103 M 32.042939940024226 102 L 32.90896534380867 101.5 M 58.023702053557386 87 L 71.8801085141084 79 M 84.87048957087498 71.5 L 90.06664199358161 68.5 M 129.9038105676658 45.5 L 146.35829323957012 36 M 104.78907385791707 61 L 101.32497224277931 63 M 98.726896031426 64.5 L 94.39676901250381 67 M 90.93266739736605 69 L 86.60254037844386 71.5 M 71.8801085141084 80 L 58.023702053557386 88 M 32.90896534380867 102.5 L 29.444863728670914 104.5 M 84.87048957087498 73.5 L 86.60254037844386 72.5 M 96.12881982007268 67 L 104.78907385791707 62 M 133.36791218280354 47.5 L 143.7602170282168 41.5 M 109.9852262806237 62 L 108.25317547305482 63 M 80.5403625519528 79 L 78.80831174438391 80 M 152.4204710660612 39.5 L 135.96598839415685 49 M 136.8320137979413 49.5 L 153.28649646984564 40 M 75.34421012924616 86 L 72.74613391789285 87.5 M 67.54998149518622 90.5 L 66.68395609140177 91 M 31.17691453623979 111.5 L 29.444863728670914 112.5 M 66.68395609140177 92 L 68.41600689897065 91 M 72.74613391789285 88.5 L 76.2102355330306 86.5 M 123.84163274117472 60 L 122.10958193360584 61 M 91.7986928011505 78.5 L 84.87048957087498 82.5 M 80.5403625519528 85 L 76.2102355330306 87.5 M 71.8801085141084 91 L 72.74613391789285 90.5 M 78.80831174438391 87 L 80.5403625519528 86 M 84.00446416709055 84 L 88.33459118601273 81.5 M 114.31535329954589 66.5 L 115.18137870333034 66 M 129.03778516388135 58 L 150.68842025849233 45.5 M 80.5403625519528 87 L 79.67433714816835 87.5 M 77.07626093681503 89 L 73.61215932167728 91 M 71.01408311032397 92.5 L 66.68395609140177 95 M 51.09549882328188 104 L 34.64101615137754 113.5 M 83.13843876330611 86.5 L 84.00446416709055 86 M 86.60254037844386 84.5 L 88.33459118601273 83.5 M 159.3486742963367 43.5 L 131.63586137523467 59.5 M 118.64548031846809 67 L 116.9134295108992 68 M 88.33459118601273 84.5 L 87.4685657822283 85 M 64.9519052838329 98 L 52.827549630850754 105 M 32.90896534380867 116.5 L 29.444863728670914 118.5 M 29.444863728670914 119.5 L 31.17691453623979 118.5 M 32.042939940024226 118 L 32.90896534380867 117.5 M 53.693575034635195 105.5 L 65.81793068761733 98.5 M 75.34421012924616 93 L 76.2102355330306 92.5 M 129.03778516388135 62 L 131.63586137523467 60.5 M 132.50188677901912 60 L 160.21469970012114 44 M 66.68395609140177 99 L 54.55960043841963 106 M 32.042939940024226 119 L 31.17691453623979 119.5 M 75.34421012924616 95 L 76.2102355330306 94.5 M 129.03778516388135 64 L 129.9038105676658 63.5 M 40.703193977868615 117 L 57.157676649772945 107.5 M 58.023702053557386 107 L 78.80831174438391 95 M 132.50188677901912 64 L 157.61662348876783 49.5 M 94.39676901250381 87 L 92.66471820493493 88 M 90.06664199358161 89.5 L 89.20061658979718 90 M 78.80831174438391 96 L 57.157676649772945 108.5 M 44.167295593006365 116 L 40.703193977868615 118 M 84.00446416709055 94 L 84.87048957087498 93.5 M 85.73651497465941 93 L 86.60254037844386 92.5 M 92.66471820493493 89 L 95.26279441628824 87.5 M 129.9038105676658 67.5 L 130.76983597145022 67 M 166.27687752661222 47.5 L 138.56406460551017 63.5 M 134.23393758658798 66 L 133.36791218280354 66.5 M 78.80831174438391 98 L 76.2102355330306 99.5 M 28.578838324886473 128 L 29.444863728670914 127.5 M 40.703193977868615 121 L 44.167295593006365 119 M 85.73651497465941 95 L 86.60254037844386 94.5 M 87.4685657822283 94 L 88.33459118601273 93.5 M 92.66471820493493 91 L 93.53074360871936 90.5 M 133.36791218280354 67.5 L 135.09996299037243 66.5 M 139.43009000929462 64 L 167.14290293039664 48 M 138.56406460551017 65.5 L 136.8320137979413 66.5 M 133.36791218280354 68.5 L 132.50188677901912 69 M 90.06664199358161 93.5 L 89.20061658979718 94 M 39.837168574084174 122.5 L 38.97114317029974 123 M 31.17691453623979 128.5 L 36.373066958946424 125.5 M 38.97114317029974 124 L 40.703193977868615 123 M 57.157676649772945 113.5 L 58.88972745734183 112.5 M 135.09996299037243 69.5 L 134.23393758658798 70 M 90.06664199358161 95.5 L 89.20061658979718 96 M 77.07626093681503 103 L 60.6217782649107 112.5 M 79.67433714816835 102.5 L 80.5403625519528 102 M 90.93266739736605 96 L 91.7986928011505 95.5 M 136.8320137979413 69.5 L 138.56406460551017 68.5 M 138.56406460551017 69.5 L 137.69803920172575 70 M 79.67433714816835 103.5 L 77.94228634059948 104.5 M 57.157676649772945 116.5 L 38.97114317029974 127 M 57.157676649772945 117.5 L 58.88972745734183 116.5 M 65.81793068761733 113.5 L 64.9519052838329 114 M 59.75575286112626 117 L 58.88972745734183 117.5 M 7.794228634059947 148 L 13.856406460551018 144.5 M 60.6217782649107 117.5 L 64.9519052838329 115 M 66.68395609140177 114 L 67.54998149518622 113.5 M 76.2102355330306 108.5 L 77.07626093681503 108 M 136.8320137979413 74.5 L 134.23393758658798 76 M 91.7986928011505 100.5 L 89.20061658979718 102 M 77.94228634059948 108.5 L 77.07626093681503 109 M 68.41600689897065 114 L 66.68395609140177 115 M 66.68395609140177 116 L 68.41600689897065 115 M 77.07626093681503 110 L 79.67433714816835 108.5 M 79.67433714816835 110.5 L 80.5403625519528 110 M 81.40638795573723 110.5 L 80.5403625519528 111 M 76.2102355330306 113.5 L 71.01408311032397 116.5 M 71.8801085141084 117 L 77.07626093681503 114 M 83.13843876330611 110.5 L 88.33459118601273 107.5 M 128.1717597600969 85.5 L 119.51150572225252 90.5 M 89.20061658979718 108 L 83.13843876330611 111.5 M 78.80831174438391 114 L 72.74613391789285 117.5 M 14.722431864335457 152 L 20.784609690826528 148.5 M 120.37753112603697 91 L 129.03778516388135 86 M 79.67433714816835 115.5 L 74.47818472546172 118.5 M 76.2102355330306 118.5 L 80.5403625519528 116 M 83.13843876330611 114.5 L 91.7986928011505 109.5 M 92.66471820493493 110 L 83.13843876330611 115.5 M 136.8320137979413 86.5 L 135.09996299037243 87.5 M 134.23393758658798 88 L 133.36791218280354 88.5 M 102.19099764656376 106.5 L 95.26279441628824 110.5 M 92.66471820493493 112 L 78.80831174438391 120 M 21.650635094610966 156 L 27.712812921102035 152.5 M 80.5403625519528 124 L 83.13843876330611 122.5 M 91.7986928011505 117.5 L 92.66471820493493 117 M 93.53074360871936 117.5 L 92.66471820493493 118 M 84.00446416709055 123 L 82.27241335952166 124 M 63.21985447626402 136 L 77.07626093681503 128 M 78.80831174438391 128 L 64.08587988004845 136.5 M 64.08587988004845 137.5 L 78.80831174438391 129 M 81.40638795573723 127.5 L 84.00446416709055 126 M 91.7986928011505 122.5 L 87.4685657822283 125 M 86.60254037844386 125.5 L 85.73651497465941 126 M 73.61215932167728 133 L 65.81793068761733 137.5 M 28.578838324886473 160 L 34.64101615137754 156.5 M 86.60254037844386 126.5 L 92.66471820493493 123 M 95.26279441628824 121.5 L 97.86087062764156 120 M 137.69803920172575 97 L 138.56406460551017 96.5 M 97.86087062764156 121 L 95.26279441628824 122.5 M 58.88972745734183 144.5 L 60.6217782649107 143.5 M 97.86087062764156 123 L 89.20061658979718 128 M 60.6217782649107 144.5 L 59.75575286112626 145 M 65.81793068761733 142.5 L 68.41600689897065 141 M 65.81793068761733 143.5 L 64.08587988004845 144.5 M 35.50704155516198 164 L 40.703193977868615 161 M 64.08587988004845 147.5 L 65.81793068761733 146.5 M 120.37753112603697 115 L 129.03778516388135 110 M 83.13843876330611 138.5 L 91.7986928011505 133.5 M 107.38715006927039 125.5 L 106.52112466548594 126 M 92.66471820493493 134 L 76.2102355330306 143.5 M 76.2102355330306 144.5 L 92.66471820493493 135 M 116.04740410711477 122.5 L 115.18137870333034 123 M 97.86087062764156 133 L 94.39676901250381 135 M 68.41600689897065 150 L 67.54998149518622 150.5 M 93.53074360871936 136.5 L 94.39676901250381 136 M 97.86087062764156 135 L 94.39676901250381 137 M 70.14805770653953 151 L 69.28203230275508 151.5 M 42.43524478543749 168 L 47.63139720814412 165 M 70.14805770653953 152 L 72.74613391789285 150.5 M 127.30573435631247 120 L 123.84163274117472 122 M 100.45894683899488 137.5 L 97.86087062764156 139 M 98.726896031426 139.5 L 101.32497224277931 138 M 102.19099764656376 137.5 L 114.31535329954589 130.5 M 115.18137870333034 131 L 103.05702305034819 138 M 68.41600689897065 159 L 69.28203230275508 158.5 M 74.47818472546172 155.5 L 75.34421012924616 155 M 78.80831174438391 153 L 79.67433714816835 152.5 M 127.30573435631247 126 L 124.70765814495915 127.5 M 85.73651497465941 150 L 82.27241335952166 152 M 80.5403625519528 153 L 76.2102355330306 155.5 M 49.363448015713 172 L 54.55960043841963 169 M 71.01408311032397 159.5 L 76.2102355330306 156.5 M 77.07626093681503 156 L 77.94228634059948 155.5 M 80.5403625519528 154 L 84.87048957087498 151.5 M 76.2102355330306 157.5 L 71.01408311032397 160.5 M 120.37753112603697 133 L 126.43970895252804 129.5 M 127.30573435631247 130 L 125.5736835487436 131 M 124.70765814495915 131.5 L 120.37753112603697 134 M 71.01408311032397 163.5 L 71.8801085141084 163 M 129.03778516388135 130 L 132.50188677901912 128 M 129.03778516388135 131 L 127.30573435631247 132 M 126.43970895252804 132.5 L 89.20061658979718 154 M 88.33459118601273 154.5 L 84.87048957087498 156.5 M 78.80831174438391 160 L 77.94228634059948 160.5 M 76.2102355330306 161.5 L 73.61215932167728 163 M 68.41600689897065 166 L 67.54998149518622 166.5 M 89.20061658979718 155 L 129.9038105676658 131.5 M 138.56406460551017 127.5 L 131.63586137523467 131.5 M 130.76983597145022 132 L 83.13843876330611 159.5 M 56.29165124598851 176 L 61.48780366869514 173 M 70.14805770653953 168 L 71.01408311032397 167.5 M 84.00446416709055 160 L 139.43009000929462 128 M 77.94228634059948 165.5 L 80.5403625519528 164 M 63.21985447626402 180 L 68.41600689897065 177 M 77.07626093681503 172 L 80.5403625519528 170 M 83.13843876330611 173.5 L 81.40638795573723 174.5 M 70.14805770653953 184 L 75.34421012924616 181 M 83.13843876330611 181.5 L 81.40638795573723 182.5 M 77.07626093681503 188 L 82.27241335952166 185 M 84.00446416709055 192 L 167.14290293039664 144 M 167.14290293039664 48 L 166.27687752661222 47.5 M 160.21469970012114 44 L 159.3486742963367 43.5 M 153.28649646984564 40 L 152.4204710660612 39.5 M 146.35829323957012 36 L 145.4922678357857 35.5 M 139.43009000929462 32 L 138.56406460551017 31.5 M 132.50188677901912 28 L 131.63586137523467 27.5 M 125.5736835487436 24 L 124.70765814495915 23.5 M 118.64548031846809 20 L 117.77945491468365 19.5 M 111.71727708819257 16 L 110.85125168440814 15.5 M 104.78907385791707 12 L 103.92304845413263 11.5 M 97.86087062764156 8 L 96.99484522385713 7.5 M 90.93266739736605 4 L 90.06664199358161 3.5 M 116.04740410711477 20.5 L 110.85125168440814 17.5 M 109.11920087683926 16.5 L 103.92304845413263 13.5 M 102.19099764656376 12.5 L 96.99484522385713 9.5 M 95.26279441628824 8.5 L 90.06664199358161 5.5 M 88.33459118601273 4.5 L 87.4685657822283 4 M 143.7602170282168 41.5 L 146.35829323957012 43 M 150.68842025849233 45.5 L 153.28649646984564 47 M 157.61662348876783 49.5 L 160.21469970012114 51 M 133.36791218280354 42.5 L 131.63586137523467 41.5 M 126.43970895252804 38.5 L 124.70765814495915 37.5 M 75.34421012924616 10 L 76.2102355330306 10.5 M 109.9852262806237 30 L 111.71727708819257 31 M 116.9134295108992 34 L 118.64548031846809 35 M 124.70765814495915 42.5 L 129.03778516388135 45 M 129.9038105676658 45.5 L 135.96598839415685 49 M 136.8320137979413 49.5 L 140.29611541307906 51.5 M 118.64548031846809 40 L 115.18137870333034 38 M 114.31535329954589 37.5 L 108.25317547305482 34 M 107.38715006927039 33.5 L 101.32497224277931 30 M 100.45894683899488 29.5 L 94.39676901250381 26 M 93.53074360871936 25.5 L 87.4685657822283 22 M 86.60254037844386 21.5 L 80.5403625519528 18 M 79.67433714816835 17.5 L 73.61215932167728 14 M 72.74613391789285 13.5 L 71.01408311032397 12.5 M 139.43009000929462 64 L 138.56406460551017 63.5 M 132.50188677901912 60 L 131.63586137523467 59.5 M 129.03778516388135 58 L 113.44932789576146 49 M 111.71727708819257 48 L 110.85125168440814 47.5 M 108.25317547305482 46 L 84.00446416709055 32 M 84.00446416709055 33 L 107.38715006927039 46.5 M 114.31535329954589 50.5 L 128.1717597600969 58.5 M 103.92304845413263 45.5 L 84.00446416709055 34 M 82.27241335952166 34 L 83.13843876330611 34.5 M 84.00446416709055 35 L 103.05702305034819 46 M 136.8320137979413 66.5 L 132.50188677901912 64 M 131.63586137523467 63.5 L 129.03778516388135 62 M 128.1717597600969 61.5 L 114.31535329954589 53.5 M 113.44932789576146 53 L 111.71727708819257 52 M 110.85125168440814 51.5 L 108.25317547305482 50 M 84.00446416709055 37 L 103.05702305034819 48 M 122.10958193360584 59 L 128.1717597600969 62.5 M 129.03778516388135 63 L 135.96598839415685 67 M 133.36791218280354 66.5 L 129.03778516388135 64 M 121.2435565298214 59.5 L 108.25317547305482 52 M 107.38715006927039 51.5 L 106.52112466548594 51 M 83.13843876330611 37.5 L 79.67433714816835 35.5 M 96.99484522385713 46.5 L 99.59292143521044 48 M 105.65509926170151 51.5 L 107.38715006927039 52.5 M 108.25317547305482 53 L 121.2435565298214 60.5 M 122.10958193360584 61 L 128.1717597600969 64.5 M 133.36791218280354 67.5 L 135.96598839415685 69 M 136.8320137979413 69.5 L 137.69803920172575 70 M 136.8320137979413 70.5 L 129.9038105676658 66.5 M 129.03778516388135 66 L 108.25317547305482 54 M 103.05702305034819 52 L 103.92304845413263 52.5 M 107.38715006927039 54.5 L 108.25317547305482 55 M 129.03778516388135 67 L 129.9038105676658 67.5 M 132.50188677901912 69 L 134.23393758658798 70 M 133.36791218280354 70.5 L 132.50188677901912 70 M 79.67433714816835 40.5 L 82.27241335952166 42 M 71.8801085141084 40 L 75.34421012924616 42 M 103.05702305034819 58 L 107.38715006927039 60.5 M 109.9852262806237 62 L 113.44932789576146 64 M 118.64548031846809 67 L 128.1717597600969 72.5 M 133.36791218280354 75.5 L 134.23393758658798 76 M 116.04740410711477 66.5 L 115.18137870333034 66 M 104.78907385791707 61 L 107.38715006927039 62.5 M 108.25317547305482 63 L 113.44932789576146 66 M 114.31535329954589 66.5 L 116.04740410711477 67.5 M 116.9134295108992 68 L 128.1717597600969 74.5 M 128.1717597600969 75.5 L 104.78907385791707 62 M 101.32497224277931 60 L 99.59292143521044 59 M 71.8801085141084 44 L 75.34421012924616 46 M 96.12881982007268 61 L 95.26279441628824 60.5 M 98.726896031426 64.5 L 96.12881982007268 63 M 136.8320137979413 88.5 L 135.09996299037243 87.5 M 134.23393758658798 88 L 136.8320137979413 89.5 M 136.8320137979413 90.5 L 133.36791218280354 88.5 M 129.03778516388135 86 L 128.1717597600969 85.5 M 96.12881982007268 67 L 95.26279441628824 66.5 M 90.93266739736605 65 L 94.39676901250381 67 M 91.7986928011505 66.5 L 90.93266739736605 66 M 84.87048957087498 65.5 L 90.06664199358161 68.5 M 138.56406460551017 97.5 L 137.69803920172575 97 M 54.55960043841963 49 L 51.09549882328188 47 M 51.09549882328188 48 L 54.55960043841963 50 M 120.37753112603697 91 L 119.51150572225252 90.5 M 25.11473670974872 39 L 45.033320996790806 50.5 M 45.033320996790806 51.5 L 25.980762113533157 40.5 M 24.24871130596428 42.5 L 25.11473670974872 43 M 25.11473670974872 44 L 24.24871130596428 43.5 M 88.33459118601273 81.5 L 91.7986928011505 83.5 M 136.8320137979413 109.5 L 138.56406460551017 110.5 M 91.7986928011505 84.5 L 89.20061658979718 83 M 19.05255888325765 43.5 L 20.784609690826528 44.5 M 24.24871130596428 46.5 L 25.11473670974872 47 M 94.39676901250381 87 L 95.26279441628824 87.5 M 88.33459118601273 84.5 L 87.4685657822283 84 M 25.11473670974872 48 L 24.24871130596428 47.5 M 72.74613391789285 76.5 L 78.80831174438391 80 M 84.87048957087498 83.5 L 92.66471820493493 88 M 137.69803920172575 115 L 129.03778516388135 110 M 92.66471820493493 89 L 84.00446416709055 84 M 19.918584287042087 48 L 20.784609690826528 48.5 M 92.66471820493493 91 L 78.80831174438391 83 M 71.8801085141084 79 L 63.21985447626402 74 M 19.918584287042087 49 L 19.05255888325765 48.5 M 89.20061658979718 90 L 91.7986928011505 91.5 M 91.7986928011505 92.5 L 90.93266739736605 92 M 90.06664199358161 91.5 L 89.20061658979718 91 M 65.81793068761733 77.5 L 61.48780366869514 75 M 61.48780366869514 76 L 64.9519052838329 78 M 80.5403625519528 88 L 78.80831174438391 87 M 48.49742261192856 70.5 L 58.88972745734183 76.5 M 75.34421012924616 86 L 76.2102355330306 86.5 M 86.60254037844386 92.5 L 88.33459118601273 93.5 M 89.20061658979718 94 L 90.06664199358161 94.5 M 90.93266739736605 96 L 89.20061658979718 95 M 88.33459118601273 94.5 L 87.4685657822283 94 M 85.73651497465941 93 L 83.13843876330611 91.5 M 80.5403625519528 90 L 76.2102355330306 87.5 M 76.2102355330306 88.5 L 78.80831174438391 90 M 79.67433714816835 90.5 L 80.5403625519528 91 M 83.13843876330611 92.5 L 84.87048957087498 93.5 M 86.60254037844386 94.5 L 88.33459118601273 95.5 M 89.20061658979718 96 L 91.7986928011505 97.5 M 137.69803920172575 125 L 120.37753112603697 115 M 88.33459118601273 96.5 L 85.73651497465941 95 M 84.00446416709055 94 L 83.13843876330611 93.5 M 30.31088913245535 63 L 29.444863728670914 62.5 M 23.38268590217984 59 L 22.516660498395403 58.5 M 16.454482671904334 55 L 15.588457268119894 54.5 M 9.526279441628825 51 L 8.660254037844386 50.5 M 25.11473670974872 61 L 25.980762113533157 61.5 M 83.13843876330611 94.5 L 88.33459118601273 97.5 M 89.20061658979718 98 L 91.7986928011505 99.5 M 119.51150572225252 115.5 L 122.97560733739029 117.5 M 123.84163274117472 118 L 137.69803920172575 126 M 139.43009000929462 128 L 138.56406460551017 127.5 M 122.97560733739029 118.5 L 102.19099764656376 106.5 M 28.578838324886473 64 L 27.712812921102035 63.5 M 21.650635094610966 60 L 20.784609690826528 59.5 M 14.722431864335457 56 L 13.856406460551018 55.5 M 7.794228634059947 52 L 6.928203230275509 51.5 M 72.74613391789285 90.5 L 76.2102355330306 92.5 M 75.34421012924616 93 L 71.8801085141084 91 M 89.20061658979718 102 L 91.7986928011505 103.5 M 123.84163274117472 122 L 135.96598839415685 129 M 135.09996299037243 129.5 L 129.03778516388135 126 M 128.1717597600969 125.5 L 124.70765814495915 123.5 M 91.7986928011505 104.5 L 89.20061658979718 103 M 75.34421012924616 95 L 63.21985447626402 88 M 83.13843876330611 100.5 L 88.33459118601273 103.5 M 127.30573435631247 126 L 128.1717597600969 126.5 M 58.023702053557386 87 L 53.693575034635195 84.5 M 49.363448015713 82 L 43.30127018922193 78.5 M 19.05255888325765 65.5 L 19.918584287042087 66 M 43.30127018922193 79.5 L 49.363448015713 83 M 53.693575034635195 85.5 L 58.023702053557386 88 M 131.63586137523467 131.5 L 116.04740410711477 122.5 M 78.80831174438391 101 L 76.2102355330306 99.5 M 76.2102355330306 100.5 L 77.07626093681503 101 M 77.94228634059948 101.5 L 79.67433714816835 102.5 M 88.33459118601273 107.5 L 89.20061658979718 108 M 91.7986928011505 109.5 L 92.66471820493493 110 M 115.18137870333034 123 L 126.43970895252804 129.5 M 127.30573435631247 130 L 129.03778516388135 131 M 129.9038105676658 131.5 L 130.76983597145022 132 M 80.5403625519528 104 L 79.67433714816835 103.5 M 125.5736835487436 131 L 127.30573435631247 132 M 126.43970895252804 132.5 L 124.70765814495915 131.5 M 80.5403625519528 106 L 77.94228634059948 104.5 M 43.30127018922193 84.5 L 34.64101615137754 79.5 M 33.77499074759311 80 L 37.23909236273086 82 M 38.1051177665153 82.5 L 42.43524478543749 85 M 64.9519052838329 98 L 65.81793068761733 98.5 M 77.94228634059948 105.5 L 80.5403625519528 107 M 36.373066958946424 82.5 L 32.90896534380867 80.5 M 79.67433714816835 108.5 L 80.5403625519528 109 M 120.37753112603697 133 L 97.86087062764156 120 M 93.53074360871936 117.5 L 92.66471820493493 117 M 81.40638795573723 110.5 L 80.5403625519528 110 M 77.94228634059948 108.5 L 77.07626093681503 108 M 26.846787517317598 79 L 25.980762113533157 78.5 M 76.2102355330306 108.5 L 77.07626093681503 109 M 79.67433714816835 110.5 L 80.5403625519528 111 M 91.7986928011505 117.5 L 92.66471820493493 118 M 97.86087062764156 121 L 114.31535329954589 130.5 M 115.18137870333034 131 L 120.37753112603697 134 M 79.67433714816835 111.5 L 77.07626093681503 110 M 23.38268590217984 80 L 24.24871130596428 80.5 M 30.31088913245535 84 L 32.042939940024226 85 M 77.07626093681503 111 L 79.67433714816835 112.5 M 97.86087062764156 123 L 106.52112466548594 128 M 31.17691453623979 85.5 L 30.31088913245535 85 M 38.1051177665153 90.5 L 42.43524478543749 93 M 78.80831174438391 114 L 79.67433714816835 114.5 M 92.66471820493493 123 L 91.7986928011505 122.5 M 80.5403625519528 116 L 79.67433714816835 115.5 M 77.07626093681503 114 L 76.2102355330306 113.5 M 24.24871130596428 83.5 L 23.38268590217984 83 M 3.4641016151377544 72.5 L 6.06217782649107 74 M 27.712812921102035 87.5 L 24.24871130596428 85.5 M 23.38268590217984 86 L 25.980762113533157 87.5 M 58.023702053557386 107 L 55.42562584220407 105.5 M 51.09549882328188 104 L 57.157676649772945 107.5 M 67.54998149518622 113.5 L 68.41600689897065 114 M 76.2102355330306 118.5 L 87.4685657822283 125 M 86.60254037844386 125.5 L 84.00446416709055 124 M 82.27241335952166 123 L 68.41600689897065 115 M 66.68395609140177 114 L 65.81793068761733 113.5 M 24.24871130596428 90.5 L 27.712812921102035 92.5 M 30.31088913245535 94 L 32.042939940024226 95 M 64.9519052838329 114 L 66.68395609140177 115 M 82.27241335952166 124 L 97.86087062764156 133 M 84.00446416709055 126 L 80.5403625519528 124 M 66.68395609140177 116 L 57.157676649772945 110.5 M 20.784609690826528 89.5 L 19.05255888325765 88.5 M 58.88972745734183 112.5 L 64.08587988004845 115.5 M 80.5403625519528 125 L 83.13843876330611 126.5 M 97.86087062764156 135 L 103.05702305034819 138 M 102.19099764656376 138.5 L 101.32497224277931 138 M 100.45894683899488 137.5 L 96.99484522385713 135.5 M 17.32050807568877 89.5 L 15.588457268119894 88.5 M 13.856406460551018 87.5 L 8.660254037844386 84.5 M 6.928203230275509 83.5 L 6.06217782649107 83 M 4.330127018922193 83 L 6.928203230275509 84.5 M 7.794228634059947 85 L 13.856406460551018 88.5 M 14.722431864335457 89 L 20.784609690826528 92.5 M 21.650635094610966 93 L 27.712812921102035 96.5 M 81.40638795573723 127.5 L 91.7986928011505 133.5 M 92.66471820493493 134 L 94.39676901250381 135 M 94.39676901250381 136 L 92.66471820493493 135 M 90.93266739736605 134 L 81.40638795573723 128.5 M 32.90896534380867 101.5 L 33.77499074759311 102 M 58.88972745734183 116.5 L 78.80831174438391 128 M 93.53074360871936 136.5 L 102.19099764656376 141.5 M 77.07626093681503 128 L 58.88972745734183 117.5 M 33.77499074759311 103 L 32.90896534380867 102.5 M 56.29165124598851 117 L 58.88972745734183 118.5 M 58.88972745734183 119.5 L 55.42562584220407 117.5 M 31.17691453623979 103.5 L 29.444863728670914 102.5 M 3.4641016151377544 90.5 L 4.330127018922193 91 M 73.61215932167728 133 L 83.13843876330611 138.5 M 49.363448015713 121 L 69.28203230275508 132.5 M 44.167295593006365 119 L 41.569219381653056 117.5 M 40.703193977868615 117 L 34.64101615137754 113.5 M 33.77499074759311 113 L 31.17691453623979 111.5 M 33.77499074759311 114 L 40.703193977868615 118 M 40.703193977868615 121 L 32.90896534380867 116.5 M 32.90896534380867 117.5 L 39.837168574084174 121.5 M 76.2102355330306 143.5 L 65.81793068761733 137.5 M 64.08587988004845 136.5 L 63.21985447626402 136 M 40.703193977868615 123 L 39.837168574084174 122.5 M 32.042939940024226 119 L 38.97114317029974 123 M 64.08587988004845 137.5 L 65.81793068761733 138.5 M 76.2102355330306 144.5 L 85.73651497465941 150 M 84.87048957087498 150.5 L 82.27241335952166 149 M 81.40638795573723 148.5 L 65.81793068761733 139.5 M 64.9519052838329 139 L 64.08587988004845 138.5 M 38.97114317029974 124 L 31.17691453623979 119.5 M 84.00446416709055 151 L 89.20061658979718 154 M 89.20061658979718 155 L 88.33459118601273 154.5 M 29.444863728670914 121.5 L 38.97114317029974 127 M 65.81793068761733 142.5 L 81.40638795573723 151.5 M 82.27241335952166 152 L 83.13843876330611 152.5 M 69.28203230275508 145.5 L 64.9519052838329 143 M 69.28203230275508 146.5 L 77.94228634059948 151.5 M 78.80831174438391 152 L 81.40638795573723 153.5 M 84.87048957087498 156.5 L 80.5403625519528 154 M 79.67433714816835 153.5 L 78.80831174438391 153 M 77.94228634059948 152.5 L 64.08587988004845 144.5 M 60.6217782649107 143.5 L 63.21985447626402 145 M 64.08587988004845 145.5 L 70.14805770653953 149 M 71.01408311032397 149.5 L 77.07626093681503 153 M 77.94228634059948 153.5 L 78.80831174438391 154 M 63.21985447626402 146 L 60.6217782649107 144.5 M 29.444863728670914 127.5 L 68.41600689897065 150 M 70.14805770653953 151 L 71.01408311032397 151.5 M 77.07626093681503 155 L 77.94228634059948 155.5 M 84.00446416709055 160 L 83.13843876330611 159.5 M 80.5403625519528 158 L 77.94228634059948 156.5 M 77.07626093681503 156 L 75.34421012924616 155 M 70.14805770653953 152 L 69.28203230275508 151.5 M 67.54998149518622 150.5 L 28.578838324886473 128 M 74.47818472546172 155.5 L 76.2102355330306 156.5 M 77.94228634059948 157.5 L 80.5403625519528 159 M 77.94228634059948 159.5 L 80.5403625519528 161 M 68.41600689897065 158 L 69.28203230275508 158.5 M 68.41600689897065 160 L 69.28203230275508 160.5 M 71.01408311032397 161.5 L 76.2102355330306 164.5 M 77.94228634059948 165.5 L 80.5403625519528 167 M 80.5403625519528 168 L 77.94228634059948 166.5 M 76.2102355330306 165.5 L 71.8801085141084 163 M 69.28203230275508 161.5 L 68.41600689897065 161 M 83.13843876330611 171.5 L 80.5403625519528 170 M 69.28203230275508 163.5 L 68.41600689897065 163 M 68.41600689897065 164 L 69.28203230275508 164.5 M 68.41600689897065 166 L 69.28203230275508 166.5 M 71.01408311032397 167.5 L 76.2102355330306 170.5 M 81.40638795573723 174.5 L 77.07626093681503 172 M 76.2102355330306 171.5 L 70.14805770653953 168 M 69.28203230275508 167.5 L 67.54998149518622 166.5 M 4.330127018922193 131 L 6.928203230275509 132.5 M 7.794228634059947 133 L 13.856406460551018 136.5 M 14.722431864335457 137 L 20.784609690826528 140.5 M 21.650635094610966 141 L 27.712812921102035 144.5 M 28.578838324886473 145 L 34.64101615137754 148.5 M 35.50704155516198 149 L 36.373066958946424 149.5 M 81.40638795573723 182.5 L 77.07626093681503 180 M 76.2102355330306 179.5 L 70.14805770653953 176 M 69.28203230275508 175.5 L 63.21985447626402 172 M 62.35382907247958 171.5 L 56.29165124598851 168 M 55.42562584220407 167.5 L 49.363448015713 164 M 48.49742261192856 163.5 L 42.43524478543749 160 M 41.569219381653056 159.5 L 36.373066958946424 156.5 M 83.13843876330611 185.5 L 80.5403625519528 184 M 76.2102355330306 181.5 L 73.61215932167728 180 M 69.28203230275508 177.5 L 66.68395609140177 176 M 62.35382907247958 173.5 L 59.75575286112626 172 M 55.42562584220407 169.5 L 52.827549630850754 168 M 48.49742261192856 165.5 L 45.89934640057525 164 M 41.569219381653056 161.5 L 38.97114317029974 160 M 84.00446416709055 192 L 83.13843876330611 191.5 M 77.07626093681503 188 L 76.2102355330306 187.5 M 70.14805770653953 184 L 69.28203230275508 183.5 M 63.21985447626402 180 L 62.35382907247958 179.5 M 56.29165124598851 176 L 55.42562584220407 175.5 M 49.363448015713 172 L 48.49742261192856 171.5 M 42.43524478543749 168 L 41.569219381653056 167.5 M 35.50704155516198 164 L 34.64101615137754 163.5 M 28.578838324886473 160 L 27.712812921102035 159.5 M 21.650635094610966 156 L 20.784609690826528 155.5 M 14.722431864335457 152 L 13.856406460551018 151.5 M 7.794228634059947 148 L 6.928203230275509 147.5 M 3.4641016151377544 72.5 L 3.4641016151377544 90.5 M 4.330127018922193 131 L 4.330127018922193 83 M 6.06217782649107 82 L 6.06217782649107 74 M 6.928203230275509 51.5 L 6.928203230275509 84.5 M 6.928203230275509 132.5 L 6.928203230275509 147.5 M 7.794228634059947 148 L 7.794228634059947 133 M 7.794228634059947 85 L 7.794228634059947 52 M 8.660254037844386 73.5 L 8.660254037844386 84.5 M 9.526279441628825 73 L 9.526279441628825 51 M 13.856406460551018 55.5 L 13.856406460551018 88.5 M 13.856406460551018 136.5 L 13.856406460551018 151.5 M 14.722431864335457 152 L 14.722431864335457 137 M 14.722431864335457 89 L 14.722431864335457 56 M 15.588457268119894 77.5 L 15.588457268119894 88.5 M 16.454482671904334 77 L 16.454482671904334 55 M 19.05255888325765 43.5 L 19.05255888325765 65.5 M 19.05255888325765 67.5 L 19.05255888325765 74.5 M 19.918584287042087 74 L 19.918584287042087 67 M 19.918584287042087 66 L 19.918584287042087 49 M 20.784609690826528 44.5 L 20.784609690826528 48.5 M 20.784609690826528 59.5 L 20.784609690826528 92.5 M 20.784609690826528 140.5 L 20.784609690826528 155.5 M 21.650635094610966 156 L 21.650635094610966 141 M 21.650635094610966 93 L 21.650635094610966 60 M 21.650635094610966 48 L 21.650635094610966 45 M 23.38268590217984 92 L 23.38268590217984 59 M 24.24871130596428 42.5 L 24.24871130596428 43.5 M 24.24871130596428 46.5 L 24.24871130596428 47.5 M 24.24871130596428 80.5 L 24.24871130596428 83.5 M 25.11473670974872 61 L 25.11473670974872 48 M 25.11473670974872 47 L 25.11473670974872 44 M 25.11473670974872 43 L 25.11473670974872 39 M 25.980762113533157 40.5 L 25.980762113533157 61.5 M 26.846787517317598 82 L 26.846787517317598 79 M 27.712812921102035 63.5 L 27.712812921102035 96.5 M 27.712812921102035 144.5 L 27.712812921102035 159.5 M 28.578838324886473 160 L 28.578838324886473 145 M 28.578838324886473 128 L 28.578838324886473 64 M 28.578838324886473 63 L 28.578838324886473 60 M 29.444863728670914 59.5 L 29.444863728670914 62.5 M 29.444863728670914 97.5 L 29.444863728670914 127.5 M 30.31088913245535 96 L 30.31088913245535 63 M 31.17691453623979 96.5 L 31.17691453623979 111.5 M 31.17691453623979 118.5 L 31.17691453623979 119.5 M 32.042939940024226 119 L 32.042939940024226 118 M 32.042939940024226 103 L 32.042939940024226 94 M 32.90896534380867 80.5 L 32.90896534380867 81.5 M 32.90896534380867 101.5 L 32.90896534380867 102.5 M 32.90896534380867 116.5 L 32.90896534380867 117.5 M 33.77499074759311 114 L 33.77499074759311 103 M 33.77499074759311 102 L 33.77499074759311 93 M 33.77499074759311 81 L 33.77499074759311 80 M 34.64101615137754 92.5 L 34.64101615137754 113.5 M 34.64101615137754 148.5 L 34.64101615137754 163.5 M 35.50704155516198 164 L 35.50704155516198 149 M 36.373066958946424 149.5 L 36.373066958946424 156.5 M 38.1051177665153 82.5 L 38.1051177665153 90.5 M 38.97114317029974 160 L 38.97114317029974 158 M 38.97114317029974 127 L 38.97114317029974 124 M 39.837168574084174 121.5 L 39.837168574084174 122.5 M 40.703193977868615 123 L 40.703193977868615 121 M 40.703193977868615 118 L 40.703193977868615 117 M 41.569219381653056 159.5 L 41.569219381653056 167.5 M 42.43524478543749 168 L 42.43524478543749 160 M 42.43524478543749 93 L 42.43524478543749 85 M 43.30127018922193 78.5 L 43.30127018922193 79.5 M 43.30127018922193 84.5 L 43.30127018922193 92.5 M 44.167295593006365 119 L 44.167295593006365 116 M 45.033320996790806 50.5 L 45.033320996790806 51.5 M 45.89934640057525 164 L 45.89934640057525 162 M 48.49742261192856 49.5 L 48.49742261192856 70.5 M 48.49742261192856 163.5 L 48.49742261192856 171.5 M 49.363448015713 172 L 49.363448015713 164 M 49.363448015713 83 L 49.363448015713 82 M 51.09549882328188 104 L 51.09549882328188 82 M 51.09549882328188 48 L 51.09549882328188 47 M 52.827549630850754 168 L 52.827549630850754 166 M 53.693575034635195 84.5 L 53.693575034635195 85.5 M 54.55960043841963 50 L 54.55960043841963 49 M 55.42562584220407 167.5 L 55.42562584220407 175.5 M 56.29165124598851 176 L 56.29165124598851 168 M 57.157676649772945 107.5 L 57.157676649772945 116.5 M 58.023702053557386 88 L 58.023702053557386 87 M 58.88972745734183 76.5 L 58.88972745734183 77.5 M 58.88972745734183 112.5 L 58.88972745734183 116.5 M 58.88972745734183 117.5 L 58.88972745734183 119.5 M 59.75575286112626 172 L 59.75575286112626 170 M 60.6217782649107 143.5 L 60.6217782649107 144.5 M 61.48780366869514 76 L 61.48780366869514 75 M 62.35382907247958 171.5 L 62.35382907247958 179.5 M 63.21985447626402 180 L 63.21985447626402 172 M 63.21985447626402 147 L 63.21985447626402 146 M 63.21985447626402 145 L 63.21985447626402 136 M 63.21985447626402 88 L 63.21985447626402 85 M 63.21985447626402 79 L 63.21985447626402 77 M 63.21985447626402 74 L 63.21985447626402 45 M 64.08587988004845 136.5 L 64.08587988004845 137.5 M 64.08587988004845 138.5 L 64.08587988004845 144.5 M 64.08587988004845 145.5 L 64.08587988004845 147.5 M 64.9519052838329 143 L 64.9519052838329 139 M 64.9519052838329 115 L 64.9519052838329 114 M 64.9519052838329 98 L 64.9519052838329 89 M 65.81793068761733 89.5 L 65.81793068761733 98.5 M 65.81793068761733 137.5 L 65.81793068761733 138.5 M 65.81793068761733 139.5 L 65.81793068761733 142.5 M 66.68395609140177 176 L 66.68395609140177 174 M 66.68395609140177 116 L 66.68395609140177 115 M 66.68395609140177 99 L 66.68395609140177 95 M 66.68395609140177 92 L 66.68395609140177 90 M 67.54998149518622 150.5 L 67.54998149518622 166.5 M 68.41600689897065 166 L 68.41600689897065 150 M 68.41600689897065 115 L 68.41600689897065 114 M 69.28203230275508 145.5 L 69.28203230275508 146.5 M 69.28203230275508 151.5 L 69.28203230275508 167.5 M 69.28203230275508 175.5 L 69.28203230275508 183.5 M 70.14805770653953 184 L 70.14805770653953 176 M 70.14805770653953 168 L 70.14805770653953 152 M 70.14805770653953 151 L 70.14805770653953 149 M 71.01408311032397 149.5 L 71.01408311032397 167.5 M 71.8801085141084 168 L 71.8801085141084 163 M 71.8801085141084 91 L 71.8801085141084 80 M 71.8801085141084 79 L 71.8801085141084 44 M 72.74613391789285 44.5 L 72.74613391789285 90.5 M 73.61215932167728 180 L 73.61215932167728 178 M 74.47818472546172 155.5 L 74.47818472546172 157.5 M 75.34421012924616 95 L 75.34421012924616 93 M 75.34421012924616 86 L 75.34421012924616 78 M 75.34421012924616 46 L 75.34421012924616 42 M 76.2102355330306 42.5 L 76.2102355330306 45.5 M 76.2102355330306 78.5 L 76.2102355330306 86.5 M 76.2102355330306 87.5 L 76.2102355330306 88.5 M 76.2102355330306 92.5 L 76.2102355330306 94.5 M 76.2102355330306 99.5 L 76.2102355330306 100.5 M 76.2102355330306 108.5 L 76.2102355330306 113.5 M 76.2102355330306 143.5 L 76.2102355330306 144.5 M 76.2102355330306 155.5 L 76.2102355330306 171.5 M 76.2102355330306 179.5 L 76.2102355330306 187.5 M 77.07626093681503 188 L 77.07626093681503 180 M 77.07626093681503 172 L 77.07626093681503 156 M 77.07626093681503 155 L 77.07626093681503 153 M 77.07626093681503 114 L 77.07626093681503 111 M 77.07626093681503 110 L 77.07626093681503 109 M 77.07626093681503 108 L 77.07626093681503 101 M 77.94228634059948 101.5 L 77.94228634059948 104.5 M 77.94228634059948 105.5 L 77.94228634059948 108.5 M 77.94228634059948 151.5 L 77.94228634059948 152.5 M 77.94228634059948 153.5 L 77.94228634059948 154.5 M 77.94228634059948 155.5 L 77.94228634059948 171.5 M 78.80831174438391 153 L 78.80831174438391 152 M 78.80831174438391 129 L 78.80831174438391 128 M 78.80831174438391 114 L 78.80831174438391 112 M 78.80831174438391 101 L 78.80831174438391 90 M 78.80831174438391 86 L 78.80831174438391 41 M 79.67433714816835 83.5 L 79.67433714816835 85.5 M 79.67433714816835 90.5 L 79.67433714816835 103.5 M 79.67433714816835 106.5 L 79.67433714816835 108.5 M 79.67433714816835 110.5 L 79.67433714816835 111.5 M 79.67433714816835 112.5 L 79.67433714816835 115.5 M 80.5403625519528 184 L 80.5403625519528 182 M 80.5403625519528 170 L 80.5403625519528 154 M 80.5403625519528 125 L 80.5403625519528 124 M 80.5403625519528 116 L 80.5403625519528 111 M 80.5403625519528 110 L 80.5403625519528 107 M 80.5403625519528 106 L 80.5403625519528 91 M 80.5403625519528 90 L 80.5403625519528 84 M 80.5403625519528 79 L 80.5403625519528 41 M 81.40638795573723 84.5 L 81.40638795573723 110.5 M 81.40638795573723 127.5 L 81.40638795573723 128.5 M 81.40638795573723 148.5 L 81.40638795573723 151.5 M 81.40638795573723 174.5 L 81.40638795573723 182.5 M 82.27241335952166 152 L 82.27241335952166 149 M 82.27241335952166 42 L 82.27241335952166 39 M 83.13843876330611 34.5 L 83.13843876330611 37.5 M 83.13843876330611 85.5 L 83.13843876330611 115.5 M 83.13843876330611 159.5 L 83.13843876330611 191.5 M 84.00446416709055 192 L 84.00446416709055 160 M 84.00446416709055 152 L 84.00446416709055 151 M 84.00446416709055 125 L 84.00446416709055 123 M 84.00446416709055 84 L 84.00446416709055 34 M 84.00446416709055 33 L 84.00446416709055 32 M 84.87048957087498 37.5 L 84.87048957087498 71.5 M 84.87048957087498 73.5 L 84.87048957087498 83.5 M 84.87048957087498 156.5 L 84.87048957087498 158.5 M 85.73651497465941 82 L 85.73651497465941 73 M 86.60254037844386 71.5 L 86.60254037844386 81.5 M 86.60254037844386 87.5 L 86.60254037844386 92.5 M 86.60254037844386 94.5 L 86.60254037844386 95.5 M 87.4685657822283 85 L 87.4685657822283 84 M 88.33459118601273 70.5 L 88.33459118601273 80.5 M 88.33459118601273 81.5 L 88.33459118601273 85.5 M 88.33459118601273 88.5 L 88.33459118601273 107.5 M 88.33459118601273 154.5 L 88.33459118601273 156.5 M 89.20061658979718 156 L 89.20061658979718 155 M 89.20061658979718 108 L 89.20061658979718 103 M 89.20061658979718 102 L 89.20061658979718 98 M 89.20061658979718 96 L 89.20061658979718 95 M 89.20061658979718 94 L 89.20061658979718 91 M 89.20061658979718 90 L 89.20061658979718 89 M 89.20061658979718 86 L 89.20061658979718 83 M 90.06664199358161 40.5 L 90.06664199358161 68.5 M 90.06664199358161 91.5 L 90.06664199358161 94.5 M 90.93266739736605 96 L 90.93266739736605 92 M 90.93266739736605 69 L 90.93266739736605 41 M 90.93266739736605 6 L 90.93266739736605 4 M 91.7986928011505 66.5 L 91.7986928011505 83.5 M 91.7986928011505 84.5 L 91.7986928011505 87.5 M 91.7986928011505 90.5 L 91.7986928011505 91.5 M 91.7986928011505 92.5 L 91.7986928011505 97.5 M 91.7986928011505 99.5 L 91.7986928011505 103.5 M 91.7986928011505 104.5 L 91.7986928011505 109.5 M 91.7986928011505 117.5 L 91.7986928011505 122.5 M 92.66471820493493 135 L 92.66471820493493 134 M 92.66471820493493 123 L 92.66471820493493 118 M 92.66471820493493 117 L 92.66471820493493 89 M 92.66471820493493 88 L 92.66471820493493 66 M 93.53074360871936 90.5 L 93.53074360871936 117.5 M 94.39676901250381 136 L 94.39676901250381 135 M 94.39676901250381 67 L 94.39676901250381 43 M 95.26279441628824 43.5 L 95.26279441628824 50.5 M 95.26279441628824 51.5 L 95.26279441628824 61.5 M 95.26279441628824 87.5 L 95.26279441628824 122.5 M 96.12881982007268 67 L 96.12881982007268 51 M 96.99484522385713 44.5 L 96.99484522385713 46.5 M 97.86087062764156 135 L 97.86087062764156 133 M 97.86087062764156 123 L 97.86087062764156 121 M 97.86087062764156 10 L 97.86087062764156 8 M 98.726896031426 49.5 L 98.726896031426 64.5 M 99.59292143521044 61 L 99.59292143521044 49 M 99.59292143521044 48 L 99.59292143521044 46 M 100.45894683899488 46.5 L 100.45894683899488 48.5 M 101.32497224277931 141 L 101.32497224277931 138 M 101.32497224277931 63 L 101.32497224277931 61 M 101.32497224277931 60 L 101.32497224277931 47 M 102.19099764656376 47.5 L 102.19099764656376 48.5 M 102.19099764656376 49.5 L 102.19099764656376 51.5 M 102.19099764656376 52.5 L 102.19099764656376 60.5 M 102.19099764656376 63.5 L 102.19099764656376 106.5 M 102.19099764656376 137.5 L 102.19099764656376 146.5 M 103.05702305034819 146 L 103.05702305034819 138 M 103.05702305034819 52 L 103.05702305034819 46 M 103.92304845413263 45.5 L 103.92304845413263 52.5 M 104.78907385791707 62 L 104.78907385791707 61 M 104.78907385791707 59 L 104.78907385791707 52 M 104.78907385791707 14 L 104.78907385791707 12 M 106.52112466548594 135 L 106.52112466548594 126 M 107.38715006927039 46.5 L 107.38715006927039 62.5 M 108.25317547305482 63 L 108.25317547305482 54 M 108.25317547305482 53 L 108.25317547305482 52 M 108.25317547305482 50 L 108.25317547305482 46 M 110.85125168440814 47.5 L 110.85125168440814 51.5 M 110.85125168440814 55.5 L 110.85125168440814 62.5 M 111.71727708819257 52 L 111.71727708819257 48 M 111.71727708819257 18 L 111.71727708819257 16 M 113.44932789576146 66 L 113.44932789576146 57 M 113.44932789576146 53 L 113.44932789576146 49 M 114.31535329954589 50.5 L 114.31535329954589 53.5 M 114.31535329954589 57.5 L 114.31535329954589 66.5 M 115.18137870333034 139 L 115.18137870333034 131 M 115.18137870333034 130 L 115.18137870333034 123 M 115.18137870333034 66 L 115.18137870333034 58 M 116.04740410711477 58.5 L 116.04740410711477 67.5 M 116.9134295108992 68 L 116.9134295108992 59 M 118.64548031846809 67 L 118.64548031846809 60 M 118.64548031846809 43 L 118.64548031846809 40 M 118.64548031846809 27 L 118.64548031846809 20 M 119.51150572225252 90.5 L 119.51150572225252 115.5 M 120.37753112603697 136 L 120.37753112603697 134 M 120.37753112603697 115 L 120.37753112603697 91 M 121.2435565298214 59.5 L 121.2435565298214 60.5 M 122.10958193360584 61 L 122.10958193360584 59 M 122.97560733739029 117.5 L 122.97560733739029 126.5 M 123.84163274117472 122 L 123.84163274117472 118 M 124.70765814495915 123.5 L 124.70765814495915 127.5 M 124.70765814495915 131.5 L 124.70765814495915 133.5 M 125.5736835487436 31 L 125.5736835487436 24 M 127.30573435631247 132 L 127.30573435631247 130 M 128.1717597600969 58.5 L 128.1717597600969 61.5 M 128.1717597600969 62.5 L 128.1717597600969 64.5 M 128.1717597600969 65.5 L 128.1717597600969 74.5 M 128.1717597600969 75.5 L 128.1717597600969 85.5 M 128.1717597600969 125.5 L 128.1717597600969 129.5 M 129.03778516388135 130 L 129.03778516388135 126 M 129.03778516388135 110 L 129.03778516388135 86 M 129.03778516388135 67 L 129.03778516388135 66 M 129.03778516388135 64 L 129.03778516388135 63 M 129.03778516388135 62 L 129.03778516388135 58 M 129.9038105676658 66.5 L 129.9038105676658 67.5 M 129.9038105676658 131.5 L 129.9038105676658 132.5 M 131.63586137523467 59.5 L 131.63586137523467 63.5 M 132.50188677901912 70 L 132.50188677901912 69 M 132.50188677901912 64 L 132.50188677901912 60 M 132.50188677901912 35 L 132.50188677901912 28 M 133.36791218280354 66.5 L 133.36791218280354 67.5 M 133.36791218280354 70.5 L 133.36791218280354 88.5 M 134.23393758658798 88 L 134.23393758658798 70 M 135.09996299037243 75.5 L 135.09996299037243 87.5 M 135.96598839415685 69 L 135.96598839415685 67 M 136.8320137979413 66.5 L 136.8320137979413 69.5 M 136.8320137979413 70.5 L 136.8320137979413 109.5 M 137.69803920172575 128 L 137.69803920172575 110 M 137.69803920172575 97 L 137.69803920172575 70 M 138.56406460551017 63.5 L 138.56406460551017 97.5 M 138.56406460551017 110.5 L 138.56406460551017 127.5 M 139.43009000929462 128 L 139.43009000929462 64 M 139.43009000929462 39 L 139.43009000929462 32 M 140.29611541307906 51.5 L 140.29611541307906 54.5 M 146.35829323957012 43 L 146.35829323957012 36 M 153.28649646984564 47 L 153.28649646984564 40 M 160.21469970012114 51 L 160.21469970012114 44 M 167.14290293039664 144 L 167.14290293039664 48 " /></g></svg>