<svg viewBox="-19.200000000000003 -19.200000000000003 150.98330249197704 230.4" xmlns="http://www.w3.org/2000/svg"><g stroke="black" stroke-width="0.4" stroke-linecap="round"><path d="M 9.526279441628825 43 L 11.258330249197702 42 M 21.650635094610966 36 L 24.24871130596428 34.5 M 39.837168574084174 25.5 L 54.55960043841963 17 M 9.526279441628825 47 L 11.258330249197702 46 M 21.650635094610966 40 L 24.24871130596428 38.5 M 28.578838324886473 36 L 38.1051177665153 30.5 M 40.703193977868615 29 L 42.43524478543749 28 M 48.49742261192856 24.5 L 49.363448015713 24 M 38.97114317029974 31 L 29.444863728670914 36.5 M 23.38268590217984 40 L 22.516660498395403 40.5 M 22.516660498395403 41.5 L 23.38268590217984 41 M 29.444863728670914 37.5 L 38.97114317029974 32 M 63.21985447626402 19 L 58.88972745734183 21.5 M 25.11473670974872 41 L 16.454482671904334 46 M 9.526279441628825 51 L 11.258330249197702 50 M 31.17691453623979 38.5 L 36.373066958946424 35.5 M 38.97114317029974 34 L 43.30127018922193 31.5 M 52.827549630850754 27 L 47.63139720814412 30 M 43.30127018922193 32.5 L 32.042939940024226 39 M 30.31088913245535 41 L 43.30127018922193 33.5 M 44.167295593006365 33 L 45.033320996790806 32.5 M 47.63139720814412 31 L 52.827549630850754 28 M 45.89934640057525 33 L 44.167295593006365 34 M 32.90896534380867 40.5 L 30.31088913245535 42 M 39.837168574084174 37.5 L 44.167295593006365 35 M 63.21985447626402 25 L 57.157676649772945 28.5 M 52.827549630850754 31 L 48.49742261192856 33.5 M 43.30127018922193 36.5 L 40.703193977868615 38 M 22.516660498395403 49.5 L 43.30127018922193 37.5 M 44.167295593006365 37 L 45.89934640057525 36 M 48.49742261192856 34.5 L 52.827549630850754 32 M 57.157676649772945 29.5 L 64.08587988004845 25.5 M 45.89934640057525 37 L 44.167295593006365 38 M 41.569219381653056 39.5 L 22.516660498395403 50.5 M 30.31088913245535 47 L 36.373066958946424 43.5 M 40.703193977868615 41 L 44.167295593006365 39 M 65.81793068761733 27.5 L 51.96152422706631 35.5 M 43.30127018922193 40.5 L 41.569219381653056 41.5 M 39.837168574084174 42.5 L 31.17691453623979 47.5 M 29.444863728670914 49.5 L 39.837168574084174 43.5 M 41.569219381653056 42.5 L 43.30127018922193 41.5 M 44.167295593006365 41 L 45.89934640057525 40 M 51.96152422706631 36.5 L 65.81793068761733 28.5 M 45.89934640057525 41 L 44.167295593006365 42 M 32.042939940024226 49 L 29.444863728670914 50.5 M 28.578838324886473 52 L 33.77499074759311 49 M 40.703193977868615 45 L 43.30127018922193 43.5 M 75.34421012924616 26 L 71.01408311032397 28.5 M 65.81793068761733 31.5 L 51.96152422706631 39.5 M 39.837168574084174 46.5 L 37.23909236273086 48 M 34.64101615137754 49.5 L 29.444863728670914 52.5 M 28.578838324886473 54 L 39.837168574084174 47.5 M 51.96152422706631 40.5 L 65.81793068761733 32.5 M 71.01408311032397 29.5 L 75.34421012924616 27 M 30.31088913245535 54 L 28.578838324886473 55 M 32.042939940024226 54 L 33.77499074759311 53 M 40.703193977868615 49 L 43.30127018922193 47.5 M 65.81793068761733 35.5 L 54.55960043841963 42 M 51.96152422706631 43.5 L 51.09549882328188 44 M 39.837168574084174 50.5 L 37.23909236273086 52 M 34.64101615137754 53.5 L 32.90896534380867 54.5 M 28.578838324886473 58 L 30.31088913245535 57 M 32.90896534380867 55.5 L 39.837168574084174 51.5 M 51.96152422706631 44.5 L 65.81793068761733 36.5 M 55.42562584220407 43.5 L 51.96152422706631 45.5 M 30.31088913245535 58 L 28.578838324886473 59 M 40.703193977868615 53 L 43.30127018922193 51.5 M 69.28203230275508 37.5 L 54.55960043841963 46 M 51.96152422706631 47.5 L 51.09549882328188 48 M 39.837168574084174 54.5 L 37.23909236273086 56 M 36.373066958946424 56.5 L 29.444863728670914 60.5 M 26.846787517317598 62 L 7.794228634059947 73 M 6.928203230275509 73.5 L 1.7320508075688772 76.5 M 28.578838324886473 62 L 30.31088913245535 61 M 37.23909236273086 57 L 39.837168574084174 55.5 M 51.96152422706631 48.5 L 61.48780366869514 43 M 55.42562584220407 47.5 L 51.96152422706631 49.5 M 39.837168574084174 56.5 L 38.1051177665153 57.5 M 30.31088913245535 62 L 28.578838324886473 63 M 20.784609690826528 68.5 L 39.837168574084174 57.5 M 40.703193977868615 57 L 43.30127018922193 55.5 M 44.167295593006365 55 L 46.76537180435968 53.5 M 64.08587988004845 44.5 L 54.55960043841963 50 M 51.96152422706631 51.5 L 51.09549882328188 52 M 47.63139720814412 54 L 44.167295593006365 56 M 38.97114317029974 59 L 21.650635094610966 69 M 4.330127018922193 79 L 1.7320508075688772 80.5 M 51.96152422706631 52.5 L 61.48780366869514 47 M 55.42562584220407 51.5 L 51.96152422706631 53.5 M 39.837168574084174 60.5 L 38.1051177665153 61.5 M 24.24871130596428 70.5 L 39.837168574084174 61.5 M 40.703193977868615 61 L 43.30127018922193 59.5 M 44.167295593006365 59 L 50.22947341949744 55.5 M 64.08587988004845 48.5 L 54.55960043841963 54 M 51.96152422706631 55.5 L 44.167295593006365 60 M 38.97114317029974 63 L 25.11473670974872 71 M 4.330127018922193 83 L 1.7320508075688772 84.5 M 10.392304845413264 80.5 L 14.722431864335457 78 M 15.588457268119894 77.5 L 16.454482671904334 77 M 51.96152422706631 56.5 L 61.48780366869514 51 M 80.5403625519528 40 L 90.93266739736605 34 M 55.42562584220407 55.5 L 51.96152422706631 57.5 M 39.837168574084174 64.5 L 38.1051177665153 65.5 M 16.454482671904334 78 L 15.588457268119894 78.5 M 14.722431864335457 79 L 11.258330249197702 81 M 26.846787517317598 73 L 39.837168574084174 65.5 M 40.703193977868615 65 L 43.30127018922193 63.5 M 44.167295593006365 63 L 56.29165124598851 56 M 79.67433714816835 43.5 L 71.8801085141084 48 M 64.08587988004845 52.5 L 61.48780366869514 54 M 56.29165124598851 57 L 44.167295593006365 64 M 38.97114317029974 67 L 23.38268590217984 76 M 4.330127018922193 87 L 1.7320508075688772 88.5 M 10.392304845413264 84.5 L 12.12435565298214 83.5 M 13.856406460551018 82.5 L 14.722431864335457 82 M 15.588457268119894 81.5 L 16.454482671904334 81 M 24.24871130596428 76.5 L 27.712812921102035 74.5 M 71.8801085141084 49 L 79.67433714816835 44.5 M 81.40638795573723 43.5 L 83.13843876330611 42.5 M 39.837168574084174 68.5 L 38.1051177665153 69.5 M 26.846787517317598 76 L 25.11473670974872 77 M 19.918584287042087 80 L 17.32050807568877 81.5 M 16.454482671904334 82 L 15.588457268119894 82.5 M 12.990381056766578 84 L 11.258330249197702 85 M 17.32050807568877 82.5 L 20.784609690826528 80.5 M 27.712812921102035 76.5 L 39.837168574084174 69.5 M 40.703193977868615 69 L 43.30127018922193 67.5 M 44.167295593006365 67 L 56.29165124598851 60 M 79.67433714816835 47.5 L 71.8801085141084 52 M 64.08587988004845 56.5 L 61.48780366869514 58 M 56.29165124598851 61 L 44.167295593006365 68 M 38.97114317029974 71 L 28.578838324886473 77 M 4.330127018922193 91 L 1.7320508075688772 92.5 M 10.392304845413264 88.5 L 12.12435565298214 87.5 M 13.856406460551018 86.5 L 14.722431864335457 86 M 26.846787517317598 79 L 29.444863728670914 77.5 M 71.8801085141084 53 L 79.67433714816835 48.5 M 87.4685657822283 44 L 97.86087062764156 38 M 97.86087062764156 39 L 87.4685657822283 45 M 85.73651497465941 46 L 84.87048957087498 46.5 M 39.837168574084174 72.5 L 38.1051177665153 73.5 M 29.444863728670914 78.5 L 27.712812921102035 79.5 M 23.38268590217984 82 L 18.186533479473212 85 M 16.454482671904334 86 L 15.588457268119894 86.5 M 12.990381056766578 88 L 11.258330249197702 89 M 19.05255888325765 85.5 L 24.24871130596428 82.5 M 28.578838324886473 80 L 39.837168574084174 73.5 M 40.703193977868615 73 L 43.30127018922193 71.5 M 44.167295593006365 71 L 56.29165124598851 64 M 79.67433714816835 51.5 L 71.8801085141084 56 M 64.08587988004845 60.5 L 61.48780366869514 62 M 56.29165124598851 65 L 44.167295593006365 72 M 38.97114317029974 75 L 29.444863728670914 80.5 M 4.330127018922193 95 L 1.7320508075688772 96.5 M 10.392304845413264 92.5 L 12.12435565298214 91.5 M 13.856406460551018 90.5 L 14.722431864335457 90 M 19.918584287042087 87 L 20.784609690826528 86.5 M 26.846787517317598 83 L 30.31088913245535 81 M 71.8801085141084 57 L 79.67433714816835 52.5 M 87.4685657822283 48 L 97.86087062764156 42 M 97.86087062764156 43 L 87.4685657822283 49 M 39.837168574084174 76.5 L 38.1051177665153 77.5 M 30.31088913245535 82 L 18.186533479473212 89 M 16.454482671904334 90 L 15.588457268119894 90.5 M 12.990381056766578 92 L 11.258330249197702 93 M 19.05255888325765 89.5 L 39.837168574084174 77.5 M 40.703193977868615 77 L 43.30127018922193 75.5 M 44.167295593006365 75 L 56.29165124598851 68 M 79.67433714816835 55.5 L 71.8801085141084 60 M 64.08587988004845 64.5 L 61.48780366869514 66 M 56.29165124598851 69 L 44.167295593006365 76 M 38.97114317029974 79 L 25.11473670974872 87 M 4.330127018922193 99 L 1.7320508075688772 100.5 M 10.392304845413264 96.5 L 12.12435565298214 95.5 M 13.856406460551018 94.5 L 14.722431864335457 94 M 19.918584287042087 91 L 20.784609690826528 90.5 M 71.8801085141084 61 L 79.67433714816835 56.5 M 26.846787517317598 88 L 18.186533479473212 93 M 16.454482671904334 94 L 15.588457268119894 94.5 M 12.990381056766578 96 L 11.258330249197702 97 M 9.526279441628825 99 L 10.392304845413264 98.5 M 12.12435565298214 97.5 L 12.990381056766578 97 M 15.588457268119894 95.5 L 17.32050807568877 94.5 M 19.05255888325765 93.5 L 43.30127018922193 79.5 M 44.167295593006365 79 L 56.29165124598851 72 M 94.39676901250381 51 L 90.06664199358161 53.5 M 79.67433714816835 59.5 L 71.8801085141084 64 M 64.08587988004845 68.5 L 61.48780366869514 70 M 56.29165124598851 73 L 44.167295593006365 80 M 40.703193977868615 82 L 19.918584287042087 94 M 18.186533479473212 95 L 16.454482671904334 96 M 14.722431864335457 97 L 12.990381056766578 98 M 11.258330249197702 99 L 10.392304845413264 99.5 M 4.330127018922193 103 L 1.7320508075688772 104.5 M 19.918584287042087 95 L 20.784609690826528 94.5 M 71.8801085141084 65 L 79.67433714816835 60.5 M 45.033320996790806 81.5 L 43.30127018922193 82.5 M 39.837168574084174 84.5 L 36.373066958946424 86.5 M 26.846787517317598 92 L 18.186533479473212 97 M 9.526279441628825 103 L 10.392304845413264 102.5 M 16.454482671904334 99 L 17.32050807568877 98.5 M 19.05255888325765 97.5 L 26.846787517317598 93 M 34.64101615137754 88.5 L 39.837168574084174 85.5 M 40.703193977868615 85 L 45.033320996790806 82.5 M 45.89934640057525 82 L 56.29165124598851 76 M 92.66471820493493 56 L 90.06664199358161 57.5 M 79.67433714816835 63.5 L 71.8801085141084 68 M 64.08587988004845 72.5 L 61.48780366869514 74 M 56.29165124598851 77 L 45.89934640057525 83 M 38.1051177665153 87.5 L 35.50704155516198 89 M 25.11473670974872 95 L 19.918584287042087 98 M 18.186533479473212 99 L 17.32050807568877 99.5 M 11.258330249197702 103 L 10.392304845413264 103.5 M 4.330127018922193 107 L 1.7320508075688772 108.5 M 19.918584287042087 99 L 20.784609690826528 98.5 M 71.8801085141084 69 L 79.67433714816835 64.5 M 45.033320996790806 85.5 L 43.30127018922193 86.5 M 39.837168574084174 88.5 L 37.23909236273086 90 M 26.846787517317598 96 L 19.05255888325765 100.5 M 9.526279441628825 107 L 10.392304845413264 106.5 M 19.918584287042087 101 L 26.846787517317598 97 M 38.1051177665153 90.5 L 39.837168574084174 89.5 M 43.30127018922193 87.5 L 45.033320996790806 86.5 M 45.89934640057525 86 L 56.29165124598851 80 M 92.66471820493493 60 L 84.00446416709055 65 M 79.67433714816835 67.5 L 71.8801085141084 72 M 64.08587988004845 76.5 L 38.1051177665153 91.5 M 11.258330249197702 107 L 10.392304845413264 107.5 M 4.330127018922193 111 L 1.7320508075688772 112.5 M 7.794228634059947 110 L 8.660254037844386 109.5 M 19.918584287042087 103 L 20.784609690826528 102.5 M 38.97114317029974 92 L 56.29165124598851 82 M 71.8801085141084 73 L 79.67433714816835 68.5 M 56.29165124598851 83 L 38.97114317029974 93 M 20.784609690826528 103.5 L 19.918584287042087 104 M 9.526279441628825 110 L 8.660254037844386 110.5 M 23.38268590217984 103 L 41.569219381653056 92.5 M 86.60254037844386 67.5 L 84.00446416709055 69 M 79.67433714816835 71.5 L 71.8801085141084 76 M 58.023702053557386 84 L 24.24871130596428 103.5 M 11.258330249197702 111 L 10.392304845413264 111.5 M 4.330127018922193 115 L 1.7320508075688772 116.5 M 7.794228634059947 114 L 8.660254037844386 113.5 M 19.918584287042087 107 L 25.11473670974872 104 M 38.97114317029974 96 L 56.29165124598851 86 M 71.8801085141084 77 L 79.67433714816835 72.5 M 56.29165124598851 87 L 38.97114317029974 97 M 25.11473670974872 105 L 19.918584287042087 108 M 12.990381056766578 112 L 12.12435565298214 112.5 M 9.526279441628825 114 L 8.660254037844386 114.5 M 23.38268590217984 107 L 41.569219381653056 96.5 M 90.06664199358161 68.5 L 96.12881982007268 65 M 103.05702305034819 61 L 107.38715006927039 58.5 M 107.38715006927039 59.5 L 103.05702305034819 62 M 96.12881982007268 66 L 90.06664199358161 69.5 M 86.60254037844386 71.5 L 84.00446416709055 73 M 80.5403625519528 75 L 71.8801085141084 80 M 58.023702053557386 88 L 24.24871130596428 107.5 M 11.258330249197702 115 L 10.392304845413264 115.5 M 4.330127018922193 119 L 1.7320508075688772 120.5 M 7.794228634059947 118 L 8.660254037844386 117.5 M 19.918584287042087 111 L 25.11473670974872 108 M 38.97114317029974 100 L 56.29165124598851 90 M 63.21985447626402 86 L 68.41600689897065 83 M 71.8801085141084 81 L 79.67433714816835 76.5 M 68.41600689897065 84 L 63.21985447626402 87 M 56.29165124598851 91 L 36.373066958946424 102.5 M 25.11473670974872 109 L 19.918584287042087 112 M 12.990381056766578 116 L 12.12435565298214 116.5 M 9.526279441628825 118 L 8.660254037844386 118.5 M 23.38268590217984 111 L 39.837168574084174 101.5 M 90.06664199358161 72.5 L 96.12881982007268 69 M 103.05702305034819 65 L 107.38715006927039 62.5 M 107.38715006927039 63.5 L 103.05702305034819 66 M 96.12881982007268 70 L 90.06664199358161 73.5 M 86.60254037844386 75.5 L 84.87048957087498 76.5 M 74.47818472546172 82.5 L 71.01408311032397 84.5 M 58.023702053557386 92 L 24.24871130596428 111.5 M 11.258330249197702 119 L 10.392304845413264 119.5 M 4.330127018922193 123 L 1.7320508075688772 124.5 M 7.794228634059947 122 L 8.660254037844386 121.5 M 19.918584287042087 115 L 25.11473670974872 112 M 38.1051177665153 104.5 L 56.29165124598851 94 M 71.01408311032397 85.5 L 74.47818472546172 83.5 M 56.29165124598851 95 L 36.373066958946424 106.5 M 25.11473670974872 113 L 19.918584287042087 116 M 12.990381056766578 120 L 12.12435565298214 120.5 M 9.526279441628825 122 L 8.660254037844386 122.5 M 23.38268590217984 115 L 39.837168574084174 105.5 M 90.06664199358161 76.5 L 96.12881982007268 73 M 103.05702305034819 69 L 107.38715006927039 66.5 M 107.38715006927039 67.5 L 103.05702305034819 70 M 96.12881982007268 74 L 90.06664199358161 77.5 M 88.33459118601273 78.5 L 84.87048957087498 80.5 M 74.47818472546172 86.5 L 65.81793068761733 91.5 M 58.023702053557386 96 L 24.24871130596428 115.5 M 11.258330249197702 123 L 10.392304845413264 123.5 M 7.794228634059947 126 L 8.660254037844386 125.5 M 19.918584287042087 119 L 25.11473670974872 116 M 35.50704155516198 110 L 37.23909236273086 109 M 38.1051177665153 108.5 L 56.29165124598851 98 M 65.81793068761733 92.5 L 74.47818472546172 87.5 M 56.29165124598851 99 L 36.373066958946424 110.5 M 25.11473670974872 117 L 19.918584287042087 120 M 12.990381056766578 124 L 12.12435565298214 124.5 M 9.526279441628825 126 L 8.660254037844386 126.5 M 5.196152422706632 129.5 L 6.06217782649107 129 M 37.23909236273086 111 L 38.1051177665153 110.5 M 90.06664199358161 80.5 L 96.12881982007268 77 M 103.05702305034819 73 L 107.38715006927039 70.5 M 107.38715006927039 71.5 L 103.05702305034819 74 M 96.12881982007268 78 L 90.06664199358161 81.5 M 88.33459118601273 82.5 L 84.87048957087498 84.5 M 74.47818472546172 90.5 L 65.81793068761733 95.5 M 58.023702053557386 100 L 38.1051177665153 111.5 M 19.918584287042087 123 L 23.38268590217984 121 M 38.97114317029974 112 L 56.29165124598851 102 M 65.81793068761733 96.5 L 74.47818472546172 91.5 M 56.29165124598851 103 L 38.97114317029974 113 M 23.38268590217984 122 L 19.918584287042087 124 M 12.990381056766578 128 L 12.12435565298214 128.5 M 25.11473670974872 122 L 30.31088913245535 119 M 90.06664199358161 84.5 L 96.12881982007268 81 M 103.05702305034819 77 L 107.38715006927039 74.5 M 107.38715006927039 75.5 L 103.05702305034819 78 M 96.12881982007268 82 L 90.06664199358161 85.5 M 88.33459118601273 86.5 L 87.4685657822283 87 M 74.47818472546172 94.5 L 65.81793068761733 99.5 M 58.023702053557386 104 L 38.1051177665153 115.5 M 31.17691453623979 119.5 L 25.11473670974872 123 M 10.392304845413264 132.5 L 11.258330249197702 132 M 19.918584287042087 127 L 23.38268590217984 125 M 38.97114317029974 116 L 56.29165124598851 106 M 65.81793068761733 100.5 L 74.47818472546172 95.5 M 56.29165124598851 107 L 27.712812921102035 123.5 M 23.38268590217984 126 L 19.918584287042087 128 M 12.990381056766578 132 L 12.12435565298214 132.5 M 11.258330249197702 133 L 10.392304845413264 133.5 M 25.11473670974872 126 L 43.30127018922193 115.5 M 90.06664199358161 88.5 L 96.12881982007268 85 M 96.99484522385713 84.5 L 97.86087062764156 84 M 103.05702305034819 81 L 107.38715006927039 78.5 M 107.38715006927039 79.5 L 103.05702305034819 82 M 98.726896031426 84.5 L 97.86087062764156 85 M 96.12881982007268 86 L 90.06664199358161 89.5 M 88.33459118601273 90.5 L 87.4685657822283 91 M 74.47818472546172 98.5 L 65.81793068761733 103.5 M 58.023702053557386 108 L 38.1051177665153 119.5 M 31.17691453623979 123.5 L 25.11473670974872 127 M 19.918584287042087 131 L 23.38268590217984 129 M 38.97114317029974 120 L 56.29165124598851 110 M 65.81793068761733 104.5 L 74.47818472546172 99.5 M 97.86087062764156 86 L 98.726896031426 85.5 M 56.29165124598851 111 L 27.712812921102035 127.5 M 23.38268590217984 130 L 19.918584287042087 132 M 15.588457268119894 134.5 L 14.722431864335457 135 M 27.712812921102035 128.5 L 43.30127018922193 119.5 M 90.06664199358161 92.5 L 96.12881982007268 89 M 96.99484522385713 88.5 L 97.86087062764156 88 M 103.05702305034819 85 L 107.38715006927039 82.5 M 107.38715006927039 83.5 L 103.05702305034819 86 M 98.726896031426 88.5 L 97.86087062764156 89 M 96.12881982007268 90 L 90.06664199358161 93.5 M 88.33459118601273 94.5 L 87.4685657822283 95 M 77.07626093681503 101 L 65.81793068761733 107.5 M 58.023702053557386 112 L 37.23909236273086 124 M 17.32050807568877 136.5 L 18.186533479473212 136 M 19.918584287042087 135 L 23.38268590217984 133 M 34.64101615137754 126.5 L 38.1051177665153 124.5 M 38.97114317029974 124 L 56.29165124598851 114 M 65.81793068761733 108.5 L 77.94228634059948 101.5 M 97.86087062764156 90 L 98.726896031426 89.5 M 56.29165124598851 115 L 38.97114317029974 125 M 38.1051177665153 125.5 L 36.373066958946424 126.5 M 23.38268590217984 134 L 19.918584287042087 136 M 18.186533479473212 137 L 17.32050807568877 137.5 M 37.23909236273086 127 L 38.1051177665153 126.5 M 90.06664199358161 96.5 L 96.12881982007268 93 M 96.99484522385713 92.5 L 97.86087062764156 92 M 103.05702305034819 89 L 107.38715006927039 86.5 M 107.38715006927039 87.5 L 103.05702305034819 90 M 98.726896031426 92.5 L 97.86087062764156 93 M 96.12881982007268 94 L 90.06664199358161 97.5 M 88.33459118601273 98.5 L 87.4685657822283 99 M 79.67433714816835 103.5 L 65.81793068761733 111.5 M 58.023702053557386 116 L 37.23909236273086 128 M 34.64101615137754 130.5 L 38.1051177665153 128.5 M 38.97114317029974 128 L 56.29165124598851 118 M 65.81793068761733 112.5 L 79.67433714816835 104.5 M 97.86087062764156 94 L 98.726896031426 93.5 M 56.29165124598851 119 L 38.97114317029974 129 M 38.1051177665153 129.5 L 36.373066958946424 130.5 M 37.23909236273086 131 L 38.1051177665153 130.5 M 90.06664199358161 100.5 L 96.12881982007268 97 M 96.99484522385713 96.5 L 97.86087062764156 96 M 103.05702305034819 93 L 107.38715006927039 90.5 M 107.38715006927039 91.5 L 103.05702305034819 94 M 98.726896031426 96.5 L 97.86087062764156 97 M 96.12881982007268 98 L 90.06664199358161 101.5 M 88.33459118601273 102.5 L 87.4685657822283 103 M 79.67433714816835 107.5 L 65.81793068761733 115.5 M 58.023702053557386 120 L 37.23909236273086 132 M 37.23909236273086 133 L 38.1051177665153 132.5 M 38.97114317029974 132 L 56.29165124598851 122 M 65.81793068761733 116.5 L 79.67433714816835 108.5 M 97.86087062764156 98 L 98.726896031426 97.5 M 56.29165124598851 123 L 38.97114317029974 133 M 21.650635094610966 143 L 19.918584287042087 144 M 90.06664199358161 104.5 L 96.12881982007268 101 M 96.99484522385713 100.5 L 97.86087062764156 100 M 103.05702305034819 97 L 107.38715006927039 94.5 M 107.38715006927039 95.5 L 103.05702305034819 98 M 98.726896031426 100.5 L 97.86087062764156 101 M 96.12881982007268 102 L 90.06664199358161 105.5 M 88.33459118601273 106.5 L 87.4685657822283 107 M 79.67433714816835 111.5 L 65.81793068761733 119.5 M 58.023702053557386 124 L 38.1051177665153 135.5 M 23.38268590217984 144 L 21.650635094610966 145 M 21.650635094610966 146 L 23.38268590217984 145 M 38.97114317029974 136 L 56.29165124598851 126 M 65.81793068761733 120.5 L 79.67433714816835 112.5 M 97.86087062764156 102 L 98.726896031426 101.5 M 56.29165124598851 127 L 38.97114317029974 137 M 21.650635094610966 147 L 19.918584287042087 148 M 90.06664199358161 108.5 L 98.726896031426 103.5 M 103.05702305034819 101 L 107.38715006927039 98.5 M 107.38715006927039 99.5 L 103.05702305034819 102 M 99.59292143521044 104 L 97.86087062764156 105 M 96.99484522385713 105.5 L 87.4685657822283 111 M 79.67433714816835 115.5 L 65.81793068761733 123.5 M 58.023702053557386 128 L 38.1051177665153 139.5 M 23.38268590217984 148 L 21.650635094610966 149 M 21.650635094610966 150 L 23.38268590217984 149 M 38.97114317029974 140 L 56.29165124598851 130 M 65.81793068761733 124.5 L 82.27241335952166 115 M 97.86087062764156 106 L 98.726896031426 105.5 M 82.27241335952166 116 L 77.94228634059948 118.5 M 56.29165124598851 131 L 38.97114317029974 141 M 90.06664199358161 112.5 L 99.59292143521044 107 M 103.05702305034819 105 L 107.38715006927039 102.5 M 107.38715006927039 103.5 L 103.05702305034819 106 M 99.59292143521044 108 L 97.86087062764156 109 M 96.99484522385713 109.5 L 87.4685657822283 115 M 79.67433714816835 119.5 L 65.81793068761733 127.5 M 58.023702053557386 132 L 38.1051177665153 143.5 M 38.97114317029974 144 L 56.29165124598851 134 M 65.81793068761733 128.5 L 82.27241335952166 119 M 97.86087062764156 110 L 98.726896031426 109.5 M 82.27241335952166 120 L 77.94228634059948 122.5 M 56.29165124598851 135 L 37.23909236273086 146 M 90.06664199358161 116.5 L 99.59292143521044 111 M 99.59292143521044 112 L 97.86087062764156 113 M 96.99484522385713 113.5 L 90.06664199358161 117.5 M 79.67433714816835 123.5 L 65.81793068761733 131.5 M 58.023702053557386 136 L 38.1051177665153 147.5 M 38.97114317029974 148 L 56.29165124598851 138 M 65.81793068761733 132.5 L 82.27241335952166 123 M 97.86087062764156 114 L 98.726896031426 113.5 M 82.27241335952166 124 L 77.94228634059948 126.5 M 56.29165124598851 139 L 38.97114317029974 149 M 96.99484522385713 116.5 L 97.86087062764156 116 M 98.726896031426 116.5 L 97.86087062764156 117 M 79.67433714816835 127.5 L 65.81793068761733 135.5 M 58.023702053557386 140 L 38.1051177665153 151.5 M 38.97114317029974 152 L 56.29165124598851 142 M 65.81793068761733 136.5 L 79.67433714816835 128.5 M 97.86087062764156 118 L 98.726896031426 117.5 M 56.29165124598851 143 L 38.97114317029974 153 M 49.363448015713 148 L 50.22947341949744 147.5 M 96.99484522385713 120.5 L 97.86087062764156 120 M 98.726896031426 120.5 L 97.86087062764156 121 M 79.67433714816835 131.5 L 65.81793068761733 139.5 M 46.76537180435968 151.5 L 51.09549882328188 149 M 65.81793068761733 140.5 L 79.67433714816835 132.5 M 97.86087062764156 122 L 98.726896031426 121.5 M 51.09549882328188 150 L 46.76537180435968 152.5 M 96.99484522385713 124.5 L 97.86087062764156 124 M 98.726896031426 124.5 L 97.86087062764156 125 M 79.67433714816835 135.5 L 65.81793068761733 143.5 M 65.81793068761733 144.5 L 79.67433714816835 136.5 M 97.86087062764156 126 L 98.726896031426 125.5 M 90.93266739736605 133 L 65.81793068761733 147.5 M 64.9519052838329 148 L 63.21985447626402 149 M 63.21985447626402 150 L 75.34421012924616 143 M 77.94228634059948 144.5 L 75.34421012924616 146 M 83.13843876330611 146.5 L 98.726896031426 137.5 M 98.726896031426 138.5 L 83.13843876330611 147.5 M 83.13843876330611 150.5 L 98.726896031426 141.5 M 98.726896031426 142.5 L 83.13843876330611 151.5 M 90.93266739736605 148 L 97.86087062764156 144 M 98.726896031426 144.5 L 91.7986928011505 148.5 M 91.7986928011505 149.5 L 98.726896031426 145.5 M 90.93266739736605 152 L 97.86087062764156 148 M 98.726896031426 148.5 L 91.7986928011505 152.5 M 91.7986928011505 153.5 L 98.726896031426 149.5 M 89.20061658979718 157 L 97.86087062764156 152 M 98.726896031426 152.5 L 90.06664199358161 157.5 M 90.06664199358161 158.5 L 98.726896031426 153.5 M 97.86087062764156 38 L 90.93266739736605 34 M 63.21985447626402 19 L 75.34421012924616 26 M 97.86087062764156 42 L 95.26279441628824 40.5 M 60.6217782649107 20.5 L 54.55960043841963 17 M 71.01408311032397 28.5 L 58.88972745734183 21.5 M 58.88972745734183 22.5 L 71.01408311032397 29.5 M 65.81793068761733 27.5 L 63.21985447626402 26 M 87.4685657822283 44 L 80.5403625519528 40 M 65.81793068761733 31.5 L 63.21985447626402 30 M 80.5403625519528 41 L 87.4685657822283 45 M 57.157676649772945 28.5 L 49.363448015713 24 M 45.033320996790806 22.5 L 57.157676649772945 29.5 M 81.40638795573723 43.5 L 85.73651497465941 46 M 94.39676901250381 51 L 107.38715006927039 58.5 M 87.4685657822283 48 L 81.40638795573723 44.5 M 79.67433714816835 43.5 L 69.28203230275508 37.5 M 65.81793068761733 35.5 L 63.21985447626402 34 M 84.87048957087498 47.5 L 87.4685657822283 49 M 50.22947341949744 29.5 L 52.827549630850754 31 M 104.78907385791707 61 L 107.38715006927039 62.5 M 103.05702305034819 61 L 90.06664199358161 53.5 M 79.67433714816835 47.5 L 77.07626093681503 46 M 65.81793068761733 39.5 L 63.21985447626402 38 M 39.837168574084174 25.5 L 47.63139720814412 30 M 90.06664199358161 54.5 L 103.05702305034819 62 M 47.63139720814412 31 L 39.837168574084174 26.5 M 104.78907385791707 65 L 107.38715006927039 66.5 M 103.05702305034819 65 L 90.06664199358161 57.5 M 79.67433714816835 51.5 L 77.07626093681503 50 M 51.96152422706631 35.5 L 49.363448015713 34 M 48.49742261192856 33.5 L 40.703193977868615 29 M 40.703193977868615 30 L 51.96152422706631 36.5 M 61.48780366869514 42 L 71.8801085141084 48 M 90.06664199358161 58.5 L 103.05702305034819 66 M 71.8801085141084 49 L 61.48780366869514 43 M 44.167295593006365 33 L 43.30127018922193 32.5 M 38.1051177665153 30.5 L 38.97114317029974 31 M 43.30127018922193 33.5 L 44.167295593006365 34 M 104.78907385791707 69 L 107.38715006927039 70.5 M 103.05702305034819 69 L 96.12881982007268 65 M 79.67433714816835 55.5 L 77.07626093681503 54 M 51.96152422706631 39.5 L 45.89934640057525 36 M 44.167295593006365 35 L 42.43524478543749 34 M 41.569219381653056 34.5 L 43.30127018922193 35.5 M 45.89934640057525 37 L 51.96152422706631 40.5 M 54.55960043841963 42 L 55.42562584220407 42.5 M 61.48780366869514 46 L 71.8801085141084 52 M 96.12881982007268 66 L 103.05702305034819 70 M 71.8801085141084 53 L 61.48780366869514 47 M 44.167295593006365 37 L 43.30127018922193 36.5 M 38.97114317029974 34 L 37.23909236273086 33 M 43.30127018922193 37.5 L 44.167295593006365 38 M 104.78907385791707 73 L 107.38715006927039 74.5 M 103.05702305034819 73 L 96.12881982007268 69 M 79.67433714816835 59.5 L 77.07626093681503 58 M 51.96152422706631 43.5 L 45.89934640057525 40 M 44.167295593006365 39 L 42.43524478543749 38 M 34.64101615137754 34.5 L 36.373066958946424 35.5 M 38.1051177665153 36.5 L 43.30127018922193 39.5 M 45.89934640057525 41 L 51.96152422706631 44.5 M 54.55960043841963 46 L 55.42562584220407 46.5 M 61.48780366869514 50 L 71.8801085141084 56 M 96.12881982007268 70 L 103.05702305034819 74 M 71.8801085141084 57 L 61.48780366869514 51 M 51.96152422706631 45.5 L 51.09549882328188 45 M 44.167295593006365 41 L 43.30127018922193 40.5 M 35.50704155516198 36 L 34.64101615137754 35.5 M 43.30127018922193 41.5 L 44.167295593006365 42 M 60.6217782649107 51.5 L 63.21985447626402 53 M 84.00446416709055 65 L 90.06664199358161 68.5 M 104.78907385791707 77 L 107.38715006927039 78.5 M 103.05702305034819 77 L 96.12881982007268 73 M 90.06664199358161 69.5 L 84.00446416709055 66 M 79.67433714816835 63.5 L 77.07626093681503 62 M 62.35382907247958 53.5 L 59.75575286112626 52 M 51.96152422706631 47.5 L 42.43524478543749 42 M 41.569219381653056 41.5 L 40.703193977868615 41 M 40.703193977868615 42 L 51.96152422706631 48.5 M 54.55960043841963 50 L 55.42562584220407 50.5 M 61.48780366869514 54 L 71.8801085141084 60 M 96.12881982007268 74 L 103.05702305034819 78 M 71.8801085141084 61 L 58.023702053557386 53 M 51.96152422706631 49.5 L 51.09549882328188 49 M 39.837168574084174 42.5 L 38.1051177665153 41.5 M 29.444863728670914 36.5 L 28.578838324886473 36 M 24.24871130596428 34.5 L 32.90896534380867 39.5 M 57.157676649772945 53.5 L 63.21985447626402 57 M 84.00446416709055 69 L 90.06664199358161 72.5 M 104.78907385791707 81 L 107.38715006927039 82.5 M 103.05702305034819 81 L 96.12881982007268 77 M 90.06664199358161 73.5 L 84.00446416709055 70 M 79.67433714816835 67.5 L 77.07626093681503 66 M 62.35382907247958 57.5 L 56.29165124598851 54 M 51.96152422706631 51.5 L 40.703193977868615 45 M 35.50704155516198 43 L 36.373066958946424 43.5 M 40.703193977868615 46 L 51.96152422706631 52.5 M 54.55960043841963 54 L 55.42562584220407 54.5 M 61.48780366869514 58 L 71.8801085141084 64 M 96.12881982007268 78 L 103.05702305034819 82 M 71.8801085141084 65 L 56.29165124598851 56 M 51.96152422706631 53.5 L 51.09549882328188 53 M 39.837168574084174 46.5 L 37.23909236273086 45 M 35.50704155516198 44 L 34.64101615137754 43.5 M 30.31088913245535 41 L 21.650635094610966 36 M 21.650635094610966 37 L 32.90896534380867 43.5 M 56.29165124598851 57 L 63.21985447626402 61 M 84.00446416709055 73 L 90.06664199358161 76.5 M 104.78907385791707 85 L 107.38715006927039 86.5 M 103.05702305034819 85 L 96.12881982007268 81 M 90.06664199358161 77.5 L 84.00446416709055 74 M 79.67433714816835 71.5 L 77.07626093681503 70 M 62.35382907247958 61.5 L 55.42562584220407 57.5 M 51.96152422706631 55.5 L 40.703193977868615 49 M 23.38268590217984 40 L 25.11473670974872 41 M 34.64101615137754 46.5 L 37.23909236273086 48 M 40.703193977868615 50 L 51.96152422706631 56.5 M 61.48780366869514 62 L 71.8801085141084 68 M 96.12881982007268 82 L 103.05702305034819 86 M 98.726896031426 84.5 L 97.86087062764156 84 M 88.33459118601273 78.5 L 84.87048957087498 76.5 M 71.8801085141084 69 L 56.29165124598851 60 M 51.96152422706631 57.5 L 51.09549882328188 57 M 39.837168574084174 50.5 L 34.64101615137754 47.5 M 24.24871130596428 41.5 L 23.38268590217984 41 M 22.516660498395403 40.5 L 21.650635094610966 40 M 21.650635094610966 41 L 22.516660498395403 41.5 M 56.29165124598851 61 L 63.21985447626402 65 M 80.5403625519528 75 L 90.06664199358161 80.5 M 96.99484522385713 84.5 L 97.86087062764156 85 M 104.78907385791707 89 L 107.38715006927039 90.5 M 103.05702305034819 89 L 96.12881982007268 85 M 90.06664199358161 81.5 L 87.4685657822283 80 M 79.67433714816835 75.5 L 77.07626093681503 74 M 62.35382907247958 65.5 L 55.42562584220407 61.5 M 44.167295593006365 55 L 40.703193977868615 53 M 34.64101615137754 49.5 L 33.77499074759311 49 M 32.042939940024226 48 L 29.444863728670914 46.5 M 34.64101615137754 50.5 L 37.23909236273086 52 M 40.703193977868615 54 L 44.167295593006365 56 M 61.48780366869514 66 L 71.8801085141084 72 M 96.12881982007268 86 L 103.05702305034819 90 M 98.726896031426 88.5 L 97.86087062764156 88 M 88.33459118601273 82.5 L 84.87048957087498 80.5 M 71.8801085141084 73 L 56.29165124598851 64 M 39.837168574084174 54.5 L 34.64101615137754 51.5 M 26.846787517317598 48 L 29.444863728670914 49.5 M 56.29165124598851 65 L 63.21985447626402 69 M 84.87048957087498 81.5 L 90.06664199358161 84.5 M 96.99484522385713 88.5 L 97.86087062764156 89 M 104.78907385791707 93 L 107.38715006927039 94.5 M 103.05702305034819 93 L 96.12881982007268 89 M 90.06664199358161 85.5 L 87.4685657822283 84 M 62.35382907247958 69.5 L 55.42562584220407 65.5 M 44.167295593006365 59 L 40.703193977868615 57 M 39.837168574084174 56.5 L 38.97114317029974 56 M 34.64101615137754 53.5 L 33.77499074759311 53 M 29.444863728670914 50.5 L 25.980762113533157 48.5 M 34.64101615137754 54.5 L 37.23909236273086 56 M 40.703193977868615 58 L 44.167295593006365 60 M 61.48780366869514 70 L 71.8801085141084 76 M 96.12881982007268 90 L 103.05702305034819 94 M 98.726896031426 92.5 L 97.86087062764156 92 M 88.33459118601273 86.5 L 84.87048957087498 84.5 M 71.8801085141084 77 L 56.29165124598851 68 M 38.97114317029974 58 L 38.1051177665153 57.5 M 37.23909236273086 57 L 34.64101615137754 55.5 M 32.90896534380867 54.5 L 32.042939940024226 54 M 30.31088913245535 53 L 24.24871130596428 49.5 M 17.32050807568877 45.5 L 11.258330249197702 42 M 16.454482671904334 46 L 22.516660498395403 49.5 M 32.042939940024226 55 L 32.90896534380867 55.5 M 56.29165124598851 69 L 63.21985447626402 73 M 84.87048957087498 85.5 L 90.06664199358161 88.5 M 96.99484522385713 92.5 L 97.86087062764156 93 M 104.78907385791707 97 L 107.38715006927039 98.5 M 103.05702305034819 97 L 96.12881982007268 93 M 90.06664199358161 89.5 L 87.4685657822283 88 M 62.35382907247958 73.5 L 55.42562584220407 69.5 M 44.167295593006365 63 L 40.703193977868615 61 M 39.837168574084174 60.5 L 38.1051177665153 59.5 M 28.578838324886473 54 L 9.526279441628825 43 M 9.526279441628825 44 L 28.578838324886473 55 M 40.703193977868615 62 L 44.167295593006365 64 M 61.48780366869514 74 L 71.8801085141084 80 M 96.12881982007268 94 L 103.05702305034819 98 M 98.726896031426 96.5 L 97.86087062764156 96 M 88.33459118601273 90.5 L 74.47818472546172 82.5 M 71.8801085141084 81 L 56.29165124598851 72 M 38.97114317029974 62 L 38.1051177665153 61.5 M 30.31088913245535 57 L 11.258330249197702 46 M 56.29165124598851 73 L 63.21985447626402 77 M 74.47818472546172 83.5 L 90.06664199358161 92.5 M 96.99484522385713 96.5 L 97.86087062764156 97 M 104.78907385791707 101 L 107.38715006927039 102.5 M 103.05702305034819 101 L 96.12881982007268 97 M 90.06664199358161 93.5 L 87.4685657822283 92 M 62.35382907247958 77.5 L 55.42562584220407 73.5 M 44.167295593006365 67 L 40.703193977868615 65 M 39.837168574084174 64.5 L 38.1051177665153 63.5 M 28.578838324886473 58 L 9.526279441628825 47 M 9.526279441628825 48 L 28.578838324886473 59 M 40.703193977868615 66 L 44.167295593006365 68 M 96.12881982007268 98 L 103.05702305034819 102 M 98.726896031426 100.5 L 97.86087062764156 100 M 88.33459118601273 94.5 L 74.47818472546172 86.5 M 71.01408311032397 84.5 L 68.41600689897065 83 M 60.6217782649107 78.5 L 56.29165124598851 76 M 38.97114317029974 66 L 38.1051177665153 65.5 M 30.31088913245535 61 L 11.258330249197702 50 M 56.29165124598851 77 L 59.75575286112626 79 M 68.41600689897065 84 L 71.01408311032397 85.5 M 74.47818472546172 87.5 L 90.06664199358161 96.5 M 96.99484522385713 100.5 L 97.86087062764156 101 M 103.05702305034819 105 L 96.12881982007268 101 M 90.06664199358161 97.5 L 87.4685657822283 96 M 58.88972745734183 79.5 L 55.42562584220407 77.5 M 44.167295593006365 71 L 40.703193977868615 69 M 39.837168574084174 68.5 L 38.1051177665153 67.5 M 28.578838324886473 62 L 9.526279441628825 51 M 9.526279441628825 52 L 28.578838324886473 63 M 40.703193977868615 70 L 44.167295593006365 72 M 96.12881982007268 102 L 103.05702305034819 106 M 98.726896031426 104.5 L 97.86087062764156 104 M 88.33459118601273 98.5 L 74.47818472546172 90.5 M 57.157676649772945 80.5 L 56.29165124598851 80 M 38.97114317029974 70 L 38.1051177665153 69.5 M 74.47818472546172 91.5 L 90.06664199358161 100.5 M 96.99484522385713 104.5 L 97.86087062764156 105 M 99.59292143521044 107 L 96.99484522385713 105.5 M 90.06664199358161 101.5 L 87.4685657822283 100 M 63.21985447626402 86 L 56.29165124598851 82 M 44.167295593006365 75 L 40.703193977868615 73 M 39.837168574084174 72.5 L 38.1051177665153 71.5 M 40.703193977868615 74 L 44.167295593006365 76 M 56.29165124598851 83 L 63.21985447626402 87 M 98.726896031426 108.5 L 97.86087062764156 108 M 88.33459118601273 102.5 L 74.47818472546172 94.5 M 38.97114317029974 74 L 38.1051177665153 73.5 M 74.47818472546172 95.5 L 90.06664199358161 104.5 M 96.99484522385713 108.5 L 97.86087062764156 109 M 99.59292143521044 111 L 96.99484522385713 109.5 M 90.06664199358161 105.5 L 87.4685657822283 104 M 65.81793068761733 91.5 L 56.29165124598851 86 M 44.167295593006365 79 L 40.703193977868615 77 M 39.837168574084174 76.5 L 38.1051177665153 75.5 M 40.703193977868615 78 L 44.167295593006365 80 M 56.29165124598851 87 L 65.81793068761733 92.5 M 98.726896031426 112.5 L 97.86087062764156 112 M 88.33459118601273 106.5 L 74.47818472546172 98.5 M 45.89934640057525 82 L 45.033320996790806 81.5 M 38.97114317029974 78 L 38.1051177665153 77.5 M 20.784609690826528 68.5 L 27.712812921102035 72.5 M 45.033320996790806 82.5 L 45.89934640057525 83 M 74.47818472546172 99.5 L 90.06664199358161 108.5 M 96.99484522385713 112.5 L 97.86087062764156 113 M 97.86087062764156 114 L 96.99484522385713 113.5 M 90.06664199358161 109.5 L 87.4685657822283 108 M 79.67433714816835 103.5 L 77.07626093681503 102 M 65.81793068761733 95.5 L 56.29165124598851 90 M 43.30127018922193 82.5 L 38.1051177665153 79.5 M 27.712812921102035 73.5 L 26.846787517317598 73 M 40.703193977868615 82 L 43.30127018922193 83.5 M 56.29165124598851 91 L 65.81793068761733 96.5 M 98.726896031426 116.5 L 97.86087062764156 116 M 45.89934640057525 86 L 45.033320996790806 85.5 M 25.980762113533157 75.5 L 29.444863728670914 77.5 M 45.033320996790806 86.5 L 45.89934640057525 87 M 87.4685657822283 111 L 90.06664199358161 112.5 M 96.99484522385713 116.5 L 97.86087062764156 117 M 97.86087062764156 118 L 96.99484522385713 117.5 M 90.06664199358161 113.5 L 87.4685657822283 112 M 79.67433714816835 107.5 L 77.07626093681503 106 M 65.81793068761733 99.5 L 56.29165124598851 94 M 43.30127018922193 86.5 L 40.703193977868615 85 M 39.837168574084174 84.5 L 38.1051177665153 83.5 M 23.38268590217984 76 L 25.11473670974872 77 M 40.703193977868615 86 L 43.30127018922193 87.5 M 56.29165124598851 95 L 65.81793068761733 100.5 M 98.726896031426 120.5 L 97.86087062764156 120 M 30.31088913245535 81 L 26.846787517317598 79 M 87.4685657822283 115 L 90.06664199358161 116.5 M 96.99484522385713 120.5 L 97.86087062764156 121 M 97.86087062764156 122 L 96.99484522385713 121.5 M 90.06664199358161 117.5 L 87.4685657822283 116 M 79.67433714816835 111.5 L 77.07626093681503 110 M 65.81793068761733 103.5 L 56.29165124598851 98 M 39.837168574084174 88.5 L 38.1051177665153 87.5 M 37.23909236273086 87 L 36.373066958946424 86.5 M 56.29165124598851 99 L 65.81793068761733 104.5 M 98.726896031426 124.5 L 97.86087062764156 124 M 82.27241335952166 115 L 78.80831174438391 113 M 26.846787517317598 83 L 16.454482671904334 77 M 7.794228634059947 73 L 15.588457268119894 77.5 M 16.454482671904334 78 L 26.846787517317598 84 M 34.64101615137754 88.5 L 38.97114317029974 91 M 40.703193977868615 92 L 41.569219381653056 92.5 M 96.99484522385713 124.5 L 97.86087062764156 125 M 97.86087062764156 126 L 96.99484522385713 125.5 M 79.67433714816835 115.5 L 77.07626093681503 114 M 65.81793068761733 107.5 L 56.29165124598851 102 M 38.97114317029974 92 L 38.1051177665153 91.5 M 15.588457268119894 78.5 L 6.928203230275509 73.5 M 38.1051177665153 92.5 L 38.97114317029974 93 M 56.29165124598851 103 L 65.81793068761733 108.5 M 82.27241335952166 119 L 79.67433714816835 117.5 M 17.32050807568877 81.5 L 16.454482671904334 81 M 12.990381056766578 80 L 15.588457268119894 81.5 M 16.454482671904334 82 L 17.32050807568877 82.5 M 24.24871130596428 86.5 L 26.846787517317598 88 M 40.703193977868615 96 L 41.569219381653056 96.5 M 79.67433714816835 119.5 L 77.07626093681503 118 M 65.81793068761733 111.5 L 56.29165124598851 106 M 38.97114317029974 96 L 38.1051177665153 95.5 M 15.588457268119894 82.5 L 12.12435565298214 80.5 M 10.392304845413264 80.5 L 20.784609690826528 86.5 M 38.1051177665153 96.5 L 38.97114317029974 97 M 56.29165124598851 107 L 65.81793068761733 112.5 M 82.27241335952166 123 L 79.67433714816835 121.5 M 19.918584287042087 87 L 1.7320508075688772 76.5 M 1.7320508075688772 77.5 L 19.918584287042087 88 M 25.11473670974872 91 L 26.846787517317598 92 M 79.67433714816835 123.5 L 77.07626093681503 122 M 65.81793068761733 115.5 L 56.29165124598851 110 M 38.97114317029974 100 L 38.1051177665153 99.5 M 15.588457268119894 86.5 L 12.12435565298214 84.5 M 10.392304845413264 84.5 L 20.784609690826528 90.5 M 38.1051177665153 100.5 L 38.97114317029974 101 M 56.29165124598851 111 L 65.81793068761733 116.5 M 57.157676649772945 112.5 L 55.42562584220407 111.5 M 19.918584287042087 91 L 1.7320508075688772 80.5 M 1.7320508075688772 81.5 L 19.918584287042087 92 M 25.11473670974872 95 L 26.846787517317598 96 M 55.42562584220407 112.5 L 56.29165124598851 113 M 90.93266739736605 133 L 98.726896031426 137.5 M 79.67433714816835 127.5 L 77.07626093681503 126 M 65.81793068761733 119.5 L 56.29165124598851 114 M 37.23909236273086 103 L 36.373066958946424 102.5 M 15.588457268119894 90.5 L 12.12435565298214 88.5 M 10.392304845413264 88.5 L 20.784609690826528 94.5 M 37.23909236273086 104 L 38.1051177665153 104.5 M 56.29165124598851 115 L 65.81793068761733 120.5 M 57.157676649772945 116.5 L 55.42562584220407 115.5 M 38.1051177665153 105.5 L 37.23909236273086 105 M 19.918584287042087 95 L 1.7320508075688772 84.5 M 1.7320508075688772 85.5 L 19.918584287042087 96 M 55.42562584220407 116.5 L 56.29165124598851 117 M 96.12881982007268 140 L 98.726896031426 141.5 M 79.67433714816835 131.5 L 77.07626093681503 130 M 65.81793068761733 123.5 L 56.29165124598851 118 M 37.23909236273086 107 L 36.373066958946424 106.5 M 15.588457268119894 94.5 L 12.12435565298214 92.5 M 10.392304845413264 92.5 L 20.784609690826528 98.5 M 37.23909236273086 108 L 38.1051177665153 108.5 M 56.29165124598851 119 L 65.81793068761733 124.5 M 98.726896031426 144.5 L 97.86087062764156 144 M 57.157676649772945 120.5 L 55.42562584220407 119.5 M 38.1051177665153 109.5 L 37.23909236273086 109 M 19.918584287042087 99 L 1.7320508075688772 88.5 M 1.7320508075688772 89.5 L 19.918584287042087 100 M 55.42562584220407 120.5 L 56.29165124598851 121 M 79.67433714816835 135.5 L 77.07626093681503 134 M 65.81793068761733 127.5 L 56.29165124598851 122 M 41.569219381653056 113.5 L 39.837168574084174 112.5 M 38.97114317029974 112 L 36.373066958946424 110.5 M 35.50704155516198 110 L 34.64101615137754 109.5 M 25.11473670974872 104 L 12.12435565298214 96.5 M 10.392304845413264 96.5 L 20.784609690826528 102.5 M 38.1051177665153 112.5 L 38.97114317029974 113 M 56.29165124598851 123 L 65.81793068761733 128.5 M 98.726896031426 148.5 L 97.86087062764156 148 M 19.918584287042087 103 L 1.7320508075688772 92.5 M 1.7320508075688772 93.5 L 19.918584287042087 104 M 79.67433714816835 139.5 L 77.07626093681503 138 M 65.81793068761733 131.5 L 56.29165124598851 126 M 41.569219381653056 117.5 L 40.703193977868615 117 M 38.97114317029974 116 L 38.1051177665153 115.5 M 25.11473670974872 108 L 22.516660498395403 106.5 M 10.392304845413264 99.5 L 9.526279441628825 99 M 38.1051177665153 116.5 L 38.97114317029974 117 M 56.29165124598851 127 L 65.81793068761733 132.5 M 98.726896031426 152.5 L 97.86087062764156 152 M 91.7986928011505 148.5 L 90.93266739736605 148 M 19.918584287042087 107 L 1.7320508075688772 96.5 M 1.7320508075688772 97.5 L 19.918584287042087 108 M 90.93266739736605 149 L 91.7986928011505 149.5 M 65.81793068761733 135.5 L 56.29165124598851 130 M 38.97114317029974 120 L 38.1051177665153 119.5 M 25.11473670974872 112 L 22.516660498395403 110.5 M 10.392304845413264 103.5 L 9.526279441628825 103 M 38.1051177665153 120.5 L 38.97114317029974 121 M 56.29165124598851 131 L 65.81793068761733 136.5 M 75.34421012924616 142 L 83.13843876330611 146.5 M 91.7986928011505 152.5 L 90.93266739736605 152 M 83.13843876330611 147.5 L 75.34421012924616 143 M 19.918584287042087 111 L 1.7320508075688772 100.5 M 1.7320508075688772 101.5 L 19.918584287042087 112 M 90.93266739736605 153 L 91.7986928011505 153.5 M 65.81793068761733 139.5 L 56.29165124598851 134 M 38.97114317029974 124 L 37.23909236273086 123 M 31.17691453623979 119.5 L 30.31088913245535 119 M 25.11473670974872 116 L 22.516660498395403 114.5 M 10.392304845413264 107.5 L 9.526279441628825 107 M 36.373066958946424 123.5 L 37.23909236273086 124 M 38.1051177665153 124.5 L 38.97114317029974 125 M 56.29165124598851 135 L 65.81793068761733 140.5 M 75.34421012924616 146 L 83.13843876330611 150.5 M 83.13843876330611 151.5 L 75.34421012924616 147 M 38.1051177665153 125.5 L 35.50704155516198 124 M 19.918584287042087 115 L 1.7320508075688772 104.5 M 1.7320508075688772 105.5 L 19.918584287042087 116 M 90.06664199358161 157.5 L 89.20061658979718 157 M 65.81793068761733 143.5 L 56.29165124598851 138 M 38.97114317029974 128 L 36.373066958946424 126.5 M 31.17691453623979 123.5 L 30.31088913245535 123 M 12.12435565298214 112.5 L 7.794228634059947 110 M 34.64101615137754 126.5 L 37.23909236273086 128 M 38.1051177665153 128.5 L 38.97114317029974 129 M 56.29165124598851 139 L 65.81793068761733 144.5 M 89.20061658979718 158 L 90.06664199358161 158.5 M 38.1051177665153 129.5 L 34.64101615137754 127.5 M 27.712812921102035 123.5 L 25.980762113533157 122.5 M 25.11473670974872 122 L 20.784609690826528 119.5 M 19.918584287042087 119 L 1.7320508075688772 108.5 M 1.7320508075688772 109.5 L 19.918584287042087 120 M 23.38268590217984 122 L 25.11473670974872 123 M 25.980762113533157 123.5 L 27.712812921102035 124.5 M 65.81793068761733 147.5 L 56.29165124598851 142 M 38.97114317029974 132 L 36.373066958946424 130.5 M 12.12435565298214 116.5 L 7.794228634059947 114 M 34.64101615137754 130.5 L 37.23909236273086 132 M 38.1051177665153 132.5 L 38.97114317029974 133 M 56.29165124598851 143 L 65.81793068761733 148.5 M 37.23909236273086 133 L 34.64101615137754 131.5 M 27.712812921102035 127.5 L 25.980762113533157 126.5 M 25.11473670974872 126 L 20.784609690826528 123.5 M 19.918584287042087 123 L 1.7320508075688772 112.5 M 1.7320508075688772 113.5 L 19.918584287042087 124 M 23.38268590217984 126 L 25.11473670974872 127 M 25.980762113533157 127.5 L 27.712812921102035 128.5 M 51.09549882328188 142 L 52.827549630850754 143 M 54.55960043841963 144 L 63.21985447626402 149 M 63.21985447626402 150 L 53.693575034635195 144.5 M 51.96152422706631 143.5 L 50.22947341949744 142.5 M 38.97114317029974 136 L 38.1051177665153 135.5 M 12.12435565298214 120.5 L 7.794228634059947 118 M 38.1051177665153 136.5 L 38.97114317029974 137 M 23.38268590217984 129 L 20.784609690826528 127.5 M 19.918584287042087 127 L 1.7320508075688772 116.5 M 1.7320508075688772 117.5 L 19.918584287042087 128 M 38.97114317029974 140 L 38.1051177665153 139.5 M 12.12435565298214 124.5 L 7.794228634059947 122 M 38.1051177665153 140.5 L 38.97114317029974 141 M 42.43524478543749 143 L 44.167295593006365 144 M 45.89934640057525 145 L 47.63139720814412 146 M 49.363448015713 147 L 50.22947341949744 147.5 M 51.09549882328188 149 L 49.363448015713 148 M 23.38268590217984 133 L 20.784609690826528 131.5 M 19.918584287042087 131 L 1.7320508075688772 120.5 M 1.7320508075688772 121.5 L 19.918584287042087 132 M 38.97114317029974 144 L 38.1051177665153 143.5 M 12.12435565298214 128.5 L 7.794228634059947 126 M 38.1051177665153 144.5 L 38.97114317029974 145 M 19.918584287042087 135 L 1.7320508075688772 124.5 M 1.7320508075688772 125.5 L 19.918584287042087 136 M 37.23909236273086 146 L 38.97114317029974 147 M 40.703193977868615 148 L 42.43524478543749 149 M 44.167295593006365 150 L 46.76537180435968 151.5 M 46.76537180435968 152.5 L 43.30127018922193 150.5 M 41.569219381653056 149.5 L 39.837168574084174 148.5 M 38.97114317029974 148 L 37.23909236273086 147 M 18.186533479473212 136 L 15.588457268119894 134.5 M 12.12435565298214 132.5 L 6.06217782649107 129 M 5.196152422706632 129.5 L 10.392304845413264 132.5 M 14.722431864335457 135 L 17.32050807568877 136.5 M 38.1051177665153 148.5 L 38.97114317029974 149 M 17.32050807568877 137.5 L 14.722431864335457 136 M 10.392304845413264 133.5 L 5.196152422706632 130.5 M 38.97114317029974 152 L 38.1051177665153 151.5 M 21.650635094610966 143 L 23.38268590217984 144 M 38.1051177665153 152.5 L 38.97114317029974 153 M 19.918584287042087 144 L 21.650635094610966 145 M 21.650635094610966 146 L 19.918584287042087 145 M 21.650635094610966 147 L 23.38268590217984 148 M 19.918584287042087 148 L 21.650635094610966 149 M 21.650635094610966 150 L 19.918584287042087 149 M 1.7320508075688772 76.5 L 1.7320508075688772 77.5 M 1.7320508075688772 80.5 L 1.7320508075688772 81.5 M 1.7320508075688772 84.5 L 1.7320508075688772 85.5 M 1.7320508075688772 88.5 L 1.7320508075688772 89.5 M 1.7320508075688772 92.5 L 1.7320508075688772 93.5 M 1.7320508075688772 96.5 L 1.7320508075688772 97.5 M 1.7320508075688772 100.5 L 1.7320508075688772 101.5 M 1.7320508075688772 104.5 L 1.7320508075688772 105.5 M 1.7320508075688772 108.5 L 1.7320508075688772 109.5 M 1.7320508075688772 112.5 L 1.7320508075688772 113.5 M 1.7320508075688772 116.5 L 1.7320508075688772 117.5 M 1.7320508075688772 120.5 L 1.7320508075688772 121.5 M 1.7320508075688772 124.5 L 1.7320508075688772 125.5 M 5.196152422706632 129.5 L 5.196152422706632 130.5 M 6.928203230275509 128.5 L 6.928203230275509 129.5 M 7.794228634059947 74 L 7.794228634059947 73 M 9.526279441628825 52 L 9.526279441628825 51 M 9.526279441628825 48 L 9.526279441628825 47 M 9.526279441628825 44 L 9.526279441628825 43 M 10.392304845413264 110.5 L 10.392304845413264 111.5 M 10.392304845413264 114.5 L 10.392304845413264 115.5 M 10.392304845413264 118.5 L 10.392304845413264 119.5 M 10.392304845413264 122.5 L 10.392304845413264 123.5 M 10.392304845413264 132.5 L 10.392304845413264 133.5 M 11.258330249197702 133 L 11.258330249197702 132 M 12.12435565298214 127.5 L 12.12435565298214 128.5 M 12.12435565298214 131.5 L 12.12435565298214 132.5 M 12.990381056766578 98 L 12.990381056766578 97 M 13.856406460551018 96.5 L 13.856406460551018 97.5 M 14.722431864335457 136 L 14.722431864335457 135 M 14.722431864335457 98 L 14.722431864335457 97 M 14.722431864335457 95 L 14.722431864335457 94 M 14.722431864335457 91 L 14.722431864335457 90 M 14.722431864335457 87 L 14.722431864335457 86 M 14.722431864335457 83 L 14.722431864335457 82 M 14.722431864335457 79 L 14.722431864335457 78 M 15.588457268119894 77.5 L 15.588457268119894 78.5 M 15.588457268119894 81.5 L 15.588457268119894 82.5 M 15.588457268119894 85.5 L 15.588457268119894 86.5 M 15.588457268119894 89.5 L 15.588457268119894 90.5 M 15.588457268119894 93.5 L 15.588457268119894 94.5 M 16.454482671904334 99 L 16.454482671904334 98 M 16.454482671904334 82 L 16.454482671904334 81 M 16.454482671904334 78 L 16.454482671904334 77 M 16.454482671904334 47 L 16.454482671904334 46 M 17.32050807568877 81.5 L 17.32050807568877 82.5 M 17.32050807568877 136.5 L 17.32050807568877 137.5 M 18.186533479473212 137 L 18.186533479473212 136 M 19.918584287042087 149 L 19.918584287042087 148 M 19.918584287042087 145 L 19.918584287042087 144 M 19.918584287042087 136 L 19.918584287042087 135 M 19.918584287042087 132 L 19.918584287042087 131 M 19.918584287042087 128 L 19.918584287042087 127 M 19.918584287042087 124 L 19.918584287042087 123 M 19.918584287042087 120 L 19.918584287042087 119 M 19.918584287042087 116 L 19.918584287042087 115 M 19.918584287042087 112 L 19.918584287042087 111 M 19.918584287042087 108 L 19.918584287042087 107 M 19.918584287042087 104 L 19.918584287042087 103 M 19.918584287042087 100 L 19.918584287042087 99 M 19.918584287042087 96 L 19.918584287042087 95 M 19.918584287042087 92 L 19.918584287042087 91 M 19.918584287042087 88 L 19.918584287042087 87 M 20.784609690826528 86.5 L 20.784609690826528 87.5 M 20.784609690826528 90.5 L 20.784609690826528 91.5 M 20.784609690826528 94.5 L 20.784609690826528 95.5 M 20.784609690826528 98.5 L 20.784609690826528 99.5 M 20.784609690826528 102.5 L 20.784609690826528 103.5 M 21.650635094610966 150 L 21.650635094610966 149 M 21.650635094610966 146 L 21.650635094610966 145 M 21.650635094610966 41 L 21.650635094610966 40 M 21.650635094610966 37 L 21.650635094610966 36 M 22.516660498395403 40.5 L 22.516660498395403 41.5 M 22.516660498395403 49.5 L 22.516660498395403 50.5 M 23.38268590217984 149 L 23.38268590217984 148 M 23.38268590217984 145 L 23.38268590217984 144 M 23.38268590217984 134 L 23.38268590217984 133 M 23.38268590217984 130 L 23.38268590217984 129 M 23.38268590217984 126 L 23.38268590217984 125 M 23.38268590217984 122 L 23.38268590217984 121 M 23.38268590217984 41 L 23.38268590217984 40 M 24.24871130596428 90.5 L 24.24871130596428 91.5 M 24.24871130596428 94.5 L 24.24871130596428 95.5 M 25.11473670974872 127 L 25.11473670974872 126 M 25.11473670974872 123 L 25.11473670974872 122 M 25.11473670974872 117 L 25.11473670974872 116 M 25.11473670974872 113 L 25.11473670974872 112 M 25.11473670974872 109 L 25.11473670974872 108 M 25.11473670974872 105 L 25.11473670974872 104 M 25.980762113533157 122.5 L 25.980762113533157 123.5 M 25.980762113533157 126.5 L 25.980762113533157 127.5 M 26.846787517317598 97 L 26.846787517317598 96 M 26.846787517317598 93 L 26.846787517317598 92 M 26.846787517317598 89 L 26.846787517317598 88 M 26.846787517317598 85 L 26.846787517317598 83 M 27.712812921102035 72.5 L 27.712812921102035 74.5 M 27.712812921102035 123.5 L 27.712812921102035 124.5 M 27.712812921102035 127.5 L 27.712812921102035 128.5 M 28.578838324886473 63 L 28.578838324886473 62 M 28.578838324886473 59 L 28.578838324886473 58 M 28.578838324886473 55 L 28.578838324886473 54 M 28.578838324886473 37 L 28.578838324886473 36 M 29.444863728670914 36.5 L 29.444863728670914 37.5 M 29.444863728670914 49.5 L 29.444863728670914 50.5 M 29.444863728670914 77.5 L 29.444863728670914 78.5 M 30.31088913245535 124 L 30.31088913245535 123 M 30.31088913245535 120 L 30.31088913245535 119 M 30.31088913245535 82 L 30.31088913245535 81 M 30.31088913245535 62 L 30.31088913245535 61 M 30.31088913245535 58 L 30.31088913245535 57 M 30.31088913245535 54 L 30.31088913245535 53 M 30.31088913245535 42 L 30.31088913245535 41 M 32.042939940024226 55 L 32.042939940024226 54 M 32.042939940024226 49 L 32.042939940024226 48 M 32.90896534380867 39.5 L 32.90896534380867 40.5 M 32.90896534380867 43.5 L 32.90896534380867 44.5 M 32.90896534380867 54.5 L 32.90896534380867 55.5 M 34.64101615137754 34.5 L 34.64101615137754 35.5 M 34.64101615137754 46.5 L 34.64101615137754 47.5 M 34.64101615137754 49.5 L 34.64101615137754 51.5 M 34.64101615137754 53.5 L 34.64101615137754 55.5 M 34.64101615137754 126.5 L 34.64101615137754 127.5 M 34.64101615137754 130.5 L 34.64101615137754 131.5 M 37.23909236273086 147 L 37.23909236273086 146 M 37.23909236273086 133 L 37.23909236273086 132 M 37.23909236273086 129 L 37.23909236273086 128 M 37.23909236273086 125 L 37.23909236273086 124 M 37.23909236273086 109 L 37.23909236273086 107 M 37.23909236273086 105 L 37.23909236273086 103 M 37.23909236273086 88 L 37.23909236273086 87 M 37.23909236273086 57 L 37.23909236273086 56 M 37.23909236273086 53 L 37.23909236273086 52 M 37.23909236273086 49 L 37.23909236273086 48 M 38.1051177665153 91.5 L 38.1051177665153 92.5 M 38.1051177665153 95.5 L 38.1051177665153 96.5 M 38.1051177665153 99.5 L 38.1051177665153 100.5 M 38.1051177665153 104.5 L 38.1051177665153 105.5 M 38.1051177665153 108.5 L 38.1051177665153 110.5 M 38.1051177665153 111.5 L 38.1051177665153 112.5 M 38.1051177665153 115.5 L 38.1051177665153 116.5 M 38.1051177665153 119.5 L 38.1051177665153 120.5 M 38.1051177665153 123.5 L 38.1051177665153 124.5 M 38.1051177665153 125.5 L 38.1051177665153 126.5 M 38.1051177665153 127.5 L 38.1051177665153 128.5 M 38.1051177665153 129.5 L 38.1051177665153 130.5 M 38.1051177665153 131.5 L 38.1051177665153 132.5 M 38.1051177665153 135.5 L 38.1051177665153 136.5 M 38.1051177665153 139.5 L 38.1051177665153 140.5 M 38.1051177665153 143.5 L 38.1051177665153 144.5 M 38.1051177665153 147.5 L 38.1051177665153 148.5 M 38.1051177665153 151.5 L 38.1051177665153 152.5 M 38.97114317029974 153 L 38.97114317029974 152 M 38.97114317029974 149 L 38.97114317029974 148 M 38.97114317029974 145 L 38.97114317029974 144 M 38.97114317029974 141 L 38.97114317029974 140 M 38.97114317029974 137 L 38.97114317029974 136 M 38.97114317029974 133 L 38.97114317029974 132 M 38.97114317029974 129 L 38.97114317029974 128 M 38.97114317029974 125 L 38.97114317029974 124 M 38.97114317029974 121 L 38.97114317029974 120 M 38.97114317029974 117 L 38.97114317029974 116 M 38.97114317029974 113 L 38.97114317029974 112 M 38.97114317029974 101 L 38.97114317029974 100 M 38.97114317029974 97 L 38.97114317029974 96 M 38.97114317029974 93 L 38.97114317029974 92 M 38.97114317029974 79 L 38.97114317029974 78 M 38.97114317029974 75 L 38.97114317029974 74 M 38.97114317029974 71 L 38.97114317029974 70 M 38.97114317029974 67 L 38.97114317029974 66 M 38.97114317029974 63 L 38.97114317029974 62 M 38.97114317029974 59 L 38.97114317029974 58 M 38.97114317029974 32 L 38.97114317029974 31 M 39.837168574084174 25.5 L 39.837168574084174 26.5 M 39.837168574084174 42.5 L 39.837168574084174 43.5 M 39.837168574084174 46.5 L 39.837168574084174 47.5 M 39.837168574084174 50.5 L 39.837168574084174 51.5 M 39.837168574084174 54.5 L 39.837168574084174 55.5 M 39.837168574084174 56.5 L 39.837168574084174 57.5 M 39.837168574084174 60.5 L 39.837168574084174 61.5 M 39.837168574084174 64.5 L 39.837168574084174 65.5 M 39.837168574084174 68.5 L 39.837168574084174 69.5 M 39.837168574084174 72.5 L 39.837168574084174 73.5 M 39.837168574084174 76.5 L 39.837168574084174 77.5 M 39.837168574084174 84.5 L 39.837168574084174 85.5 M 39.837168574084174 88.5 L 39.837168574084174 89.5 M 39.837168574084174 100.5 L 39.837168574084174 101.5 M 39.837168574084174 104.5 L 39.837168574084174 105.5 M 40.703193977868615 86 L 40.703193977868615 85 M 40.703193977868615 82 L 40.703193977868615 81 M 40.703193977868615 78 L 40.703193977868615 77 M 40.703193977868615 74 L 40.703193977868615 73 M 40.703193977868615 70 L 40.703193977868615 69 M 40.703193977868615 66 L 40.703193977868615 65 M 40.703193977868615 62 L 40.703193977868615 61 M 40.703193977868615 58 L 40.703193977868615 57 M 40.703193977868615 54 L 40.703193977868615 53 M 40.703193977868615 50 L 40.703193977868615 49 M 40.703193977868615 46 L 40.703193977868615 45 M 40.703193977868615 42 L 40.703193977868615 41 M 40.703193977868615 30 L 40.703193977868615 29 M 41.569219381653056 38.5 L 41.569219381653056 39.5 M 41.569219381653056 41.5 L 41.569219381653056 42.5 M 41.569219381653056 92.5 L 41.569219381653056 93.5 M 41.569219381653056 96.5 L 41.569219381653056 97.5 M 43.30127018922193 32.5 L 43.30127018922193 33.5 M 43.30127018922193 36.5 L 43.30127018922193 37.5 M 43.30127018922193 40.5 L 43.30127018922193 41.5 M 43.30127018922193 82.5 L 43.30127018922193 83.5 M 43.30127018922193 86.5 L 43.30127018922193 87.5 M 43.30127018922193 114.5 L 43.30127018922193 115.5 M 43.30127018922193 118.5 L 43.30127018922193 119.5 M 44.167295593006365 80 L 44.167295593006365 79 M 44.167295593006365 76 L 44.167295593006365 75 M 44.167295593006365 72 L 44.167295593006365 71 M 44.167295593006365 68 L 44.167295593006365 67 M 44.167295593006365 64 L 44.167295593006365 63 M 44.167295593006365 60 L 44.167295593006365 59 M 44.167295593006365 56 L 44.167295593006365 55 M 44.167295593006365 42 L 44.167295593006365 41 M 44.167295593006365 38 L 44.167295593006365 37 M 44.167295593006365 34 L 44.167295593006365 33 M 45.033320996790806 81.5 L 45.033320996790806 82.5 M 45.033320996790806 85.5 L 45.033320996790806 86.5 M 45.89934640057525 87 L 45.89934640057525 86 M 45.89934640057525 83 L 45.89934640057525 82 M 45.89934640057525 41 L 45.89934640057525 40 M 45.89934640057525 37 L 45.89934640057525 36 M 46.76537180435968 151.5 L 46.76537180435968 152.5 M 47.63139720814412 31 L 47.63139720814412 30 M 48.49742261192856 33.5 L 48.49742261192856 34.5 M 49.363448015713 25 L 49.363448015713 24 M 50.22947341949744 147.5 L 50.22947341949744 148.5 M 51.09549882328188 150 L 51.09549882328188 149 M 51.09549882328188 57 L 51.09549882328188 56 M 51.09549882328188 53 L 51.09549882328188 52 M 51.09549882328188 49 L 51.09549882328188 48 M 51.09549882328188 45 L 51.09549882328188 44 M 51.96152422706631 35.5 L 51.96152422706631 36.5 M 51.96152422706631 39.5 L 51.96152422706631 40.5 M 51.96152422706631 44.5 L 51.96152422706631 45.5 M 51.96152422706631 48.5 L 51.96152422706631 49.5 M 51.96152422706631 52.5 L 51.96152422706631 53.5 M 51.96152422706631 56.5 L 51.96152422706631 57.5 M 52.827549630850754 32 L 52.827549630850754 31 M 52.827549630850754 28 L 52.827549630850754 27 M 55.42562584220407 42.5 L 55.42562584220407 43.5 M 55.42562584220407 46.5 L 55.42562584220407 47.5 M 55.42562584220407 50.5 L 55.42562584220407 51.5 M 55.42562584220407 54.5 L 55.42562584220407 55.5 M 55.42562584220407 111.5 L 55.42562584220407 112.5 M 55.42562584220407 115.5 L 55.42562584220407 116.5 M 55.42562584220407 119.5 L 55.42562584220407 120.5 M 56.29165124598851 143 L 56.29165124598851 142 M 56.29165124598851 139 L 56.29165124598851 138 M 56.29165124598851 135 L 56.29165124598851 134 M 56.29165124598851 131 L 56.29165124598851 130 M 56.29165124598851 127 L 56.29165124598851 126 M 56.29165124598851 123 L 56.29165124598851 122 M 56.29165124598851 119 L 56.29165124598851 118 M 56.29165124598851 115 L 56.29165124598851 114 M 56.29165124598851 111 L 56.29165124598851 110 M 56.29165124598851 107 L 56.29165124598851 106 M 56.29165124598851 103 L 56.29165124598851 102 M 56.29165124598851 99 L 56.29165124598851 98 M 56.29165124598851 95 L 56.29165124598851 94 M 56.29165124598851 91 L 56.29165124598851 90 M 56.29165124598851 87 L 56.29165124598851 86 M 56.29165124598851 83 L 56.29165124598851 82 M 56.29165124598851 81 L 56.29165124598851 80 M 56.29165124598851 77 L 56.29165124598851 76 M 56.29165124598851 73 L 56.29165124598851 72 M 56.29165124598851 69 L 56.29165124598851 68 M 56.29165124598851 65 L 56.29165124598851 64 M 56.29165124598851 61 L 56.29165124598851 60 M 56.29165124598851 57 L 56.29165124598851 56 M 57.157676649772945 28.5 L 57.157676649772945 29.5 M 58.88972745734183 21.5 L 58.88972745734183 22.5 M 61.48780366869514 75 L 61.48780366869514 74 M 61.48780366869514 71 L 61.48780366869514 70 M 61.48780366869514 67 L 61.48780366869514 66 M 61.48780366869514 63 L 61.48780366869514 62 M 61.48780366869514 59 L 61.48780366869514 58 M 61.48780366869514 55 L 61.48780366869514 54 M 61.48780366869514 51 L 61.48780366869514 50 M 61.48780366869514 47 L 61.48780366869514 46 M 61.48780366869514 43 L 61.48780366869514 42 M 63.21985447626402 150 L 63.21985447626402 149 M 63.21985447626402 87 L 63.21985447626402 86 M 65.81793068761733 27.5 L 65.81793068761733 28.5 M 65.81793068761733 31.5 L 65.81793068761733 32.5 M 65.81793068761733 35.5 L 65.81793068761733 36.5 M 65.81793068761733 91.5 L 65.81793068761733 92.5 M 65.81793068761733 95.5 L 65.81793068761733 96.5 M 65.81793068761733 99.5 L 65.81793068761733 100.5 M 65.81793068761733 103.5 L 65.81793068761733 104.5 M 65.81793068761733 107.5 L 65.81793068761733 108.5 M 65.81793068761733 111.5 L 65.81793068761733 112.5 M 65.81793068761733 115.5 L 65.81793068761733 116.5 M 65.81793068761733 119.5 L 65.81793068761733 120.5 M 65.81793068761733 123.5 L 65.81793068761733 124.5 M 65.81793068761733 127.5 L 65.81793068761733 128.5 M 65.81793068761733 131.5 L 65.81793068761733 132.5 M 65.81793068761733 135.5 L 65.81793068761733 136.5 M 65.81793068761733 139.5 L 65.81793068761733 140.5 M 65.81793068761733 143.5 L 65.81793068761733 144.5 M 65.81793068761733 147.5 L 65.81793068761733 148.5 M 68.41600689897065 84 L 68.41600689897065 83 M 71.01408311032397 28.5 L 71.01408311032397 29.5 M 71.01408311032397 84.5 L 71.01408311032397 85.5 M 71.8801085141084 81 L 71.8801085141084 80 M 71.8801085141084 77 L 71.8801085141084 76 M 71.8801085141084 73 L 71.8801085141084 72 M 71.8801085141084 69 L 71.8801085141084 68 M 71.8801085141084 65 L 71.8801085141084 64 M 71.8801085141084 61 L 71.8801085141084 60 M 71.8801085141084 57 L 71.8801085141084 56 M 71.8801085141084 53 L 71.8801085141084 52 M 71.8801085141084 49 L 71.8801085141084 48 M 74.47818472546172 82.5 L 74.47818472546172 83.5 M 74.47818472546172 86.5 L 74.47818472546172 87.5 M 74.47818472546172 90.5 L 74.47818472546172 91.5 M 74.47818472546172 94.5 L 74.47818472546172 95.5 M 74.47818472546172 98.5 L 74.47818472546172 99.5 M 75.34421012924616 147 L 75.34421012924616 146 M 75.34421012924616 143 L 75.34421012924616 142 M 75.34421012924616 27 L 75.34421012924616 26 M 79.67433714816835 43.5 L 79.67433714816835 44.5 M 79.67433714816835 47.5 L 79.67433714816835 48.5 M 79.67433714816835 51.5 L 79.67433714816835 52.5 M 79.67433714816835 55.5 L 79.67433714816835 56.5 M 79.67433714816835 59.5 L 79.67433714816835 60.5 M 79.67433714816835 63.5 L 79.67433714816835 64.5 M 79.67433714816835 67.5 L 79.67433714816835 68.5 M 79.67433714816835 71.5 L 79.67433714816835 72.5 M 79.67433714816835 75.5 L 79.67433714816835 76.5 M 79.67433714816835 103.5 L 79.67433714816835 104.5 M 79.67433714816835 107.5 L 79.67433714816835 108.5 M 79.67433714816835 111.5 L 79.67433714816835 112.5 M 79.67433714816835 115.5 L 79.67433714816835 116.5 M 79.67433714816835 119.5 L 79.67433714816835 120.5 M 79.67433714816835 123.5 L 79.67433714816835 124.5 M 79.67433714816835 127.5 L 79.67433714816835 128.5 M 79.67433714816835 131.5 L 79.67433714816835 132.5 M 79.67433714816835 135.5 L 79.67433714816835 136.5 M 80.5403625519528 41 L 80.5403625519528 40 M 81.40638795573723 43.5 L 81.40638795573723 44.5 M 82.27241335952166 124 L 82.27241335952166 123 M 82.27241335952166 120 L 82.27241335952166 119 M 82.27241335952166 116 L 82.27241335952166 115 M 83.13843876330611 146.5 L 83.13843876330611 147.5 M 83.13843876330611 150.5 L 83.13843876330611 151.5 M 84.00446416709055 74 L 84.00446416709055 73 M 84.00446416709055 70 L 84.00446416709055 69 M 84.00446416709055 66 L 84.00446416709055 65 M 84.87048957087498 46.5 L 84.87048957087498 47.5 M 84.87048957087498 76.5 L 84.87048957087498 77.5 M 84.87048957087498 80.5 L 84.87048957087498 81.5 M 84.87048957087498 84.5 L 84.87048957087498 85.5 M 87.4685657822283 116 L 87.4685657822283 115 M 87.4685657822283 112 L 87.4685657822283 111 M 87.4685657822283 108 L 87.4685657822283 107 M 87.4685657822283 104 L 87.4685657822283 103 M 87.4685657822283 100 L 87.4685657822283 99 M 87.4685657822283 96 L 87.4685657822283 95 M 87.4685657822283 92 L 87.4685657822283 91 M 87.4685657822283 88 L 87.4685657822283 87 M 87.4685657822283 84 L 87.4685657822283 83 M 87.4685657822283 80 L 87.4685657822283 79 M 87.4685657822283 49 L 87.4685657822283 48 M 87.4685657822283 45 L 87.4685657822283 44 M 89.20061658979718 158 L 89.20061658979718 157 M 90.06664199358161 53.5 L 90.06664199358161 54.5 M 90.06664199358161 57.5 L 90.06664199358161 58.5 M 90.06664199358161 68.5 L 90.06664199358161 69.5 M 90.06664199358161 72.5 L 90.06664199358161 73.5 M 90.06664199358161 76.5 L 90.06664199358161 77.5 M 90.06664199358161 80.5 L 90.06664199358161 81.5 M 90.06664199358161 84.5 L 90.06664199358161 85.5 M 90.06664199358161 88.5 L 90.06664199358161 89.5 M 90.06664199358161 92.5 L 90.06664199358161 93.5 M 90.06664199358161 96.5 L 90.06664199358161 97.5 M 90.06664199358161 100.5 L 90.06664199358161 101.5 M 90.06664199358161 104.5 L 90.06664199358161 105.5 M 90.06664199358161 108.5 L 90.06664199358161 109.5 M 90.06664199358161 112.5 L 90.06664199358161 113.5 M 90.06664199358161 116.5 L 90.06664199358161 117.5 M 90.06664199358161 157.5 L 90.06664199358161 158.5 M 90.93266739736605 153 L 90.93266739736605 152 M 90.93266739736605 149 L 90.93266739736605 148 M 91.7986928011505 148.5 L 91.7986928011505 149.5 M 91.7986928011505 152.5 L 91.7986928011505 153.5 M 96.12881982007268 102 L 96.12881982007268 101 M 96.12881982007268 98 L 96.12881982007268 97 M 96.12881982007268 94 L 96.12881982007268 93 M 96.12881982007268 90 L 96.12881982007268 89 M 96.12881982007268 86 L 96.12881982007268 85 M 96.12881982007268 82 L 96.12881982007268 81 M 96.12881982007268 78 L 96.12881982007268 77 M 96.12881982007268 74 L 96.12881982007268 73 M 96.12881982007268 70 L 96.12881982007268 69 M 96.12881982007268 66 L 96.12881982007268 65 M 96.99484522385713 84.5 L 96.99484522385713 85.5 M 96.99484522385713 88.5 L 96.99484522385713 89.5 M 96.99484522385713 92.5 L 96.99484522385713 93.5 M 96.99484522385713 96.5 L 96.99484522385713 97.5 M 96.99484522385713 100.5 L 96.99484522385713 101.5 M 96.99484522385713 104.5 L 96.99484522385713 105.5 M 96.99484522385713 108.5 L 96.99484522385713 109.5 M 96.99484522385713 112.5 L 96.99484522385713 113.5 M 96.99484522385713 116.5 L 96.99484522385713 117.5 M 96.99484522385713 120.5 L 96.99484522385713 121.5 M 96.99484522385713 124.5 L 96.99484522385713 125.5 M 97.86087062764156 126 L 97.86087062764156 125 M 97.86087062764156 122 L 97.86087062764156 121 M 97.86087062764156 118 L 97.86087062764156 117 M 97.86087062764156 114 L 97.86087062764156 113 M 97.86087062764156 110 L 97.86087062764156 109 M 97.86087062764156 106 L 97.86087062764156 105 M 97.86087062764156 102 L 97.86087062764156 101 M 97.86087062764156 98 L 97.86087062764156 97 M 97.86087062764156 94 L 97.86087062764156 93 M 97.86087062764156 90 L 97.86087062764156 89 M 97.86087062764156 86 L 97.86087062764156 85 M 97.86087062764156 43 L 97.86087062764156 42 M 97.86087062764156 39 L 97.86087062764156 38 M 98.726896031426 84.5 L 98.726896031426 85.5 M 98.726896031426 88.5 L 98.726896031426 89.5 M 98.726896031426 92.5 L 98.726896031426 93.5 M 98.726896031426 96.5 L 98.726896031426 97.5 M 98.726896031426 100.5 L 98.726896031426 101.5 M 98.726896031426 104.5 L 98.726896031426 105.5 M 98.726896031426 108.5 L 98.726896031426 109.5 M 98.726896031426 112.5 L 98.726896031426 113.5 M 98.726896031426 116.5 L 98.726896031426 117.5 M 98.726896031426 120.5 L 98.726896031426 121.5 M 98.726896031426 124.5 L 98.726896031426 125.5 M 98.726896031426 137.5 L 98.726896031426 138.5 M 98.726896031426 141.5 L 98.726896031426 142.5 M 98.726896031426 144.5 L 98.726896031426 145.5 M 98.726896031426 148.5 L 98.726896031426 149.5 M 98.726896031426 152.5 L 98.726896031426 153.5 M 99.59292143521044 112 L 99.59292143521044 111 M 99.59292143521044 108 L 99.59292143521044 107 M 103.05702305034819 106 L 103.05702305034819 105 M 103.05702305034819 102 L 103.05702305034819 101 M 103.05702305034819 98 L 103.05702305034819 97 M 103.05702305034819 94 L 103.05702305034819 93 M 103.05702305034819 90 L 103.05702305034819 89 M 103.05702305034819 86 L 103.05702305034819 85 M 103.05702305034819 82 L 103.05702305034819 81 M 103.05702305034819 78 L 103.05702305034819 77 M 103.05702305034819 74 L 103.05702305034819 73 M 103.05702305034819 70 L 103.05702305034819 69 M 103.05702305034819 66 L 103.05702305034819 65 M 103.05702305034819 62 L 103.05702305034819 61 M 107.38715006927039 58.5 L 107.38715006927039 59.5 M 107.38715006927039 62.5 L 107.38715006927039 63.5 M 107.38715006927039 66.5 L 107.38715006927039 67.5 M 107.38715006927039 70.5 L 107.38715006927039 71.5 M 107.38715006927039 74.5 L 107.38715006927039 75.5 M 107.38715006927039 78.5 L 107.38715006927039 79.5 M 107.38715006927039 82.5 L 107.38715006927039 83.5 M 107.38715006927039 86.5 L 107.38715006927039 87.5 M 107.38715006927039 90.5 L 107.38715006927039 91.5 M 107.38715006927039 94.5 L 107.38715006927039 95.5 M 107.38715006927039 98.5 L 107.38715006927039 99.5 M 107.38715006927039 102.5 L 107.38715006927039 103.5 " /></g></svg>