<svg viewBox="-12.8 -12.8 138.18330249197703 153.6" xmlns="http://www.w3.org/2000/svg"><g stroke="black" stroke-width="0.4" stroke-linecap="round"><path d="M 11.258330249197702 28 L 16.454482671904334 25 M 19.918584287042087 23 L 30.31088913245535 17 M 33.77499074759311 15 L 44.167295593006365 9 M 47.63139720814412 7 L 50.22947341949744 5.5 M 53.693575034635195 4.5 L 51.09549882328188 6 M 12.12435565298214 28.5 L 6.928203230275509 31.5 M 4.330127018922193 36 L 5.196152422706632 35.5 M 7.794228634059947 34 L 8.660254037844386 33.5 M 56.29165124598851 6 L 57.157676649772945 5.5 M 61.48780366869514 4 L 57.157676649772945 6.5 M 9.526279441628825 34 L 8.660254037844386 34.5 M 37.23909236273086 20 L 36.373066958946424 20.5 M 25.11473670974872 27 L 23.38268590217984 28 M 11.258330249197702 35 L 9.526279441628825 36 M 14.722431864335457 36 L 25.11473670974872 30 M 28.578838324886473 28 L 38.97114317029974 22 M 42.43524478543749 20 L 52.827549630850754 14 M 56.29165124598851 12 L 58.88972745734183 10.5 M 66.68395609140177 7 L 58.88972745734183 11.5 M 25.11473670974872 31 L 20.784609690826528 33.5 M 19.918584287042087 34 L 14.722431864335457 37 M 6.928203230275509 41.5 L 6.06217782649107 42 M 28.578838324886473 30 L 38.97114317029974 24 M 42.43524478543749 22 L 44.167295593006365 21 M 45.033320996790806 20.5 L 52.827549630850754 16 M 56.29165124598851 14 L 61.48780366869514 11 M 62.35382907247958 10.5 L 65.81793068761733 8.5 M 53.693575034635195 16.5 L 48.49742261192856 19.5 M 38.1051177665153 26.5 L 38.97114317029974 26 M 59.75575286112626 14 L 62.35382907247958 12.5 M 70.14805770653953 9 L 63.21985447626402 13 M 38.1051177665153 27.5 L 36.373066958946424 28.5 M 25.11473670974872 35 L 20.784609690826528 37.5 M 19.918584287042087 38 L 16.454482671904334 40 M 6.06217782649107 47 L 9.526279441628825 45 M 14.722431864335457 42 L 15.588457268119894 41.5 M 17.32050807568877 40.5 L 25.11473670974872 36 M 36.373066958946424 29.5 L 38.1051177665153 28.5 M 47.63139720814412 23 L 53.693575034635195 19.5 M 66.68395609140177 13 L 64.9519052838329 14 M 57.157676649772945 18.5 L 54.55960043841963 20 M 53.693575034635195 20.5 L 48.49742261192856 23.5 M 38.1051177665153 29.5 L 37.23909236273086 30 M 16.454482671904334 42 L 15.588457268119894 42.5 M 8.660254037844386 46.5 L 6.928203230275509 47.5 M 10.392304845413264 46.5 L 11.258330249197702 46 M 15.588457268119894 43.5 L 16.454482671904334 43 M 55.42562584220407 20.5 L 58.023702053557386 19 M 41.569219381653056 29.5 L 39.837168574084174 30.5 M 38.1051177665153 31.5 L 17.32050807568877 43.5 M 16.454482671904334 44 L 15.588457268119894 44.5 M 15.588457268119894 45.5 L 25.11473670974872 40 M 57.157676649772945 21.5 L 59.75575286112626 20 M 60.6217782649107 20.5 L 58.023702053557386 22 M 47.63139720814412 28 L 45.89934640057525 29 M 6.928203230275509 52.5 L 8.660254037844386 51.5 M 14.722431864335457 48 L 15.588457268119894 47.5 M 25.980762113533157 41.5 L 35.50704155516198 36 M 38.97114317029974 34 L 40.703193977868615 33 M 44.167295593006365 31 L 45.033320996790806 30.5 M 61.48780366869514 21 L 62.35382907247958 20.5 M 69.28203230275508 16.5 L 71.01408311032397 15.5 M 71.01408311032397 16.5 L 70.14805770653953 17 M 41.569219381653056 33.5 L 39.837168574084174 34.5 M 36.373066958946424 36.5 L 25.980762113533157 42.5 M 19.918584287042087 46 L 19.05255888325765 46.5 M 18.186533479473212 47 L 14.722431864335457 49 M 13.856406460551018 49.5 L 12.12435565298214 50.5 M 12.990381056766578 51 L 14.722431864335457 50 M 16.454482671904334 51 L 17.32050807568877 50.5 M 44.167295593006365 35 L 45.033320996790806 34.5 M 61.48780366869514 25 L 62.35382907247958 24.5 M 70.14805770653953 20 L 72.74613391789285 18.5 M 80.5403625519528 15 L 72.74613391789285 19.5 M 47.63139720814412 34 L 46.76537180435968 34.5 M 48.49742261192856 34.5 L 53.693575034635195 31.5 M 70.14805770653953 22 L 75.34421012924616 19 M 76.2102355330306 18.5 L 79.67433714816835 16.5 M 4.330127018922193 62 L 7.794228634059947 60 M 46.76537180435968 37.5 L 49.363448015713 36 M 64.9519052838329 27 L 65.81793068761733 26.5 M 73.61215932167728 22 L 76.2102355330306 20.5 M 84.00446416709055 17 L 77.07626093681503 21 M 50.22947341949744 36.5 L 47.63139720814412 38 M 38.1051177665153 43.5 L 36.373066958946424 44.5 M 34.64101615137754 45.5 L 25.980762113533157 50.5 M 25.11473670974872 51 L 17.32050807568877 55.5 M 12.12435565298214 58.5 L 5.196152422706632 62.5 M 16.454482671904334 57 L 18.186533479473212 56 M 19.05255888325765 55.5 L 25.980762113533157 51.5 M 36.373066958946424 45.5 L 38.97114317029974 44 M 48.49742261192856 38.5 L 51.09549882328188 37 M 19.918584287042087 57 L 25.11473670974872 54 M 28.578838324886473 52 L 37.23909236273086 47 M 41.569219381653056 45.5 L 39.837168574084174 46.5 M 36.373066958946424 48.5 L 28.578838324886473 53 M 25.11473670974872 55 L 20.784609690826528 57.5 M 12.990381056766578 63 L 16.454482671904334 61 M 32.90896534380867 51.5 L 34.64101615137754 50.5 M 61.48780366869514 36 L 56.29165124598851 39 M 52.827549630850754 41 L 45.033320996790806 45.5 M 18.186533479473212 62 L 19.05255888325765 61.5 M 19.918584287042087 61 L 20.784609690826528 60.5 M 36.373066958946424 51.5 L 37.23909236273086 51 M 44.167295593006365 47 L 52.827549630850754 42 M 56.29165124598851 40 L 62.35382907247958 36.5 M 75.34421012924616 29 L 76.2102355330306 28.5 M 64.9519052838329 38 L 59.75575286112626 41 M 51.96152422706631 45.5 L 51.09549882328188 46 M 38.97114317029974 53 L 37.23909236273086 54 M 19.918584287042087 65 L 20.784609690826528 64.5 M 75.34421012924616 33 L 76.2102355330306 32.5 M 84.00446416709055 28 L 86.60254037844386 26.5 M 94.39676901250381 23 L 86.60254037844386 27.5 M 60.6217782649107 42.5 L 56.29165124598851 45 M 52.827549630850754 47 L 42.43524478543749 53 M 38.97114317029974 55 L 28.578838324886473 61 M 25.11473670974872 63 L 20.784609690826528 65.5 M 10.392304845413264 71.5 L 5.196152422706632 74.5 M 20.784609690826528 66.5 L 25.11473670974872 64 M 28.578838324886473 62 L 36.373066958946424 57.5 M 37.23909236273086 57 L 38.97114317029974 56 M 39.837168574084174 55.5 L 51.09549882328188 49 M 60.6217782649107 43.5 L 61.48780366869514 43 M 84.00446416709055 30 L 89.20061658979718 27 M 92.66471820493493 25 L 93.53074360871936 24.5 M 59.75575286112626 45 L 56.29165124598851 47 M 4.330127018922193 78 L 12.990381056766578 73 M 20.784609690826528 68.5 L 26.846787517317598 65 M 38.1051177665153 58.5 L 40.703193977868615 57 M 78.80831174438391 35 L 79.67433714816835 34.5 M 87.4685657822283 30 L 92.66471820493493 27 M 93.53074360871936 27.5 L 90.93266739736605 29 M 64.08587988004845 44.5 L 59.75575286112626 47 M 57.157676649772945 48.5 L 56.29165124598851 49 M 51.09549882328188 52 L 42.43524478543749 57 M 38.97114317029974 59 L 37.23909236273086 60 M 36.373066958946424 60.5 L 33.77499074759311 62 M 24.24871130596428 67.5 L 20.784609690826528 69.5 M 13.856406460551018 73.5 L 5.196152422706632 78.5 M 25.980762113533157 67.5 L 28.578838324886473 66 M 34.64101615137754 62.5 L 52.827549630850754 52 M 94.39676901250381 28 L 96.12881982007268 27 M 21.650635094610966 72 L 26.846787517317598 69 M 60.6217782649107 50.5 L 59.75575286112626 51 M 53.693575034635195 54.5 L 51.09549882328188 56 M 27.712812921102035 69.5 L 23.38268590217984 72 M 51.96152422706631 56.5 L 54.55960043841963 55 M 98.726896031426 30.5 L 96.12881982007268 32 M 75.34421012924616 44 L 70.14805770653953 47 M 19.918584287042087 77 L 20.784609690826528 76.5 M 25.980762113533157 73.5 L 30.31088913245535 71 M 33.77499074759311 69 L 34.64101615137754 68.5 M 56.29165124598851 56 L 57.157676649772945 55.5 M 63.21985447626402 52 L 64.08587988004845 51.5 M 70.14805770653953 48 L 76.2102355330306 44.5 M 89.20061658979718 37 L 90.06664199358161 36.5 M 92.66471820493493 35 L 93.53074360871936 34.5 M 96.99484522385713 32.5 L 98.726896031426 31.5 M 31.17691453623979 71.5 L 25.980762113533157 74.5 M 78.80831174438391 46 L 73.61215932167728 49 M 67.54998149518622 52.5 L 64.9519052838329 54 M 33.77499074759311 73 L 34.64101615137754 72.5 M 56.29165124598851 60 L 57.157676649772945 59.5 M 89.20061658979718 41 L 90.06664199358161 40.5 M 97.86087062764156 36 L 100.45894683899488 34.5 M 99.59292143521044 36 L 97.86087062764156 37 M 74.47818472546172 50.5 L 70.14805770653953 53 M 44.167295593006365 68 L 34.64101615137754 73.5 M 24.24871130596428 79.5 L 19.05255888325765 82.5 M 15.588457268119894 84.5 L 5.196152422706632 90.5 M 70.14805770653953 54 L 75.34421012924616 51 M 97.86087062764156 38 L 99.59292143521044 37 M 100.45894683899488 36.5 L 106.52112466548594 33 M 36.373066958946424 75.5 L 38.1051177665153 74.5 M 59.75575286112626 62 L 63.21985447626402 60 M 70.14805770653953 56 L 77.07626093681503 52 M 90.06664199358161 44.5 L 91.7986928011505 43.5 M 97.86087062764156 40 L 100.45894683899488 38.5 M 101.32497224277931 38 L 106.52112466548594 35 M 91.7986928011505 44.5 L 90.06664199358161 45.5 M 77.94228634059948 52.5 L 71.01408311032397 56.5 M 64.08587988004845 60.5 L 61.48780366869514 62 M 75.34421012924616 55 L 78.80831174438391 53 M 92.66471820493493 45 L 95.26279441628824 43.5 M 31.17691453623979 81.5 L 25.980762113533157 84.5 M 71.01408311032397 59.5 L 74.47818472546172 57.5 M 75.34421012924616 57 L 80.5403625519528 54 M 90.06664199358161 48.5 L 91.7986928011505 47.5 M 96.99484522385713 45.5 L 91.7986928011505 48.5 M 90.93266739736605 49 L 90.06664199358161 49.5 M 74.47818472546172 58.5 L 73.61215932167728 59 M 28.578838324886473 86 L 33.77499074759311 83 M 57.157676649772945 69.5 L 59.75575286112626 68 M 90.06664199358161 50.5 L 90.93266739736605 50 M 92.66471820493493 49 L 95.26279441628824 47.5 M 96.12881982007268 47 L 98.726896031426 45.5 M 91.7986928011505 50.5 L 90.06664199358161 51.5 M 89.20061658979718 52 L 84.00446416709055 55 M 72.74613391789285 61.5 L 71.01408311032397 62.5 M 69.28203230275508 63.5 L 66.68395609140177 65 M 59.75575286112626 69 L 57.157676649772945 70.5 M 52.827549630850754 73 L 44.167295593006365 78 M 36.373066958946424 82.5 L 34.64101615137754 83.5 M 33.77499074759311 84 L 28.578838324886473 87 M 33.77499074759311 85 L 36.373066958946424 83.5 M 45.033320996790806 78.5 L 52.827549630850754 74 M 56.29165124598851 72 L 57.157676649772945 71.5 M 67.54998149518622 65.5 L 73.61215932167728 62 M 84.00446416709055 56 L 90.06664199358161 52.5 M 100.45894683899488 46.5 L 101.32497224277931 46 M 90.93266739736605 53 L 87.4685657822283 55 M 32.042939940024226 88 L 36.373066958946424 85.5 M 77.94228634059948 61.5 L 78.80831174438391 61 M 91.7986928011505 54.5 L 87.4685657822283 57 M 56.29165124598851 75 L 47.63139720814412 80 M 46.76537180435968 81.5 L 48.49742261192856 80.5 M 70.14805770653953 68 L 71.01408311032397 67.5 M 84.00446416709055 60 L 87.4685657822283 58 M 100.45894683899488 50.5 L 101.32497224277931 50 M 86.60254037844386 59.5 L 84.00446416709055 61 M 106.52112466548594 50 L 101.32497224277931 53 M 38.97114317029974 90 L 39.837168574084174 89.5 M 50.22947341949744 83.5 L 51.96152422706631 82.5 M 73.61215932167728 70 L 74.47818472546172 69.5 M 83.13843876330611 64.5 L 84.00446416709055 64 M 87.4685657822283 62 L 90.93266739736605 60 M 101.32497224277931 54 L 105.65509926170151 51.5 M 84.00446416709055 65 L 83.13843876330611 65.5 M 71.01408311032397 73.5 L 73.61215932167728 72 M 84.00446416709055 66 L 84.87048957087498 65.5 M 92.66471820493493 61 L 95.26279441628824 59.5 M 93.53074360871936 61.5 L 90.06664199358161 63.5 M 35.50704155516198 96 L 42.43524478543749 92 M 77.94228634059948 71.5 L 80.5403625519528 70 M 90.93266739736605 64 L 94.39676901250381 62 M 96.12881982007268 62 L 95.26279441628824 62.5 M 94.39676901250381 63 L 91.7986928011505 64.5 M 80.5403625519528 71 L 78.80831174438391 72 M 43.30127018922193 92.5 L 36.373066958946424 96.5 M 45.033320996790806 92.5 L 46.76537180435968 91.5 M 71.01408311032397 77.5 L 73.61215932167728 76 M 84.00446416709055 70 L 84.87048957087498 69.5 M 87.4685657822283 68 L 88.33459118601273 67.5 M 101.32497224277931 60 L 103.92304845413263 58.5 M 84.00446416709055 71 L 83.13843876330611 71.5 M 73.61215932167728 77 L 71.01408311032397 78.5 M 66.68395609140177 81 L 58.023702053557386 86 M 50.22947341949744 90.5 L 48.49742261192856 91.5 M 47.63139720814412 92 L 45.89934640057525 93 M 43.30127018922193 94.5 L 36.373066958946424 98.5 M 47.63139720814412 93 L 50.22947341949744 91.5 M 58.88972745734183 86.5 L 66.68395609140177 82 M 70.14805770653953 80 L 71.01408311032397 79.5 M 86.60254037844386 70.5 L 87.4685657822283 70 M 100.45894683899488 62.5 L 103.92304845413263 60.5 M 105.65509926170151 59.5 L 106.52112466548594 59 M 90.93266739736605 69 L 90.06664199358161 69.5 M 46.76537180435968 94.5 L 39.837168574084174 98.5 M 41.569219381653056 98.5 L 47.63139720814412 95 M 48.49742261192856 94.5 L 51.09549882328188 93 M 54.55960043841963 91 L 58.88972745734183 88.5 M 60.6217782649107 87.5 L 64.9519052838329 85 M 68.41600689897065 83 L 78.80831174438391 77 M 102.19099764656376 64.5 L 100.45894683899488 65.5 M 92.66471820493493 70 L 91.7986928011505 70.5 M 84.00446416709055 75 L 83.13843876330611 75.5 M 78.80831174438391 78 L 72.74613391789285 81.5 M 71.8801085141084 82 L 69.28203230275508 83.5 M 68.41600689897065 84 L 61.48780366869514 88 M 59.75575286112626 89 L 55.42562584220407 91.5 M 51.96152422706631 93.5 L 48.49742261192856 95.5 M 42.43524478543749 100 L 43.30127018922193 99.5 M 60.6217782649107 89.5 L 62.35382907247958 88.5 M 72.74613391789285 82.5 L 73.61215932167728 82 M 79.67433714816835 78.5 L 80.5403625519528 78 M 86.60254037844386 74.5 L 87.4685657822283 74 M 100.45894683899488 66.5 L 103.92304845413263 64.5 M 105.65509926170151 63.5 L 106.52112466548594 63 M 84.00446416709055 77 L 83.13843876330611 77.5 M 84.00446416709055 78 L 86.60254037844386 76.5 M 87.4685657822283 76 L 89.20061658979718 75 M 96.12881982007268 72 L 95.26279441628824 72.5 M 90.93266739736605 75 L 84.00446416709055 79 M 45.89934640057525 102 L 46.76537180435968 101.5 M 64.08587988004845 91.5 L 65.81793068761733 90.5 M 76.2102355330306 84.5 L 77.07626093681503 84 M 83.13843876330611 80.5 L 84.00446416709055 80 M 90.06664199358161 76.5 L 90.93266739736605 76 M 93.53074360871936 75.5 L 91.7986928011505 76.5 M 43.30127018922193 105.5 L 45.89934640057525 104 M 73.61215932167728 88 L 76.2102355330306 86.5 M 87.4685657822283 80 L 91.7986928011505 77.5 M 96.12881982007268 76 L 95.26279441628824 76.5 M 93.53074360871936 77.5 L 90.06664199358161 79.5 M 87.4685657822283 81 L 86.60254037844386 81.5 M 76.2102355330306 87.5 L 73.61215932167728 89 M 71.8801085141084 90 L 69.28203230275508 91.5 M 68.41600689897065 92 L 66.68395609140177 93 M 64.08587988004845 94.5 L 62.35382907247958 95.5 M 59.75575286112626 97 L 55.42562584220407 99.5 M 51.96152422706631 101.5 L 49.363448015713 103 M 43.30127018922193 107.5 L 45.89934640057525 106 M 50.22947341949744 103.5 L 52.827549630850754 102 M 56.29165124598851 100 L 60.6217782649107 97.5 M 62.35382907247958 96.5 L 64.08587988004845 95.5 M 70.14805770653953 92 L 72.74613391789285 90.5 M 87.4685657822283 82 L 88.33459118601273 81.5 M 90.93266739736605 80 L 94.39676901250381 78 M 94.39676901250381 79 L 91.7986928011505 80.5 M 76.2102355330306 89.5 L 70.14805770653953 93 M 64.08587988004845 96.5 L 62.35382907247958 97.5 M 60.6217782649107 98.5 L 57.157676649772945 100.5 M 45.89934640057525 107 L 43.30127018922193 108.5 M 51.96152422706631 104.5 L 52.827549630850754 104 M 56.29165124598851 102 L 57.157676649772945 101.5 M 60.6217782649107 99.5 L 62.35382907247958 98.5 M 94.39676901250381 81 L 91.7986928011505 82.5 M 82.27241335952166 88 L 79.67433714816835 89.5 M 76.2102355330306 91.5 L 65.81793068761733 97.5 M 64.08587988004845 98.5 L 52.827549630850754 105 M 42.43524478543749 112 L 43.30127018922193 111.5 M 52.827549630850754 106 L 59.75575286112626 102 M 60.6217782649107 101.5 L 64.08587988004845 99.5 M 67.54998149518622 97.5 L 77.07626093681503 92 M 80.5403625519528 90 L 83.13843876330611 88.5 M 100.45894683899488 78.5 L 103.92304845413263 76.5 M 105.65509926170151 75.5 L 106.52112466548594 75 M 90.93266739736605 85 L 84.87048957087498 88.5 M 52.827549630850754 108 L 59.75575286112626 104 M 69.28203230275508 98.5 L 77.07626093681503 94 M 80.5403625519528 92 L 83.13843876330611 90.5 M 84.87048957087498 89.5 L 92.66471820493493 85 M 102.19099764656376 80.5 L 101.32497224277931 81 M 47.63139720814412 112 L 46.76537180435968 112.5 M 63.21985447626402 104 L 64.08587988004845 103.5 M 70.14805770653953 100 L 71.01408311032397 99.5 M 84.87048957087498 91.5 L 92.66471820493493 87 M 100.45894683899488 82.5 L 103.92304845413263 80.5 M 105.65509926170151 79.5 L 106.52112466548594 79 M 82.27241335952166 94 L 80.5403625519528 95 M 56.29165124598851 110 L 63.21985447626402 106 M 71.01408311032397 101.5 L 80.5403625519528 96 M 84.00446416709055 94 L 94.39676901250381 88 M 97.86087062764156 86 L 100.45894683899488 84.5 M 107.38715006927039 81.5 L 106.52112466548594 82 M 105.65509926170151 82.5 L 103.92304845413263 83.5 M 94.39676901250381 89 L 84.00446416709055 95 M 81.40638795573723 96.5 L 73.61215932167728 101 M 72.74613391789285 101.5 L 71.01408311032397 102.5 M 66.68395609140177 105 L 64.08587988004845 106.5 M 63.21985447626402 107 L 62.35382907247958 107.5 M 60.6217782649107 108.5 L 56.29165124598851 111 M 60.6217782649107 109.5 L 61.48780366869514 109 M 64.9519052838329 107 L 66.68395609140177 106 M 107.38715006927039 83.5 L 106.52112466548594 84 M 94.39676901250381 91 L 84.00446416709055 97 M 81.40638795573723 98.5 L 73.61215932167728 103 M 58.023702053557386 112 L 52.827549630850754 115 M 86.60254037844386 96.5 L 94.39676901250381 92 M 103.92304845413263 86.5 L 106.52112466548594 85 M 103.92304845413263 87.5 L 97.86087062764156 91 M 73.61215932167728 106 L 75.34421012924616 105 M 76.2102355330306 104.5 L 77.94228634059948 103.5 M 79.67433714816835 102.5 L 80.5403625519528 102 M 83.13843876330611 100.5 L 86.60254037844386 98.5 M 92.66471820493493 96 L 84.00446416709055 101 M 63.21985447626402 114 L 64.08587988004845 113.5 M 64.9519052838329 113 L 66.68395609140177 112 M 71.01408311032397 110.5 L 70.14805770653953 111 M 66.68395609140177 113 L 64.08587988004845 114.5 M 61.48780366869514 117 L 62.35382907247958 116.5 M 72.74613391789285 110.5 L 73.61215932167728 110 M 75.34421012924616 109 L 76.2102355330306 108.5 M 77.94228634059948 107.5 L 79.67433714816835 106.5 M 61.48780366869514 4 L 66.68395609140177 7 M 70.14805770653953 9 L 80.5403625519528 15 M 84.00446416709055 17 L 94.39676901250381 23 M 106.52112466548594 33 L 96.12881982007268 27 M 57.157676649772945 5.5 L 58.023702053557386 6 M 98.726896031426 30.5 L 93.53074360871936 27.5 M 57.157676649772945 6.5 L 53.693575034635195 4.5 M 66.68395609140177 13 L 71.01408311032397 15.5 M 50.22947341949744 5.5 L 58.88972745734183 10.5 M 62.35382907247958 12.5 L 64.9519052838329 14 M 69.28203230275508 16.5 L 72.74613391789285 18.5 M 76.2102355330306 20.5 L 86.60254037844386 26.5 M 90.06664199358161 28.5 L 100.45894683899488 34.5 M 99.59292143521044 37 L 98.726896031426 36.5 M 97.86087062764156 36 L 87.4685657822283 30 M 84.00446416709055 28 L 73.61215932167728 22 M 70.14805770653953 20 L 59.75575286112626 14 M 56.29165124598851 12 L 47.63139720814412 7 M 92.66471820493493 34 L 97.86087062764156 37 M 97.86087062764156 38 L 92.66471820493493 35 M 91.7986928011505 34.5 L 87.4685657822283 32 M 84.00446416709055 30 L 73.61215932167728 24 M 70.14805770653953 22 L 59.75575286112626 16 M 56.29165124598851 14 L 48.49742261192856 9.5 M 97.86087062764156 40 L 92.66471820493493 37 M 91.7986928011505 36.5 L 90.06664199358161 35.5 M 78.80831174438391 29 L 76.2102355330306 27.5 M 64.9519052838329 21 L 62.35382907247958 19.5 M 52.827549630850754 14 L 44.167295593006365 9 M 62.35382907247958 20.5 L 64.9519052838329 22 M 76.2102355330306 28.5 L 78.80831174438391 30 M 90.06664199358161 36.5 L 91.7986928011505 37.5 M 89.20061658979718 37 L 78.80831174438391 31 M 75.34421012924616 29 L 64.9519052838329 23 M 61.48780366869514 21 L 53.693575034635195 16.5 M 53.693575034635195 19.5 L 54.55960043841963 20 M 55.42562584220407 20.5 L 57.157676649772945 21.5 M 58.023702053557386 22 L 62.35382907247958 24.5 M 65.81793068761733 26.5 L 76.2102355330306 32.5 M 79.67433714816835 34.5 L 91.7986928011505 41.5 M 95.26279441628824 43.5 L 106.52112466548594 50 M 96.99484522385713 45.5 L 94.39676901250381 44 M 89.20061658979718 41 L 78.80831174438391 35 M 75.34421012924616 33 L 64.9519052838329 27 M 61.48780366869514 25 L 53.693575034635195 20.5 M 101.32497224277931 50 L 96.12881982007268 47 M 92.66471820493493 45 L 91.7986928011505 44.5 M 48.49742261192856 19.5 L 47.63139720814412 19 M 95.26279441628824 47.5 L 100.45894683899488 50.5 M 90.06664199358161 46.5 L 91.7986928011505 47.5 M 92.66471820493493 49 L 91.7986928011505 48.5 M 48.49742261192856 23.5 L 47.63139720814412 23 M 42.43524478543749 20 L 33.77499074759311 15 M 34.64101615137754 16.5 L 37.23909236273086 18 M 62.35382907247958 32.5 L 64.9519052838329 34 M 76.2102355330306 40.5 L 78.80831174438391 42 M 90.93266739736605 50 L 90.06664199358161 49.5 M 42.43524478543749 22 L 39.837168574084174 20.5 M 38.97114317029974 20 L 38.1051177665153 19.5 M 101.32497224277931 57 L 105.65509926170151 59.5 M 91.7986928011505 52.5 L 90.06664199358161 51.5 M 78.80831174438391 45 L 76.2102355330306 43.5 M 64.9519052838329 37 L 62.35382907247958 35.5 M 38.97114317029974 22 L 30.31088913245535 17 M 53.693575034635195 31.5 L 61.48780366869514 36 M 62.35382907247958 36.5 L 75.34421012924616 44 M 76.2102355330306 44.5 L 89.20061658979718 52 M 90.93266739736605 53 L 91.7986928011505 53.5 M 106.52112466548594 63 L 103.05702305034819 61 M 77.94228634059948 46.5 L 75.34421012924616 45 M 64.08587988004845 38.5 L 61.48780366869514 37 M 45.89934640057525 29 L 47.63139720814412 30 M 60.6217782649107 37.5 L 63.21985447626402 39 M 74.47818472546172 45.5 L 77.07626093681503 47 M 102.19099764656376 61.5 L 105.65509926170151 63.5 M 76.2102355330306 47.5 L 73.61215932167728 46 M 62.35382907247958 39.5 L 59.75575286112626 38 M 47.63139720814412 31 L 46.76537180435968 30.5 M 38.1051177665153 26.5 L 38.97114317029974 27 M 87.4685657822283 55 L 89.20061658979718 56 M 95.26279441628824 59.5 L 103.92304845413263 64.5 M 102.19099764656376 64.5 L 94.39676901250381 60 M 88.33459118601273 56.5 L 85.73651497465941 55 M 44.167295593006365 31 L 41.569219381653056 29.5 M 48.49742261192856 34.5 L 56.29165124598851 39 M 59.75575286112626 41 L 70.14805770653953 47 M 73.61215932167728 49 L 84.00446416709055 55 M 87.4685657822283 57 L 91.7986928011505 59.5 M 93.53074360871936 60.5 L 96.12881982007268 62 M 100.45894683899488 65.5 L 95.26279441628824 62.5 M 94.39676901250381 62 L 93.53074360871936 61.5 M 92.66471820493493 61 L 73.61215932167728 50 M 70.14805770653953 48 L 59.75575286112626 42 M 56.29165124598851 40 L 47.63139720814412 35 M 46.76537180435968 34.5 L 45.89934640057525 34 M 39.837168574084174 30.5 L 38.1051177665153 29.5 M 37.23909236273086 30 L 45.033320996790806 34.5 M 94.39676901250381 63 L 100.45894683899488 66.5 M 44.167295593006365 35 L 41.569219381653056 33.5 M 40.703193977868615 33 L 38.1051177665153 31.5 M 45.033320996790806 36.5 L 52.827549630850754 41 M 91.7986928011505 64.5 L 90.93266739736605 64 M 90.06664199358161 63.5 L 87.4685657822283 62 M 84.00446416709055 60 L 77.07626093681503 56 M 75.34421012924616 55 L 74.47818472546172 54.5 M 39.837168574084174 34.5 L 38.97114317029974 34 M 28.578838324886473 28 L 19.918584287042087 23 M 20.784609690826528 24.5 L 25.11473670974872 27 M 51.96152422706631 42.5 L 56.29165124598851 45 M 59.75575286112626 47 L 70.14805770653953 53 M 73.61215932167728 55 L 74.47818472546172 55.5 M 77.94228634059948 57.5 L 84.00446416709055 61 M 87.4685657822283 63 L 89.20061658979718 64 M 75.34421012924616 57 L 73.61215932167728 56 M 70.14805770653953 54 L 64.9519052838329 51 M 64.08587988004845 50.5 L 59.75575286112626 48 M 28.578838324886473 30 L 25.980762113533157 28.5 M 23.38268590217984 28 L 25.11473670974872 29 M 51.09549882328188 44 L 56.29165124598851 47 M 74.47818472546172 57.5 L 77.07626093681503 59 M 103.92304845413263 74.5 L 105.65509926170151 75.5 M 84.00446416709055 64 L 78.80831174438391 61 M 77.07626093681503 60 L 74.47818472546172 58.5 M 70.14805770653953 56 L 65.81793068761733 53.5 M 64.08587988004845 52.5 L 60.6217782649107 50.5 M 57.157676649772945 48.5 L 51.96152422706631 45.5 M 50.22947341949744 44.5 L 49.363448015713 44 M 36.373066958946424 36.5 L 35.50704155516198 36 M 25.11473670974872 30 L 16.454482671904334 25 M 48.49742261192856 44.5 L 56.29165124598851 49 M 59.75575286112626 51 L 64.08587988004845 53.5 M 64.9519052838329 54 L 65.81793068761733 54.5 M 73.61215932167728 59 L 77.07626093681503 61 M 77.94228634059948 61.5 L 83.13843876330611 64.5 M 84.00446416709055 65 L 84.87048957087498 65.5 M 88.33459118601273 67.5 L 89.20061658979718 68 M 92.66471820493493 70 L 96.12881982007268 72 M 106.52112466548594 79 L 103.05702305034819 77 M 95.26279441628824 72.5 L 91.7986928011505 70.5 M 90.93266739736605 70 L 90.06664199358161 69.5 M 89.20061658979718 69 L 87.4685657822283 68 M 84.00446416709055 66 L 83.13843876330611 65.5 M 73.61215932167728 60 L 71.8801085141084 59 M 23.38268590217984 32 L 25.11473670974872 33 M 102.19099764656376 77.5 L 105.65509926170151 79.5 M 107.38715006927039 81.5 L 106.52112466548594 81 M 72.74613391789285 61.5 L 71.01408311032397 60.5 M 59.75575286112626 54 L 57.157676649772945 52.5 M 21.650635094610966 33 L 25.11473670974872 35 M 84.87048957087498 69.5 L 87.4685657822283 71 M 96.12881982007268 76 L 103.92304845413263 80.5 M 105.65509926170151 82.5 L 103.92304845413263 81.5 M 102.19099764656376 80.5 L 91.7986928011505 74.5 M 90.93266739736605 74 L 90.06664199358161 73.5 M 89.20061658979718 73 L 83.13843876330611 69.5 M 44.167295593006365 47 L 41.569219381653056 45.5 M 38.97114317029974 44 L 38.1051177665153 43.5 M 12.12435565298214 28.5 L 11.258330249197702 28 M 48.49742261192856 50.5 L 51.09549882328188 52 M 57.157676649772945 55.5 L 59.75575286112626 57 M 92.66471820493493 76 L 101.32497224277931 81 M 94.39676901250381 78 L 93.53074360871936 77.5 M 91.7986928011505 76.5 L 90.93266739736605 76 M 90.06664199358161 75.5 L 73.61215932167728 66 M 70.14805770653953 64 L 51.09549882328188 53 M 39.837168574084174 46.5 L 38.97114317029974 46 M 25.980762113533157 38.5 L 23.38268590217984 37 M 22.516660498395403 37.5 L 25.11473670974872 39 M 80.5403625519528 71 L 86.60254037844386 74.5 M 89.20061658979718 76 L 91.7986928011505 77.5 M 94.39676901250381 79 L 100.45894683899488 82.5 M 37.23909236273086 47 L 34.64101615137754 45.5 M 16.454482671904334 36 L 19.918584287042087 38 M 24.24871130596428 40.5 L 25.980762113533157 41.5 M 48.49742261192856 54.5 L 51.09549882328188 56 M 51.96152422706631 56.5 L 57.157676649772945 59.5 M 61.48780366869514 62 L 66.68395609140177 65 M 67.54998149518622 65.5 L 71.01408311032397 67.5 M 74.47818472546172 69.5 L 77.94228634059948 71.5 M 78.80831174438391 72 L 86.60254037844386 76.5 M 94.39676901250381 81 L 100.45894683899488 84.5 M 91.7986928011505 80.5 L 90.93266739736605 80 M 90.06664199358161 79.5 L 89.20061658979718 79 M 83.13843876330611 75.5 L 73.61215932167728 70 M 70.14805770653953 68 L 59.75575286112626 62 M 56.29165124598851 60 L 47.63139720814412 55 M 25.980762113533157 42.5 L 23.38268590217984 41 M 14.722431864335457 36 L 6.928203230275509 31.5 M 6.928203230275509 32.5 L 14.722431864335457 37 M 37.23909236273086 50 L 42.43524478543749 53 M 97.86087062764156 86 L 91.7986928011505 82.5 M 89.20061658979718 81 L 87.4685657822283 80 M 84.00446416709055 78 L 83.13843876330611 77.5 M 42.43524478543749 54 L 39.837168574084174 52.5 M 8.660254037844386 34.5 L 7.794228634059947 34 M 9.526279441628825 36 L 16.454482671904334 40 M 33.77499074759311 50 L 36.373066958946424 51.5 M 37.23909236273086 52 L 38.97114317029974 53 M 83.13843876330611 78.5 L 84.00446416709055 79 M 87.4685657822283 81 L 89.20061658979718 82 M 92.66471820493493 85 L 84.00446416709055 80 M 80.5403625519528 78 L 78.80831174438391 77 M 5.196152422706632 35.5 L 16.454482671904334 42 M 32.042939940024226 51 L 38.97114317029974 55 M 39.837168574084174 55.5 L 42.43524478543749 57 M 78.80831174438391 78 L 79.67433714816835 78.5 M 83.13843876330611 80.5 L 90.93266739736605 85 M 94.39676901250381 88 L 92.66471820493493 87 M 59.75575286112626 68 L 57.157676649772945 66.5 M 42.43524478543749 58 L 38.97114317029974 56 M 14.722431864335457 42 L 4.330127018922193 36 M 15.588457268119894 43.5 L 16.454482671904334 44 M 94.39676901250381 89 L 97.86087062764156 91 M 28.578838324886473 52 L 25.980762113533157 50.5 M 19.918584287042087 47 L 19.05255888325765 46.5 M 18.186533479473212 47 L 28.578838324886473 53 M 37.23909236273086 58 L 38.97114317029974 59 M 92.66471820493493 90 L 94.39676901250381 91 M 10.392304845413264 43.5 L 4.330127018922193 40 M 6.06217782649107 42 L 10.392304845413264 44.5 M 84.87048957087498 88.5 L 77.07626093681503 84 M 73.61215932167728 82 L 72.74613391789285 81.5 M 70.14805770653953 80 L 59.75575286112626 74 M 56.29165124598851 72 L 45.89934640057525 66 M 36.373066958946424 60.5 L 33.77499074759311 59 M 25.11473670974872 54 L 23.38268590217984 53 M 14.722431864335457 48 L 6.06217782649107 43 M 10.392304845413264 46.5 L 17.32050807568877 50.5 M 71.8801085141084 82 L 72.74613391789285 82.5 M 76.2102355330306 84.5 L 82.27241335952166 88 M 83.13843876330611 88.5 L 84.87048957087498 89.5 M 16.454482671904334 51 L 14.722431864335457 50 M 13.856406460551018 49.5 L 8.660254037844386 46.5 M 31.17691453623979 60.5 L 33.77499074759311 62 M 44.167295593006365 68 L 52.827549630850754 73 M 56.29165124598851 75 L 66.68395609140177 81 M 83.13843876330611 90.5 L 84.87048957087498 91.5 M 80.5403625519528 90 L 79.67433714816835 89.5 M 69.28203230275508 83.5 L 68.41600689897065 83 M 12.990381056766578 51 L 12.12435565298214 50.5 M 6.928203230275509 47.5 L 6.06217782649107 47 M 21.650635094610966 57 L 28.578838324886473 61 M 84.00446416709055 94 L 80.5403625519528 92 M 28.578838324886473 62 L 20.784609690826528 57.5 M 19.918584287042087 57 L 19.05255888325765 56.5 M 8.660254037844386 51.5 L 12.12435565298214 53.5 M 80.5403625519528 93 L 84.00446416709055 95 M 77.07626093681503 92 L 76.2102355330306 91.5 M 65.81793068761733 85.5 L 64.9519052838329 85 M 16.454482671904334 57 L 14.722431864335457 56 M 6.928203230275509 52.5 L 12.12435565298214 55.5 M 20.784609690826528 60.5 L 25.11473670974872 63 M 71.8801085141084 90 L 72.74613391789285 90.5 M 77.07626093681503 93 L 79.67433714816835 94.5 M 80.5403625519528 95 L 84.00446416709055 97 M 83.13843876330611 97.5 L 77.07626093681503 94 M 33.77499074759311 69 L 25.11473670974872 64 M 19.918584287042087 61 L 19.05255888325765 60.5 M 12.12435565298214 56.5 L 8.660254037844386 54.5 M 7.794228634059947 54 L 6.06217782649107 53 M 80.5403625519528 97 L 83.13843876330611 98.5 M 84.00446416709055 100 L 83.13843876330611 99.5 M 82.27241335952166 99 L 80.5403625519528 98 M 70.14805770653953 92 L 69.28203230275508 91.5 M 18.186533479473212 62 L 16.454482671904334 61 M 11.258330249197702 59 L 12.12435565298214 59.5 M 15.588457268119894 61.5 L 20.784609690826528 64.5 M 25.980762113533157 67.5 L 34.64101615137754 72.5 M 38.1051177665153 74.5 L 48.49742261192856 80.5 M 51.96152422706631 82.5 L 60.6217782649107 87.5 M 61.48780366869514 88 L 62.35382907247958 88.5 M 65.81793068761733 90.5 L 68.41600689897065 92 M 69.28203230275508 92.5 L 70.14805770653953 93 M 78.80831174438391 98 L 84.00446416709055 101 M 33.77499074759311 73 L 31.17691453623979 71.5 M 30.31088913245535 71 L 27.712812921102035 69.5 M 26.846787517317598 69 L 24.24871130596428 67.5 M 19.918584287042087 65 L 14.722431864335457 62 M 12.12435565298214 60.5 L 10.392304845413264 59.5 M 34.64101615137754 74.5 L 46.76537180435968 81.5 M 48.49742261192856 82.5 L 58.88972745734183 88.5 M 59.75575286112626 89 L 60.6217782649107 89.5 M 64.08587988004845 91.5 L 66.68395609140177 93 M 69.28203230275508 95.5 L 68.41600689897065 95 M 50.22947341949744 84.5 L 48.49742261192856 83.5 M 36.373066958946424 76.5 L 34.64101615137754 75.5 M 12.990381056766578 63 L 12.12435565298214 62.5 M 8.660254037844386 60.5 L 7.794228634059947 60 M 23.38268590217984 72 L 25.980762113533157 73.5 M 34.64101615137754 78.5 L 36.373066958946424 79.5 M 48.49742261192856 86.5 L 50.22947341949744 87.5 M 67.54998149518622 97.5 L 71.01408311032397 99.5 M 70.14805770653953 100 L 65.81793068761733 97.5 M 55.42562584220407 91.5 L 54.55960043841963 91 M 25.980762113533157 74.5 L 21.650635094610966 72 M 5.196152422706632 62.5 L 4.330127018922193 62 M 59.75575286112626 97 L 60.6217782649107 97.5 M 64.08587988004845 99.5 L 65.81793068761733 100.5 M 76.2102355330306 106.5 L 77.94228634059948 107.5 M 63.21985447626402 100 L 62.35382907247958 99.5 M 51.96152422706631 93.5 L 51.09549882328188 93 M 33.77499074759311 83 L 31.17691453623979 81.5 M 36.373066958946424 85.5 L 46.76537180435968 91.5 M 51.96152422706631 94.5 L 54.55960043841963 96 M 59.75575286112626 99 L 60.6217782649107 99.5 M 75.34421012924616 109 L 73.61215932167728 108 M 54.55960043841963 97 L 51.96152422706631 95.5 M 47.63139720814412 93 L 46.76537180435968 92.5 M 33.77499074759311 85 L 32.90896534380867 84.5 M 25.11473670974872 80 L 21.650635094610966 78 M 19.918584287042087 77 L 10.392304845413264 71.5 M 39.837168574084174 89.5 L 48.49742261192856 94.5 M 60.6217782649107 101.5 L 66.68395609140177 105 M 63.21985447626402 104 L 59.75575286112626 102 M 56.29165124598851 100 L 55.42562584220407 99.5 M 48.49742261192856 95.5 L 47.63139720814412 95 M 46.76537180435968 94.5 L 43.30127018922193 92.5 M 42.43524478543749 92 L 38.97114317029974 90 M 71.01408311032397 109.5 L 72.74613391789285 110.5 M 63.21985447626402 106 L 59.75575286112626 104 M 56.29165124598851 102 L 55.42562584220407 101.5 M 45.033320996790806 95.5 L 43.30127018922193 94.5 M 38.97114317029974 92 L 32.042939940024226 88 M 28.578838324886473 86 L 25.980762113533157 84.5 M 25.11473670974872 85 L 28.578838324886473 87 M 32.042939940024226 89 L 38.97114317029974 93 M 64.9519052838329 108 L 70.14805770653953 111 M 55.42562584220407 103.5 L 54.55960043841963 103 M 52.827549630850754 102 L 51.96152422706631 101.5 M 19.05255888325765 82.5 L 18.186533479473212 82 M 5.196152422706632 74.5 L 4.330127018922193 74 M 66.68395609140177 112 L 64.9519052838329 111 M 41.569219381653056 98.5 L 43.30127018922193 99.5 M 46.76537180435968 101.5 L 52.827549630850754 105 M 59.75575286112626 109 L 60.6217782649107 109.5 M 52.827549630850754 106 L 45.89934640057525 102 M 42.43524478543749 100 L 39.837168574084174 98.5 M 36.373066958946424 96.5 L 35.50704155516198 96 M 5.196152422706632 78.5 L 4.330127018922193 78 M 64.08587988004845 114.5 L 62.35382907247958 113.5 M 56.29165124598851 110 L 52.827549630850754 108 M 39.837168574084174 100.5 L 36.373066958946424 98.5 M 52.827549630850754 109 L 56.29165124598851 111 M 61.48780366869514 117 L 55.42562584220407 113.5 M 46.76537180435968 111.5 L 52.827549630850754 115 M 46.76537180435968 112.5 L 45.89934640057525 112 M 42.43524478543749 112 L 35.50704155516198 108 M 5.196152422706632 90.5 L 4.330127018922193 90 M 4.330127018922193 90 L 4.330127018922193 78 M 4.330127018922193 74 L 4.330127018922193 62 M 4.330127018922193 40 L 4.330127018922193 36 M 5.196152422706632 62.5 L 5.196152422706632 74.5 M 5.196152422706632 78.5 L 5.196152422706632 90.5 M 6.06217782649107 53 L 6.06217782649107 47 M 6.06217782649107 43 L 6.06217782649107 42 M 6.928203230275509 31.5 L 6.928203230275509 32.5 M 6.928203230275509 47.5 L 6.928203230275509 52.5 M 7.794228634059947 60 L 7.794228634059947 54 M 7.794228634059947 37 L 7.794228634059947 34 M 8.660254037844386 34.5 L 8.660254037844386 37.5 M 8.660254037844386 44.5 L 8.660254037844386 45.5 M 8.660254037844386 46.5 L 8.660254037844386 51.5 M 8.660254037844386 54.5 L 8.660254037844386 60.5 M 9.526279441628825 38 L 9.526279441628825 36 M 10.392304845413264 43.5 L 10.392304845413264 44.5 M 10.392304845413264 59.5 L 10.392304845413264 71.5 M 11.258330249197702 29 L 11.258330249197702 28 M 12.12435565298214 50.5 L 12.12435565298214 55.5 M 12.12435565298214 56.5 L 12.12435565298214 62.5 M 12.990381056766578 63 L 12.990381056766578 51 M 14.722431864335457 56 L 14.722431864335457 50 M 14.722431864335457 48 L 14.722431864335457 42 M 14.722431864335457 37 L 14.722431864335457 36 M 15.588457268119894 41.5 L 15.588457268119894 42.5 M 15.588457268119894 43.5 L 15.588457268119894 44.5 M 15.588457268119894 45.5 L 15.588457268119894 47.5 M 15.588457268119894 74.5 L 15.588457268119894 84.5 M 16.454482671904334 61 L 16.454482671904334 51 M 16.454482671904334 44 L 16.454482671904334 43 M 16.454482671904334 42 L 16.454482671904334 40 M 17.32050807568877 40.5 L 17.32050807568877 43.5 M 17.32050807568877 50.5 L 17.32050807568877 55.5 M 18.186533479473212 82 L 18.186533479473212 76 M 18.186533479473212 62 L 18.186533479473212 56 M 18.186533479473212 47 L 18.186533479473212 44 M 19.05255888325765 43.5 L 19.05255888325765 46.5 M 19.05255888325765 55.5 L 19.05255888325765 61.5 M 19.05255888325765 76.5 L 19.05255888325765 82.5 M 19.918584287042087 77 L 19.918584287042087 65 M 19.918584287042087 61 L 19.918584287042087 57 M 19.918584287042087 47 L 19.918584287042087 43 M 19.918584287042087 38 L 19.918584287042087 34 M 19.918584287042087 27 L 19.918584287042087 23 M 20.784609690826528 24.5 L 20.784609690826528 27.5 M 20.784609690826528 33.5 L 20.784609690826528 37.5 M 20.784609690826528 57.5 L 20.784609690826528 60.5 M 20.784609690826528 64.5 L 20.784609690826528 65.5 M 20.784609690826528 66.5 L 20.784609690826528 76.5 M 21.650635094610966 78 L 21.650635094610966 72 M 23.38268590217984 29 L 23.38268590217984 28 M 24.24871130596428 67.5 L 24.24871130596428 70.5 M 25.11473670974872 85 L 25.11473670974872 80 M 25.11473670974872 64 L 25.11473670974872 60 M 25.11473670974872 55 L 25.11473670974872 54 M 25.11473670974872 52 L 25.11473670974872 51 M 25.11473670974872 40 L 25.11473670974872 39 M 25.11473670974872 36 L 25.11473670974872 35 M 25.11473670974872 33 L 25.11473670974872 27 M 25.980762113533157 28.5 L 25.980762113533157 38.5 M 25.980762113533157 42.5 L 25.980762113533157 50.5 M 25.980762113533157 74.5 L 25.980762113533157 84.5 M 27.712812921102035 69.5 L 27.712812921102035 72.5 M 28.578838324886473 87 L 28.578838324886473 86 M 28.578838324886473 62 L 28.578838324886473 61 M 28.578838324886473 53 L 28.578838324886473 52 M 28.578838324886473 30 L 28.578838324886473 28 M 30.31088913245535 70 L 30.31088913245535 67 M 31.17691453623979 71.5 L 31.17691453623979 81.5 M 32.042939940024226 89 L 32.042939940024226 88 M 32.042939940024226 71 L 32.042939940024226 68 M 32.90896534380867 34.5 L 32.90896534380867 37.5 M 32.90896534380867 50.5 L 32.90896534380867 51.5 M 33.77499074759311 85 L 33.77499074759311 84 M 33.77499074759311 83 L 33.77499074759311 73 M 33.77499074759311 72 L 33.77499074759311 62 M 33.77499074759311 37 L 33.77499074759311 34 M 33.77499074759311 19 L 33.77499074759311 15 M 34.64101615137754 16.5 L 34.64101615137754 19.5 M 34.64101615137754 62.5 L 34.64101615137754 68.5 M 34.64101615137754 72.5 L 34.64101615137754 83.5 M 35.50704155516198 108 L 35.50704155516198 96 M 36.373066958946424 17.5 L 36.373066958946424 20.5 M 36.373066958946424 25.5 L 36.373066958946424 46.5 M 36.373066958946424 48.5 L 36.373066958946424 53.5 M 36.373066958946424 57.5 L 36.373066958946424 60.5 M 36.373066958946424 75.5 L 36.373066958946424 85.5 M 36.373066958946424 96.5 L 36.373066958946424 98.5 M 37.23909236273086 60 L 37.23909236273086 57 M 37.23909236273086 54 L 37.23909236273086 52 M 37.23909236273086 51 L 37.23909236273086 47 M 37.23909236273086 21 L 37.23909236273086 18 M 38.1051177665153 19.5 L 38.1051177665153 21.5 M 38.1051177665153 24.5 L 38.1051177665153 29.5 M 38.1051177665153 31.5 L 38.1051177665153 43.5 M 38.97114317029974 94 L 38.97114317029974 90 M 38.97114317029974 60 L 38.97114317029974 59 M 38.97114317029974 56 L 38.97114317029974 53 M 38.97114317029974 46 L 38.97114317029974 34 M 38.97114317029974 27 L 38.97114317029974 20 M 39.837168574084174 20.5 L 39.837168574084174 30.5 M 39.837168574084174 34.5 L 39.837168574084174 46.5 M 39.837168574084174 52.5 L 39.837168574084174 55.5 M 39.837168574084174 98.5 L 39.837168574084174 100.5 M 41.569219381653056 21.5 L 41.569219381653056 29.5 M 41.569219381653056 33.5 L 41.569219381653056 45.5 M 42.43524478543749 112 L 42.43524478543749 100 M 42.43524478543749 58 L 42.43524478543749 57 M 42.43524478543749 54 L 42.43524478543749 53 M 42.43524478543749 22 L 42.43524478543749 20 M 43.30127018922193 92.5 L 43.30127018922193 94.5 M 43.30127018922193 99.5 L 43.30127018922193 107.5 M 43.30127018922193 108.5 L 43.30127018922193 111.5 M 44.167295593006365 68 L 44.167295593006365 57 M 44.167295593006365 47 L 44.167295593006365 35 M 44.167295593006365 31 L 44.167295593006365 21 M 45.033320996790806 20.5 L 45.033320996790806 45.5 M 45.89934640057525 112 L 45.89934640057525 102 M 45.89934640057525 66 L 45.89934640057525 56 M 45.89934640057525 34 L 45.89934640057525 29 M 46.76537180435968 30.5 L 46.76537180435968 34.5 M 46.76537180435968 81.5 L 46.76537180435968 91.5 M 46.76537180435968 111.5 L 46.76537180435968 112.5 M 47.63139720814412 102 L 47.63139720814412 95 M 47.63139720814412 93 L 47.63139720814412 92 M 47.63139720814412 35 L 47.63139720814412 31 M 47.63139720814412 30 L 47.63139720814412 23 M 47.63139720814412 11 L 47.63139720814412 7 M 48.49742261192856 9.5 L 48.49742261192856 11.5 M 48.49742261192856 18.5 L 48.49742261192856 19.5 M 48.49742261192856 23.5 L 48.49742261192856 34.5 M 48.49742261192856 80.5 L 48.49742261192856 91.5 M 48.49742261192856 95.5 L 48.49742261192856 102.5 M 50.22947341949744 43.5 L 50.22947341949744 45.5 M 50.22947341949744 83.5 L 50.22947341949744 93.5 M 51.09549882328188 52 L 51.09549882328188 49 M 51.09549882328188 46 L 51.09549882328188 44 M 51.96152422706631 93.5 L 51.96152422706631 101.5 M 52.827549630850754 115 L 52.827549630850754 109 M 52.827549630850754 108 L 52.827549630850754 106 M 52.827549630850754 104 L 52.827549630850754 102 M 52.827549630850754 74 L 52.827549630850754 73 M 52.827549630850754 52 L 52.827549630850754 47 M 52.827549630850754 42 L 52.827549630850754 41 M 52.827549630850754 16 L 52.827549630850754 14 M 53.693575034635195 12.5 L 53.693575034635195 16.5 M 53.693575034635195 20.5 L 53.693575034635195 31.5 M 54.55960043841963 103 L 54.55960043841963 91 M 54.55960043841963 58 L 54.55960043841963 55 M 54.55960043841963 47 L 54.55960043841963 46 M 55.42562584220407 91.5 L 55.42562584220407 99.5 M 55.42562584220407 101.5 L 55.42562584220407 103.5 M 56.29165124598851 111 L 56.29165124598851 110 M 56.29165124598851 102 L 56.29165124598851 100 M 56.29165124598851 72 L 56.29165124598851 60 M 56.29165124598851 56 L 56.29165124598851 49 M 56.29165124598851 47 L 56.29165124598851 45 M 56.29165124598851 40 L 56.29165124598851 39 M 56.29165124598851 14 L 56.29165124598851 12 M 57.157676649772945 48.5 L 57.157676649772945 55.5 M 57.157676649772945 59.5 L 57.157676649772945 69.5 M 57.157676649772945 70.5 L 57.157676649772945 71.5 M 57.157676649772945 100.5 L 57.157676649772945 101.5 M 58.023702053557386 112 L 58.023702053557386 110 M 58.023702053557386 21 L 58.023702053557386 19 M 58.88972745734183 10.5 L 58.88972745734183 11.5 M 59.75575286112626 104 L 59.75575286112626 102 M 59.75575286112626 97 L 59.75575286112626 89 M 59.75575286112626 74 L 59.75575286112626 45 M 59.75575286112626 42 L 59.75575286112626 41 M 59.75575286112626 16 L 59.75575286112626 14 M 60.6217782649107 43.5 L 60.6217782649107 46.5 M 60.6217782649107 48.5 L 60.6217782649107 50.5 M 60.6217782649107 58.5 L 60.6217782649107 61.5 M 60.6217782649107 89.5 L 60.6217782649107 97.5 M 60.6217782649107 98.5 L 60.6217782649107 99.5 M 60.6217782649107 108.5 L 60.6217782649107 109.5 M 61.48780366869514 117 L 61.48780366869514 109 M 61.48780366869514 36 L 61.48780366869514 25 M 61.48780366869514 24 L 61.48780366869514 17 M 61.48780366869514 13 L 61.48780366869514 11 M 62.35382907247958 10.5 L 62.35382907247958 12.5 M 62.35382907247958 17.5 L 62.35382907247958 20.5 M 62.35382907247958 24.5 L 62.35382907247958 36.5 M 62.35382907247958 88.5 L 62.35382907247958 96.5 M 62.35382907247958 97.5 L 62.35382907247958 98.5 M 62.35382907247958 107.5 L 62.35382907247958 116.5 M 63.21985447626402 114 L 63.21985447626402 107 M 63.21985447626402 106 L 63.21985447626402 104 M 63.21985447626402 103 L 63.21985447626402 100 M 63.21985447626402 52 L 63.21985447626402 50 M 63.21985447626402 45 L 63.21985447626402 44 M 64.08587988004845 50.5 L 64.08587988004845 53.5 M 64.08587988004845 91.5 L 64.08587988004845 99.5 M 64.08587988004845 103.5 L 64.08587988004845 106.5 M 64.08587988004845 113.5 L 64.08587988004845 114.5 M 64.9519052838329 113 L 64.9519052838329 107 M 64.9519052838329 64 L 64.9519052838329 61 M 64.9519052838329 54 L 64.9519052838329 51 M 64.9519052838329 38 L 64.9519052838329 27 M 64.9519052838329 23 L 64.9519052838329 19 M 65.81793068761733 8.5 L 65.81793068761733 11.5 M 65.81793068761733 23.5 L 65.81793068761733 26.5 M 65.81793068761733 53.5 L 65.81793068761733 54.5 M 65.81793068761733 85.5 L 65.81793068761733 90.5 M 65.81793068761733 97.5 L 65.81793068761733 104.5 M 66.68395609140177 113 L 66.68395609140177 112 M 66.68395609140177 106 L 66.68395609140177 105 M 66.68395609140177 97 L 66.68395609140177 93 M 66.68395609140177 82 L 66.68395609140177 81 M 66.68395609140177 65 L 66.68395609140177 62 M 66.68395609140177 27 L 66.68395609140177 24 M 66.68395609140177 11 L 66.68395609140177 7 M 68.41600689897065 96 L 68.41600689897065 83 M 69.28203230275508 25.5 L 69.28203230275508 28.5 M 69.28203230275508 83.5 L 69.28203230275508 91.5 M 69.28203230275508 92.5 L 69.28203230275508 95.5 M 70.14805770653953 111 L 70.14805770653953 100 M 70.14805770653953 93 L 70.14805770653953 92 M 70.14805770653953 80 L 70.14805770653953 68 M 70.14805770653953 64 L 70.14805770653953 56 M 70.14805770653953 54 L 70.14805770653953 53 M 70.14805770653953 48 L 70.14805770653953 47 M 70.14805770653953 22 L 70.14805770653953 20 M 71.01408311032397 15.5 L 71.01408311032397 16.5 M 71.01408311032397 56.5 L 71.01408311032397 63.5 M 71.01408311032397 67.5 L 71.01408311032397 77.5 M 71.01408311032397 78.5 L 71.01408311032397 79.5 M 71.01408311032397 99.5 L 71.01408311032397 101.5 M 71.01408311032397 102.5 L 71.01408311032397 110.5 M 71.8801085141084 90 L 71.8801085141084 82 M 72.74613391789285 18.5 L 72.74613391789285 19.5 M 72.74613391789285 82.5 L 72.74613391789285 90.5 M 72.74613391789285 101.5 L 72.74613391789285 110.5 M 73.61215932167728 110 L 73.61215932167728 106 M 73.61215932167728 103 L 73.61215932167728 101 M 73.61215932167728 89 L 73.61215932167728 82 M 73.61215932167728 80 L 73.61215932167728 70 M 73.61215932167728 66 L 73.61215932167728 59 M 73.61215932167728 56 L 73.61215932167728 55 M 73.61215932167728 50 L 73.61215932167728 49 M 73.61215932167728 24 L 73.61215932167728 22 M 74.47818472546172 54.5 L 74.47818472546172 55.5 M 74.47818472546172 56.5 L 74.47818472546172 57.5 M 74.47818472546172 66.5 L 74.47818472546172 69.5 M 75.34421012924616 109 L 75.34421012924616 105 M 75.34421012924616 57 L 75.34421012924616 55 M 75.34421012924616 44 L 75.34421012924616 33 M 75.34421012924616 29 L 75.34421012924616 25 M 75.34421012924616 21 L 75.34421012924616 19 M 76.2102355330306 18.5 L 76.2102355330306 20.5 M 76.2102355330306 25.5 L 76.2102355330306 28.5 M 76.2102355330306 32.5 L 76.2102355330306 44.5 M 76.2102355330306 84.5 L 76.2102355330306 91.5 M 76.2102355330306 104.5 L 76.2102355330306 108.5 M 77.07626093681503 94 L 77.07626093681503 92 M 77.07626093681503 61 L 77.07626093681503 56 M 77.94228634059948 57.5 L 77.94228634059948 61.5 M 77.94228634059948 68.5 L 77.94228634059948 71.5 M 77.94228634059948 103.5 L 77.94228634059948 107.5 M 78.80831174438391 85 L 78.80831174438391 78 M 78.80831174438391 46 L 78.80831174438391 35 M 78.80831174438391 31 L 78.80831174438391 27 M 79.67433714816835 16.5 L 79.67433714816835 19.5 M 79.67433714816835 31.5 L 79.67433714816835 34.5 M 79.67433714816835 69.5 L 79.67433714816835 70.5 M 79.67433714816835 78.5 L 79.67433714816835 85.5 M 79.67433714816835 89.5 L 79.67433714816835 95.5 M 79.67433714816835 102.5 L 79.67433714816835 106.5 M 80.5403625519528 102 L 80.5403625519528 98 M 80.5403625519528 97 L 80.5403625519528 96 M 80.5403625519528 95 L 80.5403625519528 93 M 80.5403625519528 92 L 80.5403625519528 90 M 80.5403625519528 86 L 80.5403625519528 78 M 80.5403625519528 73 L 80.5403625519528 71 M 80.5403625519528 62 L 80.5403625519528 59 M 80.5403625519528 35 L 80.5403625519528 32 M 80.5403625519528 19 L 80.5403625519528 15 M 82.27241335952166 100 L 82.27241335952166 99 M 83.13843876330611 33.5 L 83.13843876330611 36.5 M 83.13843876330611 64.5 L 83.13843876330611 65.5 M 83.13843876330611 69.5 L 83.13843876330611 71.5 M 83.13843876330611 75.5 L 83.13843876330611 77.5 M 83.13843876330611 78.5 L 83.13843876330611 87.5 M 83.13843876330611 88.5 L 83.13843876330611 90.5 M 83.13843876330611 97.5 L 83.13843876330611 98.5 M 83.13843876330611 99.5 L 83.13843876330611 100.5 M 84.00446416709055 101 L 84.00446416709055 97 M 84.00446416709055 95 L 84.00446416709055 94 M 84.00446416709055 80 L 84.00446416709055 78 M 84.00446416709055 77 L 84.00446416709055 75 M 84.00446416709055 71 L 84.00446416709055 66 M 84.00446416709055 65 L 84.00446416709055 64 M 84.00446416709055 61 L 84.00446416709055 60 M 84.00446416709055 56 L 84.00446416709055 55 M 84.00446416709055 30 L 84.00446416709055 28 M 84.87048957087498 65.5 L 84.87048957087498 69.5 M 84.87048957087498 89.5 L 84.87048957087498 91.5 M 86.60254037844386 26.5 L 86.60254037844386 27.5 M 86.60254037844386 59.5 L 86.60254037844386 70.5 M 86.60254037844386 74.5 L 86.60254037844386 76.5 M 86.60254037844386 96.5 L 86.60254037844386 98.5 M 87.4685657822283 81 L 87.4685657822283 80 M 87.4685657822283 76 L 87.4685657822283 74 M 87.4685657822283 72 L 87.4685657822283 57 M 87.4685657822283 32 L 87.4685657822283 30 M 89.20061658979718 83 L 89.20061658979718 82 M 89.20061658979718 81 L 89.20061658979718 79 M 89.20061658979718 75 L 89.20061658979718 73 M 89.20061658979718 69 L 89.20061658979718 64 M 89.20061658979718 61 L 89.20061658979718 59 M 89.20061658979718 52 L 89.20061658979718 41 M 89.20061658979718 37 L 89.20061658979718 33 M 89.20061658979718 29 L 89.20061658979718 27 M 90.06664199358161 33.5 L 90.06664199358161 36.5 M 90.06664199358161 40.5 L 90.06664199358161 44.5 M 90.06664199358161 45.5 L 90.06664199358161 48.5 M 90.06664199358161 49.5 L 90.06664199358161 50.5 M 90.06664199358161 51.5 L 90.06664199358161 52.5 M 90.06664199358161 59.5 L 90.06664199358161 60.5 M 90.06664199358161 63.5 L 90.06664199358161 69.5 M 90.06664199358161 73.5 L 90.06664199358161 75.5 M 90.06664199358161 76.5 L 90.06664199358161 78.5 M 90.06664199358161 79.5 L 90.06664199358161 83.5 M 90.93266739736605 84 L 90.93266739736605 80 M 90.93266739736605 76 L 90.93266739736605 74 M 90.93266739736605 70 L 90.93266739736605 64 M 90.93266739736605 55 L 90.93266739736605 53 M 90.93266739736605 50 L 90.93266739736605 49 M 90.93266739736605 47 L 90.93266739736605 45 M 91.7986928011505 34.5 L 91.7986928011505 44.5 M 91.7986928011505 47.5 L 91.7986928011505 59.5 M 91.7986928011505 64.5 L 91.7986928011505 70.5 M 91.7986928011505 74.5 L 91.7986928011505 76.5 M 91.7986928011505 80.5 L 91.7986928011505 82.5 M 92.66471820493493 96 L 92.66471820493493 93 M 92.66471820493493 87 L 92.66471820493493 85 M 92.66471820493493 61 L 92.66471820493493 49 M 92.66471820493493 48 L 92.66471820493493 37 M 92.66471820493493 35 L 92.66471820493493 34 M 92.66471820493493 27 L 92.66471820493493 25 M 93.53074360871936 24.5 L 93.53074360871936 27.5 M 93.53074360871936 61.5 L 93.53074360871936 62.5 M 93.53074360871936 77.5 L 93.53074360871936 78.5 M 94.39676901250381 92 L 94.39676901250381 91 M 94.39676901250381 89 L 94.39676901250381 88 M 94.39676901250381 81 L 94.39676901250381 79 M 94.39676901250381 71 L 94.39676901250381 63 M 94.39676901250381 28 L 94.39676901250381 23 M 95.26279441628824 38.5 L 95.26279441628824 43.5 M 95.26279441628824 47.5 L 95.26279441628824 59.5 M 95.26279441628824 72.5 L 95.26279441628824 76.5 M 96.12881982007268 76 L 96.12881982007268 72 M 96.12881982007268 63 L 96.12881982007268 62 M 97.86087062764156 91 L 97.86087062764156 86 M 97.86087062764156 40 L 97.86087062764156 38 M 97.86087062764156 37 L 97.86087062764156 36 M 98.726896031426 30.5 L 98.726896031426 31.5 M 98.726896031426 45.5 L 98.726896031426 48.5 M 99.59292143521044 37 L 99.59292143521044 36 M 100.45894683899488 34.5 L 100.45894683899488 36.5 M 100.45894683899488 38.5 L 100.45894683899488 46.5 M 100.45894683899488 50.5 L 100.45894683899488 62.5 M 100.45894683899488 66.5 L 100.45894683899488 78.5 M 100.45894683899488 82.5 L 100.45894683899488 84.5 M 101.32497224277931 60 L 101.32497224277931 54 M 101.32497224277931 53 L 101.32497224277931 50 M 101.32497224277931 46 L 101.32497224277931 38 M 103.92304845413263 58.5 L 103.92304845413263 60.5 M 103.92304845413263 64.5 L 103.92304845413263 76.5 M 103.92304845413263 80.5 L 103.92304845413263 83.5 M 103.92304845413263 86.5 L 103.92304845413263 87.5 M 105.65509926170151 51.5 L 105.65509926170151 59.5 M 105.65509926170151 63.5 L 105.65509926170151 75.5 M 105.65509926170151 79.5 L 105.65509926170151 82.5 M 106.52112466548594 85 L 106.52112466548594 84 M 106.52112466548594 82 L 106.52112466548594 79 M 106.52112466548594 75 L 106.52112466548594 63 M 106.52112466548594 59 L 106.52112466548594 50 M 106.52112466548594 35 L 106.52112466548594 33 M 107.38715006927039 81.5 L 107.38715006927039 83.5 " /></g></svg>