<svg viewBox="-9.600000000000001 -9.600000000000001 76.35767664977294 115.2" xmlns="http://www.w3.org/2000/svg"><path transform="scale(0.8660254037844386 0.5)" stroke="black" stroke-width="0.3" stroke-linecap="round" d="M 33 0 L 1 32 M 22 15 L 17 20 M 27 16 L 25 18 M 20 23 L 15 28 M 38 7 L 28 17 M 38 15 L 30 23 M 21 32 L 20 33 M 44 11 L 43 12 M 27 28 L 25 30 M 30 27 L 28 29 M 48 15 L 37 26 M 34 29 L 32 31 M 43 22 L 38 27 M 32 33 L 25 40 M 47 20 L 44 23 M 43 24 L 38 29 M 26 41 L 19 48 M 7 60 L 4 63 M 50 19 L 48 21 M 47 22 L 44 25 M 50 21 L 48 23 M 26 45 L 21 50 M 56 23 L 55 24 M 32 47 L 25 54 M 16 63 L 15 64 M 56 25 L 55 26 M 19 62 L 17 64 M 46 43 L 37 52 M 62 29 L 61 30 M 11 84 L 10 85 M 65 32 L 64 33 M 50 47 L 33 64 M 12 85 L 11 86 M 50 49 L 41 58 M 41 62 L 36 67 M 4 105 L 1 108 M 5 106 L 3 108 M 4 109 L 3 110 M 30 99 L 21 108 M 17 112 L 12 117 M 30 101 L 24 107 M 17 114 L 12 119 M 25 108 L 23 110 M 19 114 L 18 115 M 30 105 L 29 106 M 27 108 L 25 110 M 63 74 L 60 77 M 28 109 L 25 112 M 17 120 L 12 125 M 64 75 L 61 78 M 19 120 L 18 121 M 62 81 L 61 82 M 28 115 L 25 118 M 12 131 L 11 132 M 5 138 L 4 139 M 13 132 L 12 133 M 6 139 L 4 141 M 25 122 L 23 124 M 17 130 L 13 134 M 10 137 L 6 141 M 61 88 L 60 89 M 37 112 L 36 113 M 25 124 L 24 125 M 21 128 L 18 131 M 62 89 L 61 90 M 30 121 L 29 122 M 19 132 L 13 138 M 12 139 L 6 145 M 30 123 L 29 124 M 28 125 L 27 126 M 24 131 L 20 135 M 9 148 L 3 154 M 37 122 L 36 123 M 10 149 L 4 155 M 25 136 L 20 141 M 10 151 L 4 157 M 38 125 L 36 127 M 30 133 L 27 136 M 60 105 L 59 106 M 36 129 L 34 131 M 30 135 L 28 137 M 19 146 L 12 153 M 60 107 L 59 108 M 28 139 L 23 144 M 43 128 L 42 129 M 43 130 L 42 131 M 38 135 L 34 139 M 30 143 L 23 150 M 44 131 L 43 132 M 44 133 L 43 134 M 48 135 L 47 136 M 42 143 L 37 148 M 57 134 L 55 136 M 22 169 L 20 171 M 26 167 L 24 169 M 63 134 L 61 136 M 28 169 L 26 171 M 55 144 L 54 145 M 29 170 L 26 173 M 54 151 L 52 153 M 35 174 L 34 175 M 39 174 L 37 176 M 53 164 L 34 183 M 55 166 L 41 180 M 63 160 L 55 168 M 65 160 L 33 192 M 65 32 L 62 29 M 56 23 L 48 15 M 44 11 L 33 0 M 64 33 L 61 30 M 55 24 L 50 19 M 43 12 L 38 7 M 55 26 L 50 21 M 48 21 L 47 20 M 48 23 L 47 22 M 43 20 L 38 15 M 44 23 L 43 22 M 44 25 L 43 24 M 38 27 L 37 26 M 28 17 L 27 16 M 38 29 L 37 28 M 25 18 L 22 15 M 50 47 L 46 43 M 28 29 L 27 28 M 20 23 L 17 20 M 25 30 L 23 28 M 64 75 L 63 74 M 26 39 L 15 28 M 37 52 L 32 47 M 26 41 L 25 40 M 61 78 L 60 77 M 61 82 L 60 81 M 28 51 L 27 50 M 62 89 L 61 88 M 61 90 L 60 89 M 25 54 L 19 48 M 33 64 L 1 32 M 20 61 L 17 58 M 60 107 L 59 106 M 22 69 L 20 67 M 17 64 L 15 62 M 60 109 L 59 108 M 15 64 L 4 53 M 30 89 L 22 81 M 4 63 L 1 60 M 12 85 L 11 84 M 61 136 L 59 134 M 37 112 L 36 111 M 11 86 L 10 85 M 60 137 L 57 134 M 30 107 L 29 106 M 60 141 L 55 136 M 28 109 L 27 108 M 25 108 L 24 107 M 43 128 L 37 122 M 55 142 L 48 135 M 44 131 L 43 130 M 42 129 L 38 125 M 30 117 L 28 115 M 23 110 L 21 108 M 55 144 L 44 133 M 43 132 L 42 131 M 55 146 L 54 145 M 47 138 L 43 134 M 29 122 L 25 118 M 29 124 L 28 123 M 19 114 L 17 112 M 63 160 L 38 135 M 28 125 L 25 122 M 18 115 L 17 114 M 27 126 L 25 124 M 52 153 L 42 143 M 24 125 L 23 124 M 5 106 L 4 105 M 18 121 L 17 120 M 4 109 L 3 108 M 24 131 L 21 128 M 3 110 L 1 108 M 28 137 L 27 136 M 55 166 L 37 148 M 28 139 L 25 136 M 52 165 L 37 150 M 19 132 L 17 130 M 20 135 L 19 134 M 13 132 L 12 131 M 23 144 L 20 141 M 12 133 L 11 132 M 23 150 L 19 146 M 12 139 L 10 137 M 6 139 L 5 138 M 41 176 L 39 174 M 37 176 L 35 174 M 10 149 L 9 148 M 29 170 L 28 169 M 26 167 L 10 151 M 30 173 L 28 171 M 26 171 L 24 169 M 26 173 L 22 169 M 30 181 L 20 171 M 4 155 L 3 154 M 20 173 L 4 157 M 33 192 L 1 160 M 1 160 L 1 108 M 1 60 L 1 32 M 3 154 L 3 110 M 4 53 L 4 63 M 4 109 L 4 141 M 4 155 L 4 157 M 5 138 L 5 106 M 6 139 L 6 145 M 7 60 L 7 56 M 10 85 L 10 137 M 10 149 L 10 151 M 11 132 L 11 86 M 12 85 L 12 119 M 12 125 L 12 131 M 12 133 L 12 139 M 13 138 L 13 132 M 15 64 L 15 62 M 17 120 L 17 114 M 17 64 L 17 58 M 18 115 L 18 121 M 19 146 L 19 132 M 19 120 L 19 114 M 19 62 L 19 60 M 20 23 L 20 33 M 20 61 L 20 67 M 20 135 L 20 141 M 20 171 L 20 173 M 21 128 L 21 108 M 21 34 L 21 32 M 22 15 L 22 35 M 22 69 L 22 81 M 23 150 L 23 144 M 23 124 L 23 110 M 23 36 L 23 28 M 24 125 L 24 131 M 25 136 L 25 124 M 25 122 L 25 118 M 25 112 L 25 108 M 25 30 L 25 18 M 26 39 L 26 45 M 26 167 L 26 171 M 27 136 L 27 126 M 27 50 L 27 38 M 27 28 L 27 16 M 28 17 L 28 29 M 28 37 L 28 51 M 28 109 L 28 115 M 28 123 L 28 125 M 28 137 L 28 139 M 29 172 L 29 170 M 29 124 L 29 122 M 29 116 L 29 106 M 30 23 L 30 27 M 30 89 L 30 181 M 32 21 L 32 33 M 33 192 L 33 64 M 33 48 L 33 30 M 34 29 L 34 49 M 34 131 L 34 183 M 35 50 L 35 18 M 36 67 L 36 129 M 37 150 L 37 148 M 37 122 L 37 112 M 37 28 L 37 26 M 38 7 L 38 15 M 38 27 L 38 29 M 38 125 L 38 135 M 41 180 L 41 176 M 41 62 L 41 58 M 42 129 L 42 131 M 43 134 L 43 132 M 43 130 L 43 128 M 43 24 L 43 22 M 43 20 L 43 12 M 44 11 L 44 19 M 44 23 L 44 25 M 44 131 L 44 133 M 47 138 L 47 136 M 47 22 L 47 20 M 48 21 L 48 23 M 50 19 L 50 21 M 50 47 L 50 49 M 54 145 L 54 151 M 55 168 L 55 166 M 55 146 L 55 136 M 55 26 L 55 24 M 56 23 L 56 25 M 59 134 L 59 106 M 60 77 L 60 81 M 60 89 L 60 109 M 60 135 L 60 141 M 61 136 L 61 90 M 61 88 L 61 78 M 61 76 L 61 30 M 62 81 L 62 89 M 63 160 L 63 134 M 64 33 L 64 75 M 65 160 L 65 32" /></svg>