<svg viewBox="-9.600000000000001 -9.600000000000001 76.35767664977294 115.2" xmlns="http://www.w3.org/2000/svg"><g transform="scale(0.8660254037844386 0.5)" stroke="black" stroke-width="0.3" stroke-linecap="round"><path d="M 26 7 L 32 1" /><path d="M 9 36 L 12 33" /><path d="M 32 13 L 38 7" /><path d="M 15 36 L 12 39" /><path d="M 15 40 L 12 43" /><path d="M 5 52 L 10 47" /><path d="M 32 25 L 35 22" /><path d="M 43 24 L 42 25" /><path d="M 49 22 L 47 24" /><path d="M 35 38 L 38 35" /><path d="M 28 47 L 24 51" /><path d="M 25 52 L 29 48" /><path d="M 50 27 L 52 25" /><path d="M 52 27 L 50 29" /><path d="M 29 50 L 25 54" /><path d="M 1 80 L 2 79" /><path d="M 17 64 L 18 63" /><path d="M 20 65 L 24 61" /><path d="M 44 41 L 45 40" /><path d="M 17 72 L 18 71" /><path d="M 49 42 L 46 45" /><path d="M 12 79 L 11 80" /><path d="M 10 81 L 9 82" /><path d="M 7 86 L 8 85" /><path d="M 20 73 L 24 69" /><path d="M 35 58 L 54 39" /><path d="M 15 80 L 12 83" /><path d="M 37 60 L 56 41" /><path d="M 10 91 L 11 90" /><path d="M 12 91 L 11 92" /><path d="M 9 96 L 13 92" /><path d="M 11 98 L 12 97" /><path d="M 37 76 L 56 57" /><path d="M 52 63 L 49 66" /><path d="M 9 108 L 11 106" /><path d="M 55 64 L 47 72" /><path d="M 45 74 L 27 92" /><path d="M 9 110 L 8 111" /><path d="M 3 118 L 5 116" /><path d="M 11 110 L 12 109" /><path d="M 52 71 L 47 76" /><path d="M 13 110 L 11 112" /><path d="M 6 117 L 3 120" /><path d="M 2 123 L 10 115" /><path d="M 50 77 L 48 79" /><path d="M 11 116 L 8 119" /><path d="M 5 124 L 9 120" /><path d="M 32 97 L 50 79" /><path d="M 50 85 L 32 103" /><path d="M 8 127 L 7 128" /><path d="M 36 101 L 38 99" /><path d="M 39 100 L 38 101" /><path d="M 8 133 L 11 130" /><path d="M 37 104 L 38 103" /><path d="M 52 89 L 55 86" /><path d="M 10 133 L 8 135" /><path d="M 42 105 L 38 109" /><path d="M 10 137 L 8 139" /><path d="M 27 122 L 30 119" /><path d="M 43 106 L 44 105" /><path d="M 10 141 L 8 143" /><path d="M 45 108 L 51 102" /><path d="M 52 103 L 42 113" /><path d="M 52 105 L 54 103" /><path d="M 55 104 L 52 107" /><path d="M 35 124 L 32 127" /><path d="M 20 139 L 17 142" /><path d="M 15 146 L 17 144" /><path d="M 56 107 L 55 108" /><path d="M 38 125 L 37 126" /><path d="M 10 153 L 7 156" /><path d="M 32 133 L 35 130" /><path d="M 56 109 L 57 108" /><path d="M 56 111 L 55 112" /><path d="M 37 132 L 38 131" /><path d="M 15 158 L 20 153" /><path d="M 20 157 L 22 155" /><path d="M 22 157 L 21 158" /><path d="M 48 135 L 46 137" /><path d="M 42 143 L 46 139" /><path d="M 47 138 L 56 129" /><path d="M 23 166 L 26 163" /><path d="M 43 146 L 46 143" /><path d="M 28 163 L 26 165" /><path d="M 45 148 L 46 147" /><path d="M 23 174 L 28 169" /><path d="M 47 154 L 49 152" /><path d="M 45 160 L 48 157" /><path d="M 57 150 L 56 151" /><path d="M 40 169 L 43 166" /><path d="M 42 171 L 45 168" /><path d="M 45 170 L 42 173" /><path d="M 32 1 L 38 7" /><path d="M 49 22 L 52 25" /><path d="M 47 24 L 50 27" /><path d="M 50 29 L 47 26" /><path d="M 26 7 L 32 13" /><path d="M 43 24 L 48 29" /><path d="M 48 31 L 42 25" /><path d="M 44 29 L 46 31" /><path d="M 54 39 L 56 41" /><path d="M 27 20 L 32 25" /><path d="M 49 42 L 50 43" /><path d="M 42 39 L 44 41" /><path d="M 46 43 L 47 44" /><path d="M 47 46 L 46 45" /><path d="M 35 38 L 34 37" /><path d="M 52 61 L 55 64" /><path d="M 48 65 L 49 66" /><path d="M 29 48 L 28 47" /><path d="M 12 33 L 15 36" /><path d="M 37 60 L 35 58" /><path d="M 44 69 L 47 72" /><path d="M 25 52 L 24 51" /><path d="M 12 39 L 9 36" /><path d="M 24 53 L 25 54" /><path d="M 42 71 L 47 76" /><path d="M 49 78 L 50 79" /><path d="M 48 79 L 47 78" /><path d="M 12 43 L 9 40" /><path d="M 10 47 L 24 61" /><path d="M 50 87 L 52 89" /><path d="M 37 76 L 35 74" /><path d="M 18 63 L 20 65" /><path d="M 17 64 L 5 52" /><path d="M 54 103 L 55 104" /><path d="M 57 108 L 56 107" /><path d="M 52 103 L 51 102" /><path d="M 18 71 L 20 73" /><path d="M 55 108 L 56 109" /><path d="M 56 111 L 55 110" /><path d="M 17 72 L 11 66" /><path d="M 37 98 L 38 99" /><path d="M 39 100 L 44 105" /><path d="M 45 108 L 38 101" /><path d="M 27 92 L 32 97" /><path d="M 36 101 L 41 106" /><path d="M 37 104 L 34 101" /><path d="M 9 78 L 11 80" /><path d="M 42 113 L 38 109" /><path d="M 32 103 L 27 98" /><path d="M 12 83 L 10 81" /><path d="M 8 81 L 9 82" /><path d="M 2 79 L 8 85" /><path d="M 12 91 L 11 90" /><path d="M 7 86 L 1 80" /><path d="M 10 91 L 11 92" /><path d="M 11 94 L 10 93" /><path d="M 55 142 L 48 135" /><path d="M 30 119 L 35 124" /><path d="M 37 126 L 38 127" /><path d="M 49 138 L 55 144" /><path d="M 47 138 L 46 137" /><path d="M 56 151 L 49 144" /><path d="M 46 141 L 45 140" /><path d="M 38 133 L 35 130" /><path d="M 32 127 L 27 122" /><path d="M 12 109 L 13 110" /><path d="M 26 127 L 32 133" /><path d="M 37 138 L 42 143" /><path d="M 45 148 L 43 146" /><path d="M 10 115 L 11 116" /><path d="M 47 154 L 46 153" /><path d="M 9 120 L 8 119" /><path d="M 7 118 L 2 113" /><path d="M 45 160 L 43 158" /><path d="M 20 139 L 11 130" /><path d="M 8 127 L 5 124" /><path d="M 2 123 L 7 128" /><path d="M 45 168 L 43 166" /><path d="M 10 133 L 9 132" /><path d="M 10 135 L 17 142" /><path d="M 17 144 L 10 137" /><path d="M 40 169 L 42 171" /><path d="M 42 173 L 40 171" /><path d="M 15 146 L 10 141" /><path d="M 20 153 L 22 155" /><path d="M 28 163 L 22 157" /><path d="M 20 157 L 26 163" /><path d="M 23 166 L 15 158" /><path d="M 1 150 L 7 156" /><path d="M 23 174 L 10 161" /><path d="M 1 150 L 1 80" /><path d="M 2 113 L 2 123" /><path d="M 3 120 L 3 114" /><path d="M 5 82 L 5 52" /><path d="M 7 156 L 7 128" /><path d="M 7 118 L 7 86" /><path d="M 8 81 L 8 117" /><path d="M 8 127 L 8 143" /><path d="M 9 132 L 9 120" /><path d="M 9 110 L 9 96" /><path d="M 9 82 L 9 78" /><path d="M 9 40 L 9 36" /><path d="M 10 79 L 10 81" /><path d="M 10 91 L 10 93" /><path d="M 10 133 L 10 137" /><path d="M 10 141 L 10 161" /><path d="M 11 130 L 11 116" /><path d="M 11 112 L 11 98" /><path d="M 11 94 L 11 92" /><path d="M 11 80 L 11 66" /><path d="M 12 39 L 12 43" /><path d="M 12 79 L 12 83" /><path d="M 12 91 L 12 97" /><path d="M 13 132 L 13 110" /><path d="M 13 92 L 13 82" /><path d="M 15 158 L 15 146" /><path d="M 15 80 L 15 70" /><path d="M 15 40 L 15 36" /><path d="M 17 144 L 17 142" /><path d="M 17 72 L 17 64" /><path d="M 18 63 L 18 71" /><path d="M 20 65 L 20 73" /><path d="M 20 139 L 20 153" /><path d="M 22 155 L 22 157" /><path d="M 23 174 L 23 166" /><path d="M 24 51 L 24 53" /><path d="M 24 61 L 24 69" /><path d="M 25 54 L 25 52" /><path d="M 26 7 L 26 49" /><path d="M 26 53 L 26 127" /><path d="M 26 163 L 26 165" /><path d="M 27 122 L 27 52" /><path d="M 27 48 L 27 20" /><path d="M 28 163 L 28 169" /><path d="M 29 50 L 29 48" /><path d="M 30 23 L 30 89" /><path d="M 30 101 L 30 119" /><path d="M 32 13 L 32 25" /><path d="M 32 97 L 32 103" /><path d="M 32 127 L 32 133" /><path d="M 34 37 L 34 85" /><path d="M 35 130 L 35 124" /><path d="M 35 74 L 35 58" /><path d="M 35 38 L 35 22" /><path d="M 37 138 L 37 132" /><path d="M 37 126 L 37 104" /><path d="M 37 82 L 37 60" /><path d="M 37 56 L 37 36" /><path d="M 38 7 L 38 35" /><path d="M 38 99 L 38 133" /><path d="M 40 169 L 40 171" /><path d="M 42 25 L 42 39" /><path d="M 42 113 L 42 143" /><path d="M 42 171 L 42 173" /><path d="M 43 158 L 43 146" /><path d="M 44 29 L 44 41" /><path d="M 44 105 L 44 107" /><path d="M 45 170 L 45 168" /><path d="M 45 160 L 45 148" /><path d="M 45 40 L 45 30" /><path d="M 46 31 L 46 43" /><path d="M 46 45 L 46 47" /><path d="M 46 137 L 46 153" /><path d="M 47 154 L 47 138" /><path d="M 47 78 L 47 72" /><path d="M 47 26 L 47 24" /><path d="M 48 27 L 48 31" /><path d="M 48 75 L 48 79" /><path d="M 48 153 L 48 157" /><path d="M 49 152 L 49 136" /><path d="M 49 66 L 49 64" /><path d="M 50 27 L 50 43" /><path d="M 50 73 L 50 87" /><path d="M 51 42 L 51 28" /><path d="M 52 25 L 52 27" /><path d="M 52 61 L 52 63" /><path d="M 52 71 L 52 89" /><path d="M 52 103 L 52 107" /><path d="M 53 62 L 53 60" /><path d="M 55 144 L 55 130" /><path d="M 55 112 L 55 104" /><path d="M 55 86 L 55 64" /><path d="M 56 41 L 56 57" /><path d="M 56 109 L 56 151" /><path d="M 57 150 L 57 108" /></g></svg>