<svg viewBox="-12.8 -12.8 138.18330249197703 153.6" xmlns="http://www.w3.org/2000/svg"><g stroke="black" stroke-width="0.4" stroke-linecap="round"><path d="M 12.990381056766578 26 L 4.330127018922193 31" /><path d="M 31.17691453623979 16.5 L 52.827549630850754 4" /><path d="M 32.90896534380867 17.5 L 51.96152422706631 6.5" /><path d="M 51.96152422706631 7.5 L 40.703193977868615 14" /><path d="M 41.569219381653056 14.5 L 49.363448015713 10" /><path d="M 57.157676649772945 6.5 L 54.55960043841963 8" /><path d="M 53.693575034635195 8.5 L 50.22947341949744 10.5" /><path d="M 34.64101615137754 19.5 L 32.042939940024226 21" /><path d="M 32.90896534380867 21.5 L 37.23909236273086 19" /><path d="M 42.43524478543749 16 L 49.363448015713 12" /><path d="M 54.55960043841963 9 L 57.157676649772945 7.5" /><path d="M 53.693575034635195 10.5 L 50.22947341949744 12.5" /><path d="M 45.89934640057525 15 L 43.30127018922193 16.5" /><path d="M 39.837168574084174 19.5 L 44.167295593006365 17" /><path d="M 47.63139720814412 15 L 56.29165124598851 10" /><path d="M 58.88972745734183 8.5 L 60.6217782649107 7.5" /><path d="M 56.29165124598851 11 L 54.55960043841963 12" /><path d="M 47.63139720814412 16 L 39.837168574084174 20.5" /><path d="M 6.06217782649107 40 L 5.196152422706632 40.5" /><path d="M 6.06217782649107 41 L 6.928203230275509 40.5" /><path d="M 63.21985447626402 9 L 61.48780366869514 10" /><path d="M 40.703193977868615 22 L 35.50704155516198 25" /><path d="M 61.48780366869514 11 L 63.21985447626402 10" /><path d="M 63.21985447626402 11 L 59.75575286112626 13" /><path d="M 53.693575034635195 16.5 L 51.09549882328188 18" /><path d="M 38.1051177665153 25.5 L 35.50704155516198 27" /><path d="M 17.32050807568877 38.5 L 25.980762113533157 33.5" /><path d="M 51.09549882328188 19 L 56.29165124598851 16" /><path d="M 58.023702053557386 16 L 57.157676649772945 16.5" /><path d="M 51.09549882328188 20 L 42.43524478543749 25" /><path d="M 25.980762113533157 34.5 L 20.784609690826528 37.5" /><path d="M 22.516660498395403 37.5 L 23.38268590217984 37" /><path d="M 63.21985447626402 15 L 59.75575286112626 17" /><path d="M 32.90896534380867 32.5 L 26.846787517317598 36" /><path d="M 6.928203230275509 47.5 L 6.06217782649107 48" /><path d="M 17.32050807568877 42.5 L 20.784609690826528 40.5" /><path d="M 33.77499074759311 33 L 35.50704155516198 32" /><path d="M 38.1051177665153 30.5 L 39.837168574084174 29.5" /><path d="M 74.47818472546172 10.5 L 72.74613391789285 11.5" /><path d="M 70.14805770653953 13 L 68.41600689897065 14" /><path d="M 62.35382907247958 17.5 L 61.48780366869514 18" /><path d="M 53.693575034635195 22.5 L 51.09549882328188 24" /><path d="M 35.50704155516198 34 L 38.1051177665153 32.5" /><path d="M 69.28203230275508 14.5 L 71.01408311032397 13.5" /><path d="M 76.2102355330306 11.5 L 74.47818472546172 12.5" /><path d="M 71.01408311032397 14.5 L 66.68395609140177 17" /><path d="M 37.23909236273086 35 L 39.837168574084174 33.5" /><path d="M 51.96152422706631 26.5 L 56.29165124598851 24" /><path d="M 71.01408311032397 15.5 L 77.07626093681503 12" /><path d="M 26.846787517317598 42 L 14.722431864335457 49" /><path d="M 12.12435565298214 50.5 L 9.526279441628825 52" /><path d="M 9.526279441628825 53 L 12.990381056766578 51" /><path d="M 25.980762113533157 43.5 L 27.712812921102035 42.5" /><path d="M 30.31088913245535 41 L 52.827549630850754 28" /><path d="M 58.023702053557386 25 L 65.81793068761733 20.5" /><path d="M 71.01408311032397 18.5 L 59.75575286112626 25" /><path d="M 25.980762113533157 44.5 L 16.454482671904334 50" /><path d="M 10.392304845413264 53.5 L 9.526279441628825 54" /><path d="M 51.96152422706631 30.5 L 54.55960043841963 29" /><path d="M 74.47818472546172 18.5 L 72.74613391789285 19.5" /><path d="M 25.980762113533157 46.5 L 18.186533479473212 51" /><path d="M 57.157676649772945 29.5 L 61.48780366869514 27" /><path d="M 64.08587988004845 26.5 L 63.21985447626402 27" /><path d="M 61.48780366869514 28 L 54.55960043841963 32" /><path d="M 25.980762113533157 48.5 L 18.186533479473212 53" /><path d="M 64.9519052838329 27 L 67.54998149518622 25.5" /><path d="M 64.08587988004845 28.5 L 63.21985447626402 29" /><path d="M 25.980762113533157 50.5 L 16.454482671904334 56" /><path d="M 19.918584287042087 55 L 25.980762113533157 51.5" /><path d="M 67.54998149518622 28.5 L 64.9519052838329 30" /><path d="M 20.784609690826528 55.5 L 18.186533479473212 57" /><path d="M 6.928203230275509 63.5 L 5.196152422706632 64.5" /><path d="M 8.660254037844386 63.5 L 10.392304845413264 62.5" /><path d="M 71.01408311032397 27.5 L 76.2102355330306 24.5" /><path d="M 7.794228634059947 66 L 8.660254037844386 65.5" /><path d="M 12.990381056766578 63 L 14.722431864335457 62" /><path d="M 76.2102355330306 27.5 L 71.01408311032397 30.5" /><path d="M 28.578838324886473 55 L 22.516660498395403 58.5" /><path d="M 15.588457268119894 62.5 L 12.990381056766578 64" /><path d="M 23.38268590217984 59 L 29.444863728670914 55.5" /><path d="M 83.13843876330611 25.5 L 80.5403625519528 27" /><path d="M 43.30127018922193 48.5 L 42.43524478543749 49" /><path d="M 7.794228634059947 70 L 9.526279441628825 69" /><path d="M 20.784609690826528 62.5 L 22.516660498395403 61.5" /><path d="M 72.74613391789285 33.5 L 68.41600689897065 36" /><path d="M 63.21985447626402 39 L 54.55960043841963 44" /><path d="M 43.30127018922193 50.5 L 42.43524478543749 51" /><path d="M 20.784609690826528 63.5 L 18.186533479473212 65" /><path d="M 10.392304845413264 69.5 L 7.794228634059947 71" /><path d="M 23.38268590217984 63 L 32.042939940024226 58" /><path d="M 80.5403625519528 30 L 83.13843876330611 28.5" /><path d="M 82.27241335952166 30 L 79.67433714816835 31.5" /><path d="M 66.68395609140177 39 L 64.9519052838329 40" /><path d="M 55.42562584220407 45.5 L 42.43524478543749 53" /><path d="M 17.32050807568877 67.5 L 10.392304845413264 71.5" /><path d="M 6.928203230275509 76.5 L 8.660254037844386 75.5" /><path d="M 67.54998149518622 41.5 L 71.8801085141084 39" /><path d="M 77.07626093681503 36 L 79.67433714816835 34.5" /><path d="M 16.454482671904334 72 L 7.794228634059947 77" /><path d="M 9.526279441628825 77 L 17.32050807568877 72.5" /><path d="M 45.89934640057525 56 L 46.76537180435968 55.5" /><path d="M 60.6217782649107 47.5 L 69.28203230275508 42.5" /><path d="M 74.47818472546172 39.5 L 78.80831174438391 37" /><path d="M 93.53074360871936 28.5 L 99.59292143521044 25" /><path d="M 99.59292143521044 26 L 93.53074360871936 29.5" /><path d="M 78.80831174438391 38 L 74.47818472546172 40.5" /><path d="M 69.28203230275508 43.5 L 60.6217782649107 48.5" /><path d="M 51.96152422706631 53.5 L 51.09549882328188 54" /><path d="M 17.32050807568877 73.5 L 9.526279441628825 78" /><path d="M 6.06217782649107 81 L 6.928203230275509 80.5" /><path d="M 13.856406460551018 76.5 L 16.454482671904334 75" /><path d="M 62.35382907247958 48.5 L 71.01408311032397 43.5" /><path d="M 76.2102355330306 40.5 L 80.5403625519528 38" /><path d="M 53.693575034635195 54.5 L 52.827549630850754 55" /><path d="M 49.363448015713 57 L 48.49742261192856 57.5" /><path d="M 19.05255888325765 74.5 L 14.722431864335457 77" /><path d="M 10.392304845413264 79.5 L 7.794228634059947 81" /><path d="M 6.928203230275509 81.5 L 6.06217782649107 82" /><path d="M 17.32050807568877 76.5 L 19.918584287042087 75" /><path d="M 24.24871130596428 72.5 L 25.980762113533157 71.5" /><path d="M 48.49742261192856 58.5 L 49.363448015713 58" /><path d="M 51.09549882328188 57 L 51.96152422706631 56.5" /><path d="M 60.6217782649107 52.5 L 55.42562584220407 55.5" /><path d="M 52.827549630850754 57 L 42.43524478543749 63" /><path d="M 26.846787517317598 72 L 25.11473670974872 73" /><path d="M 19.918584287042087 76 L 16.454482671904334 78" /><path d="M 12.12435565298214 80.5 L 7.794228634059947 83" /><path d="M 36.373066958946424 67.5 L 38.1051177665153 66.5" /><path d="M 45.033320996790806 62.5 L 45.89934640057525 62" /><path d="M 55.42562584220407 56.5 L 59.75575286112626 54" /><path d="M 80.5403625519528 43 L 75.34421012924616 46" /><path d="M 36.373066958946424 68.5 L 33.77499074759311 70" /><path d="M 12.12435565298214 82.5 L 11.258330249197702 83" /><path d="M 90.06664199358161 38.5 L 91.7986928011505 37.5" /><path d="M 86.60254037844386 41.5 L 68.41600689897065 52" /><path d="M 59.75575286112626 57 L 55.42562584220407 59.5" /><path d="M 26.846787517317598 76 L 25.11473670974872 77" /><path d="M 13.856406460551018 83.5 L 11.258330249197702 85" /><path d="M 13.856406460551018 84.5 L 16.454482671904334 83" /><path d="M 20.784609690826528 80.5 L 29.444863728670914 75.5" /><path d="M 51.09549882328188 63 L 53.693575034635195 61.5" /><path d="M 55.42562584220407 60.5 L 64.9519052838329 55" /><path d="M 73.61215932167728 50 L 84.87048957087498 43.5" /><path d="M 86.60254037844386 43.5 L 84.87048957087498 44.5" /><path d="M 73.61215932167728 51 L 68.41600689897065 54" /><path d="M 50.22947341949744 64.5 L 49.363448015713 65" /><path d="M 33.77499074759311 74 L 30.31088913245535 76" /><path d="M 17.32050807568877 83.5 L 13.856406460551018 85.5" /><path d="M 19.918584287042087 83 L 22.516660498395403 81.5" /><path d="M 84.87048957087498 45.5 L 86.60254037844386 44.5" /><path d="M 95.26279441628824 39.5 L 100.45894683899488 36.5" /><path d="M 96.12881982007268 40 L 94.39676901250381 41" /><path d="M 84.00446416709055 47 L 67.54998149518622 56.5" /><path d="M 33.77499074759311 76 L 20.784609690826528 83.5" /><path d="M 18.186533479473212 85 L 13.856406460551018 87.5" /><path d="M 7.794228634059947 92 L 12.990381056766578 89" /><path d="M 32.90896534380867 77.5 L 33.77499074759311 77" /><path d="M 102.19099764656376 38.5 L 97.86087062764156 41" /><path d="M 96.12881982007268 42 L 94.39676901250381 43" /><path d="M 59.75575286112626 63 L 58.88972745734183 63.5" /><path d="M 20.784609690826528 85.5 L 19.918584287042087 86" /><path d="M 13.856406460551018 89.5 L 9.526279441628825 92" /><path d="M 10.392304845413264 92.5 L 13.856406460551018 90.5" /><path d="M 20.784609690826528 86.5 L 21.650635094610966 86" /><path d="M 22.516660498395403 85.5 L 32.90896534380867 79.5" /><path d="M 58.88972745734183 64.5 L 59.75575286112626 64" /><path d="M 97.86087062764156 42 L 102.19099764656376 39.5" /><path d="M 45.033320996790806 73.5 L 43.30127018922193 74.5" /><path d="M 27.712812921102035 83.5 L 21.650635094610966 87" /><path d="M 17.32050807568877 90.5 L 27.712812921102035 84.5" /><path d="M 58.023702053557386 67 L 88.33459118601273 49.5" /><path d="M 103.92304845413263 40.5 L 105.65509926170151 39.5" /><path d="M 38.97114317029974 79 L 36.373066958946424 80.5" /><path d="M 34.64101615137754 81.5 L 29.444863728670914 84.5" /><path d="M 19.05255888325765 91.5 L 28.578838324886473 86" /><path d="M 29.444863728670914 85.5 L 35.50704155516198 82" /><path d="M 91.7986928011505 50.5 L 88.33459118601273 52.5" /><path d="M 35.50704155516198 84 L 36.373066958946424 83.5" /><path d="M 93.53074360871936 51.5 L 88.33459118601273 54.5" /><path d="M 42.43524478543749 81 L 39.837168574084174 82.5" /><path d="M 16.454482671904334 97 L 17.32050807568877 96.5" /><path d="M 32.042939940024226 88 L 35.50704155516198 86" /><path d="M 93.53074360871936 52.5 L 104.78907385791707 46" /><path d="M 45.033320996790806 81.5 L 39.837168574084174 84.5" /><path d="M 17.32050807568877 97.5 L 16.454482671904334 98" /><path d="M 88.33459118601273 57.5 L 93.53074360871936 54.5" /><path d="M 97.86087062764156 52 L 108.25317547305482 46" /><path d="M 109.11920087683926 46.5 L 98.726896031426 52.5" /><path d="M 97.86087062764156 53 L 88.33459118601273 58.5" /><path d="M 52.827549630850754 79 L 50.22947341949744 80.5" /><path d="M 31.17691453623979 91.5 L 30.31088913245535 92" /><path d="M 97.86087062764156 55 L 90.93266739736605 59" /><path d="M 98.726896031426 55.5 L 102.19099764656376 53.5" /><path d="M 90.93266739736605 63 L 88.33459118601273 64.5" /><path d="M 43.30127018922193 90.5 L 41.569219381653056 91.5" /><path d="M 108.25317547305482 55 L 102.19099764656376 58.5" /><path d="M 35.50704155516198 97 L 28.578838324886473 101" /><path d="M 32.042939940024226 100 L 36.373066958946424 97.5" /><path d="M 49.363448015713 90 L 50.22947341949744 89.5" /><path d="M 103.92304845413263 58.5 L 104.78907385791707 58" /><path d="M 56.29165124598851 87 L 49.363448015713 91" /><path d="M 46.76537180435968 92.5 L 45.89934640057525 93" /><path d="M 32.042939940024226 101 L 30.31088913245535 102" /><path d="M 58.023702053557386 87 L 60.6217782649107 85.5" /><path d="M 71.8801085141084 79 L 95.26279441628824 65.5" /><path d="M 106.52112466548594 59 L 107.38715006927039 58.5" /><path d="M 106.52112466548594 60 L 101.32497224277931 63" /><path d="M 50.22947341949744 92.5 L 47.63139720814412 94" /><path d="M 36.373066958946424 101.5 L 37.23909236273086 101" /><path d="M 55.42562584220407 90.5 L 56.29165124598851 90" /><path d="M 102.19099764656376 63.5 L 108.25317547305482 60" /><path d="M 101.32497224277931 65 L 95.26279441628824 68.5" /><path d="M 40.703193977868615 100 L 38.1051177665153 101.5" /><path d="M 38.1051177665153 102.5 L 38.97114317029974 102" /><path d="M 71.8801085141084 83 L 95.26279441628824 69.5" /><path d="M 90.93266739736605 73 L 88.33459118601273 74.5" /><path d="M 58.023702053557386 92 L 57.157676649772945 92.5" /><path d="M 38.97114317029974 103 L 38.1051177665153 103.5" /><path d="M 71.8801085141084 85 L 88.33459118601273 75.5" /><path d="M 89.20061658979718 75 L 101.32497224277931 68" /><path d="M 109.11920087683926 63.5 L 109.9852262806237 63" /><path d="M 55.42562584220407 95.5 L 51.09549882328188 98" /><path d="M 38.1051177665153 105.5 L 37.23909236273086 106" /><path d="M 35.50704155516198 108 L 36.373066958946424 107.5" /><path d="M 38.97114317029974 106 L 40.703193977868615 105" /><path d="M 102.19099764656376 69.5 L 107.38715006927039 66.5" /><path d="M 37.23909236273086 108 L 34.64101615137754 109.5" /><path d="M 40.703193977868615 107 L 45.89934640057525 104" /><path d="M 45.89934640057525 105 L 41.569219381653056 107.5" /><path d="M 42.43524478543749 108 L 47.63139720814412 105" /><path d="M 109.11920087683926 70.5 L 107.38715006927039 71.5" /><path d="M 91.7986928011505 80.5 L 89.20061658979718 82" /><path d="M 49.363448015713 105 L 43.30127018922193 108.5" /><path d="M 38.97114317029974 112 L 41.569219381653056 110.5" /><path d="M 44.167295593006365 109 L 49.363448015713 106" /><path d="M 58.023702053557386 102 L 50.22947341949744 106.5" /><path d="M 42.43524478543749 111 L 41.569219381653056 111.5" /><path d="M 38.97114317029974 114 L 42.43524478543749 112" /><path d="M 45.89934640057525 110 L 48.49742261192856 108.5" /><path d="M 71.8801085141084 95 L 105.65509926170151 75.5" /><path d="M 107.38715006927039 74.5 L 109.9852262806237 73" /><path d="M 98.726896031426 80.5 L 97.86087062764156 81" /><path d="M 47.63139720814412 111 L 58.023702053557386 105" /><path d="M 71.8801085141084 97 L 95.26279441628824 83.5" /><path d="M 107.38715006927039 76.5 L 108.25317547305482 76" /><path d="M 96.99484522385713 85.5 L 94.39676901250381 87" /><path d="M 53.693575034635195 111.5 L 58.023702053557386 109" /><path d="M 78.80831174438391 97 L 79.67433714816835 96.5" /><path d="M 94.39676901250381 88 L 96.99484522385713 86.5" /><path d="M 79.67433714816835 97.5 L 78.80831174438391 98" /><path d="M 59.75575286112626 109 L 57.157676649772945 110.5" /><path d="M 50.22947341949744 114.5 L 48.49742261192856 115.5" /><path d="M 57.157676649772945 111.5 L 58.023702053557386 111" /><path d="M 60.6217782649107 109.5 L 71.8801085141084 103" /><path d="M 107.38715006927039 83.5 L 106.52112466548594 84" /><path d="M 61.48780366869514 110 L 58.023702053557386 112" /><path d="M 52.827549630850754 116 L 62.35382907247958 110.5" /><path d="M 54.55960043841963 116 L 53.693575034635195 116.5" /><path d="M 52.827549630850754 118 L 55.42562584220407 116.5" /><path d="M 68.41600689897065 109 L 75.34421012924616 105" /><path d="M 109.11920087683926 86.5 L 108.25317547305482 87" /><path d="M 56.29165124598851 117 L 55.42562584220407 117.5" /><path d="M 52.827549630850754 120 L 62.35382907247958 114.5" /><path d="M 83.13843876330611 103.5 L 82.27241335952166 104" /><path d="M 54.55960043841963 121 L 57.157676649772945 119.5" /><path d="M 64.08587988004845 115.5 L 64.9519052838329 115" /><path d="M 67.54998149518622 113.5 L 90.06664199358161 100.5" /><path d="M 67.54998149518622 114.5 L 65.81793068761733 115.5" /><path d="M 58.88972745734183 120.5 L 66.68395609140177 116" /><path d="M 69.28203230275508 114.5 L 91.7986928011505 101.5" /><path d="M 107.38715006927039 92.5 L 108.25317547305482 92" /><path d="M 109.11920087683926 92.5 L 107.38715006927039 93.5" /><path d="M 91.7986928011505 102.5 L 86.60254037844386 105.5" /><path d="M 81.40638795573723 108.5 L 69.28203230275508 115.5" /><path d="M 68.41600689897065 116 L 66.68395609140177 117" /><path d="M 54.55960043841963 125 L 57.157676649772945 123.5" /><path d="M 81.40638795573723 110.5 L 66.68395609140177 119" /><path d="M 58.88972745734183 124.5 L 86.60254037844386 108.5" /><path d="M 99.59292143521044 25 L 77.07626093681503 12" /><path d="M 76.2102355330306 11.5 L 74.47818472546172 10.5" /><path d="M 74.47818472546172 12.5 L 72.74613391789285 11.5" /><path d="M 60.6217782649107 7.5 L 63.21985447626402 9" /><path d="M 70.14805770653953 13 L 71.01408311032397 13.5" /><path d="M 57.157676649772945 6.5 L 52.827549630850754 4" /><path d="M 57.157676649772945 7.5 L 61.48780366869514 10" /><path d="M 62.35382907247958 10.5 L 63.21985447626402 11" /><path d="M 68.41600689897065 14 L 69.28203230275508 14.5" /><path d="M 70.14805770653953 15 L 93.53074360871936 28.5" /><path d="M 93.53074360871936 29.5 L 71.01408311032397 16.5" /><path d="M 69.28203230275508 15.5 L 68.41600689897065 15" /><path d="M 61.48780366869514 11 L 58.88972745734183 9.5" /><path d="M 51.96152422706631 6.5 L 54.55960043841963 8" /><path d="M 83.13843876330611 25.5 L 71.01408311032397 18.5" /><path d="M 54.55960043841963 9 L 51.96152422706631 7.5" /><path d="M 56.29165124598851 11 L 59.75575286112626 13" /><path d="M 66.68395609140177 17 L 70.14805770653953 19" /><path d="M 100.45894683899488 36.5 L 105.65509926170151 39.5" /><path d="M 102.19099764656376 38.5 L 99.59292143521044 37" /><path d="M 52.827549630850754 11 L 54.55960043841963 12" /><path d="M 66.68395609140177 19 L 68.41600689897065 20" /><path d="M 76.2102355330306 24.5 L 80.5403625519528 27" /><path d="M 102.19099764656376 39.5 L 103.92304845413263 40.5" /><path d="M 50.22947341949744 10.5 L 49.363448015713 10" /><path d="M 57.157676649772945 15.5 L 61.48780366869514 18" /><path d="M 65.81793068761733 20.5 L 66.68395609140177 21" /><path d="M 81.40638795573723 29.5 L 82.27241335952166 30" /><path d="M 109.11920087683926 46.5 L 108.25317547305482 46" /><path d="M 80.5403625519528 30 L 76.2102355330306 27.5" /><path d="M 57.157676649772945 16.5 L 56.29165124598851 16" /><path d="M 50.22947341949744 12.5 L 49.363448015713 12" /><path d="M 91.7986928011505 37.5 L 97.86087062764156 41" /><path d="M 106.52112466548594 47 L 104.78907385791707 46" /><path d="M 97.86087062764156 42 L 96.12881982007268 41" /><path d="M 79.67433714816835 31.5 L 74.47818472546172 28.5" /><path d="M 54.55960043841963 17 L 53.693575034635195 16.5" /><path d="M 67.54998149518622 25.5 L 71.01408311032397 27.5" /><path d="M 90.06664199358161 38.5 L 94.39676901250381 41" /><path d="M 92.66471820493493 41 L 90.06664199358161 39.5" /><path d="M 47.63139720814412 15 L 45.89934640057525 14" /><path d="M 45.89934640057525 15 L 47.63139720814412 16" /><path d="M 71.8801085141084 30 L 79.67433714816835 34.5" /><path d="M 92.66471820493493 42 L 94.39676901250381 43" /><path d="M 71.01408311032397 30.5 L 67.54998149518622 28.5" /><path d="M 64.9519052838329 27 L 64.08587988004845 26.5" /><path d="M 40.703193977868615 14 L 41.569219381653056 14.5" /><path d="M 59.75575286112626 25 L 63.21985447626402 27" /><path d="M 86.60254037844386 41.5 L 80.5403625519528 38" /><path d="M 78.80831174438391 37 L 72.74613391789285 33.5" /><path d="M 61.48780366869514 27 L 56.29165124598851 24" /><path d="M 44.167295593006365 17 L 38.97114317029974 14" /><path d="M 61.48780366869514 28 L 64.9519052838329 30" /><path d="M 50.22947341949744 23.5 L 51.09549882328188 24" /><path d="M 98.726896031426 52.5 L 97.86087062764156 52" /><path d="M 84.87048957087498 44.5 L 84.00446416709055 44" /><path d="M 34.64101615137754 16.5 L 39.837168574084174 19.5" /><path d="M 51.96152422706631 26.5 L 57.157676649772945 29.5" /><path d="M 68.41600689897065 36 L 74.47818472546172 39.5" /><path d="M 76.2102355330306 40.5 L 80.5403625519528 43" /><path d="M 84.00446416709055 45 L 84.87048957087498 45.5" /><path d="M 108.25317547305482 60 L 104.78907385791707 58" /><path d="M 93.53074360871936 51.5 L 91.7986928011505 50.5" /><path d="M 79.67433714816835 43.5 L 76.2102355330306 41.5" /><path d="M 74.47818472546172 40.5 L 68.41600689897065 37" /><path d="M 57.157676649772945 30.5 L 51.96152422706631 27.5" /><path d="M 39.837168574084174 20.5 L 35.50704155516198 18" /><path d="M 31.17691453623979 16.5 L 32.90896534380867 17.5" /><path d="M 84.00446416709055 47 L 88.33459118601273 49.5" /><path d="M 97.86087062764156 55 L 101.32497224277931 57" /><path d="M 103.92304845413263 58.5 L 106.52112466548594 60" /><path d="M 109.9852262806237 63 L 109.11920087683926 62.5" /><path d="M 103.92304845413263 59.5 L 96.99484522385713 55.5" /><path d="M 35.50704155516198 20 L 34.64101615137754 19.5" /><path d="M 41.569219381653056 24.5 L 42.43524478543749 25" /><path d="M 51.96152422706631 30.5 L 66.68395609140177 39" /><path d="M 32.90896534380867 20.5 L 32.042939940024226 20" /><path d="M 32.042939940024226 21 L 32.90896534380867 21.5" /><path d="M 63.21985447626402 39 L 69.28203230275508 42.5" /><path d="M 71.01408311032397 43.5 L 75.34421012924616 46" /><path d="M 101.32497224277931 63 L 102.19099764656376 63.5" /><path d="M 90.93266739736605 59 L 101.32497224277931 65" /><path d="M 37.23909236273086 30 L 38.1051177665153 30.5" /><path d="M 107.38715006927039 71.5 L 106.52112466548594 71" /><path d="M 31.17691453623979 28.5 L 32.042939940024226 29" /><path d="M 38.1051177665153 32.5 L 39.837168574084174 33.5" /><path d="M 90.93266739736605 63 L 95.26279441628824 65.5" /><path d="M 101.32497224277931 69 L 102.19099764656376 69.5" /><path d="M 54.55960043841963 44 L 60.6217782649107 47.5" /><path d="M 62.35382907247958 48.5 L 68.41600689897065 52" /><path d="M 67.54998149518622 52.5 L 62.35382907247958 49.5" /><path d="M 60.6217782649107 48.5 L 54.55960043841963 45" /><path d="M 38.97114317029974 36 L 32.90896534380867 32.5" /><path d="M 67.54998149518622 53.5 L 68.41600689897065 54" /><path d="M 67.54998149518622 56.5 L 64.9519052838329 55" /><path d="M 12.990381056766578 26 L 25.980762113533157 33.5" /><path d="M 102.19099764656376 77.5 L 103.05702305034819 78" /><path d="M 103.05702305034819 79 L 101.32497224277931 78" /><path d="M 59.75575286112626 54 L 58.88972745734183 53.5" /><path d="M 26.846787517317598 36 L 32.90896534380867 39.5" /><path d="M 90.93266739736605 73 L 91.7986928011505 73.5" /><path d="M 98.726896031426 79.5 L 106.52112466548594 84" /><path d="M 109.11920087683926 86.5 L 98.726896031426 80.5" /><path d="M 89.20061658979718 75 L 88.33459118601273 74.5" /><path d="M 55.42562584220407 55.5 L 53.693575034635195 54.5" /><path d="M 51.96152422706631 53.5 L 46.76537180435968 50.5" /><path d="M 43.30127018922193 48.5 L 23.38268590217984 37" /><path d="M 22.516660498395403 37.5 L 42.43524478543749 49" /><path d="M 45.89934640057525 51 L 51.09549882328188 54" /><path d="M 52.827549630850754 55 L 55.42562584220407 56.5" /><path d="M 97.86087062764156 81 L 108.25317547305482 87" /><path d="M 58.023702053557386 59 L 57.157676649772945 58.5" /><path d="M 22.516660498395403 39.5 L 42.43524478543749 51" /><path d="M 45.89934640057525 53 L 50.22947341949744 55.5" /><path d="M 56.29165124598851 60 L 51.96152422706631 57.5" /><path d="M 51.09549882328188 57 L 50.22947341949744 56.5" /><path d="M 4.330127018922193 31 L 17.32050807568877 38.5" /><path d="M 25.980762113533157 43.5 L 42.43524478543749 53" /><path d="M 46.76537180435968 55.5 L 49.363448015713 57" /><path d="M 51.09549882328188 58 L 59.75575286112626 63" /><path d="M 108.25317547305482 92 L 94.39676901250381 84" /><path d="M 58.88972745734183 63.5 L 50.22947341949744 58.5" /><path d="M 48.49742261192856 57.5 L 45.89934640057525 56" /><path d="M 45.89934640057525 57 L 48.49742261192856 58.5" /><path d="M 50.22947341949744 59.5 L 58.88972745734183 64.5" /><path d="M 88.33459118601273 81.5 L 89.20061658979718 82" /><path d="M 96.99484522385713 86.5 L 107.38715006927039 92.5" /><path d="M 107.38715006927039 93.5 L 96.12881982007268 87" /><path d="M 5.196152422706632 35.5 L 17.32050807568877 42.5" /><path d="M 91.7986928011505 85.5 L 94.39676901250381 87" /><path d="M 94.39676901250381 88 L 90.93266739736605 86" /><path d="M 58.023702053557386 67 L 51.09549882328188 63" /><path d="M 50.22947341949744 64.5 L 45.89934640057525 62" /><path d="M 6.06217782649107 40 L 6.928203230275509 40.5" /><path d="M 45.033320996790806 62.5 L 49.363448015713 65" /><path d="M 6.06217782649107 41 L 5.196152422706632 40.5" /><path d="M 25.980762113533157 53.5 L 42.43524478543749 63" /><path d="M 14.722431864335457 49 L 16.454482671904334 50" /><path d="M 51.09549882328188 70 L 52.827549630850754 71" /><path d="M 20.784609690826528 55.5 L 19.918584287042087 55" /><path d="M 12.990381056766578 51 L 12.12435565298214 50.5" /><path d="M 5.196152422706632 47.5 L 6.06217782649107 48" /><path d="M 52.827549630850754 76 L 50.22947341949744 74.5" /><path d="M 45.033320996790806 71.5 L 38.1051177665153 67.5" /><path d="M 23.38268590217984 59 L 22.516660498395403 58.5" /><path d="M 16.454482671904334 56 L 18.186533479473212 57" /><path d="M 36.373066958946424 67.5 L 45.033320996790806 72.5" /><path d="M 45.033320996790806 73.5 L 36.373066958946424 68.5" /><path d="M 10.392304845413264 53.5 L 9.526279441628825 53" /><path d="M 90.06664199358161 100.5 L 91.7986928011505 101.5" /><path d="M 45.033320996790806 75.5 L 43.30127018922193 74.5" /><path d="M 23.38268590217984 63 L 21.650635094610966 62" /><path d="M 33.77499074759311 70 L 43.30127018922193 75.5" /><path d="M 51.09549882328188 80 L 52.827549630850754 81" /><path d="M 76.2102355330306 94.5 L 79.67433714816835 96.5" /><path d="M 78.80831174438391 97 L 75.34421012924616 95" /><path d="M 45.033320996790806 77.5 L 36.373066958946424 72.5" /><path d="M 74.47818472546172 95.5 L 78.80831174438391 98" /><path d="M 58.023702053557386 87 L 52.827549630850754 84" /><path d="M 15.588457268119894 62.5 L 14.722431864335457 62" /><path d="M 15.588457268119894 63.5 L 18.186533479473212 65" /><path d="M 42.43524478543749 79 L 45.033320996790806 80.5" /><path d="M 50.22947341949744 83.5 L 55.42562584220407 86.5" /><path d="M 84.00446416709055 104 L 83.13843876330611 103.5" /><path d="M 25.980762113533157 71.5 L 26.846787517317598 72" /><path d="M 38.97114317029974 79 L 42.43524478543749 81" /><path d="M 82.27241335952166 104 L 83.13843876330611 104.5" /><path d="M 24.24871130596428 72.5 L 25.11473670974872 73" /><path d="M 29.444863728670914 75.5 L 30.31088913245535 76" /><path d="M 32.90896534380867 77.5 L 33.77499074759311 78" /><path d="M 55.42562584220407 90.5 L 56.29165124598851 91" /><path d="M 57.157676649772945 92.5 L 56.29165124598851 92" /><path d="M 39.837168574084174 82.5 L 36.373066958946424 80.5" /><path d="M 32.90896534380867 79.5 L 33.77499074759311 80" /><path d="M 78.80831174438391 107 L 75.34421012924616 105" /><path d="M 49.363448015713 90 L 45.033320996790806 87.5" /><path d="M 39.837168574084174 84.5 L 33.77499074759311 81" /><path d="M 5.196152422706632 64.5 L 4.330127018922193 64" /><path d="M 16.454482671904334 72 L 17.32050807568877 72.5" /><path d="M 24.24871130596428 76.5 L 25.11473670974872 77" /><path d="M 36.373066958946424 83.5 L 49.363448015713 91" /><path d="M 74.47818472546172 105.5 L 77.94228634059948 107.5" /><path d="M 81.40638795573723 110.5 L 79.67433714816835 109.5" /><path d="M 77.07626093681503 108 L 74.47818472546172 106.5" /><path d="M 50.22947341949744 92.5 L 35.50704155516198 84" /><path d="M 19.918584287042087 75 L 19.05255888325765 74.5" /><path d="M 10.392304845413264 69.5 L 9.526279441628825 69" /><path d="M 46.76537180435968 92.5 L 43.30127018922193 90.5" /><path d="M 17.32050807568877 75.5 L 16.454482671904334 75" /><path d="M 45.89934640057525 93 L 47.63139720814412 94" /><path d="M 41.569219381653056 91.5 L 33.77499074759311 87" /><path d="M 29.444863728670914 84.5 L 27.712812921102035 83.5" /><path d="M 12.990381056766578 76 L 22.516660498395403 81.5" /><path d="M 27.712812921102035 84.5 L 29.444863728670914 85.5" /><path d="M 32.90896534380867 87.5 L 51.09549882328188 98" /><path d="M 55.42562584220407 100.5 L 58.023702053557386 102" /><path d="M 68.41600689897065 109 L 64.9519052838329 107" /><path d="M 32.90896534380867 88.5 L 28.578838324886473 86" /><path d="M 11.258330249197702 76 L 10.392304845413264 75.5" /><path d="M 8.660254037844386 75.5 L 9.526279441628825 76" /><path d="M 23.38268590217984 85 L 19.918584287042087 83" /><path d="M 6.928203230275509 76.5 L 7.794228634059947 77" /><path d="M 9.526279441628825 78 L 22.516660498395403 85.5" /><path d="M 32.90896534380867 92.5 L 31.17691453623979 91.5" /><path d="M 22.516660498395403 86.5 L 9.526279441628825 79" /><path d="M 9.526279441628825 80 L 11.258330249197702 81" /><path d="M 18.186533479473212 85 L 19.918584287042087 86" /><path d="M 20.784609690826528 86.5 L 22.516660498395403 87.5" /><path d="M 30.31088913245535 92 L 32.90896534380867 93.5" /><path d="M 58.023702053557386 108 L 61.48780366869514 110" /><path d="M 62.35382907247958 110.5 L 69.28203230275508 114.5" /><path d="M 69.28203230275508 115.5 L 67.54998149518622 114.5" /><path d="M 58.88972745734183 109.5 L 58.023702053557386 109" /><path d="M 32.90896534380867 94.5 L 30.31088913245535 93" /><path d="M 13.856406460551018 83.5 L 12.12435565298214 82.5" /><path d="M 6.06217782649107 80 L 7.794228634059947 81" /><path d="M 32.90896534380867 95.5 L 51.09549882328188 106" /><path d="M 53.693575034635195 107.5 L 57.157676649772945 109.5" /><path d="M 66.68395609140177 116 L 64.9519052838329 115" /><path d="M 58.023702053557386 111 L 56.29165124598851 110" /><path d="M 50.22947341949744 106.5 L 49.363448015713 106" /><path d="M 47.63139720814412 105 L 45.89934640057525 104" /><path d="M 39.837168574084174 100.5 L 38.1051177665153 99.5" /><path d="M 6.928203230275509 81.5 L 6.06217782649107 81" /><path d="M 6.06217782649107 82 L 7.794228634059947 83" /><path d="M 45.89934640057525 105 L 46.76537180435968 105.5" /><path d="M 55.42562584220407 110.5 L 57.157676649772945 111.5" /><path d="M 62.35382907247958 114.5 L 64.08587988004845 115.5" /><path d="M 38.97114317029974 102 L 37.23909236273086 101" /><path d="M 17.32050807568877 90.5 L 19.05255888325765 91.5" /><path d="M 36.373066958946424 101.5 L 38.1051177665153 102.5" /><path d="M 48.49742261192856 108.5 L 50.22947341949744 109.5" /><path d="M 53.693575034635195 111.5 L 55.42562584220407 112.5" /><path d="M 56.29165124598851 114 L 53.693575034635195 112.5" /><path d="M 40.703193977868615 105 L 38.1051177665153 103.5" /><path d="M 13.856406460551018 89.5 L 12.990381056766578 89" /><path d="M 36.373066958946424 103.5 L 39.837168574084174 105.5" /><path d="M 47.63139720814412 111 L 38.1051177665153 105.5" /><path d="M 28.578838324886473 101 L 37.23909236273086 106" /><path d="M 54.55960043841963 116 L 56.29165124598851 117" /><path d="M 53.693575034635195 116.5 L 50.22947341949744 114.5" /><path d="M 9.526279441628825 92 L 17.32050807568877 96.5" /><path d="M 36.373066958946424 107.5 L 42.43524478543749 111" /><path d="M 57.157676649772945 119.5 L 58.88972745734183 120.5" /><path d="M 52.827549630850754 118 L 48.49742261192856 115.5" /><path d="M 36.373066958946424 108.5 L 35.50704155516198 108" /><path d="M 16.454482671904334 97 L 7.794228634059947 92" /><path d="M 16.454482671904334 98 L 35.50704155516198 109" /><path d="M 54.55960043841963 121 L 52.827549630850754 120" /><path d="M 38.97114317029974 112 L 34.64101615137754 109.5" /><path d="M 6.06217782649107 94 L 34.64101615137754 110.5" /><path d="M 57.157676649772945 123.5 L 58.88972745734183 124.5" /><path d="M 48.49742261192856 119.5 L 38.97114317029974 114" /><path d="M 54.55960043841963 125 L 34.64101615137754 113.5" /><path d="M 4.330127018922193 64 L 4.330127018922193 31" /><path d="M 5.196152422706632 35.5 L 5.196152422706632 64.5" /><path d="M 6.06217782649107 94 L 6.06217782649107 81" /><path d="M 6.06217782649107 80 L 6.06217782649107 64" /><path d="M 6.06217782649107 48 L 6.06217782649107 41" /><path d="M 6.928203230275509 40.5 L 6.928203230275509 47.5" /><path d="M 6.928203230275509 63.5 L 6.928203230275509 76.5" /><path d="M 7.794228634059947 92 L 7.794228634059947 83" /><path d="M 7.794228634059947 81 L 7.794228634059947 77" /><path d="M 7.794228634059947 71 L 7.794228634059947 66" /><path d="M 8.660254037844386 63.5 L 8.660254037844386 65.5" /><path d="M 9.526279441628825 79 L 9.526279441628825 78" /><path d="M 9.526279441628825 77 L 9.526279441628825 76" /><path d="M 9.526279441628825 54 L 9.526279441628825 38" /><path d="M 10.392304845413264 53.5 L 10.392304845413264 62.5" /><path d="M 10.392304845413264 69.5 L 10.392304845413264 75.5" /><path d="M 11.258330249197702 85 L 11.258330249197702 81" /><path d="M 11.258330249197702 77 L 11.258330249197702 76" /><path d="M 12.990381056766578 64 L 12.990381056766578 51" /><path d="M 13.856406460551018 83.5 L 13.856406460551018 90.5" /><path d="M 14.722431864335457 62 L 14.722431864335457 49" /><path d="M 15.588457268119894 62.5 L 15.588457268119894 63.5" /><path d="M 16.454482671904334 98 L 16.454482671904334 97" /><path d="M 16.454482671904334 56 L 16.454482671904334 50" /><path d="M 17.32050807568877 38.5 L 17.32050807568877 42.5" /><path d="M 17.32050807568877 64.5 L 17.32050807568877 67.5" /><path d="M 17.32050807568877 72.5 L 17.32050807568877 73.5" /><path d="M 17.32050807568877 75.5 L 17.32050807568877 76.5" /><path d="M 17.32050807568877 96.5 L 17.32050807568877 97.5" /><path d="M 18.186533479473212 85 L 18.186533479473212 84" /><path d="M 18.186533479473212 65 L 18.186533479473212 57" /><path d="M 18.186533479473212 53 L 18.186533479473212 51" /><path d="M 19.918584287042087 86 L 19.918584287042087 85" /><path d="M 19.918584287042087 76 L 19.918584287042087 75" /><path d="M 20.784609690826528 37.5 L 20.784609690826528 40.5" /><path d="M 20.784609690826528 55.5 L 20.784609690826528 63.5" /><path d="M 21.650635094610966 87 L 21.650635094610966 86" /><path d="M 22.516660498395403 37.5 L 22.516660498395403 39.5" /><path d="M 22.516660498395403 58.5 L 22.516660498395403 61.5" /><path d="M 22.516660498395403 81.5 L 22.516660498395403 82.5" /><path d="M 22.516660498395403 85.5 L 22.516660498395403 86.5" /><path d="M 22.516660498395403 87.5 L 22.516660498395403 89.5" /><path d="M 23.38268590217984 86 L 23.38268590217984 85" /><path d="M 23.38268590217984 63 L 23.38268590217984 59" /><path d="M 24.24871130596428 72.5 L 24.24871130596428 76.5" /><path d="M 25.11473670974872 77 L 25.11473670974872 73" /><path d="M 25.980762113533157 33.5 L 25.980762113533157 34.5" /><path d="M 25.980762113533157 43.5 L 25.980762113533157 53.5" /><path d="M 26.846787517317598 76 L 26.846787517317598 72" /><path d="M 26.846787517317598 43 L 26.846787517317598 42" /><path d="M 26.846787517317598 39 L 26.846787517317598 36" /><path d="M 27.712812921102035 83.5 L 27.712812921102035 84.5" /><path d="M 29.444863728670914 84.5 L 29.444863728670914 85.5" /><path d="M 30.31088913245535 93 L 30.31088913245535 92" /><path d="M 31.17691453623979 16.5 L 31.17691453623979 28.5" /><path d="M 32.042939940024226 101 L 32.042939940024226 100" /><path d="M 32.042939940024226 58 L 32.042939940024226 57" /><path d="M 32.042939940024226 33 L 32.042939940024226 29" /><path d="M 32.042939940024226 21 L 32.042939940024226 20" /><path d="M 32.90896534380867 17.5 L 32.90896534380867 20.5" /><path d="M 32.90896534380867 21.5 L 32.90896534380867 32.5" /><path d="M 32.90896534380867 77.5 L 32.90896534380867 79.5" /><path d="M 32.90896534380867 87.5 L 32.90896534380867 95.5" /><path d="M 33.77499074759311 81 L 33.77499074759311 70" /><path d="M 34.64101615137754 16.5 L 34.64101615137754 19.5" /><path d="M 34.64101615137754 109.5 L 34.64101615137754 113.5" /><path d="M 35.50704155516198 109 L 35.50704155516198 108" /><path d="M 35.50704155516198 88 L 35.50704155516198 84" /><path d="M 35.50704155516198 32 L 35.50704155516198 25" /><path d="M 35.50704155516198 20 L 35.50704155516198 18" /><path d="M 36.373066958946424 67.5 L 36.373066958946424 68.5" /><path d="M 36.373066958946424 72.5 L 36.373066958946424 80.5" /><path d="M 36.373066958946424 101.5 L 36.373066958946424 103.5" /><path d="M 37.23909236273086 30 L 37.23909236273086 26" /><path d="M 38.1051177665153 25.5 L 38.1051177665153 30.5" /><path d="M 38.1051177665153 60.5 L 38.1051177665153 67.5" /><path d="M 38.1051177665153 98.5 L 38.1051177665153 99.5" /><path d="M 38.1051177665153 102.5 L 38.1051177665153 103.5" /><path d="M 38.97114317029974 114 L 38.97114317029974 112" /><path d="M 38.97114317029974 103 L 38.97114317029974 102" /><path d="M 38.97114317029974 79 L 38.97114317029974 74" /><path d="M 38.97114317029974 33 L 38.97114317029974 30" /><path d="M 39.837168574084174 19.5 L 39.837168574084174 20.5" /><path d="M 39.837168574084174 22.5 L 39.837168574084174 29.5" /><path d="M 39.837168574084174 33.5 L 39.837168574084174 35.5" /><path d="M 39.837168574084174 82.5 L 39.837168574084174 84.5" /><path d="M 40.703193977868615 22 L 40.703193977868615 20" /><path d="M 40.703193977868615 15 L 40.703193977868615 14" /><path d="M 41.569219381653056 14.5 L 41.569219381653056 15.5" /><path d="M 41.569219381653056 24.5 L 41.569219381653056 34.5" /><path d="M 41.569219381653056 110.5 L 41.569219381653056 111.5" /><path d="M 42.43524478543749 112 L 42.43524478543749 111" /><path d="M 42.43524478543749 81 L 42.43524478543749 79" /><path d="M 42.43524478543749 63 L 42.43524478543749 53" /><path d="M 42.43524478543749 51 L 42.43524478543749 49" /><path d="M 42.43524478543749 25 L 42.43524478543749 19" /><path d="M 43.30127018922193 48.5 L 43.30127018922193 50.5" /><path d="M 43.30127018922193 74.5 L 43.30127018922193 75.5" /><path d="M 44.167295593006365 18 L 44.167295593006365 17" /><path d="M 45.033320996790806 62.5 L 45.033320996790806 87.5" /><path d="M 45.89934640057525 105 L 45.89934640057525 104" /><path d="M 45.89934640057525 57 L 45.89934640057525 56" /><path d="M 45.89934640057525 53 L 45.89934640057525 51" /><path d="M 45.89934640057525 15 L 45.89934640057525 14" /><path d="M 46.76537180435968 92.5 L 46.76537180435968 93.5" /><path d="M 47.63139720814412 16 L 47.63139720814412 15" /><path d="M 48.49742261192856 57.5 L 48.49742261192856 58.5" /><path d="M 48.49742261192856 115.5 L 48.49742261192856 119.5" /><path d="M 49.363448015713 106 L 49.363448015713 105" /><path d="M 49.363448015713 90 L 49.363448015713 65" /><path d="M 49.363448015713 58 L 49.363448015713 57" /><path d="M 49.363448015713 12 L 49.363448015713 10" /><path d="M 50.22947341949744 10.5 L 50.22947341949744 12.5" /><path d="M 50.22947341949744 20.5 L 50.22947341949744 29.5" /><path d="M 50.22947341949744 55.5 L 50.22947341949744 56.5" /><path d="M 50.22947341949744 58.5 L 50.22947341949744 59.5" /><path d="M 50.22947341949744 64.5 L 50.22947341949744 89.5" /><path d="M 50.22947341949744 105.5 L 50.22947341949744 106.5" /><path d="M 51.09549882328188 106 L 51.09549882328188 98" /><path d="M 51.09549882328188 70 L 51.09549882328188 63" /><path d="M 51.09549882328188 57 L 51.09549882328188 54" /><path d="M 51.09549882328188 24 L 51.09549882328188 18" /><path d="M 51.96152422706631 6.5 L 51.96152422706631 7.5" /><path d="M 51.96152422706631 26.5 L 51.96152422706631 27.5" /><path d="M 51.96152422706631 53.5 L 51.96152422706631 56.5" /><path d="M 52.827549630850754 120 L 52.827549630850754 118" /><path d="M 52.827549630850754 84 L 52.827549630850754 71" /><path d="M 52.827549630850754 58 L 52.827549630850754 55" /><path d="M 53.693575034635195 10.5 L 53.693575034635195 16.5" /><path d="M 53.693575034635195 17.5 L 53.693575034635195 22.5" /><path d="M 53.693575034635195 111.5 L 53.693575034635195 112.5" /><path d="M 54.55960043841963 125 L 54.55960043841963 121" /><path d="M 54.55960043841963 45 L 54.55960043841963 44" /><path d="M 54.55960043841963 17 L 54.55960043841963 12" /><path d="M 54.55960043841963 9 L 54.55960043841963 8" /><path d="M 55.42562584220407 56.5 L 55.42562584220407 59.5" /><path d="M 55.42562584220407 85.5 L 55.42562584220407 87.5" /><path d="M 55.42562584220407 90.5 L 55.42562584220407 100.5" /><path d="M 55.42562584220407 110.5 L 55.42562584220407 112.5" /><path d="M 55.42562584220407 116.5 L 55.42562584220407 117.5" /><path d="M 56.29165124598851 118 L 56.29165124598851 117" /><path d="M 56.29165124598851 92 L 56.29165124598851 86" /><path d="M 56.29165124598851 16 L 56.29165124598851 11" /><path d="M 56.29165124598851 10 L 56.29165124598851 8" /><path d="M 57.157676649772945 6.5 L 57.157676649772945 7.5" /><path d="M 57.157676649772945 15.5 L 57.157676649772945 16.5" /><path d="M 57.157676649772945 29.5 L 57.157676649772945 30.5" /><path d="M 57.157676649772945 86.5 L 57.157676649772945 92.5" /><path d="M 57.157676649772945 111.5 L 57.157676649772945 113.5" /><path d="M 57.157676649772945 119.5 L 57.157676649772945 123.5" /><path d="M 58.023702053557386 112 L 58.023702053557386 111" /><path d="M 58.023702053557386 108 L 58.023702053557386 102" /><path d="M 58.023702053557386 92 L 58.023702053557386 67" /><path d="M 58.88972745734183 8.5 L 58.88972745734183 9.5" /><path d="M 58.88972745734183 63.5 L 58.88972745734183 64.5" /><path d="M 58.88972745734183 120.5 L 58.88972745734183 124.5" /><path d="M 59.75575286112626 64 L 59.75575286112626 63" /><path d="M 59.75575286112626 57 L 59.75575286112626 54" /><path d="M 59.75575286112626 26 L 59.75575286112626 25" /><path d="M 59.75575286112626 17 L 59.75575286112626 13" /><path d="M 60.6217782649107 47.5 L 60.6217782649107 48.5" /><path d="M 60.6217782649107 52.5 L 60.6217782649107 57.5" /><path d="M 60.6217782649107 85.5 L 60.6217782649107 109.5" /><path d="M 61.48780366869514 111 L 61.48780366869514 110" /><path d="M 61.48780366869514 28 L 61.48780366869514 27" /><path d="M 61.48780366869514 18 L 61.48780366869514 16" /><path d="M 61.48780366869514 11 L 61.48780366869514 10" /><path d="M 62.35382907247958 15.5 L 62.35382907247958 17.5" /><path d="M 62.35382907247958 48.5 L 62.35382907247958 49.5" /><path d="M 63.21985447626402 29 L 63.21985447626402 27" /><path d="M 63.21985447626402 15 L 63.21985447626402 11" /><path d="M 63.21985447626402 10 L 63.21985447626402 9" /><path d="M 64.08587988004845 26.5 L 64.08587988004845 28.5" /><path d="M 64.9519052838329 30 L 64.9519052838329 27" /><path d="M 66.68395609140177 119 L 66.68395609140177 116" /><path d="M 66.68395609140177 41 L 66.68395609140177 39" /><path d="M 66.68395609140177 19 L 66.68395609140177 17" /><path d="M 67.54998149518622 25.5 L 67.54998149518622 28.5" /><path d="M 67.54998149518622 52.5 L 67.54998149518622 53.5" /><path d="M 67.54998149518622 113.5 L 67.54998149518622 114.5" /><path d="M 68.41600689897065 116 L 68.41600689897065 115" /><path d="M 68.41600689897065 54 L 68.41600689897065 52" /><path d="M 68.41600689897065 37 L 68.41600689897065 36" /><path d="M 68.41600689897065 15 L 68.41600689897065 14" /><path d="M 69.28203230275508 14.5 L 69.28203230275508 15.5" /><path d="M 69.28203230275508 42.5 L 69.28203230275508 43.5" /><path d="M 69.28203230275508 114.5 L 69.28203230275508 115.5" /><path d="M 71.01408311032397 13.5 L 71.01408311032397 14.5" /><path d="M 71.01408311032397 15.5 L 71.01408311032397 16.5" /><path d="M 71.01408311032397 27.5 L 71.01408311032397 30.5" /><path d="M 71.8801085141084 103 L 71.8801085141084 79" /><path d="M 72.74613391789285 11.5 L 72.74613391789285 14.5" /><path d="M 73.61215932167728 51 L 73.61215932167728 50" /><path d="M 74.47818472546172 12.5 L 74.47818472546172 13.5" /><path d="M 74.47818472546172 39.5 L 74.47818472546172 40.5" /><path d="M 74.47818472546172 105.5 L 74.47818472546172 106.5" /><path d="M 75.34421012924616 21 L 75.34421012924616 19" /><path d="M 76.2102355330306 11.5 L 76.2102355330306 12.5" /><path d="M 76.2102355330306 24.5 L 76.2102355330306 27.5" /><path d="M 76.2102355330306 40.5 L 76.2102355330306 41.5" /><path d="M 78.80831174438391 98 L 78.80831174438391 97" /><path d="M 78.80831174438391 38 L 78.80831174438391 37" /><path d="M 79.67433714816835 31.5 L 79.67433714816835 34.5" /><path d="M 79.67433714816835 96.5 L 79.67433714816835 97.5" /><path d="M 80.5403625519528 30 L 80.5403625519528 27" /><path d="M 81.40638795573723 108.5 L 81.40638795573723 110.5" /><path d="M 82.27241335952166 105 L 82.27241335952166 104" /><path d="M 82.27241335952166 48 L 82.27241335952166 45" /><path d="M 82.27241335952166 39 L 82.27241335952166 30" /><path d="M 83.13843876330611 25.5 L 83.13843876330611 28.5" /><path d="M 84.00446416709055 45 L 84.00446416709055 44" /><path d="M 84.87048957087498 43.5 L 84.87048957087498 45.5" /><path d="M 86.60254037844386 41.5 L 86.60254037844386 44.5" /><path d="M 86.60254037844386 105.5 L 86.60254037844386 108.5" /><path d="M 88.33459118601273 49.5 L 88.33459118601273 69.5" /><path d="M 88.33459118601273 74.5 L 88.33459118601273 81.5" /><path d="M 89.20061658979718 82 L 89.20061658979718 75" /><path d="M 90.06664199358161 38.5 L 90.06664199358161 39.5" /><path d="M 90.93266739736605 63 L 90.93266739736605 59" /><path d="M 91.7986928011505 73.5 L 91.7986928011505 80.5" /><path d="M 91.7986928011505 101.5 L 91.7986928011505 102.5" /><path d="M 92.66471820493493 42 L 92.66471820493493 41" /><path d="M 93.53074360871936 28.5 L 93.53074360871936 29.5" /><path d="M 93.53074360871936 51.5 L 93.53074360871936 54.5" /><path d="M 94.39676901250381 88 L 94.39676901250381 87" /><path d="M 94.39676901250381 43 L 94.39676901250381 41" /><path d="M 95.26279441628824 65.5 L 95.26279441628824 69.5" /><path d="M 95.26279441628824 81.5 L 95.26279441628824 84.5" /><path d="M 96.12881982007268 42 L 96.12881982007268 40" /><path d="M 96.99484522385713 85.5 L 96.99484522385713 86.5" /><path d="M 97.86087062764156 81 L 97.86087062764156 80" /><path d="M 97.86087062764156 55 L 97.86087062764156 52" /><path d="M 97.86087062764156 42 L 97.86087062764156 41" /><path d="M 98.726896031426 41.5 L 98.726896031426 49.5" /><path d="M 98.726896031426 52.5 L 98.726896031426 55.5" /><path d="M 98.726896031426 79.5 L 98.726896031426 80.5" /><path d="M 99.59292143521044 26 L 99.59292143521044 25" /><path d="M 101.32497224277931 69 L 101.32497224277931 63" /><path d="M 101.32497224277931 58 L 101.32497224277931 57" /><path d="M 102.19099764656376 38.5 L 102.19099764656376 39.5" /><path d="M 102.19099764656376 53.5 L 102.19099764656376 58.5" /><path d="M 102.19099764656376 63.5 L 102.19099764656376 69.5" /><path d="M 103.05702305034819 79 L 103.05702305034819 77" /><path d="M 103.92304845413263 40.5 L 103.92304845413263 46.5" /><path d="M 103.92304845413263 58.5 L 103.92304845413263 61.5" /><path d="M 105.65509926170151 39.5 L 105.65509926170151 46.5" /><path d="M 105.65509926170151 67.5 L 105.65509926170151 75.5" /><path d="M 106.52112466548594 84 L 106.52112466548594 71" /><path d="M 107.38715006927039 55.5 L 107.38715006927039 59.5" /><path d="M 107.38715006927039 66.5 L 107.38715006927039 83.5" /><path d="M 107.38715006927039 92.5 L 107.38715006927039 93.5" /><path d="M 108.25317547305482 92 L 108.25317547305482 87" /><path d="M 108.25317547305482 76 L 108.25317547305482 74" /><path d="M 108.25317547305482 60 L 108.25317547305482 55" /><path d="M 109.11920087683926 46.5 L 109.11920087683926 70.5" /><path d="M 109.11920087683926 86.5 L 109.11920087683926 92.5" /><path d="M 109.9852262806237 73 L 109.9852262806237 63" /></g></svg>