<svg viewBox="-19.200000000000003 -19.200000000000003 150.98330249197704 230.4" xmlns="http://www.w3.org/2000/svg"><g stroke="black" stroke-width="0.4" stroke-linecap="round"><path d="M 15.588457268119894 23.5 L 23.38268590217984 19 M 31.17691453623979 15.5 L 24.24871130596428 19.5 M 16.454482671904334 24 L 11.258330249197702 27 M 13.856406460551018 28.5 L 19.05255888325765 25.5 M 26.846787517317598 21 L 33.77499074759311 17 M 56.29165124598851 5 L 53.693575034635195 6.5 M 49.363448015713 9 L 46.76537180435968 10.5 M 42.43524478543749 13 L 39.837168574084174 14.5 M 35.50704155516198 17 L 32.90896534380867 18.5 M 28.578838324886473 21 L 27.712812921102035 21.5 M 19.918584287042087 26 L 19.05255888325765 26.5 M 14.722431864335457 29 L 12.12435565298214 30.5 M 7.794228634059947 33 L 5.196152422706632 34.5 M 7.794228634059947 36 L 10.392304845413264 34.5 M 14.722431864335457 32 L 17.32050807568877 30.5 M 21.650635094610966 28 L 22.516660498395403 27.5 M 30.31088913245535 23 L 31.17691453623979 22.5 M 35.50704155516198 20 L 38.1051177665153 18.5 M 42.43524478543749 16 L 45.033320996790806 14.5 M 49.363448015713 12 L 51.96152422706631 10.5 M 56.29165124598851 8 L 58.88972745734183 6.5 M 53.693575034635195 10.5 L 51.96152422706631 11.5 M 46.76537180435968 14.5 L 45.89934640057525 15 M 38.97114317029974 19 L 32.90896534380867 22.5 M 3.4641016151377544 40.5 L 5.196152422706632 39.5 M 10.392304845413264 36.5 L 12.12435565298214 35.5 M 56.29165124598851 11 L 40.703193977868615 20 M 33.77499074759311 24 L 32.90896534380867 24.5 M 19.05255888325765 32.5 L 17.32050807568877 33.5 M 63.21985447626402 9 L 60.6217782649107 10.5 M 56.29165124598851 13 L 53.693575034635195 14.5 M 49.363448015713 17 L 46.76537180435968 18.5 M 35.50704155516198 25 L 34.64101615137754 25.5 M 26.846787517317598 30 L 25.980762113533157 30.5 M 21.650635094610966 33 L 19.05255888325765 34.5 M 14.722431864335457 37 L 12.12435565298214 38.5 M 58.88972745734183 12.5 L 60.6217782649107 11.5 M 26.846787517317598 32 L 23.38268590217984 34 M 17.32050807568877 37.5 L 16.454482671904334 38 M 10.392304845413264 41.5 L 7.794228634059947 43 M 10.392304845413264 42.5 L 12.12435565298214 41.5 M 14.722431864335457 40 L 19.05255888325765 37.5 M 21.650635094610966 36 L 24.24871130596428 34.5 M 28.578838324886473 32 L 29.444863728670914 31.5 M 38.1051177665153 26.5 L 38.97114317029974 26 M 45.033320996790806 22.5 L 49.363448015713 20 M 51.96152422706631 18.5 L 56.29165124598851 16 M 58.88972745734183 14.5 L 61.48780366869514 13 M 63.21985447626402 12 L 65.81793068761733 10.5 M 29.444863728670914 32.5 L 28.578838324886473 33 M 24.24871130596428 35.5 L 21.650635094610966 37 M 63.21985447626402 14 L 71.8801085141084 9 M 33.77499074759311 34 L 32.90896534380867 34.5 M 28.578838324886473 37 L 25.980762113533157 38.5 M 21.650635094610966 41 L 19.05255888325765 42.5 M 17.32050807568877 43.5 L 14.722431864335457 45 M 33.77499074759311 36 L 32.90896534380867 36.5 M 19.05255888325765 44.5 L 16.454482671904334 46 M 21.650635094610966 44 L 24.24871130596428 42.5 M 28.578838324886473 40 L 33.77499074759311 37 M 35.50704155516198 36 L 36.373066958946424 35.5 M 39.837168574084174 37.5 L 42.43524478543749 36 M 42.43524478543749 37 L 39.837168574084174 38.5 M 35.50704155516198 41 L 32.90896534380867 42.5 M 28.578838324886473 45 L 25.980762113533157 46.5 M 32.90896534380867 44.5 L 32.042939940024226 45 M 19.05255888325765 52.5 L 16.454482671904334 54 M 28.578838324886473 48 L 31.17691453623979 46.5 M 35.50704155516198 44 L 38.97114317029974 42 M 42.43524478543749 40 L 45.033320996790806 38.5 M 45.89934640057525 38 L 56.29165124598851 32 M 49.363448015713 37 L 46.76537180435968 38.5 M 24.24871130596428 52.5 L 25.980762113533157 51.5 M 46.76537180435968 39.5 L 49.363448015713 38 M 50.22947341949744 37.5 L 56.29165124598851 34 M 49.363448015713 39 L 46.76537180435968 40.5 M 51.96152422706631 38.5 L 56.29165124598851 36 M 56.29165124598851 37 L 52.827549630850754 39 M 45.89934640057525 43 L 45.033320996790806 43.5 M 42.43524478543749 45 L 40.703193977868615 46 M 32.90896534380867 50.5 L 31.17691453623979 51.5 M 41.569219381653056 46.5 L 45.89934640057525 44 M 51.96152422706631 41.5 L 50.22947341949744 42.5 M 25.980762113533157 56.5 L 24.24871130596428 57.5 M 21.650635094610966 60 L 24.24871130596428 58.5 M 39.837168574084174 49.5 L 40.703193977868615 49 M 41.569219381653056 48.5 L 45.89934640057525 46 M 46.76537180435968 45.5 L 49.363448015713 44 M 53.693575034635195 41.5 L 58.88972745734183 38.5 M 51.96152422706631 43.5 L 40.703193977868615 50 M 31.17691453623979 56.5 L 35.50704155516198 54 M 38.1051177665153 52.5 L 39.837168574084174 51.5 M 55.42562584220407 42.5 L 56.29165124598851 42 M 39.837168574084174 52.5 L 31.17691453623979 57.5 M 31.17691453623979 58.5 L 33.77499074759311 57 M 73.61215932167728 35 L 70.14805770653953 37 M 37.23909236273086 57 L 39.837168574084174 55.5 M 73.61215932167728 37 L 71.8801085141084 38 M 39.837168574084174 56.5 L 38.1051177665153 57.5 M 31.17691453623979 62.5 L 37.23909236273086 59 M 52.827549630850754 50 L 53.693575034635195 49.5 M 66.68395609140177 42 L 67.54998149518622 41.5 M 70.14805770653953 40 L 72.74613391789285 38.5 M 37.23909236273086 60 L 29.444863728670914 64.5 M 70.14805770653953 42 L 72.74613391789285 40.5 M 70.14805770653953 43 L 69.28203230275508 43.5 M 29.444863728670914 67.5 L 37.23909236273086 63 M 38.1051177665153 62.5 L 39.837168574084174 61.5 M 64.9519052838329 47 L 69.28203230275508 44.5 M 77.07626093681503 41 L 74.47818472546172 42.5 M 39.837168574084174 62.5 L 29.444863728670914 68.5 M 18.186533479473212 76 L 19.05255888325765 75.5 M 40.703193977868615 63 L 48.49742261192856 58.5 M 80.5403625519528 41 L 78.80831174438391 42 M 77.07626093681503 44 L 79.67433714816835 42.5 M 80.5403625519528 43 L 79.67433714816835 43.5 M 55.42562584220407 57.5 L 52.827549630850754 59 M 51.96152422706631 60.5 L 55.42562584220407 58.5 M 29.444863728670914 75.5 L 37.23909236273086 71 M 77.07626093681503 48 L 79.67433714816835 46.5 M 84.00446416709055 45 L 81.40638795573723 46.5 M 18.186533479473212 83 L 17.32050807568877 83.5 M 56.29165124598851 62 L 64.08587988004845 57.5 M 110.85125168440814 31.5 L 106.52112466548594 34 M 103.92304845413263 35.5 L 99.59292143521044 38 M 96.99484522385713 39.5 L 92.66471820493493 42 M 90.06664199358161 43.5 L 89.20061658979718 44 M 55.42562584220407 63.5 L 40.703193977868615 72 M 39.837168574084174 72.5 L 32.042939940024226 77 M 32.90896534380867 77.5 L 56.29165124598851 64 M 84.00446416709055 48 L 86.60254037844386 46.5 M 90.93266739736605 44 L 93.53074360871936 42.5 M 97.86087062764156 40 L 100.45894683899488 38.5 M 104.78907385791707 36 L 107.38715006927039 34.5 M 103.92304845413263 39.5 L 100.45894683899488 41.5 M 96.99484522385713 43.5 L 93.53074360871936 45.5 M 90.06664199358161 47.5 L 89.20061658979718 48 M 82.27241335952166 52 L 64.9519052838329 62 M 86.60254037844386 50.5 L 90.93266739736605 48 M 93.53074360871936 46.5 L 97.86087062764156 44 M 100.45894683899488 42.5 L 104.78907385791707 40 M 32.90896534380867 83.5 L 56.29165124598851 70 M 56.29165124598851 71 L 40.703193977868615 80 M 39.837168574084174 80.5 L 32.042939940024226 85 M 40.703193977868615 83 L 56.29165124598851 74 M 58.88972745734183 72.5 L 70.14805770653953 66 M 56.29165124598851 75 L 39.837168574084174 84.5 M 16.454482671904334 103 L 17.32050807568877 102.5 M 32.90896534380867 93.5 L 60.6217782649107 77.5 M 56.29165124598851 83 L 35.50704155516198 95 M 36.373066958946424 95.5 L 56.29165124598851 84 M 56.29165124598851 87 L 36.373066958946424 98.5 M 37.23909236273086 99 L 51.09549882328188 91 M 51.96152422706631 90.5 L 56.29165124598851 88 M 81.40638795573723 73.5 L 82.27241335952166 73 M 86.60254037844386 72.5 L 90.93266739736605 70 M 93.53074360871936 68.5 L 97.86087062764156 66 M 100.45894683899488 64.5 L 104.78907385791707 62 M 72.74613391789285 84.5 L 78.80831174438391 81 M 29.444863728670914 115.5 L 32.90896534380867 113.5 M 35.50704155516198 115 L 29.444863728670914 118.5 M 29.444863728670914 119.5 L 31.17691453623979 118.5 M 32.042939940024226 118 L 35.50704155516198 116 M 71.01408311032397 95.5 L 73.61215932167728 94 M 35.50704155516198 117 L 32.042939940024226 119 M 31.17691453623979 120.5 L 32.90896534380867 119.5 M 33.77499074759311 119 L 35.50704155516198 118 M 78.80831174438391 94 L 77.07626093681503 95 M 86.60254037844386 92.5 L 90.06664199358161 90.5 M 93.53074360871936 88.5 L 96.99484522385713 86.5 M 101.32497224277931 85 L 100.45894683899488 85.5 M 97.86087062764156 87 L 93.53074360871936 89.5 M 90.93266739736605 91 L 86.60254037844386 93.5 M 29.444863728670914 129.5 L 32.90896534380867 127.5 M 33.77499074759311 127 L 35.50704155516198 126 M 35.50704155516198 127 L 30.31088913245535 130 M 47.63139720814412 122 L 37.23909236273086 128 M 32.042939940024226 131 L 30.31088913245535 132 M 51.09549882328188 124 L 37.23909236273086 132 M 35.50704155516198 133 L 30.31088913245535 136 M 29.444863728670914 137.5 L 32.90896534380867 135.5 M 33.77499074759311 135 L 35.50704155516198 134 M 36.373066958946424 133.5 L 38.1051177665153 132.5 M 38.97114317029974 132 L 51.96152422706631 124.5 M 32.90896534380867 136.5 L 29.444863728670914 138.5 M 29.444863728670914 139.5 L 32.90896534380867 137.5 M 78.80831174438391 114 L 77.07626093681503 115 M 57.157676649772945 130.5 L 38.97114317029974 141 M 110.85125168440814 103.5 L 107.38715006927039 105.5 M 103.92304845413263 107.5 L 102.19099764656376 108.5 M 56.29165124598851 135 L 38.97114317029974 145 M 7.794228634059947 164 L 10.392304845413264 162.5 M 50.22947341949744 139.5 L 56.29165124598851 136 M 86.60254037844386 118.5 L 90.93266739736605 116 M 93.53074360871936 114.5 L 97.86087062764156 112 M 100.45894683899488 110.5 L 101.32497224277931 110 M 38.1051177665153 147.5 L 36.373066958946424 148.5 M 35.50704155516198 150 L 38.1051177665153 148.5 M 38.1051177665153 149.5 L 33.77499074759311 152 M 32.90896534380867 153.5 L 33.77499074759311 153 M 50.22947341949744 143.5 L 56.29165124598851 140 M 58.88972745734183 138.5 L 59.75575286112626 138 M 56.29165124598851 141 L 34.64101615137754 153.5 M 30.31088913245535 156 L 29.444863728670914 156.5 M 58.88972745734183 140.5 L 59.75575286112626 140 M 77.94228634059948 130.5 L 77.07626093681503 131 M 14.722431864335457 168 L 17.32050807568877 166.5 M 81.40638795573723 130.5 L 79.67433714816835 131.5 M 96.99484522385713 123.5 L 96.12881982007268 124 M 21.650635094610966 172 L 24.24871130596428 170.5 M 34.64101615137754 164.5 L 57.157676649772945 151.5 M 76.2102355330306 141.5 L 71.01408311032397 144.5 M 71.01408311032397 146.5 L 69.28203230275508 147.5 M 56.29165124598851 155 L 34.64101615137754 167.5 M 33.77499074759311 168 L 29.444863728670914 170.5 M 31.17691453623979 170.5 L 35.50704155516198 168 M 38.1051177665153 166.5 L 40.703193977868615 165 M 41.569219381653056 164.5 L 56.29165124598851 156 M 77.07626093681503 146 L 80.5403625519528 144 M 102.19099764656376 132.5 L 100.45894683899488 133.5 M 56.29165124598851 159 L 41.569219381653056 167.5 M 28.578838324886473 176 L 31.17691453623979 174.5 M 35.50704155516198 172 L 38.1051177665153 170.5 M 40.703193977868615 169 L 56.29165124598851 160 M 58.023702053557386 159 L 59.75575286112626 158 M 75.34421012924616 150 L 74.47818472546172 150.5 M 58.023702053557386 161 L 58.88972745734183 160.5 M 77.07626093681503 150 L 78.80831174438391 149 M 81.40638795573723 149.5 L 82.27241335952166 149 M 63.21985447626402 164 L 65.81793068761733 162.5 M 75.34421012924616 158 L 74.47818472546172 158.5 M 69.28203230275508 163.5 L 68.41600689897065 164 M 76.2102355330306 160.5 L 78.80831174438391 159 M 100.45894683899488 146.5 L 103.05702305034819 145 M 70.14805770653953 168 L 71.8801085141084 167 M 77.94228634059948 164.5 L 74.47818472546172 166.5 M 100.45894683899488 156.5 L 102.19099764656376 155.5 M 77.94228634059948 170.5 L 77.07626093681503 171 M 82.27241335952166 170 L 79.67433714816835 171.5 M 96.12881982007268 168 L 93.53074360871936 169.5 M 90.06664199358161 171.5 L 86.60254037844386 173.5 M 84.00446416709055 176 L 86.60254037844386 174.5 M 90.93266739736605 172 L 93.53074360871936 170.5 M 97.86087062764156 168 L 100.45894683899488 166.5 M 104.78907385791707 164 L 107.38715006927039 162.5 M 110.85125168440814 31.5 L 71.8801085141084 9 M 56.29165124598851 5 L 58.88972745734183 6.5 M 63.21985447626402 9 L 67.54998149518622 11.5 M 106.52112466548594 34 L 107.38715006927039 34.5 M 104.78907385791707 36 L 103.92304845413263 35.5 M 63.21985447626402 12 L 58.88972745734183 9.5 M 56.29165124598851 8 L 53.693575034635195 6.5 M 63.21985447626402 14 L 60.6217782649107 12.5 M 56.29165124598851 11 L 60.6217782649107 13.5 M 104.78907385791707 40 L 103.92304845413263 39.5 M 49.363448015713 9 L 51.96152422706631 10.5 M 56.29165124598851 13 L 58.88972745734183 14.5 M 99.59292143521044 38 L 100.45894683899488 38.5 M 97.86087062764156 40 L 96.99484522385713 39.5 M 56.29165124598851 16 L 53.693575034635195 14.5 M 49.363448015713 12 L 46.76537180435968 10.5 M 53.693575034635195 15.5 L 55.42562584220407 16.5 M 97.86087062764156 44 L 96.99484522385713 43.5 M 42.43524478543749 13 L 45.033320996790806 14.5 M 45.89934640057525 15 L 46.76537180435968 15.5 M 49.363448015713 17 L 51.96152422706631 18.5 M 92.66471820493493 42 L 93.53074360871936 42.5 M 90.93266739736605 44 L 90.06664199358161 43.5 M 49.363448015713 20 L 46.76537180435968 18.5 M 42.43524478543749 16 L 39.837168574084174 14.5 M 46.76537180435968 19.5 L 48.49742261192856 20.5 M 73.61215932167728 35 L 89.20061658979718 44 M 73.61215932167728 37 L 80.5403625519528 41 M 90.93266739736605 48 L 90.06664199358161 47.5 M 35.50704155516198 17 L 38.1051177665153 18.5 M 38.97114317029974 19 L 45.033320996790806 22.5 M 70.14805770653953 37 L 72.74613391789285 38.5 M 77.07626093681503 41 L 79.67433714816835 42.5 M 80.5403625519528 43 L 89.20061658979718 48 M 33.77499074759311 17 L 31.17691453623979 15.5 M 84.00446416709055 48 L 81.40638795573723 46.5 M 77.07626093681503 44 L 74.47818472546172 42.5 M 70.14805770653953 40 L 56.29165124598851 32 M 35.50704155516198 20 L 32.90896534380867 18.5 M 74.47818472546172 44.5 L 70.14805770653953 42 M 65.81793068761733 39.5 L 56.29165124598851 34 M 66.68395609140177 41 L 68.41600689897065 42 M 69.28203230275508 42.5 L 73.61215932167728 45 M 81.40638795573723 50.5 L 77.07626093681503 48 M 73.61215932167728 46 L 69.28203230275508 43.5 M 68.41600689897065 43 L 66.68395609140177 42 M 65.81793068761733 41.5 L 56.29165124598851 36 M 38.97114317029974 26 L 32.90896534380867 22.5 M 28.578838324886473 21 L 31.17691453623979 22.5 M 33.77499074759311 24 L 38.1051177665153 26.5 M 56.29165124598851 37 L 83.13843876330611 52.5 M 34.64101615137754 25.5 L 30.31088913245535 23 M 27.712812921102035 21.5 L 26.846787517317598 21 M 24.24871130596428 19.5 L 23.38268590217984 19 M 50.22947341949744 37.5 L 51.96152422706631 38.5 M 64.9519052838329 47 L 56.29165124598851 42 M 49.363448015713 38 L 48.49742261192856 37.5 M 53.693575034635195 41.5 L 55.42562584220407 42.5 M 56.29165124598851 43 L 64.08587988004845 47.5 M 51.96152422706631 41.5 L 50.22947341949744 40.5 M 45.89934640057525 38 L 42.43524478543749 36 M 42.43524478543749 37 L 45.033320996790806 38.5 M 15.588457268119894 23.5 L 16.454482671904334 24 M 19.05255888325765 25.5 L 19.918584287042087 26 M 22.516660498395403 27.5 L 26.846787517317598 30 M 29.444863728670914 31.5 L 33.77499074759311 34 M 36.373066958946424 35.5 L 39.837168574084174 37.5 M 49.363448015713 44 L 46.76537180435968 42.5 M 42.43524478543749 40 L 39.837168574084174 38.5 M 35.50704155516198 36 L 29.444863728670914 32.5 M 28.578838324886473 32 L 25.980762113533157 30.5 M 21.650635094610966 28 L 19.05255888325765 26.5 M 26.846787517317598 32 L 28.578838324886473 33 M 32.90896534380867 35.5 L 33.77499074759311 36 M 45.033320996790806 42.5 L 45.89934640057525 43 M 33.77499074759311 37 L 32.90896534380867 36.5 M 45.89934640057525 46 L 44.167295593006365 45 M 39.837168574084174 42.5 L 38.97114317029974 42 M 11.258330249197702 27 L 13.856406460551018 28.5 M 14.722431864335457 29 L 17.32050807568877 30.5 M 21.650635094610966 33 L 24.24871130596428 34.5 M 28.578838324886473 37 L 31.17691453623979 38.5 M 35.50704155516198 41 L 38.1051177665153 42.5 M 39.837168574084174 43.5 L 42.43524478543749 45 M 19.05255888325765 33.5 L 19.918584287042087 34 M 38.1051177665153 44.5 L 40.703193977868615 46 M 35.50704155516198 44 L 32.90896534380867 42.5 M 28.578838324886473 40 L 25.980762113533157 38.5 M 21.650635094610966 36 L 19.05255888325765 34.5 M 14.722431864335457 32 L 12.12435565298214 30.5 M 21.650635094610966 37 L 25.980762113533157 39.5 M 64.9519052838329 62 L 83.13843876330611 72.5 M 82.27241335952166 73 L 81.40638795573723 72.5 M 78.80831174438391 71 L 72.74613391789285 67.5 M 71.8801085141084 67 L 64.9519052838329 63 M 55.42562584220407 57.5 L 53.693575034635195 56.5 M 40.703193977868615 49 L 38.1051177665153 47.5 M 32.042939940024226 45 L 32.90896534380867 45.5 M 38.1051177665153 48.5 L 39.837168574084174 49.5 M 81.40638795573723 73.5 L 82.27241335952166 74 M 100.45894683899488 84.5 L 101.32497224277931 85 M 7.794228634059947 33 L 10.392304845413264 34.5 M 14.722431864335457 37 L 17.32050807568877 38.5 M 19.05255888325765 39.5 L 24.24871130596428 42.5 M 28.578838324886473 45 L 31.17691453623979 46.5 M 38.1051177665153 50.5 L 39.837168574084174 51.5 M 71.8801085141084 71 L 66.68395609140177 68 M 12.12435565298214 37.5 L 12.990381056766578 38 M 44.167295593006365 56 L 51.96152422706631 60.5 M 56.29165124598851 63 L 64.08587988004845 67.5 M 96.99484522385713 86.5 L 97.86087062764156 87 M 64.9519052838329 69 L 58.88972745734183 65.5 M 58.023702053557386 65 L 56.29165124598851 64 M 55.42562584220407 63.5 L 53.693575034635195 62.5 M 28.578838324886473 48 L 25.980762113533157 46.5 M 21.650635094610966 44 L 19.05255888325765 42.5 M 14.722431864335457 40 L 12.12435565298214 38.5 M 7.794228634059947 36 L 5.196152422706632 34.5 M 37.23909236273086 54 L 39.837168574084174 55.5 M 35.50704155516198 54 L 32.90896534380867 52.5 M 24.24871130596428 48.5 L 25.980762113533157 49.5 M 37.23909236273086 57 L 34.64101615137754 55.5 M 10.392304845413264 42.5 L 12.12435565298214 43.5 M 14.722431864335457 45 L 16.454482671904334 46 M 77.94228634059948 81.5 L 78.80831174438391 82 M 58.023702053557386 71 L 56.29165124598851 70 M 37.23909236273086 59 L 33.77499074759311 57 M 3.4641016151377544 40.5 L 5.196152422706632 41.5 M 7.794228634059947 43 L 10.392304845413264 44.5 M 38.1051177665153 60.5 L 39.837168574084174 61.5 M 56.29165124598851 71 L 58.88972745734183 72.5 M 90.06664199358161 90.5 L 90.93266739736605 91 M 71.8801085141084 83 L 56.29165124598851 74 M 37.23909236273086 63 L 34.64101615137754 61.5 M 56.29165124598851 75 L 72.74613391789285 84.5 M 16.454482671904334 54 L 19.05255888325765 55.5 M 25.980762113533157 62.5 L 21.650635094610966 60 M 39.837168574084174 72.5 L 37.23909236273086 71 M 56.29165124598851 83 L 77.07626093681503 95 M 76.2102355330306 95.5 L 56.29165124598851 84 M 16.454482671904334 64 L 19.05255888325765 65.5 M 56.29165124598851 87 L 71.01408311032397 95.5 M 70.14805770653953 96 L 56.29165124598851 88 M 29.444863728670914 75.5 L 32.042939940024226 77 M 81.40638795573723 108.5 L 79.67433714816835 107.5 M 39.837168574084174 84.5 L 37.23909236273086 83 M 19.05255888325765 76.5 L 18.186533479473212 76 M 29.444863728670914 83.5 L 32.042939940024226 85 M 77.07626093681503 115 L 78.80831174438391 116 M 77.94228634059948 116.5 L 77.07626093681503 116 M 18.186533479473212 83 L 19.05255888325765 83.5 M 19.05255888325765 84.5 L 17.32050807568877 83.5 M 32.90896534380867 93.5 L 35.50704155516198 95 M 79.67433714816835 131.5 L 77.94228634059948 130.5 M 77.07626093681503 131 L 81.40638795573723 133.5 M 80.5403625519528 134 L 77.07626093681503 132 M 17.32050807568877 102.5 L 19.05255888325765 103.5 M 19.05255888325765 104.5 L 16.454482671904334 103 M 32.90896534380867 113.5 L 35.50704155516198 115 M 47.63139720814412 122 L 51.09549882328188 124 M 34.64101615137754 116.5 L 35.50704155516198 117 M 70.14805770653953 138 L 57.157676649772945 130.5 M 82.27241335952166 147 L 81.40638795573723 146.5 M 80.5403625519528 148 L 77.07626093681503 146 M 29.444863728670914 119.5 L 31.17691453623979 120.5 M 56.29165124598851 135 L 70.14805770653953 143 M 77.07626093681503 147 L 78.80831174438391 148 M 79.67433714816835 148.5 L 81.40638795573723 149.5 M 104.78907385791707 164 L 102.19099764656376 162.5 M 71.01408311032397 144.5 L 58.88972745734183 137.5 M 58.023702053557386 137 L 56.29165124598851 136 M 58.88972745734183 138.5 L 76.2102355330306 148.5 M 77.07626093681503 150 L 76.2102355330306 149.5 M 75.34421012924616 149 L 69.28203230275508 145.5 M 68.41600689897065 145 L 58.88972745734183 139.5 M 35.50704155516198 126 L 33.77499074759311 125 M 58.88972745734183 140.5 L 68.41600689897065 146 M 74.47818472546172 150.5 L 69.28203230275508 147.5 M 58.023702053557386 141 L 56.29165124598851 140 M 29.444863728670914 125.5 L 32.90896534380867 127.5 M 56.29165124598851 141 L 73.61215932167728 151 M 97.86087062764156 168 L 96.12881982007268 167 M 32.042939940024226 131 L 35.50704155516198 133 M 75.34421012924616 159 L 74.47818472546172 158.5 M 74.47818472546172 159.5 L 76.2102355330306 160.5 M 32.90896534380867 136.5 L 32.042939940024226 136 M 57.157676649772945 151.5 L 73.61215932167728 161 M 90.93266739736605 172 L 90.06664199358161 171.5 M 78.80831174438391 165 L 77.94228634059948 164.5 M 56.29165124598851 155 L 73.61215932167728 165 M 74.47818472546172 166.5 L 68.41600689897065 163 M 67.54998149518622 162.5 L 63.21985447626402 160 M 60.6217782649107 158.5 L 58.023702053557386 157 M 57.157676649772945 156.5 L 56.29165124598851 156 M 68.41600689897065 164 L 78.80831174438391 170 M 79.67433714816835 171.5 L 77.07626093681503 170 M 74.47818472546172 168.5 L 70.14805770653953 166 M 60.6217782649107 160.5 L 58.023702053557386 159 M 38.1051177665153 147.5 L 36.373066958946424 146.5 M 56.29165124598851 159 L 57.157676649772945 159.5 M 58.023702053557386 160 L 60.6217782649107 161.5 M 77.07626093681503 171 L 82.27241335952166 174 M 84.00446416709055 176 L 74.47818472546172 170.5 M 70.14805770653953 168 L 67.54998149518622 166.5 M 63.21985447626402 164 L 60.6217782649107 162.5 M 58.023702053557386 161 L 56.29165124598851 160 M 38.1051177665153 149.5 L 37.23909236273086 149 M 35.50704155516198 150 L 33.77499074759311 149 M 29.444863728670914 151.5 L 32.90896534380867 153.5 M 3.4641016151377544 142.5 L 5.196152422706632 143.5 M 7.794228634059947 145 L 10.392304845413264 146.5 M 30.31088913245535 159 L 29.444863728670914 158.5 M 40.703193977868615 169 L 38.1051177665153 167.5 M 30.31088913245535 166 L 33.77499074759311 168 M 35.50704155516198 172 L 32.90896534380867 170.5 M 25.980762113533157 170.5 L 21.650635094610966 168 M 19.05255888325765 166.5 L 14.722431864335457 164 M 12.12435565298214 162.5 L 10.392304845413264 161.5 M 28.578838324886473 176 L 25.980762113533157 174.5 M 21.650635094610966 172 L 19.05255888325765 170.5 M 14.722431864335457 168 L 12.12435565298214 166.5 M 7.794228634059947 164 L 5.196152422706632 162.5 M 3.4641016151377544 40.5 L 3.4641016151377544 142.5 M 5.196152422706632 34.5 L 5.196152422706632 41.5 M 5.196152422706632 143.5 L 5.196152422706632 162.5 M 7.794228634059947 164 L 7.794228634059947 145 M 7.794228634059947 43 L 7.794228634059947 36 M 10.392304845413264 34.5 L 10.392304845413264 41.5 M 10.392304845413264 42.5 L 10.392304845413264 44.5 M 10.392304845413264 146.5 L 10.392304845413264 162.5 M 11.258330249197702 36 L 11.258330249197702 27 M 12.12435565298214 30.5 L 12.12435565298214 37.5 M 12.12435565298214 38.5 L 12.12435565298214 43.5 M 12.12435565298214 162.5 L 12.12435565298214 166.5 M 13.856406460551018 28.5 L 13.856406460551018 29.5 M 14.722431864335457 168 L 14.722431864335457 164 M 14.722431864335457 45 L 14.722431864335457 40 M 14.722431864335457 37 L 14.722431864335457 32 M 15.588457268119894 23.5 L 15.588457268119894 24.5 M 16.454482671904334 103 L 16.454482671904334 64 M 16.454482671904334 54 L 16.454482671904334 46 M 17.32050807568877 30.5 L 17.32050807568877 37.5 M 17.32050807568877 38.5 L 17.32050807568877 43.5 M 17.32050807568877 83.5 L 17.32050807568877 102.5 M 17.32050807568877 165.5 L 17.32050807568877 166.5 M 18.186533479473212 83 L 18.186533479473212 76 M 19.05255888325765 25.5 L 19.05255888325765 33.5 M 19.05255888325765 34.5 L 19.05255888325765 39.5 M 19.05255888325765 42.5 L 19.05255888325765 55.5 M 19.05255888325765 65.5 L 19.05255888325765 104.5 M 19.05255888325765 166.5 L 19.05255888325765 170.5 M 21.650635094610966 172 L 21.650635094610966 168 M 21.650635094610966 60 L 21.650635094610966 44 M 21.650635094610966 37 L 21.650635094610966 36 M 21.650635094610966 33 L 21.650635094610966 28 M 22.516660498395403 27.5 L 22.516660498395403 33.5 M 24.24871130596428 34.5 L 24.24871130596428 35.5 M 24.24871130596428 42.5 L 24.24871130596428 58.5 M 24.24871130596428 169.5 L 24.24871130596428 170.5 M 25.980762113533157 30.5 L 25.980762113533157 32.5 M 25.980762113533157 38.5 L 25.980762113533157 39.5 M 25.980762113533157 46.5 L 25.980762113533157 62.5 M 25.980762113533157 170.5 L 25.980762113533157 174.5 M 28.578838324886473 176 L 28.578838324886473 48 M 28.578838324886473 45 L 28.578838324886473 40 M 28.578838324886473 33 L 28.578838324886473 32 M 29.444863728670914 31.5 L 29.444863728670914 32.5 M 29.444863728670914 64.5 L 29.444863728670914 67.5 M 29.444863728670914 68.5 L 29.444863728670914 118.5 M 29.444863728670914 119.5 L 29.444863728670914 129.5 M 29.444863728670914 137.5 L 29.444863728670914 138.5 M 29.444863728670914 139.5 L 29.444863728670914 170.5 M 30.31088913245535 166 L 30.31088913245535 152 M 30.31088913245535 136 L 30.31088913245535 130 M 31.17691453623979 22.5 L 31.17691453623979 23.5 M 31.17691453623979 38.5 L 31.17691453623979 56.5 M 31.17691453623979 57.5 L 31.17691453623979 62.5 M 31.17691453623979 118.5 L 31.17691453623979 120.5 M 31.17691453623979 170.5 L 31.17691453623979 174.5 M 32.042939940024226 131 L 32.042939940024226 129 M 32.042939940024226 119 L 32.042939940024226 118 M 32.042939940024226 85 L 32.042939940024226 77 M 32.042939940024226 51 L 32.042939940024226 45 M 32.90896534380867 18.5 L 32.90896534380867 24.5 M 32.90896534380867 34.5 L 32.90896534380867 35.5 M 32.90896534380867 42.5 L 32.90896534380867 52.5 M 32.90896534380867 77.5 L 32.90896534380867 83.5 M 32.90896534380867 93.5 L 32.90896534380867 113.5 M 32.90896534380867 119.5 L 32.90896534380867 127.5 M 32.90896534380867 135.5 L 32.90896534380867 136.5 M 32.90896534380867 137.5 L 32.90896534380867 153.5 M 32.90896534380867 169.5 L 32.90896534380867 170.5 M 33.77499074759311 168 L 33.77499074759311 153 M 33.77499074759311 152 L 33.77499074759311 135 M 33.77499074759311 127 L 33.77499074759311 119 M 33.77499074759311 57 L 33.77499074759311 56 M 33.77499074759311 42 L 33.77499074759311 36 M 33.77499074759311 18 L 33.77499074759311 17 M 34.64101615137754 153.5 L 34.64101615137754 167.5 M 35.50704155516198 172 L 35.50704155516198 168 M 35.50704155516198 150 L 35.50704155516198 134 M 35.50704155516198 133 L 35.50704155516198 127 M 35.50704155516198 126 L 35.50704155516198 118 M 35.50704155516198 117 L 35.50704155516198 116 M 35.50704155516198 115 L 35.50704155516198 95 M 35.50704155516198 54 L 35.50704155516198 44 M 35.50704155516198 41 L 35.50704155516198 36 M 35.50704155516198 21 L 35.50704155516198 20 M 36.373066958946424 35.5 L 36.373066958946424 41.5 M 36.373066958946424 95.5 L 36.373066958946424 98.5 M 36.373066958946424 133.5 L 36.373066958946424 148.5 M 37.23909236273086 132 L 37.23909236273086 99 M 37.23909236273086 83 L 37.23909236273086 82 M 37.23909236273086 71 L 37.23909236273086 64 M 37.23909236273086 63 L 37.23909236273086 60 M 37.23909236273086 59 L 37.23909236273086 57 M 38.1051177665153 18.5 L 38.1051177665153 19.5 M 38.1051177665153 42.5 L 38.1051177665153 52.5 M 38.1051177665153 57.5 L 38.1051177665153 62.5 M 38.1051177665153 132.5 L 38.1051177665153 147.5 M 38.1051177665153 148.5 L 38.1051177665153 149.5 M 38.1051177665153 166.5 L 38.1051177665153 170.5 M 38.97114317029974 145 L 38.97114317029974 132 M 39.837168574084174 14.5 L 39.837168574084174 19.5 M 39.837168574084174 37.5 L 39.837168574084174 43.5 M 39.837168574084174 49.5 L 39.837168574084174 51.5 M 39.837168574084174 52.5 L 39.837168574084174 55.5 M 39.837168574084174 56.5 L 39.837168574084174 61.5 M 39.837168574084174 62.5 L 39.837168574084174 72.5 M 39.837168574084174 80.5 L 39.837168574084174 84.5 M 40.703193977868615 169 L 40.703193977868615 165 M 40.703193977868615 83 L 40.703193977868615 80 M 40.703193977868615 72 L 40.703193977868615 50 M 40.703193977868615 49 L 40.703193977868615 46 M 41.569219381653056 46.5 L 41.569219381653056 48.5 M 41.569219381653056 164.5 L 41.569219381653056 167.5 M 42.43524478543749 45 L 42.43524478543749 40 M 42.43524478543749 37 L 42.43524478543749 36 M 42.43524478543749 19 L 42.43524478543749 16 M 44.167295593006365 56 L 44.167295593006365 48 M 45.033320996790806 14.5 L 45.033320996790806 17.5 M 45.033320996790806 38.5 L 45.033320996790806 43.5 M 45.89934640057525 46 L 45.89934640057525 44 M 45.89934640057525 43 L 45.89934640057525 38 M 45.89934640057525 17 L 45.89934640057525 15 M 46.76537180435968 10.5 L 46.76537180435968 16.5 M 46.76537180435968 18.5 L 46.76537180435968 19.5 M 46.76537180435968 38.5 L 46.76537180435968 39.5 M 46.76537180435968 40.5 L 46.76537180435968 45.5 M 47.63139720814412 122 L 47.63139720814412 93 M 49.363448015713 44 L 49.363448015713 39 M 49.363448015713 38 L 49.363448015713 37 M 49.363448015713 15 L 49.363448015713 12 M 50.22947341949744 37.5 L 50.22947341949744 42.5 M 50.22947341949744 139.5 L 50.22947341949744 143.5 M 51.09549882328188 124 L 51.09549882328188 91 M 51.96152422706631 10.5 L 51.96152422706631 13.5 M 51.96152422706631 38.5 L 51.96152422706631 41.5 M 51.96152422706631 43.5 L 51.96152422706631 60.5 M 51.96152422706631 90.5 L 51.96152422706631 124.5 M 52.827549630850754 59 L 52.827549630850754 39 M 53.693575034635195 6.5 L 53.693575034635195 12.5 M 53.693575034635195 14.5 L 53.693575034635195 15.5 M 53.693575034635195 41.5 L 53.693575034635195 56.5 M 53.693575034635195 59.5 L 53.693575034635195 62.5 M 55.42562584220407 42.5 L 55.42562584220407 57.5 M 55.42562584220407 58.5 L 55.42562584220407 63.5 M 56.29165124598851 160 L 56.29165124598851 159 M 56.29165124598851 156 L 56.29165124598851 155 M 56.29165124598851 141 L 56.29165124598851 140 M 56.29165124598851 136 L 56.29165124598851 135 M 56.29165124598851 88 L 56.29165124598851 87 M 56.29165124598851 84 L 56.29165124598851 83 M 56.29165124598851 75 L 56.29165124598851 74 M 56.29165124598851 71 L 56.29165124598851 70 M 56.29165124598851 64 L 56.29165124598851 42 M 56.29165124598851 37 L 56.29165124598851 36 M 56.29165124598851 34 L 56.29165124598851 32 M 56.29165124598851 11 L 56.29165124598851 8 M 57.157676649772945 88.5 L 57.157676649772945 130.5 M 57.157676649772945 141.5 L 57.157676649772945 151.5 M 57.157676649772945 156.5 L 57.157676649772945 159.5 M 58.023702053557386 161 L 58.023702053557386 160 M 58.023702053557386 159 L 58.023702053557386 157 M 58.023702053557386 141 L 58.023702053557386 137 M 58.023702053557386 71 L 58.023702053557386 65 M 58.88972745734183 6.5 L 58.88972745734183 12.5 M 58.88972745734183 65.5 L 58.88972745734183 72.5 M 58.88972745734183 137.5 L 58.88972745734183 138.5 M 58.88972745734183 139.5 L 58.88972745734183 140.5 M 60.6217782649107 10.5 L 60.6217782649107 12.5 M 60.6217782649107 158.5 L 60.6217782649107 160.5 M 60.6217782649107 161.5 L 60.6217782649107 162.5 M 63.21985447626402 164 L 63.21985447626402 160 M 63.21985447626402 14 L 63.21985447626402 12 M 64.08587988004845 47.5 L 64.08587988004845 67.5 M 64.9519052838329 69 L 64.9519052838329 63 M 64.9519052838329 62 L 64.9519052838329 47 M 65.81793068761733 10.5 L 65.81793068761733 12.5 M 65.81793068761733 39.5 L 65.81793068761733 41.5 M 65.81793068761733 161.5 L 65.81793068761733 162.5 M 66.68395609140177 42 L 66.68395609140177 41 M 67.54998149518622 162.5 L 67.54998149518622 166.5 M 68.41600689897065 164 L 68.41600689897065 163 M 68.41600689897065 146 L 68.41600689897065 145 M 68.41600689897065 43 L 68.41600689897065 42 M 69.28203230275508 42.5 L 69.28203230275508 43.5 M 69.28203230275508 145.5 L 69.28203230275508 147.5 M 70.14805770653953 168 L 70.14805770653953 166 M 70.14805770653953 143 L 70.14805770653953 96 M 70.14805770653953 42 L 70.14805770653953 40 M 71.01408311032397 95.5 L 71.01408311032397 144.5 M 71.8801085141084 83 L 71.8801085141084 67 M 72.74613391789285 38.5 L 72.74613391789285 40.5 M 72.74613391789285 67.5 L 72.74613391789285 84.5 M 73.61215932167728 165 L 73.61215932167728 151 M 73.61215932167728 46 L 73.61215932167728 45 M 73.61215932167728 37 L 73.61215932167728 35 M 74.47818472546172 42.5 L 74.47818472546172 44.5 M 74.47818472546172 150.5 L 74.47818472546172 158.5 M 74.47818472546172 159.5 L 74.47818472546172 166.5 M 74.47818472546172 168.5 L 74.47818472546172 170.5 M 75.34421012924616 159 L 75.34421012924616 149 M 76.2102355330306 95.5 L 76.2102355330306 148.5 M 76.2102355330306 149.5 L 76.2102355330306 160.5 M 77.07626093681503 171 L 77.07626093681503 170 M 77.07626093681503 150 L 77.07626093681503 147 M 77.07626093681503 146 L 77.07626093681503 132 M 77.07626093681503 131 L 77.07626093681503 116 M 77.07626093681503 115 L 77.07626093681503 95 M 77.07626093681503 48 L 77.07626093681503 44 M 77.94228634059948 116.5 L 77.94228634059948 130.5 M 77.94228634059948 159.5 L 77.94228634059948 164.5 M 78.80831174438391 170 L 78.80831174438391 148 M 78.80831174438391 116 L 78.80831174438391 71 M 79.67433714816835 42.5 L 79.67433714816835 46.5 M 79.67433714816835 107.5 L 79.67433714816835 131.5 M 79.67433714816835 148.5 L 79.67433714816835 171.5 M 80.5403625519528 148 L 80.5403625519528 134 M 80.5403625519528 43 L 80.5403625519528 41 M 81.40638795573723 46.5 L 81.40638795573723 50.5 M 81.40638795573723 72.5 L 81.40638795573723 73.5 M 81.40638795573723 108.5 L 81.40638795573723 133.5 M 81.40638795573723 146.5 L 81.40638795573723 149.5 M 82.27241335952166 174 L 82.27241335952166 147 M 82.27241335952166 74 L 82.27241335952166 73 M 83.13843876330611 52.5 L 83.13843876330611 72.5 M 84.00446416709055 176 L 84.00446416709055 48 M 86.60254037844386 46.5 L 86.60254037844386 50.5 M 86.60254037844386 72.5 L 86.60254037844386 93.5 M 86.60254037844386 118.5 L 86.60254037844386 174.5 M 89.20061658979718 48 L 89.20061658979718 44 M 90.06664199358161 43.5 L 90.06664199358161 47.5 M 90.06664199358161 70.5 L 90.06664199358161 90.5 M 90.06664199358161 116.5 L 90.06664199358161 171.5 M 90.93266739736605 172 L 90.93266739736605 116 M 90.93266739736605 91 L 90.93266739736605 70 M 90.93266739736605 48 L 90.93266739736605 44 M 93.53074360871936 42.5 L 93.53074360871936 46.5 M 93.53074360871936 68.5 L 93.53074360871936 89.5 M 93.53074360871936 114.5 L 93.53074360871936 170.5 M 96.12881982007268 168 L 96.12881982007268 124 M 96.99484522385713 39.5 L 96.99484522385713 43.5 M 96.99484522385713 66.5 L 96.99484522385713 86.5 M 96.99484522385713 112.5 L 96.99484522385713 123.5 M 97.86087062764156 168 L 97.86087062764156 112 M 97.86087062764156 87 L 97.86087062764156 66 M 97.86087062764156 44 L 97.86087062764156 40 M 100.45894683899488 38.5 L 100.45894683899488 42.5 M 100.45894683899488 64.5 L 100.45894683899488 85.5 M 100.45894683899488 110.5 L 100.45894683899488 166.5 M 101.32497224277931 110 L 101.32497224277931 85 M 102.19099764656376 108.5 L 102.19099764656376 132.5 M 102.19099764656376 145.5 L 102.19099764656376 162.5 M 103.05702305034819 145 L 103.05702305034819 108 M 103.92304845413263 35.5 L 103.92304845413263 39.5 M 103.92304845413263 62.5 L 103.92304845413263 107.5 M 104.78907385791707 164 L 104.78907385791707 62 M 104.78907385791707 40 L 104.78907385791707 36 M 107.38715006927039 34.5 L 107.38715006927039 162.5 M 110.85125168440814 31.5 L 110.85125168440814 103.5 " /></g></svg>