<svg viewBox="-19.200000000000003 -19.200000000000003 150.98330249197704 230.4" xmlns="http://www.w3.org/2000/svg"><g stroke="black" stroke-width="0.4" stroke-linecap="round"><path d="M 36.373066958946424 19.5 L 53.693575034635195 9.5 M 11.258330249197702 35 L 3.4641016151377544 39.5 M 55.42562584220407 10.5 L 56.29165124598851 10 M 36.373066958946424 27.5 L 42.43524478543749 24 M 9.526279441628825 44 L 3.4641016151377544 47.5 M 39.837168574084174 27.5 L 44.167295593006365 25 M 45.033320996790806 25.5 L 40.703193977868615 28 M 11.258330249197702 45 L 6.928203230275509 47.5 M 7.794228634059947 48 L 11.258330249197702 46 M 21.650635094610966 40 L 39.837168574084174 29.5 M 41.569219381653056 28.5 L 45.89934640057525 26 M 25.11473670974872 40 L 47.63139720814412 27 M 48.49742261192856 27.5 L 25.980762113533157 40.5 M 24.24871130596428 41.5 L 23.38268590217984 42 M 44.167295593006365 31 L 49.363448015713 28 M 43.30127018922193 32.5 L 29.444863728670914 40.5 M 25.980762113533157 42.5 L 25.11473670974872 43 M 9.526279441628825 52 L 3.4641016151377544 55.5 M 30.31088913245535 41 L 43.30127018922193 33.5 M 45.89934640057525 32 L 51.09549882328188 29 M 51.96152422706631 29.5 L 46.76537180435968 32.5 M 44.167295593006365 34 L 40.703193977868615 36 M 11.258330249197702 53 L 6.928203230275509 55.5 M 7.794228634059947 56 L 11.258330249197702 54 M 32.042939940024226 42 L 39.837168574084174 37.5 M 41.569219381653056 36.5 L 45.033320996790806 34.5 M 47.63139720814412 33 L 52.827549630850754 30 M 21.650635094610966 50 L 29.444863728670914 45.5 M 32.042939940024226 44 L 46.76537180435968 35.5 M 47.63139720814412 35 L 53.693575034635195 31.5 M 55.42562584220407 30.5 L 56.29165124598851 30 M 56.29165124598851 31 L 55.42562584220407 31.5 M 53.693575034635195 32.5 L 32.042939940024226 45 M 31.17691453623979 45.5 L 21.650635094610966 51 M 20.784609690826528 51.5 L 19.05255888325765 52.5 M 11.258330249197702 58 L 14.722431864335457 56 M 18.186533479473212 54 L 19.05255888325765 53.5 M 19.918584287042087 53 L 21.650635094610966 52 M 44.167295593006365 39 L 53.693575034635195 33.5 M 43.30127018922193 40.5 L 29.444863728670914 48.5 M 25.980762113533157 50.5 L 25.11473670974872 51 M 22.516660498395403 52.5 L 19.05255888325765 54.5 M 9.526279441628825 60 L 3.4641016151377544 63.5 M 12.990381056766578 59 L 16.454482671904334 57 M 30.31088913245535 49 L 43.30127018922193 41.5 M 45.89934640057525 40 L 53.693575034635195 35.5 M 55.42562584220407 34.5 L 56.29165124598851 34 M 53.693575034635195 36.5 L 46.76537180435968 40.5 M 44.167295593006365 42 L 40.703193977868615 44 M 22.516660498395403 54.5 L 20.784609690826528 55.5 M 16.454482671904334 58 L 13.856406460551018 59.5 M 11.258330249197702 61 L 6.928203230275509 63.5 M 7.794228634059947 64 L 11.258330249197702 62 M 21.650635094610966 56 L 22.516660498395403 55.5 M 27.712812921102035 52.5 L 28.578838324886473 52 M 32.90896534380867 49.5 L 39.837168574084174 45.5 M 41.569219381653056 44.5 L 45.033320996790806 42.5 M 47.63139720814412 41 L 53.693575034635195 37.5 M 6.928203230275509 66.5 L 7.794228634059947 66 M 16.454482671904334 61 L 19.918584287042087 59 M 21.650635094610966 58 L 25.11473670974872 56 M 27.712812921102035 54.5 L 29.444863728670914 53.5 M 32.042939940024226 52 L 46.76537180435968 43.5 M 47.63139720814412 43 L 60.6217782649107 35.5 M 49.363448015713 43 L 32.042939940024226 53 M 29.444863728670914 54.5 L 27.712812921102035 55.5 M 23.38268590217984 58 L 21.650635094610966 59 M 11.258330249197702 66 L 14.722431864335457 64 M 24.24871130596428 58.5 L 26.846787517317598 57 M 44.167295593006365 47 L 49.363448015713 44 M 51.96152422706631 42.5 L 62.35382907247958 36.5 M 62.35382907247958 37.5 L 52.827549630850754 43 M 43.30127018922193 48.5 L 29.444863728670914 56.5 M 26.846787517317598 58 L 25.11473670974872 59 M 8.660254037844386 68.5 L 3.4641016151377544 71.5 M 12.990381056766578 67 L 16.454482671904334 65 M 30.31088913245535 57 L 43.30127018922193 49.5 M 45.89934640057525 48 L 51.09549882328188 45 M 55.42562584220407 42.5 L 56.29165124598851 42 M 51.96152422706631 45.5 L 46.76537180435968 48.5 M 44.167295593006365 50 L 40.703193977868615 52 M 16.454482671904334 66 L 13.856406460551018 67.5 M 10.392304845413264 69.5 L 6.928203230275509 71.5 M 7.794228634059947 72 L 11.258330249197702 70 M 41.569219381653056 52.5 L 45.033320996790806 50.5 M 47.63139720814412 49 L 53.693575034635195 45.5 M 60.6217782649107 41.5 L 62.35382907247958 40.5 M 21.650635094610966 66 L 23.38268590217984 65 M 27.712812921102035 62.5 L 29.444863728670914 61.5 M 32.042939940024226 60 L 46.76537180435968 51.5 M 47.63139720814412 51 L 56.29165124598851 46 M 57.157676649772945 45.5 L 60.6217782649107 43.5 M 56.29165124598851 47 L 32.042939940024226 61 M 29.444863728670914 62.5 L 27.712812921102035 63.5 M 23.38268590217984 66 L 21.650635094610966 67 M 20.784609690826528 67.5 L 19.05255888325765 68.5 M 11.258330249197702 74 L 14.722431864335457 72 M 18.186533479473212 70 L 19.05255888325765 69.5 M 19.918584287042087 69 L 21.650635094610966 68 M 51.96152422706631 50.5 L 57.157676649772945 47.5 M 58.88972745734183 46.5 L 62.35382907247958 44.5 M 64.9519052838329 43 L 71.01408311032397 39.5 M 62.35382907247958 45.5 L 59.75575286112626 47 M 58.023702053557386 48 L 52.827549630850754 51 M 43.30127018922193 56.5 L 29.444863728670914 64.5 M 22.516660498395403 68.5 L 19.05255888325765 70.5 M 9.526279441628825 76 L 3.4641016151377544 79.5 M 12.990381056766578 75 L 16.454482671904334 73 M 30.31088913245535 65 L 43.30127018922193 57.5 M 45.89934640057525 56 L 51.09549882328188 53 M 53.693575034635195 51.5 L 56.29165124598851 50 M 66.68395609140177 44 L 72.74613391789285 40.5 M 73.61215932167728 41 L 61.48780366869514 48 M 22.516660498395403 70.5 L 20.784609690826528 71.5 M 16.454482671904334 74 L 13.856406460551018 75.5 M 11.258330249197702 77 L 6.928203230275509 79.5 M 7.794228634059947 80 L 11.258330249197702 78 M 14.722431864335457 76 L 18.186533479473212 74 M 21.650635094610966 72 L 22.516660498395403 71.5 M 24.24871130596428 71.5 L 22.516660498395403 72.5 M 13.856406460551018 77.5 L 12.990381056766578 78 M 13.856406460551018 78.5 L 14.722431864335457 78 M 16.454482671904334 77 L 19.918584287042087 75 M 20.784609690826528 74.5 L 23.38268590217984 73 M 27.712812921102035 70.5 L 46.76537180435968 59.5 M 47.63139720814412 59 L 54.55960043841963 55 M 55.42562584220407 54.5 L 56.29165124598851 54 M 57.157676649772945 53.5 L 60.6217782649107 51.5 M 56.29165124598851 55 L 55.42562584220407 55.5 M 49.363448015713 59 L 27.712812921102035 71.5 M 23.38268590217984 74 L 17.32050807568877 77.5 M 14.722431864335457 79 L 13.856406460551018 79.5 M 11.258330249197702 82 L 14.722431864335457 80 M 18.186533479473212 78 L 19.05255888325765 77.5 M 24.24871130596428 74.5 L 26.846787517317598 73 M 51.96152422706631 58.5 L 57.157676649772945 55.5 M 58.88972745734183 54.5 L 62.35382907247958 52.5 M 62.35382907247958 53.5 L 59.75575286112626 55 M 58.023702053557386 56 L 52.827549630850754 59 M 50.22947341949744 60.5 L 45.033320996790806 63.5 M 43.30127018922193 64.5 L 29.444863728670914 72.5 M 26.846787517317598 74 L 25.11473670974872 75 M 20.784609690826528 77.5 L 19.05255888325765 78.5 M 9.526279441628825 84 L 3.4641016151377544 87.5 M 12.990381056766578 83 L 16.454482671904334 81 M 30.31088913245535 73 L 43.30127018922193 65.5 M 66.68395609140177 52 L 79.67433714816835 44.5 M 96.99484522385713 34.5 L 97.86087062764156 34 M 97.86087062764156 35 L 81.40638795573723 44.5 M 80.5403625519528 45 L 61.48780366869514 56 M 22.516660498395403 78.5 L 20.784609690826528 79.5 M 16.454482671904334 82 L 13.856406460551018 83.5 M 11.258330249197702 85 L 6.928203230275509 87.5 M 7.794228634059947 88 L 12.12435565298214 85.5 M 14.722431864335457 84 L 18.186533479473212 82 M 21.650635094610966 80 L 22.516660498395403 79.5 M 81.40638795573723 45.5 L 97.86087062764156 36 M 73.61215932167728 51 L 62.35382907247958 57.5 M 24.24871130596428 79.5 L 22.516660498395403 80.5 M 13.856406460551018 85.5 L 12.990381056766578 86 M 13.856406460551018 86.5 L 14.722431864335457 86 M 21.650635094610966 82 L 23.38268590217984 81 M 27.712812921102035 78.5 L 29.444863728670914 77.5 M 32.042939940024226 76 L 33.77499074759311 75 M 47.63139720814412 67 L 54.55960043841963 63 M 55.42562584220407 62.5 L 56.29165124598851 62 M 57.157676649772945 61.5 L 60.6217782649107 59.5 M 62.35382907247958 58.5 L 73.61215932167728 52 M 56.29165124598851 63 L 55.42562584220407 63.5 M 49.363448015713 67 L 47.63139720814412 68 M 43.30127018922193 70.5 L 32.042939940024226 77 M 31.17691453623979 77.5 L 27.712812921102035 79.5 M 23.38268590217984 82 L 21.650635094610966 83 M 14.722431864335457 87 L 13.856406460551018 87.5 M 24.24871130596428 82.5 L 26.846787517317598 81 M 51.96152422706631 66.5 L 57.157676649772945 63.5 M 58.88972745734183 62.5 L 62.35382907247958 60.5 M 64.9519052838329 59 L 76.2102355330306 52.5 M 78.80831174438391 51 L 94.39676901250381 42 M 62.35382907247958 61.5 L 59.75575286112626 63 M 58.023702053557386 64 L 52.827549630850754 67 M 43.30127018922193 72.5 L 29.444863728670914 80.5 M 26.846787517317598 82 L 25.11473670974872 83 M 9.526279441628825 92 L 3.4641016151377544 95.5 M 30.31088913245535 81 L 43.30127018922193 73.5 M 66.68395609140177 60 L 79.67433714816835 52.5 M 96.99484522385713 42.5 L 97.86087062764156 42 M 97.86087062764156 43 L 95.26279441628824 44.5 M 93.53074360871936 45.5 L 92.66471820493493 46 M 89.20061658979718 48 L 81.40638795573723 52.5 M 80.5403625519528 53 L 61.48780366869514 64 M 11.258330249197702 93 L 6.928203230275509 95.5 M 7.794228634059947 96 L 12.12435565298214 93.5 M 81.40638795573723 53.5 L 89.20061658979718 49 M 93.53074360871936 46.5 L 94.39676901250381 46 M 96.12881982007268 45 L 97.86087062764156 44 M 73.61215932167728 59 L 62.35382907247958 65.5 M 13.856406460551018 93.5 L 12.990381056766578 94 M 11.258330249197702 96 L 13.856406460551018 94.5 M 21.650635094610966 90 L 23.38268590217984 89 M 27.712812921102035 86.5 L 29.444863728670914 85.5 M 32.042939940024226 84 L 33.77499074759311 83 M 47.63139720814412 75 L 49.363448015713 74 M 55.42562584220407 70.5 L 56.29165124598851 70 M 62.35382907247958 66.5 L 73.61215932167728 60 M 93.53074360871936 48.5 L 97.86087062764156 46 M 97.86087062764156 47 L 94.39676901250381 49 M 56.29165124598851 71 L 55.42562584220407 71.5 M 49.363448015713 75 L 47.63139720814412 76 M 33.77499074759311 84 L 32.042939940024226 85 M 29.444863728670914 86.5 L 27.712812921102035 87.5 M 23.38268590217984 90 L 21.650635094610966 91 M 12.990381056766578 96 L 12.12435565298214 96.5 M 64.9519052838329 67 L 76.2102355330306 60.5 M 78.80831174438391 59 L 92.66471820493493 51 M 9.526279441628825 100 L 3.4641016151377544 103.5 M 66.68395609140177 68 L 79.67433714816835 60.5 M 96.12881982007268 52 L 88.33459118601273 56.5 M 80.5403625519528 61 L 61.48780366869514 72 M 59.75575286112626 73 L 54.55960043841963 76 M 52.827549630850754 77 L 46.76537180435968 80.5 M 45.033320996790806 81.5 L 31.17691453623979 89.5 M 11.258330249197702 101 L 6.928203230275509 103.5 M 7.794228634059947 104 L 12.12435565298214 101.5 M 16.454482671904334 99 L 17.32050807568877 98.5 M 32.042939940024226 90 L 45.033320996790806 82.5 M 47.63139720814412 81 L 52.827549630850754 78 M 55.42562584220407 76.5 L 60.6217782649107 73.5 M 99.59292143521044 52 L 90.06664199358161 57.5 M 73.61215932167728 67 L 62.35382907247958 73.5 M 31.17691453623979 91.5 L 20.784609690826528 97.5 M 13.856406460551018 101.5 L 12.990381056766578 102 M 11.258330249197702 104 L 13.856406460551018 102.5 M 18.186533479473212 100 L 19.05255888325765 99.5 M 19.918584287042087 99 L 31.17691453623979 92.5 M 32.042939940024226 92 L 46.76537180435968 83.5 M 47.63139720814412 83 L 54.55960043841963 79 M 55.42562584220407 78.5 L 56.29165124598851 78 M 57.157676649772945 77.5 L 59.75575286112626 76 M 62.35382907247958 74.5 L 73.61215932167728 68 M 90.06664199358161 58.5 L 99.59292143521044 53 M 59.75575286112626 77 L 58.023702053557386 78 M 56.29165124598851 79 L 19.05255888325765 100.5 M 12.990381056766578 104 L 12.12435565298214 104.5 M 64.9519052838329 75 L 76.2102355330306 68.5 M 78.80831174438391 67 L 84.87048957087498 63.5 M 64.9519052838329 76 L 59.75575286112626 79 M 58.023702053557386 80 L 20.784609690826528 101.5 M 9.526279441628825 108 L 3.4641016151377544 111.5 M 66.68395609140177 76 L 79.67433714816835 68.5 M 87.4685657822283 65 L 81.40638795573723 68.5 M 80.5403625519528 69 L 61.48780366869514 80 M 59.75575286112626 81 L 56.29165124598851 83 M 53.693575034635195 84.5 L 46.76537180435968 88.5 M 45.033320996790806 89.5 L 31.17691453623979 97.5 M 11.258330249197702 109 L 6.928203230275509 111.5 M 7.794228634059947 112 L 12.12435565298214 109.5 M 16.454482671904334 107 L 17.32050807568877 106.5 M 32.042939940024226 98 L 45.033320996790806 90.5 M 47.63139720814412 89 L 53.693575034635195 85.5 M 57.157676649772945 83.5 L 60.6217782649107 81.5 M 81.40638795573723 69.5 L 88.33459118601273 65.5 M 71.01408311032397 76.5 L 64.9519052838329 80 M 31.17691453623979 99.5 L 20.784609690826528 105.5 M 13.856406460551018 109.5 L 12.990381056766578 110 M 11.258330249197702 112 L 13.856406460551018 110.5 M 18.186533479473212 108 L 19.05255888325765 107.5 M 19.918584287042087 107 L 31.17691453623979 100.5 M 32.042939940024226 100 L 46.76537180435968 91.5 M 47.63139720814412 91 L 55.42562584220407 86.5 M 58.88972745734183 84.5 L 59.75575286112626 84 M 65.81793068761733 80.5 L 71.01408311032397 77.5 M 110.85125168440814 55.5 L 91.7986928011505 66.5 M 56.29165124598851 87 L 19.05255888325765 108.5 M 12.990381056766578 112 L 12.12435565298214 112.5 M 67.54998149518622 81.5 L 73.61215932167728 78 M 78.80831174438391 75 L 110.85125168440814 56.5 M 64.9519052838329 84 L 61.48780366869514 86 M 58.023702053557386 88 L 20.784609690826528 109.5 M 9.526279441628825 116 L 3.4641016151377544 119.5 M 66.68395609140177 84 L 79.67433714816835 76.5 M 97.86087062764156 66 L 100.45894683899488 64.5 M 100.45894683899488 65.5 L 98.726896031426 66.5 M 96.12881982007268 68 L 81.40638795573723 76.5 M 80.5403625519528 77 L 66.68395609140177 85 M 53.693575034635195 92.5 L 46.76537180435968 96.5 M 45.033320996790806 97.5 L 31.17691453623979 105.5 M 11.258330249197702 117 L 6.928203230275509 119.5 M 7.794228634059947 120 L 11.258330249197702 118 M 32.042939940024226 106 L 45.033320996790806 98.5 M 47.63139720814412 97 L 53.693575034635195 93.5 M 65.81793068761733 86.5 L 66.68395609140177 86 M 68.41600689897065 85 L 69.28203230275508 84.5 M 81.40638795573723 77.5 L 88.33459118601273 73.5 M 100.45894683899488 67.5 L 98.726896031426 68.5 M 61.48780366869514 90 L 57.157676649772945 92.5 M 54.55960043841963 94 L 48.49742261192856 97.5 M 45.89934640057525 99 L 32.90896534380867 106.5 M 31.17691453623979 107.5 L 20.784609690826528 113.5 M 13.856406460551018 117.5 L 12.990381056766578 118 M 12.990381056766578 119 L 13.856406460551018 118.5 M 19.918584287042087 115 L 31.17691453623979 108.5 M 32.042939940024226 108 L 33.77499074759311 107 M 47.63139720814412 99 L 49.363448015713 98 M 58.023702053557386 93 L 62.35382907247958 90.5 M 99.59292143521044 69 L 100.45894683899488 68.5 M 100.45894683899488 69.5 L 91.7986928011505 74.5 M 77.94228634059948 82.5 L 77.07626093681503 83 M 55.42562584220407 95.5 L 32.042939940024226 109 M 28.578838324886473 111 L 22.516660498395403 114.5 M 21.650635094610966 115 L 19.05255888325765 116.5 M 67.54998149518622 89.5 L 73.61215932167728 86 M 77.94228634059948 83.5 L 100.45894683899488 70.5 M 64.9519052838329 92 L 60.6217782649107 94.5 M 58.023702053557386 96 L 20.784609690826528 117.5 M 9.526279441628825 124 L 3.4641016151377544 127.5 M 66.68395609140177 92 L 79.67433714816835 84.5 M 97.86087062764156 74 L 100.45894683899488 72.5 M 100.45894683899488 73.5 L 98.726896031426 74.5 M 96.12881982007268 76 L 81.40638795573723 84.5 M 80.5403625519528 85 L 66.68395609140177 93 M 45.033320996790806 105.5 L 31.17691453623979 113.5 M 11.258330249197702 125 L 6.928203230275509 127.5 M 7.794228634059947 128 L 11.258330249197702 126 M 32.042939940024226 114 L 45.033320996790806 106.5 M 65.81793068761733 94.5 L 66.68395609140177 94 M 81.40638795573723 85.5 L 88.33459118601273 81.5 M 100.45894683899488 75.5 L 98.726896031426 76.5 M 74.47818472546172 90.5 L 73.61215932167728 91 M 64.9519052838329 96 L 64.08587988004845 96.5 M 61.48780366869514 98 L 57.157676649772945 100.5 M 45.89934640057525 107 L 32.90896534380867 114.5 M 31.17691453623979 115.5 L 20.784609690826528 121.5 M 13.856406460551018 125.5 L 12.990381056766578 126 M 12.990381056766578 127 L 13.856406460551018 126.5 M 19.918584287042087 123 L 31.17691453623979 116.5 M 32.042939940024226 116 L 46.76537180435968 107.5 M 47.63139720814412 107 L 56.29165124598851 102 M 58.023702053557386 101 L 62.35382907247958 98.5 M 99.59292143521044 77 L 100.45894683899488 76.5 M 100.45894683899488 77.5 L 91.7986928011505 82.5 M 77.94228634059948 90.5 L 76.2102355330306 91.5 M 56.29165124598851 103 L 27.712812921102035 119.5 M 21.650635094610966 123 L 19.05255888325765 124.5 M 24.24871130596428 122.5 L 26.846787517317598 121 M 66.68395609140177 98 L 74.47818472546172 93.5 M 77.07626093681503 92 L 100.45894683899488 78.5 M 55.42562584220407 105.5 L 45.033320996790806 111.5 M 43.30127018922193 112.5 L 29.444863728670914 120.5 M 26.846787517317598 122 L 25.11473670974872 123 M 20.784609690826528 125.5 L 19.05255888325765 126.5 M 6.928203230275509 134.5 L 7.794228634059947 134 M 25.980762113533157 123.5 L 27.712812921102035 122.5 M 30.31088913245535 121 L 43.30127018922193 113.5 M 45.89934640057525 112 L 58.88972745734183 104.5 M 61.48780366869514 103 L 65.81793068761733 100.5 M 66.68395609140177 100 L 79.67433714816835 92.5 M 97.86087062764156 82 L 100.45894683899488 80.5 M 100.45894683899488 81.5 L 98.726896031426 82.5 M 96.12881982007268 84 L 81.40638795573723 92.5 M 80.5403625519528 93 L 66.68395609140177 101 M 44.167295593006365 114 L 31.17691453623979 121.5 M 22.516660498395403 126.5 L 20.784609690826528 127.5 M 15.588457268119894 130.5 L 13.856406460551018 131.5 M 11.258330249197702 133 L 10.392304845413264 133.5 M 21.650635094610966 128 L 22.516660498395403 127.5 M 49.363448015713 112 L 60.6217782649107 105.5 M 63.21985447626402 104 L 66.68395609140177 102 M 75.34421012924616 97 L 76.2102355330306 96.5 M 81.40638795573723 93.5 L 88.33459118601273 89.5 M 100.45894683899488 83.5 L 98.726896031426 84.5 M 74.47818472546172 98.5 L 73.61215932167728 99 M 66.68395609140177 103 L 64.08587988004845 104.5 M 61.48780366869514 106 L 50.22947341949744 112.5 M 45.89934640057525 115 L 32.90896534380867 122.5 M 24.24871130596428 127.5 L 22.516660498395403 128.5 M 19.918584287042087 131 L 23.38268590217984 129 M 27.712812921102035 126.5 L 29.444863728670914 125.5 M 32.042939940024226 124 L 46.76537180435968 115.5 M 47.63139720814412 115 L 62.35382907247958 106.5 M 77.07626093681503 98 L 79.67433714816835 96.5 M 99.59292143521044 85 L 100.45894683899488 84.5 M 100.45894683899488 85.5 L 91.7986928011505 90.5 M 79.67433714816835 97.5 L 77.94228634059948 98.5 M 55.42562584220407 111.5 L 27.712812921102035 127.5 M 23.38268590217984 130 L 19.05255888325765 132.5 M 24.24871130596428 130.5 L 26.846787517317598 129 M 66.68395609140177 106 L 74.47818472546172 101.5 M 78.80831174438391 99 L 100.45894683899488 86.5 M 55.42562584220407 113.5 L 45.033320996790806 119.5 M 43.30127018922193 120.5 L 29.444863728670914 128.5 M 26.846787517317598 130 L 25.11473670974872 131 M 15.588457268119894 136.5 L 13.856406460551018 137.5 M 12.990381056766578 138 L 12.12435565298214 138.5 M 6.928203230275509 142.5 L 7.794228634059947 142 M 25.980762113533157 131.5 L 27.712812921102035 130.5 M 30.31088913245535 129 L 43.30127018922193 121.5 M 45.89934640057525 120 L 65.81793068761733 108.5 M 66.68395609140177 108 L 79.67433714816835 100.5 M 93.53074360871936 92.5 L 94.39676901250381 92 M 97.86087062764156 90 L 106.52112466548594 85 M 106.52112466548594 86 L 98.726896031426 90.5 M 96.12881982007268 92 L 81.40638795573723 100.5 M 80.5403625519528 101 L 66.68395609140177 109 M 34.64101615137754 127.5 L 31.17691453623979 129.5 M 22.516660498395403 134.5 L 20.784609690826528 135.5 M 18.186533479473212 137 L 15.588457268119894 138.5 M 12.990381056766578 140 L 10.392304845413264 141.5 M 16.454482671904334 139 L 19.05255888325765 137.5 M 21.650635094610966 136 L 22.516660498395403 135.5 M 37.23909236273086 127 L 45.033320996790806 122.5 M 75.34421012924616 105 L 76.2102355330306 104.5 M 81.40638795573723 101.5 L 88.33459118601273 97.5 M 100.45894683899488 91.5 L 90.06664199358161 97.5 M 74.47818472546172 106.5 L 62.35382907247958 113.5 M 45.033320996790806 123.5 L 38.1051177665153 127.5 M 36.373066958946424 128.5 L 32.90896534380867 130.5 M 14.722431864335457 141 L 13.856406460551018 141.5 M 14.722431864335457 142 L 15.588457268119894 141.5 M 21.650635094610966 138 L 23.38268590217984 137 M 27.712812921102035 134.5 L 29.444863728670914 133.5 M 32.042939940024226 132 L 36.373066958946424 129.5 M 47.63139720814412 123 L 56.29165124598851 118 M 90.06664199358161 98.5 L 100.45894683899488 92.5 M 56.29165124598851 119 L 47.63139720814412 124 M 46.76537180435968 124.5 L 39.837168574084174 128.5 M 37.23909236273086 130 L 32.042939940024226 133 M 30.31088913245535 134 L 27.712812921102035 135.5 M 25.11473670974872 137 L 19.05255888325765 140.5 M 19.918584287042087 141 L 26.846787517317598 137 M 78.80831174438391 107 L 92.66471820493493 99 M 96.12881982007268 97 L 103.05702305034819 93 M 55.42562584220407 121.5 L 51.09549882328188 124 M 48.49742261192856 125.5 L 41.569219381653056 129.5 M 38.97114317029974 131 L 35.50704155516198 133 M 33.77499074759311 134 L 29.444863728670914 136.5 M 18.186533479473212 143 L 17.32050807568877 143.5 M 15.588457268119894 144.5 L 13.856406460551018 145.5 M 12.990381056766578 146 L 12.12435565298214 146.5 M 19.918584287042087 143 L 20.784609690826528 142.5 M 21.650635094610966 142 L 23.38268590217984 141 M 36.373066958946424 133.5 L 39.837168574084174 131.5 M 42.43524478543749 130 L 50.22947341949744 125.5 M 51.96152422706631 124.5 L 55.42562584220407 122.5 M 66.68395609140177 116 L 79.67433714816835 108.5 M 80.5403625519528 108 L 88.33459118601273 103.5 M 90.93266739736605 102 L 94.39676901250381 100 M 97.86087062764156 98 L 106.52112466548594 93 M 106.52112466548594 94 L 98.726896031426 98.5 M 96.12881982007268 100 L 66.68395609140177 117 M 59.75575286112626 121 L 58.88972745734183 121.5 M 57.157676649772945 122.5 L 52.827549630850754 125 M 40.703193977868615 132 L 37.23909236273086 134 M 35.50704155516198 135 L 31.17691453623979 137.5 M 23.38268590217984 142 L 22.516660498395403 142.5 M 20.784609690826528 143.5 L 19.918584287042087 144 M 32.042939940024226 138 L 35.50704155516198 136 M 42.43524478543749 132 L 53.693575034635195 125.5 M 75.34421012924616 113 L 76.2102355330306 112.5 M 100.45894683899488 99.5 L 90.06664199358161 105.5 M 53.693575034635195 126.5 L 40.703193977868615 134 M 24.24871130596428 144.5 L 25.11473670974872 144 M 26.846787517317598 143 L 33.77499074759311 139 M 38.1051177665153 136.5 L 39.837168574084174 135.5 M 41.569219381653056 134.5 L 49.363448015713 130 M 77.07626093681503 114 L 77.94228634059948 113.5 M 90.06664199358161 106.5 L 100.45894683899488 100.5 M 77.94228634059948 114.5 L 76.2102355330306 115.5 M 49.363448015713 131 L 41.569219381653056 135.5 M 39.837168574084174 136.5 L 38.1051177665153 137.5 M 33.77499074759311 140 L 26.846787517317598 144 M 25.11473670974872 145 L 24.24871130596428 145.5 M 17.32050807568877 150.5 L 18.186533479473212 150 M 64.9519052838329 123 L 72.74613391789285 118.5 M 77.07626093681503 116 L 92.66471820493493 107 M 96.12881982007268 105 L 103.05702305034819 101 M 72.74613391789285 119.5 L 64.9519052838329 124 M 20.784609690826528 150.5 L 28.578838324886473 146 M 80.5403625519528 116 L 88.33459118601273 111.5 M 97.86087062764156 106 L 106.52112466548594 101 M 106.52112466548594 102 L 98.726896031426 106.5 M 96.12881982007268 108 L 80.5403625519528 117 M 29.444863728670914 146.5 L 21.650635094610966 151 M 61.48780366869514 129 L 75.34421012924616 121 M 102.19099764656376 106.5 L 90.06664199358161 113.5 M 29.444863728670914 148.5 L 27.712812921102035 149.5 M 25.980762113533157 150.5 L 24.24871130596428 151.5 M 23.38268590217984 152 L 21.650635094610966 153 M 21.650635094610966 154 L 23.38268590217984 153 M 24.24871130596428 152.5 L 25.980762113533157 151.5 M 26.846787517317598 151 L 29.444863728670914 149.5 M 30.31088913245535 149 L 33.77499074759311 147 M 38.1051177665153 144.5 L 56.29165124598851 134 M 75.34421012924616 123 L 77.07626093681503 122 M 90.06664199358161 114.5 L 102.19099764656376 107.5 M 77.94228634059948 122.5 L 76.2102355330306 123.5 M 56.29165124598851 135 L 38.1051177665153 145.5 M 33.77499074759311 148 L 30.31088913245535 150 M 28.578838324886473 151 L 26.846787517317598 152 M 25.11473670974872 153 L 24.24871130596428 153.5 M 64.9519052838329 131 L 72.74613391789285 126.5 M 77.07626093681503 124 L 92.66471820493493 115 M 96.12881982007268 113 L 96.99484522385713 112.5 M 72.74613391789285 127.5 L 64.9519052838329 132 M 80.5403625519528 124 L 88.33459118601273 119.5 M 97.86087062764156 114 L 98.726896031426 113.5 M 96.12881982007268 116 L 80.5403625519528 125 M 34.64101615137754 152.5 L 41.569219381653056 148.5 M 100.45894683899488 114.5 L 102.19099764656376 113.5 M 102.19099764656376 114.5 L 90.06664199358161 121.5 M 36.373066958946424 153.5 L 56.29165124598851 142 M 72.74613391789285 132.5 L 73.61215932167728 132 M 75.34421012924616 131 L 77.07626093681503 130 M 87.4685657822283 124 L 88.33459118601273 123.5 M 90.06664199358161 122.5 L 102.19099764656376 115.5 M 77.94228634059948 130.5 L 76.2102355330306 131.5 M 56.29165124598851 143 L 36.373066958946424 154.5 M 64.9519052838329 139 L 72.74613391789285 134.5 M 77.07626093681503 132 L 78.80831174438391 131 M 72.74613391789285 135.5 L 64.9519052838329 140 M 79.67433714816835 132.5 L 80.5403625519528 132 M 96.12881982007268 124 L 88.33459118601273 128.5 M 81.40638795573723 132.5 L 80.5403625519528 133 M 100.45894683899488 122.5 L 102.19099764656376 121.5 M 102.19099764656376 122.5 L 90.06664199358161 129.5 M 87.4685657822283 132 L 88.33459118601273 131.5 M 90.06664199358161 130.5 L 100.45894683899488 124.5 M 64.9519052838329 147 L 72.74613391789285 142.5 M 72.74613391789285 143.5 L 64.9519052838329 148 M 76.2102355330306 142.5 L 77.94228634059948 141.5 M 79.67433714816835 140.5 L 80.5403625519528 140 M 96.12881982007268 132 L 88.33459118601273 136.5 M 81.40638795573723 140.5 L 80.5403625519528 141 M 77.94228634059948 142.5 L 77.07626093681503 143 M 84.87048957087498 139.5 L 85.73651497465941 139 M 100.45894683899488 130.5 L 102.19099764656376 129.5 M 102.19099764656376 130.5 L 90.06664199358161 137.5 M 86.60254037844386 140.5 L 88.33459118601273 139.5 M 90.06664199358161 138.5 L 100.45894683899488 132.5 M 88.33459118601273 140.5 L 87.4685657822283 141 M 96.12881982007268 140 L 88.33459118601273 144.5 M 100.45894683899488 138.5 L 102.19099764656376 137.5 M 102.19099764656376 138.5 L 91.7986928011505 144.5 M 92.66471820493493 145 L 100.45894683899488 140.5 M 95.26279441628824 144.5 L 94.39676901250381 145 M 92.66471820493493 147 L 94.39676901250381 146 M 94.39676901250381 147 L 92.66471820493493 148 M 96.12881982007268 148 L 88.33459118601273 152.5 M 100.45894683899488 146.5 L 102.19099764656376 145.5 M 102.19099764656376 146.5 L 100.45894683899488 147.5 M 99.59292143521044 148 L 90.06664199358161 153.5 M 90.06664199358161 154.5 L 99.59292143521044 149 M 96.99484522385713 151.5 L 94.39676901250381 153 M 96.12881982007268 156 L 88.33459118601273 160.5 M 99.59292143521044 156 L 90.06664199358161 161.5 M 90.06664199358161 162.5 L 99.59292143521044 157 M 97.86087062764156 34 L 56.29165124598851 10 M 53.693575034635195 9.5 L 55.42562584220407 10.5 M 96.99484522385713 34.5 L 97.86087062764156 35 M 97.86087062764156 42 L 92.66471820493493 39 M 96.99484522385713 42.5 L 97.86087062764156 43 M 94.39676901250381 42 L 90.93266739736605 40 M 90.06664199358161 40.5 L 93.53074360871936 42.5 M 97.86087062764156 46 L 95.26279441628824 44.5 M 110.85125168440814 55.5 L 96.99484522385713 47.5 M 94.39676901250381 46 L 93.53074360871936 45.5 M 90.93266739736605 44 L 87.4685657822283 42 M 92.66471820493493 46 L 93.53074360871936 46.5 M 93.53074360871936 48.5 L 99.59292143521044 52 M 87.4685657822283 46 L 84.00446416709055 44 M 83.13843876330611 44.5 L 86.60254037844386 46.5 M 89.20061658979718 48 L 96.12881982007268 52 M 95.26279441628824 52.5 L 89.20061658979718 49 M 81.40638795573723 44.5 L 56.29165124598851 30 M 36.373066958946424 19.5 L 55.42562584220407 30.5 M 56.29165124598851 31 L 81.40638795573723 45.5 M 55.42562584220407 31.5 L 36.373066958946424 20.5 M 53.693575034635195 31.5 L 60.6217782649107 35.5 M 62.35382907247958 36.5 L 69.28203230275508 40.5 M 89.20061658979718 53 L 85.73651497465941 51 M 82.27241335952166 49 L 77.94228634059948 46.5 M 68.41600689897065 41 L 62.35382907247958 37.5 M 59.75575286112626 36 L 53.693575034635195 32.5 M 53.693575034635195 33.5 L 55.42562584220407 34.5 M 87.4685657822283 54 L 84.00446416709055 52 M 39.837168574084174 27.5 L 41.569219381653056 28.5 M 53.693575034635195 35.5 L 57.157676649772945 37.5 M 59.75575286112626 39 L 62.35382907247958 40.5 M 83.13843876330611 52.5 L 86.60254037844386 54.5 M 90.06664199358161 57.5 L 88.33459118601273 56.5 M 81.40638795573723 52.5 L 78.80831174438391 51 M 66.68395609140177 44 L 64.9519052838329 43 M 61.48780366869514 41 L 58.88972745734183 39.5 M 56.29165124598851 38 L 53.693575034635195 36.5 M 49.363448015713 34 L 43.30127018922193 30.5 M 36.373066958946424 27.5 L 39.837168574084174 29.5 M 53.693575034635195 37.5 L 55.42562584220407 38.5 M 58.023702053557386 40 L 60.6217782649107 41.5 M 64.9519052838329 44 L 66.68395609140177 45 M 78.80831174438391 52 L 81.40638795573723 53.5 M 88.33459118601273 57.5 L 90.06664199358161 58.5 M 98.726896031426 63.5 L 100.45894683899488 64.5 M 47.63139720814412 35 L 43.30127018922193 32.5 M 38.97114317029974 30 L 36.373066958946424 28.5 M 43.30127018922193 33.5 L 47.63139720814412 36 M 56.29165124598851 41 L 60.6217782649107 43.5 M 62.35382907247958 44.5 L 64.9519052838329 46 M 73.61215932167728 51 L 76.2102355330306 52.5 M 100.45894683899488 67.5 L 97.86087062764156 66 M 82.27241335952166 57 L 77.94228634059948 54.5 M 75.34421012924616 53 L 73.61215932167728 52 M 64.08587988004845 46.5 L 62.35382907247958 45.5 M 59.75575286112626 44 L 55.42562584220407 41.5 M 54.55960043841963 42 L 55.42562584220407 42.5 M 100.45894683899488 69.5 L 98.726896031426 68.5 M 39.837168574084174 35.5 L 41.569219381653056 36.5 M 51.96152422706631 42.5 L 61.48780366869514 48 M 71.01408311032397 53.5 L 72.74613391789285 54.5 M 75.34421012924616 56 L 79.67433714816835 58.5 M 93.53074360871936 66.5 L 96.12881982007268 68 M 95.26279441628824 68.5 L 92.66471820493493 67 M 91.7986928011505 66.5 L 74.47818472546172 56.5 M 71.8801085141084 55 L 70.14805770653953 54 M 66.68395609140177 52 L 56.29165124598851 46 M 49.363448015713 42 L 43.30127018922193 38.5 M 38.1051177665153 36.5 L 39.837168574084174 37.5 M 49.363448015713 43 L 53.693575034635195 45.5 M 56.29165124598851 47 L 66.68395609140177 53 M 78.80831174438391 60 L 91.7986928011505 67.5 M 98.726896031426 71.5 L 100.45894683899488 72.5 M 52.827549630850754 46 L 48.49742261192856 43.5 M 47.63139720814412 43 L 43.30127018922193 40.5 M 38.97114317029974 38 L 37.23909236273086 37 M 43.30127018922193 41.5 L 47.63139720814412 44 M 56.29165124598851 49 L 60.6217782649107 51.5 M 62.35382907247958 52.5 L 64.9519052838329 54 M 67.54998149518622 55.5 L 69.28203230275508 56.5 M 73.61215932167728 59 L 76.2102355330306 60.5 M 78.80831174438391 62 L 83.13843876330611 64.5 M 100.45894683899488 75.5 L 97.86087062764156 74 M 89.20061658979718 69 L 85.73651497465941 67 M 75.34421012924616 61 L 73.61215932167728 60 M 68.41600689897065 57 L 66.68395609140177 56 M 64.08587988004845 54.5 L 62.35382907247958 53.5 M 59.75575286112626 52 L 55.42562584220407 49.5 M 61.48780366869514 54 L 63.21985447626402 55 M 100.45894683899488 77.5 L 98.726896031426 76.5 M 87.4685657822283 70 L 84.00446416709055 68 M 62.35382907247958 55.5 L 60.6217782649107 54.5 M 39.837168574084174 43.5 L 41.569219381653056 44.5 M 51.96152422706631 50.5 L 61.48780366869514 56 M 71.01408311032397 61.5 L 72.74613391789285 62.5 M 75.34421012924616 64 L 79.67433714816835 66.5 M 83.13843876330611 68.5 L 86.60254037844386 70.5 M 93.53074360871936 74.5 L 96.12881982007268 76 M 95.26279441628824 76.5 L 92.66471820493493 75 M 91.7986928011505 74.5 L 88.33459118601273 72.5 M 81.40638795573723 68.5 L 74.47818472546172 64.5 M 71.8801085141084 63 L 70.14805770653953 62 M 66.68395609140177 60 L 64.9519052838329 59 M 62.35382907247958 57.5 L 56.29165124598851 54 M 47.63139720814412 49 L 43.30127018922193 46.5 M 38.1051177665153 44.5 L 39.837168574084174 45.5 M 49.363448015713 51 L 55.42562584220407 54.5 M 56.29165124598851 55 L 62.35382907247958 58.5 M 64.9519052838329 60 L 66.68395609140177 61 M 78.80831174438391 68 L 81.40638795573723 69.5 M 88.33459118601273 73.5 L 91.7986928011505 75.5 M 98.726896031426 79.5 L 100.45894683899488 80.5 M 106.52112466548594 85 L 100.45894683899488 81.5 M 90.93266739736605 76 L 87.4685657822283 74 M 84.00446416709055 72 L 79.67433714816835 69.5 M 55.42562584220407 55.5 L 48.49742261192856 51.5 M 47.63139720814412 51 L 43.30127018922193 48.5 M 38.97114317029974 46 L 37.23909236273086 45 M 33.77499074759311 43 L 29.444863728670914 40.5 M 43.30127018922193 49.5 L 47.63139720814412 52 M 56.29165124598851 57 L 60.6217782649107 59.5 M 62.35382907247958 60.5 L 64.9519052838329 62 M 67.54998149518622 63.5 L 69.28203230275508 64.5 M 73.61215932167728 67 L 76.2102355330306 68.5 M 100.45894683899488 83.5 L 97.86087062764156 82 M 75.34421012924616 69 L 73.61215932167728 68 M 68.41600689897065 65 L 66.68395609140177 64 M 64.08587988004845 62.5 L 62.35382907247958 61.5 M 59.75575286112626 60 L 55.42562584220407 57.5 M 32.042939940024226 44 L 25.11473670974872 40 M 25.980762113533157 41.5 L 32.042939940024226 45 M 100.45894683899488 85.5 L 98.726896031426 84.5 M 87.4685657822283 78 L 84.00446416709055 76 M 31.17691453623979 45.5 L 25.980762113533157 42.5 M 24.24871130596428 41.5 L 21.650635094610966 40 M 11.258330249197702 35 L 30.31088913245535 46 M 39.837168574084174 51.5 L 41.569219381653056 52.5 M 51.96152422706631 58.5 L 61.48780366869514 64 M 83.13843876330611 76.5 L 86.60254037844386 78.5 M 93.53074360871936 82.5 L 96.12881982007268 84 M 95.26279441628824 84.5 L 92.66471820493493 83 M 91.7986928011505 82.5 L 88.33459118601273 80.5 M 81.40638795573723 76.5 L 78.80831174438391 75 M 66.68395609140177 68 L 64.9519052838329 67 M 62.35382907247958 65.5 L 56.29165124598851 62 M 49.363448015713 58 L 43.30127018922193 54.5 M 31.17691453623979 48.5 L 32.90896534380867 49.5 M 49.363448015713 59 L 55.42562584220407 62.5 M 56.29165124598851 63 L 62.35382907247958 66.5 M 64.9519052838329 68 L 66.68395609140177 69 M 78.80831174438391 76 L 81.40638795573723 77.5 M 88.33459118601273 81.5 L 91.7986928011505 83.5 M 106.52112466548594 93 L 100.45894683899488 89.5 M 90.93266739736605 84 L 87.4685657822283 82 M 84.00446416709055 80 L 79.67433714816835 77.5 M 55.42562584220407 63.5 L 48.49742261192856 59.5 M 47.63139720814412 59 L 43.30127018922193 56.5 M 33.77499074759311 51 L 29.444863728670914 48.5 M 43.30127018922193 57.5 L 47.63139720814412 60 M 67.54998149518622 71.5 L 69.28203230275508 72.5 M 103.05702305034819 93 L 97.86087062764156 90 M 82.27241335952166 81 L 77.94228634059948 78.5 M 68.41600689897065 73 L 66.68395609140177 72 M 32.042939940024226 52 L 25.980762113533157 48.5 M 25.980762113533157 49.5 L 32.042939940024226 53 M 65.81793068761733 72.5 L 67.54998149518622 73.5 M 77.07626093681503 79 L 81.40638795573723 81.5 M 100.45894683899488 92.5 L 102.19099764656376 93.5 M 87.4685657822283 86 L 84.00446416709055 84 M 73.61215932167728 78 L 71.01408311032397 76.5 M 28.578838324886473 52 L 25.980762113533157 50.5 M 23.38268590217984 50 L 29.444863728670914 53.5 M 51.96152422706631 66.5 L 61.48780366869514 72 M 71.01408311032397 77.5 L 72.74613391789285 78.5 M 83.13843876330611 84.5 L 86.60254037844386 86.5 M 93.53074360871936 90.5 L 96.12881982007268 92 M 95.26279441628824 92.5 L 92.66471820493493 91 M 91.7986928011505 90.5 L 88.33459118601273 88.5 M 81.40638795573723 84.5 L 78.80831174438391 83 M 77.94228634059948 82.5 L 74.47818472546172 80.5 M 71.8801085141084 79 L 70.14805770653953 78 M 66.68395609140177 76 L 64.9519052838329 75 M 62.35382907247958 73.5 L 56.29165124598851 70 M 49.363448015713 66 L 43.30127018922193 62.5 M 21.650635094610966 50 L 3.4641016151377544 39.5 M 3.4641016151377544 40.5 L 27.712812921102035 54.5 M 49.363448015713 67 L 55.42562584220407 70.5 M 56.29165124598851 71 L 62.35382907247958 74.5 M 64.9519052838329 76 L 66.68395609140177 77 M 77.07626093681503 83 L 77.94228634059948 83.5 M 78.80831174438391 84 L 81.40638795573723 85.5 M 88.33459118601273 89.5 L 91.7986928011505 91.5 M 93.53074360871936 92.5 L 94.39676901250381 93 M 106.52112466548594 101 L 100.45894683899488 97.5 M 97.86087062764156 96 L 96.12881982007268 95 M 90.93266739736605 92 L 87.4685657822283 90 M 84.00446416709055 88 L 79.67433714816835 85.5 M 64.08587988004845 76.5 L 59.75575286112626 74 M 55.42562584220407 71.5 L 48.49742261192856 67.5 M 47.63139720814412 67 L 43.30127018922193 64.5 M 33.77499074759311 59 L 29.444863728670914 56.5 M 27.712812921102035 55.5 L 11.258330249197702 46 M 43.30127018922193 65.5 L 47.63139720814412 68 M 103.05702305034819 101 L 97.86087062764156 98 M 96.12881982007268 97 L 94.39676901250381 96 M 82.27241335952166 89 L 77.94228634059948 86.5 M 62.35382907247958 77.5 L 59.75575286112626 76 M 32.042939940024226 60 L 26.846787517317598 57 M 25.11473670974872 56 L 22.516660498395403 54.5 M 19.918584287042087 53 L 19.05255888325765 52.5 M 19.05255888325765 53.5 L 19.918584287042087 54 M 22.516660498395403 55.5 L 24.24871130596428 56.5 M 26.846787517317598 58 L 32.042939940024226 61 M 59.75575286112626 77 L 61.48780366869514 78 M 64.9519052838329 80 L 67.54998149518622 81.5 M 77.07626093681503 87 L 81.40638795573723 89.5 M 100.45894683899488 100.5 L 102.19099764656376 101.5 M 87.4685657822283 94 L 84.00446416709055 92 M 73.61215932167728 86 L 69.28203230275508 83.5 M 23.38268590217984 57 L 6.928203230275509 47.5 M 24.24871130596428 58.5 L 29.444863728670914 61.5 M 54.55960043841963 76 L 61.48780366869514 80 M 68.41600689897065 84 L 72.74613391789285 86.5 M 83.13843876330611 92.5 L 86.60254037844386 94.5 M 91.7986928011505 97.5 L 96.12881982007268 100 M 95.26279441628824 100.5 L 90.93266739736605 98 M 90.06664199358161 97.5 L 88.33459118601273 96.5 M 81.40638795573723 92.5 L 78.80831174438391 91 M 77.94228634059948 90.5 L 74.47818472546172 88.5 M 71.8801085141084 87 L 67.54998149518622 84.5 M 66.68395609140177 84 L 56.29165124598851 78 M 49.363448015713 74 L 43.30127018922193 70.5 M 21.650635094610966 58 L 3.4641016151377544 47.5 M 3.4641016151377544 48.5 L 27.712812921102035 62.5 M 52.827549630850754 77 L 55.42562584220407 78.5 M 56.29165124598851 79 L 66.68395609140177 85 M 78.80831174438391 92 L 81.40638795573723 93.5 M 88.33459118601273 97.5 L 90.06664199358161 98.5 M 102.19099764656376 106.5 L 100.45894683899488 105.5 M 97.86087062764156 104 L 96.12881982007268 103 M 90.93266739736605 100 L 87.4685657822283 98 M 84.00446416709055 96 L 79.67433714816835 93.5 M 77.07626093681503 92 L 76.2102355330306 91.5 M 74.47818472546172 90.5 L 72.74613391789285 89.5 M 70.14805770653953 88 L 66.68395609140177 86 M 64.08587988004845 84.5 L 59.75575286112626 82 M 55.42562584220407 79.5 L 52.827549630850754 78 M 47.63139720814412 75 L 43.30127018922193 72.5 M 33.77499074759311 67 L 29.444863728670914 64.5 M 27.712812921102035 63.5 L 11.258330249197702 54 M 16.454482671904334 58 L 19.05255888325765 59.5 M 43.30127018922193 73.5 L 47.63139720814412 76 M 65.81793068761733 86.5 L 69.28203230275508 88.5 M 71.8801085141084 90 L 73.61215932167728 91 M 100.45894683899488 107.5 L 97.86087062764156 106 M 96.12881982007268 105 L 94.39676901250381 104 M 91.7986928011505 102.5 L 90.93266739736605 102 M 62.35382907247958 85.5 L 59.75575286112626 84 M 56.29165124598851 83 L 67.54998149518622 89.5 M 70.14805770653953 91 L 74.47818472546172 93.5 M 79.67433714816835 96.5 L 81.40638795573723 97.5 M 87.4685657822283 102 L 84.00446416709055 100 M 80.5403625519528 98 L 79.67433714816835 97.5 M 73.61215932167728 94 L 69.28203230275508 91.5 M 23.38268590217984 65 L 6.928203230275509 55.5 M 68.41600689897065 92 L 72.74613391789285 94.5 M 75.34421012924616 96 L 76.2102355330306 96.5 M 83.13843876330611 100.5 L 86.60254037844386 102.5 M 88.33459118601273 103.5 L 89.20061658979718 104 M 91.7986928011505 105.5 L 96.12881982007268 108 M 95.26279441628824 108.5 L 90.93266739736605 106 M 90.06664199358161 105.5 L 88.33459118601273 104.5 M 81.40638795573723 100.5 L 77.07626093681503 98 M 75.34421012924616 97 L 74.47818472546172 96.5 M 71.8801085141084 95 L 67.54998149518622 92.5 M 66.68395609140177 92 L 53.693575034635195 84.5 M 49.363448015713 82 L 46.76537180435968 80.5 M 21.650635094610966 66 L 3.4641016151377544 55.5 M 3.4641016151377544 56.5 L 27.712812921102035 70.5 M 53.693575034635195 85.5 L 66.68395609140177 93 M 78.80831174438391 100 L 81.40638795573723 101.5 M 88.33459118601273 105.5 L 90.06664199358161 106.5 M 96.99484522385713 110.5 L 102.19099764656376 113.5 M 90.93266739736605 108 L 86.60254037844386 105.5 M 84.00446416709055 104 L 79.67433714816835 101.5 M 74.47818472546172 98.5 L 72.74613391789285 97.5 M 70.14805770653953 96 L 66.68395609140177 94 M 47.63139720814412 83 L 45.033320996790806 81.5 M 33.77499074759311 75 L 29.444863728670914 72.5 M 27.712812921102035 71.5 L 11.258330249197702 62 M 16.454482671904334 66 L 19.918584287042087 68 M 45.033320996790806 82.5 L 47.63139720814412 84 M 60.6217782649107 91.5 L 63.21985447626402 93 M 65.81793068761733 94.5 L 69.28203230275508 96.5 M 71.8801085141084 98 L 73.61215932167728 99 M 95.26279441628824 111.5 L 96.99484522385713 112.5 M 98.726896031426 113.5 L 100.45894683899488 114.5 M 100.45894683899488 115.5 L 97.86087062764156 114 M 96.12881982007268 113 L 94.39676901250381 112 M 32.042939940024226 76 L 26.846787517317598 73 M 24.24871130596428 71.5 L 22.516660498395403 70.5 M 19.918584287042087 69 L 19.05255888325765 68.5 M 19.05255888325765 69.5 L 19.918584287042087 70 M 22.516660498395403 71.5 L 23.38268590217984 72 M 26.846787517317598 74 L 32.042939940024226 77 M 64.9519052838329 96 L 67.54998149518622 97.5 M 70.14805770653953 99 L 74.47818472546172 101.5 M 87.4685657822283 110 L 83.13843876330611 107.5 M 73.61215932167728 102 L 69.28203230275508 99.5 M 66.68395609140177 98 L 57.157676649772945 92.5 M 31.17691453623979 77.5 L 25.980762113533157 74.5 M 23.38268590217984 73 L 6.928203230275509 63.5 M 24.24871130596428 74.5 L 30.31088913245535 78 M 68.41600689897065 100 L 72.74613391789285 102.5 M 75.34421012924616 104 L 76.2102355330306 104.5 M 82.27241335952166 108 L 86.60254037844386 110.5 M 88.33459118601273 111.5 L 89.20061658979718 112 M 91.7986928011505 113.5 L 96.12881982007268 116 M 95.26279441628824 116.5 L 90.93266739736605 114 M 90.06664199358161 113.5 L 88.33459118601273 112.5 M 80.5403625519528 108 L 78.80831174438391 107 M 75.34421012924616 105 L 74.47818472546172 104.5 M 71.8801085141084 103 L 67.54998149518622 100.5 M 66.68395609140177 100 L 53.693575034635195 92.5 M 49.363448015713 90 L 46.76537180435968 88.5 M 7.794228634059947 66 L 3.4641016151377544 63.5 M 3.4641016151377544 64.5 L 20.784609690826528 74.5 M 21.650635094610966 75 L 27.712812921102035 78.5 M 53.693575034635195 93.5 L 66.68395609140177 101 M 78.80831174438391 108 L 80.5403625519528 109 M 88.33459118601273 113.5 L 90.06664199358161 114.5 M 96.99484522385713 118.5 L 102.19099764656376 121.5 M 74.47818472546172 106.5 L 72.74613391789285 105.5 M 70.14805770653953 104 L 66.68395609140177 102 M 57.157676649772945 96.5 L 55.42562584220407 95.5 M 47.63139720814412 91 L 45.033320996790806 89.5 M 33.77499074759311 83 L 29.444863728670914 80.5 M 27.712812921102035 79.5 L 6.928203230275509 67.5 M 16.454482671904334 74 L 17.32050807568877 74.5 M 45.033320996790806 90.5 L 47.63139720814412 92 M 60.6217782649107 99.5 L 64.08587988004845 101.5 M 66.68395609140177 103 L 69.28203230275508 104.5 M 71.8801085141084 106 L 73.61215932167728 107 M 95.26279441628824 119.5 L 100.45894683899488 122.5 M 100.45894683899488 123.5 L 94.39676901250381 120 M 32.042939940024226 84 L 26.846787517317598 81 M 24.24871130596428 79.5 L 22.516660498395403 78.5 M 20.784609690826528 77.5 L 19.05255888325765 76.5 M 19.05255888325765 77.5 L 19.918584287042087 78 M 22.516660498395403 79.5 L 23.38268590217984 80 M 26.846787517317598 82 L 32.042939940024226 85 M 64.9519052838329 104 L 67.54998149518622 105.5 M 70.14805770653953 107 L 71.8801085141084 108 M 77.07626093681503 111 L 81.40638795573723 113.5 M 66.68395609140177 106 L 57.157676649772945 100.5 M 23.38268590217984 81 L 6.928203230275509 71.5 M 24.24871130596428 82.5 L 29.444863728670914 85.5 M 68.41600689897065 108 L 70.14805770653953 109 M 75.34421012924616 112 L 76.2102355330306 112.5 M 77.94228634059948 113.5 L 79.67433714816835 114.5 M 88.33459118601273 119.5 L 89.20061658979718 120 M 91.7986928011505 121.5 L 96.12881982007268 124 M 95.26279441628824 124.5 L 90.93266739736605 122 M 90.06664199358161 121.5 L 88.33459118601273 120.5 M 80.5403625519528 116 L 77.07626093681503 114 M 75.34421012924616 113 L 74.47818472546172 112.5 M 69.28203230275508 109.5 L 67.54998149518622 108.5 M 66.68395609140177 108 L 56.29165124598851 102 M 49.363448015713 98 L 46.76537180435968 96.5 M 21.650635094610966 82 L 14.722431864335457 78 M 13.856406460551018 77.5 L 3.4641016151377544 71.5 M 3.4641016151377544 72.5 L 13.856406460551018 78.5 M 14.722431864335457 79 L 27.712812921102035 86.5 M 56.29165124598851 103 L 66.68395609140177 109 M 78.80831174438391 116 L 84.87048957087498 119.5 M 87.4685657822283 121 L 94.39676901250381 125 M 96.99484522385713 126.5 L 102.19099764656376 129.5 M 77.07626093681503 116 L 76.2102355330306 115.5 M 58.023702053557386 105 L 55.42562584220407 103.5 M 47.63139720814412 99 L 45.033320996790806 97.5 M 33.77499074759311 91 L 31.17691453623979 89.5 M 27.712812921102035 87.5 L 11.258330249197702 78 M 16.454482671904334 82 L 17.32050807568877 82.5 M 45.033320996790806 98.5 L 47.63139720814412 100 M 60.6217782649107 107.5 L 64.08587988004845 109.5 M 88.33459118601273 123.5 L 92.66471820493493 126 M 95.26279441628824 127.5 L 100.45894683899488 130.5 M 100.45894683899488 131.5 L 94.39676901250381 128 M 91.7986928011505 126.5 L 87.4685657822283 124 M 56.29165124598851 106 L 55.42562584220407 105.5 M 32.042939940024226 92 L 31.17691453623979 91.5 M 31.17691453623979 92.5 L 32.042939940024226 93 M 23.38268590217984 89 L 6.928203230275509 79.5 M 57.157676649772945 109.5 L 60.6217782649107 111.5 M 72.74613391789285 118.5 L 79.67433714816835 122.5 M 82.27241335952166 124 L 89.20061658979718 128 M 91.7986928011505 129.5 L 96.12881982007268 132 M 95.26279441628824 132.5 L 90.93266739736605 130 M 90.06664199358161 129.5 L 81.40638795573723 124.5 M 80.5403625519528 124 L 72.74613391789285 119.5 M 66.68395609140177 116 L 62.35382907247958 113.5 M 59.75575286112626 112 L 56.29165124598851 110 M 21.650635094610966 90 L 14.722431864335457 86 M 13.856406460551018 85.5 L 3.4641016151377544 79.5 M 3.4641016151377544 80.5 L 13.856406460551018 86.5 M 14.722431864335457 87 L 21.650635094610966 91 M 62.35382907247958 114.5 L 66.68395609140177 117 M 78.80831174438391 124 L 94.39676901250381 133 M 96.99484522385713 134.5 L 102.19099764656376 137.5 M 77.07626093681503 124 L 75.34421012924616 123 M 58.023702053557386 113 L 55.42562584220407 111.5 M 47.63139720814412 107 L 45.033320996790806 105.5 M 33.77499074759311 99 L 31.17691453623979 97.5 M 13.856406460551018 87.5 L 12.990381056766578 87 M 45.033320996790806 106.5 L 47.63139720814412 108 M 88.33459118601273 131.5 L 92.66471820493493 134 M 95.26279441628824 135.5 L 100.45894683899488 138.5 M 100.45894683899488 139.5 L 94.39676901250381 136 M 91.7986928011505 134.5 L 87.4685657822283 132 M 71.8801085141084 123 L 69.28203230275508 121.5 M 56.29165124598851 114 L 55.42562584220407 113.5 M 32.042939940024226 100 L 31.17691453623979 99.5 M 31.17691453623979 100.5 L 32.042939940024226 101 M 51.09549882328188 113 L 49.363448015713 112 M 7.794228634059947 88 L 6.928203230275509 87.5 M 72.74613391789285 126.5 L 89.20061658979718 136 M 91.7986928011505 137.5 L 96.12881982007268 140 M 95.26279441628824 140.5 L 90.93266739736605 138 M 90.06664199358161 137.5 L 72.74613391789285 127.5 M 64.9519052838329 123 L 56.29165124598851 118 M 45.89934640057525 112 L 43.30127018922193 110.5 M 21.650635094610966 98 L 20.784609690826528 97.5 M 13.856406460551018 93.5 L 3.4641016151377544 87.5 M 3.4641016151377544 88.5 L 13.856406460551018 94.5 M 56.29165124598851 119 L 64.9519052838329 124 M 79.67433714816835 132.5 L 94.39676901250381 141 M 96.99484522385713 142.5 L 102.19099764656376 145.5 M 77.07626093681503 132 L 75.34421012924616 131 M 58.88972745734183 121.5 L 55.42562584220407 119.5 M 47.63139720814412 115 L 43.30127018922193 112.5 M 33.77499074759311 107 L 31.17691453623979 105.5 M 19.918584287042087 99 L 12.990381056766578 95 M 12.990381056766578 96 L 19.918584287042087 100 M 43.30127018922193 113.5 L 47.63139720814412 116 M 88.33459118601273 139.5 L 92.66471820493493 142 M 95.26279441628824 143.5 L 100.45894683899488 146.5 M 100.45894683899488 147.5 L 95.26279441628824 144.5 M 91.7986928011505 142.5 L 88.33459118601273 140.5 M 85.73651497465941 139 L 73.61215932167728 132 M 57.157676649772945 122.5 L 55.42562584220407 121.5 M 32.042939940024226 108 L 31.17691453623979 107.5 M 20.784609690826528 101.5 L 11.258330249197702 96 M 31.17691453623979 108.5 L 32.042939940024226 109 M 55.42562584220407 122.5 L 56.29165124598851 123 M 72.74613391789285 132.5 L 84.87048957087498 139.5 M 86.60254037844386 140.5 L 90.93266739736605 143 M 93.53074360871936 144.5 L 99.59292143521044 148 M 94.39676901250381 146 L 91.7986928011505 144.5 M 7.794228634059947 96 L 6.928203230275509 95.5 M 72.74613391789285 134.5 L 89.20061658979718 144 M 94.39676901250381 147 L 96.12881982007268 148 M 95.26279441628824 148.5 L 93.53074360871936 147.5 M 92.66471820493493 147 L 72.74613391789285 135.5 M 64.9519052838329 131 L 61.48780366869514 129 M 45.89934640057525 120 L 43.30127018922193 118.5 M 21.650635094610966 106 L 20.784609690826528 105.5 M 13.856406460551018 101.5 L 3.4641016151377544 95.5 M 3.4641016151377544 96.5 L 13.856406460551018 102.5 M 27.712812921102035 110.5 L 28.578838324886473 111 M 49.363448015713 123 L 53.693575034635195 125.5 M 61.48780366869514 130 L 64.9519052838329 132 M 79.67433714816835 140.5 L 94.39676901250381 149 M 47.63139720814412 123 L 43.30127018922193 120.5 M 33.77499074759311 115 L 31.17691453623979 113.5 M 27.712812921102035 111.5 L 26.846787517317598 111 M 19.918584287042087 107 L 12.990381056766578 103 M 12.990381056766578 104 L 19.918584287042087 108 M 43.30127018922193 121.5 L 50.22947341949744 125.5 M 77.94228634059948 141.5 L 92.66471820493493 150 M 91.7986928011505 150.5 L 77.94228634059948 142.5 M 49.363448015713 126 L 45.033320996790806 123.5 M 32.042939940024226 116 L 31.17691453623979 115.5 M 20.784609690826528 109.5 L 11.258330249197702 104 M 31.17691453623979 116.5 L 32.042939940024226 117 M 76.2102355330306 142.5 L 90.93266739736605 151 M 93.53074360871936 152.5 L 99.59292143521044 156 M 31.17691453623979 117.5 L 30.31088913245535 117 M 7.794228634059947 104 L 6.928203230275509 103.5 M 72.74613391789285 142.5 L 89.20061658979718 152 M 91.7986928011505 153.5 L 96.12881982007268 156 M 95.26279441628824 156.5 L 90.93266739736605 154 M 90.06664199358161 153.5 L 72.74613391789285 143.5 M 64.9519052838329 139 L 56.29165124598851 134 M 49.363448015713 130 L 48.49742261192856 129.5 M 22.516660498395403 114.5 L 20.784609690826528 113.5 M 13.856406460551018 109.5 L 3.4641016151377544 103.5 M 3.4641016151377544 104.5 L 13.856406460551018 110.5 M 27.712812921102035 118.5 L 28.578838324886473 119 M 56.29165124598851 135 L 64.9519052838329 140 M 88.33459118601273 153.5 L 90.06664199358161 154.5 M 33.77499074759311 123 L 29.444863728670914 120.5 M 27.712812921102035 119.5 L 26.846787517317598 119 M 19.918584287042087 115 L 12.990381056766578 111 M 12.990381056766578 112 L 19.918584287042087 116 M 42.43524478543749 130 L 37.23909236273086 127 M 32.042939940024226 124 L 26.846787517317598 121 M 20.784609690826528 117.5 L 11.258330249197702 112 M 26.846787517317598 122 L 32.042939940024226 125 M 42.43524478543749 132 L 36.373066958946424 128.5 M 34.64101615137754 127.5 L 33.77499074759311 127 M 31.17691453623979 125.5 L 28.578838324886473 124 M 7.794228634059947 112 L 6.928203230275509 111.5 M 24.24871130596428 122.5 L 29.444863728670914 125.5 M 36.373066958946424 129.5 L 42.43524478543749 133 M 90.06664199358161 161.5 L 88.33459118601273 160.5 M 64.9519052838329 147 L 56.29165124598851 142 M 21.650635094610966 122 L 20.784609690826528 121.5 M 13.856406460551018 117.5 L 3.4641016151377544 111.5 M 3.4641016151377544 112.5 L 13.856406460551018 118.5 M 21.650635094610966 123 L 27.712812921102035 126.5 M 40.703193977868615 134 L 41.569219381653056 134.5 M 56.29165124598851 143 L 64.9519052838329 148 M 88.33459118601273 161.5 L 90.06664199358161 162.5 M 41.569219381653056 135.5 L 40.703193977868615 135 M 33.77499074759311 131 L 29.444863728670914 128.5 M 27.712812921102035 127.5 L 20.784609690826528 123.5 M 19.918584287042087 123 L 11.258330249197702 118 M 12.990381056766578 120 L 19.918584287042087 124 M 33.77499074759311 132 L 39.837168574084174 135.5 M 32.042939940024226 132 L 26.846787517317598 129 M 24.24871130596428 127.5 L 22.516660498395403 126.5 M 20.784609690826528 125.5 L 19.05255888325765 124.5 M 19.05255888325765 125.5 L 19.918584287042087 126 M 22.516660498395403 127.5 L 23.38268590217984 128 M 26.846787517317598 130 L 33.77499074759311 134 M 35.50704155516198 135 L 38.1051177665153 136.5 M 38.1051177665153 137.5 L 35.50704155516198 136 M 32.90896534380867 134.5 L 28.578838324886473 132 M 23.38268590217984 129 L 6.928203230275509 119.5 M 24.24871130596428 130.5 L 30.31088913245535 134 M 13.856406460551018 125.5 L 3.4641016151377544 119.5 M 3.4641016151377544 120.5 L 13.856406460551018 126.5 M 21.650635094610966 131 L 27.712812921102035 134.5 M 33.77499074759311 139 L 31.17691453623979 137.5 M 29.444863728670914 136.5 L 20.784609690826528 131.5 M 19.918584287042087 131 L 11.258330249197702 126 M 12.990381056766578 128 L 19.918584287042087 132 M 26.846787517317598 137 L 22.516660498395403 134.5 M 19.05255888325765 132.5 L 15.588457268119894 130.5 M 22.516660498395403 135.5 L 25.980762113533157 137.5 M 32.042939940024226 141 L 38.1051177665153 144.5 M 38.1051177665153 145.5 L 31.17691453623979 141.5 M 23.38268590217984 137 L 6.928203230275509 127.5 M 30.31088913245535 142 L 41.569219381653056 148.5 M 40.703193977868615 149 L 29.444863728670914 142.5 M 21.650635094610966 138 L 3.4641016151377544 127.5 M 3.4641016151377544 128.5 L 21.650635094610966 139 M 33.77499074759311 147 L 27.712812921102035 143.5 M 26.846787517317598 143 L 23.38268590217984 141 M 15.588457268119894 136.5 L 10.392304845413264 133.5 M 10.392304845413264 134.5 L 14.722431864335457 137 M 23.38268590217984 142 L 26.846787517317598 144 M 29.444863728670914 146.5 L 28.578838324886473 146 M 25.11473670974872 144 L 21.650635094610966 142 M 19.918584287042087 141 L 15.588457268119894 138.5 M 13.856406460551018 137.5 L 7.794228634059947 134 M 6.928203230275509 134.5 L 12.990381056766578 138 M 20.784609690826528 142.5 L 24.24871130596428 144.5 M 30.31088913245535 149 L 29.444863728670914 148.5 M 24.24871130596428 145.5 L 20.784609690826528 143.5 M 19.918584287042087 143 L 6.928203230275509 135.5 M 12.12435565298214 139.5 L 19.918584287042087 144 M 29.444863728670914 149.5 L 30.31088913245535 150 M 34.64101615137754 152.5 L 36.373066958946424 153.5 M 36.373066958946424 154.5 L 34.64101615137754 153.5 M 28.578838324886473 150 L 27.712812921102035 149.5 M 17.32050807568877 143.5 L 13.856406460551018 141.5 M 26.846787517317598 151 L 25.980762113533157 150.5 M 15.588457268119894 144.5 L 10.392304845413264 141.5 M 10.392304845413264 142.5 L 14.722431864335457 145 M 25.980762113533157 151.5 L 26.846787517317598 152 M 25.11473670974872 152 L 24.24871130596428 151.5 M 13.856406460551018 145.5 L 7.794228634059947 142 M 6.928203230275509 142.5 L 12.990381056766578 146 M 20.784609690826528 150.5 L 21.650635094610966 151 M 23.38268590217984 152 L 24.24871130596428 152.5 M 24.24871130596428 153.5 L 23.38268590217984 153 M 18.186533479473212 150 L 6.928203230275509 143.5 M 12.12435565298214 147.5 L 21.650635094610966 153 M 21.650635094610966 154 L 17.32050807568877 151.5 M 3.4641016151377544 39.5 L 3.4641016151377544 40.5 M 3.4641016151377544 47.5 L 3.4641016151377544 48.5 M 3.4641016151377544 55.5 L 3.4641016151377544 56.5 M 3.4641016151377544 63.5 L 3.4641016151377544 64.5 M 3.4641016151377544 71.5 L 3.4641016151377544 72.5 M 3.4641016151377544 79.5 L 3.4641016151377544 80.5 M 3.4641016151377544 87.5 L 3.4641016151377544 88.5 M 3.4641016151377544 95.5 L 3.4641016151377544 96.5 M 3.4641016151377544 103.5 L 3.4641016151377544 104.5 M 3.4641016151377544 111.5 L 3.4641016151377544 112.5 M 3.4641016151377544 119.5 L 3.4641016151377544 120.5 M 3.4641016151377544 127.5 L 3.4641016151377544 128.5 M 6.928203230275509 66.5 L 6.928203230275509 67.5 M 6.928203230275509 134.5 L 6.928203230275509 135.5 M 6.928203230275509 142.5 L 6.928203230275509 143.5 M 8.660254037844386 59.5 L 8.660254037844386 60.5 M 8.660254037844386 75.5 L 8.660254037844386 76.5 M 8.660254037844386 83.5 L 8.660254037844386 84.5 M 10.392304845413264 133.5 L 10.392304845413264 134.5 M 10.392304845413264 141.5 L 10.392304845413264 142.5 M 11.258330249197702 126 L 11.258330249197702 125 M 11.258330249197702 118 L 11.258330249197702 117 M 11.258330249197702 110 L 11.258330249197702 109 M 11.258330249197702 102 L 11.258330249197702 101 M 11.258330249197702 94 L 11.258330249197702 93 M 11.258330249197702 86 L 11.258330249197702 85 M 11.258330249197702 78 L 11.258330249197702 77 M 11.258330249197702 62 L 11.258330249197702 61 M 11.258330249197702 54 L 11.258330249197702 53 M 11.258330249197702 46 L 11.258330249197702 45 M 12.12435565298214 138.5 L 12.12435565298214 139.5 M 12.12435565298214 146.5 L 12.12435565298214 147.5 M 12.990381056766578 128 L 12.990381056766578 126 M 12.990381056766578 120 L 12.990381056766578 118 M 12.990381056766578 112 L 12.990381056766578 110 M 12.990381056766578 104 L 12.990381056766578 102 M 12.990381056766578 96 L 12.990381056766578 94 M 12.990381056766578 87 L 12.990381056766578 86 M 12.990381056766578 79 L 12.990381056766578 78 M 13.856406460551018 78.5 L 13.856406460551018 79.5 M 13.856406460551018 86.5 L 13.856406460551018 87.5 M 14.722431864335457 87 L 14.722431864335457 86 M 14.722431864335457 79 L 14.722431864335457 78 M 16.454482671904334 82 L 16.454482671904334 81 M 16.454482671904334 74 L 16.454482671904334 73 M 16.454482671904334 66 L 16.454482671904334 65 M 16.454482671904334 58 L 16.454482671904334 57 M 17.32050807568877 150.5 L 17.32050807568877 151.5 M 19.05255888325765 52.5 L 19.05255888325765 53.5 M 19.05255888325765 68.5 L 19.05255888325765 69.5 M 19.05255888325765 76.5 L 19.05255888325765 77.5 M 19.05255888325765 124.5 L 19.05255888325765 125.5 M 19.918584287042087 144 L 19.918584287042087 143 M 19.918584287042087 132 L 19.918584287042087 131 M 19.918584287042087 124 L 19.918584287042087 123 M 19.918584287042087 116 L 19.918584287042087 115 M 19.918584287042087 108 L 19.918584287042087 107 M 19.918584287042087 100 L 19.918584287042087 99 M 19.918584287042087 70 L 19.918584287042087 69 M 19.918584287042087 54 L 19.918584287042087 53 M 20.784609690826528 74.5 L 20.784609690826528 75.5 M 20.784609690826528 142.5 L 20.784609690826528 143.5 M 21.650635094610966 154 L 21.650635094610966 153 M 21.650635094610966 139 L 21.650635094610966 138 M 21.650635094610966 123 L 21.650635094610966 122 M 21.650635094610966 115 L 21.650635094610966 114 M 21.650635094610966 107 L 21.650635094610966 106 M 21.650635094610966 99 L 21.650635094610966 98 M 21.650635094610966 91 L 21.650635094610966 90 M 21.650635094610966 83 L 21.650635094610966 82 M 21.650635094610966 69 L 21.650635094610966 68 M 21.650635094610966 67 L 21.650635094610966 66 M 21.650635094610966 59 L 21.650635094610966 58 M 21.650635094610966 53 L 21.650635094610966 52 M 21.650635094610966 51 L 21.650635094610966 50 M 21.650635094610966 41 L 21.650635094610966 40 M 22.516660498395403 54.5 L 22.516660498395403 55.5 M 22.516660498395403 70.5 L 22.516660498395403 71.5 M 22.516660498395403 78.5 L 22.516660498395403 79.5 M 22.516660498395403 126.5 L 22.516660498395403 127.5 M 22.516660498395403 134.5 L 22.516660498395403 135.5 M 23.38268590217984 153 L 23.38268590217984 152 M 23.38268590217984 142 L 23.38268590217984 141 M 23.38268590217984 138 L 23.38268590217984 137 M 23.38268590217984 130 L 23.38268590217984 129 M 23.38268590217984 90 L 23.38268590217984 89 M 23.38268590217984 82 L 23.38268590217984 81 M 23.38268590217984 74 L 23.38268590217984 73 M 23.38268590217984 66 L 23.38268590217984 65 M 23.38268590217984 58 L 23.38268590217984 57 M 24.24871130596428 144.5 L 24.24871130596428 145.5 M 24.24871130596428 152.5 L 24.24871130596428 153.5 M 25.11473670974872 153 L 25.11473670974872 152 M 25.11473670974872 145 L 25.11473670974872 144 M 25.980762113533157 40.5 L 25.980762113533157 41.5 M 25.980762113533157 42.5 L 25.980762113533157 43.5 M 25.980762113533157 48.5 L 25.980762113533157 49.5 M 25.980762113533157 50.5 L 25.980762113533157 51.5 M 25.980762113533157 74.5 L 25.980762113533157 75.5 M 25.980762113533157 150.5 L 25.980762113533157 151.5 M 26.846787517317598 152 L 26.846787517317598 151 M 26.846787517317598 144 L 26.846787517317598 143 M 26.846787517317598 130 L 26.846787517317598 129 M 26.846787517317598 122 L 26.846787517317598 121 M 26.846787517317598 82 L 26.846787517317598 81 M 26.846787517317598 74 L 26.846787517317598 73 M 26.846787517317598 58 L 26.846787517317598 57 M 27.712812921102035 54.5 L 27.712812921102035 55.5 M 27.712812921102035 62.5 L 27.712812921102035 63.5 M 27.712812921102035 70.5 L 27.712812921102035 71.5 M 27.712812921102035 78.5 L 27.712812921102035 79.5 M 27.712812921102035 86.5 L 27.712812921102035 87.5 M 27.712812921102035 126.5 L 27.712812921102035 127.5 M 27.712812921102035 134.5 L 27.712812921102035 135.5 M 28.578838324886473 151 L 28.578838324886473 150 M 28.578838324886473 147 L 28.578838324886473 146 M 28.578838324886473 132 L 28.578838324886473 131 M 28.578838324886473 124 L 28.578838324886473 123 M 29.444863728670914 45.5 L 29.444863728670914 46.5 M 29.444863728670914 53.5 L 29.444863728670914 54.5 M 29.444863728670914 61.5 L 29.444863728670914 62.5 M 29.444863728670914 77.5 L 29.444863728670914 78.5 M 29.444863728670914 85.5 L 29.444863728670914 86.5 M 29.444863728670914 125.5 L 29.444863728670914 126.5 M 29.444863728670914 133.5 L 29.444863728670914 134.5 M 29.444863728670914 148.5 L 29.444863728670914 149.5 M 30.31088913245535 150 L 30.31088913245535 149 M 31.17691453623979 91.5 L 31.17691453623979 92.5 M 31.17691453623979 99.5 L 31.17691453623979 100.5 M 31.17691453623979 107.5 L 31.17691453623979 108.5 M 31.17691453623979 115.5 L 31.17691453623979 116.5 M 32.042939940024226 133 L 32.042939940024226 132 M 32.042939940024226 125 L 32.042939940024226 124 M 32.042939940024226 117 L 32.042939940024226 116 M 32.042939940024226 109 L 32.042939940024226 108 M 32.042939940024226 101 L 32.042939940024226 100 M 32.042939940024226 93 L 32.042939940024226 92 M 32.042939940024226 85 L 32.042939940024226 84 M 32.042939940024226 77 L 32.042939940024226 76 M 32.042939940024226 61 L 32.042939940024226 60 M 32.042939940024226 53 L 32.042939940024226 52 M 32.042939940024226 45 L 32.042939940024226 44 M 33.77499074759311 148 L 33.77499074759311 147 M 33.77499074759311 140 L 33.77499074759311 139 M 33.77499074759311 132 L 33.77499074759311 131 M 33.77499074759311 128 L 33.77499074759311 127 M 33.77499074759311 124 L 33.77499074759311 123 M 33.77499074759311 116 L 33.77499074759311 115 M 33.77499074759311 108 L 33.77499074759311 107 M 33.77499074759311 100 L 33.77499074759311 99 M 33.77499074759311 92 L 33.77499074759311 91 M 33.77499074759311 84 L 33.77499074759311 83 M 33.77499074759311 76 L 33.77499074759311 75 M 33.77499074759311 68 L 33.77499074759311 67 M 33.77499074759311 60 L 33.77499074759311 59 M 33.77499074759311 52 L 33.77499074759311 51 M 33.77499074759311 44 L 33.77499074759311 43 M 34.64101615137754 152.5 L 34.64101615137754 153.5 M 35.50704155516198 136 L 35.50704155516198 135 M 36.373066958946424 19.5 L 36.373066958946424 20.5 M 36.373066958946424 27.5 L 36.373066958946424 28.5 M 36.373066958946424 128.5 L 36.373066958946424 129.5 M 36.373066958946424 153.5 L 36.373066958946424 154.5 M 38.1051177665153 136.5 L 38.1051177665153 137.5 M 38.1051177665153 144.5 L 38.1051177665153 145.5 M 39.837168574084174 135.5 L 39.837168574084174 136.5 M 40.703193977868615 135 L 40.703193977868615 134 M 41.569219381653056 134.5 L 41.569219381653056 135.5 M 42.43524478543749 133 L 42.43524478543749 132 M 43.30127018922193 32.5 L 43.30127018922193 33.5 M 43.30127018922193 40.5 L 43.30127018922193 41.5 M 43.30127018922193 48.5 L 43.30127018922193 49.5 M 43.30127018922193 56.5 L 43.30127018922193 57.5 M 43.30127018922193 64.5 L 43.30127018922193 65.5 M 43.30127018922193 72.5 L 43.30127018922193 73.5 M 43.30127018922193 112.5 L 43.30127018922193 113.5 M 43.30127018922193 120.5 L 43.30127018922193 121.5 M 45.033320996790806 81.5 L 45.033320996790806 82.5 M 45.033320996790806 89.5 L 45.033320996790806 90.5 M 45.033320996790806 97.5 L 45.033320996790806 98.5 M 45.033320996790806 105.5 L 45.033320996790806 106.5 M 45.033320996790806 122.5 L 45.033320996790806 123.5 M 47.63139720814412 124 L 47.63139720814412 123 M 47.63139720814412 116 L 47.63139720814412 115 M 47.63139720814412 108 L 47.63139720814412 107 M 47.63139720814412 100 L 47.63139720814412 99 M 47.63139720814412 92 L 47.63139720814412 91 M 47.63139720814412 84 L 47.63139720814412 83 M 47.63139720814412 76 L 47.63139720814412 75 M 47.63139720814412 68 L 47.63139720814412 67 M 47.63139720814412 60 L 47.63139720814412 59 M 47.63139720814412 52 L 47.63139720814412 51 M 47.63139720814412 44 L 47.63139720814412 43 M 47.63139720814412 36 L 47.63139720814412 35 M 49.363448015713 131 L 49.363448015713 130 M 49.363448015713 99 L 49.363448015713 98 M 49.363448015713 91 L 49.363448015713 90 M 49.363448015713 83 L 49.363448015713 82 M 49.363448015713 75 L 49.363448015713 74 M 49.363448015713 67 L 49.363448015713 66 M 49.363448015713 59 L 49.363448015713 58 M 49.363448015713 43 L 49.363448015713 42 M 49.363448015713 35 L 49.363448015713 34 M 51.09549882328188 114 L 51.09549882328188 113 M 52.827549630850754 78 L 52.827549630850754 77 M 53.693575034635195 31.5 L 53.693575034635195 32.5 M 53.693575034635195 35.5 L 53.693575034635195 36.5 M 53.693575034635195 84.5 L 53.693575034635195 85.5 M 53.693575034635195 92.5 L 53.693575034635195 93.5 M 53.693575034635195 125.5 L 53.693575034635195 126.5 M 55.42562584220407 30.5 L 55.42562584220407 31.5 M 55.42562584220407 54.5 L 55.42562584220407 55.5 M 55.42562584220407 62.5 L 55.42562584220407 63.5 M 55.42562584220407 70.5 L 55.42562584220407 71.5 M 55.42562584220407 78.5 L 55.42562584220407 79.5 M 55.42562584220407 105.5 L 55.42562584220407 106.5 M 55.42562584220407 113.5 L 55.42562584220407 114.5 M 55.42562584220407 121.5 L 55.42562584220407 122.5 M 56.29165124598851 143 L 56.29165124598851 142 M 56.29165124598851 135 L 56.29165124598851 134 M 56.29165124598851 119 L 56.29165124598851 118 M 56.29165124598851 103 L 56.29165124598851 102 M 56.29165124598851 79 L 56.29165124598851 78 M 56.29165124598851 71 L 56.29165124598851 70 M 56.29165124598851 63 L 56.29165124598851 62 M 56.29165124598851 55 L 56.29165124598851 54 M 56.29165124598851 47 L 56.29165124598851 46 M 56.29165124598851 31 L 56.29165124598851 30 M 59.75575286112626 85 L 59.75575286112626 84 M 59.75575286112626 77 L 59.75575286112626 76 M 61.48780366869514 130 L 61.48780366869514 129 M 62.35382907247958 36.5 L 62.35382907247958 37.5 M 62.35382907247958 44.5 L 62.35382907247958 45.5 M 62.35382907247958 52.5 L 62.35382907247958 53.5 M 62.35382907247958 57.5 L 62.35382907247958 58.5 M 62.35382907247958 60.5 L 62.35382907247958 61.5 M 62.35382907247958 65.5 L 62.35382907247958 66.5 M 62.35382907247958 73.5 L 62.35382907247958 74.5 M 62.35382907247958 113.5 L 62.35382907247958 114.5 M 64.9519052838329 148 L 64.9519052838329 147 M 64.9519052838329 140 L 64.9519052838329 139 M 64.9519052838329 132 L 64.9519052838329 131 M 64.9519052838329 124 L 64.9519052838329 123 M 64.9519052838329 97 L 64.9519052838329 96 M 64.9519052838329 76 L 64.9519052838329 75 M 64.9519052838329 68 L 64.9519052838329 67 M 64.9519052838329 60 L 64.9519052838329 59 M 64.9519052838329 44 L 64.9519052838329 43 M 66.68395609140177 117 L 66.68395609140177 116 M 66.68395609140177 109 L 66.68395609140177 108 M 66.68395609140177 103 L 66.68395609140177 102 M 66.68395609140177 101 L 66.68395609140177 100 M 66.68395609140177 95 L 66.68395609140177 94 M 66.68395609140177 93 L 66.68395609140177 92 M 66.68395609140177 87 L 66.68395609140177 86 M 66.68395609140177 85 L 66.68395609140177 84 M 66.68395609140177 77 L 66.68395609140177 76 M 66.68395609140177 69 L 66.68395609140177 68 M 66.68395609140177 61 L 66.68395609140177 60 M 66.68395609140177 53 L 66.68395609140177 52 M 66.68395609140177 45 L 66.68395609140177 44 M 68.41600689897065 93 L 68.41600689897065 92 M 71.01408311032397 76.5 L 71.01408311032397 77.5 M 72.74613391789285 118.5 L 72.74613391789285 119.5 M 72.74613391789285 126.5 L 72.74613391789285 127.5 M 72.74613391789285 134.5 L 72.74613391789285 135.5 M 72.74613391789285 142.5 L 72.74613391789285 143.5 M 73.61215932167728 133 L 73.61215932167728 132 M 73.61215932167728 68 L 73.61215932167728 67 M 73.61215932167728 60 L 73.61215932167728 59 M 73.61215932167728 52 L 73.61215932167728 51 M 77.94228634059948 82.5 L 77.94228634059948 83.5 M 77.94228634059948 90.5 L 77.94228634059948 91.5 M 77.94228634059948 113.5 L 77.94228634059948 115.5 M 77.94228634059948 141.5 L 77.94228634059948 142.5 M 78.80831174438391 124 L 78.80831174438391 123 M 78.80831174438391 116 L 78.80831174438391 115 M 78.80831174438391 108 L 78.80831174438391 107 M 78.80831174438391 100 L 78.80831174438391 99 M 78.80831174438391 92 L 78.80831174438391 91 M 78.80831174438391 84 L 78.80831174438391 83 M 78.80831174438391 76 L 78.80831174438391 75 M 78.80831174438391 68 L 78.80831174438391 67 M 78.80831174438391 60 L 78.80831174438391 59 M 78.80831174438391 52 L 78.80831174438391 51 M 79.67433714816835 96.5 L 79.67433714816835 97.5 M 80.5403625519528 125 L 80.5403625519528 124 M 80.5403625519528 117 L 80.5403625519528 116 M 80.5403625519528 109 L 80.5403625519528 108 M 81.40638795573723 44.5 L 81.40638795573723 45.5 M 81.40638795573723 52.5 L 81.40638795573723 53.5 M 81.40638795573723 68.5 L 81.40638795573723 69.5 M 81.40638795573723 76.5 L 81.40638795573723 77.5 M 81.40638795573723 84.5 L 81.40638795573723 85.5 M 81.40638795573723 92.5 L 81.40638795573723 93.5 M 81.40638795573723 100.5 L 81.40638795573723 101.5 M 88.33459118601273 56.5 L 88.33459118601273 57.5 M 88.33459118601273 72.5 L 88.33459118601273 73.5 M 88.33459118601273 80.5 L 88.33459118601273 81.5 M 88.33459118601273 88.5 L 88.33459118601273 89.5 M 88.33459118601273 96.5 L 88.33459118601273 97.5 M 88.33459118601273 103.5 L 88.33459118601273 105.5 M 88.33459118601273 111.5 L 88.33459118601273 113.5 M 88.33459118601273 119.5 L 88.33459118601273 121.5 M 88.33459118601273 123.5 L 88.33459118601273 124.5 M 88.33459118601273 128.5 L 88.33459118601273 129.5 M 88.33459118601273 131.5 L 88.33459118601273 132.5 M 88.33459118601273 136.5 L 88.33459118601273 137.5 M 88.33459118601273 139.5 L 88.33459118601273 140.5 M 88.33459118601273 144.5 L 88.33459118601273 145.5 M 88.33459118601273 152.5 L 88.33459118601273 153.5 M 88.33459118601273 160.5 L 88.33459118601273 161.5 M 89.20061658979718 49 L 89.20061658979718 48 M 90.06664199358161 57.5 L 90.06664199358161 58.5 M 90.06664199358161 97.5 L 90.06664199358161 98.5 M 90.06664199358161 105.5 L 90.06664199358161 106.5 M 90.06664199358161 113.5 L 90.06664199358161 114.5 M 90.06664199358161 121.5 L 90.06664199358161 122.5 M 90.06664199358161 129.5 L 90.06664199358161 130.5 M 90.06664199358161 137.5 L 90.06664199358161 138.5 M 90.06664199358161 153.5 L 90.06664199358161 154.5 M 90.06664199358161 161.5 L 90.06664199358161 162.5 M 91.7986928011505 66.5 L 91.7986928011505 67.5 M 91.7986928011505 74.5 L 91.7986928011505 75.5 M 91.7986928011505 82.5 L 91.7986928011505 83.5 M 91.7986928011505 90.5 L 91.7986928011505 91.5 M 92.66471820493493 148 L 92.66471820493493 147 M 93.53074360871936 45.5 L 93.53074360871936 46.5 M 94.39676901250381 147 L 94.39676901250381 146 M 95.26279441628824 111.5 L 95.26279441628824 112.5 M 95.26279441628824 119.5 L 95.26279441628824 120.5 M 95.26279441628824 127.5 L 95.26279441628824 128.5 M 95.26279441628824 135.5 L 95.26279441628824 136.5 M 95.26279441628824 143.5 L 95.26279441628824 144.5 M 96.99484522385713 150.5 L 96.99484522385713 151.5 M 97.86087062764156 119 L 97.86087062764156 118 M 97.86087062764156 111 L 97.86087062764156 110 M 97.86087062764156 47 L 97.86087062764156 46 M 97.86087062764156 44 L 97.86087062764156 42 M 97.86087062764156 36 L 97.86087062764156 34 M 98.726896031426 113.5 L 98.726896031426 114.5 M 99.59292143521044 157 L 99.59292143521044 156 M 99.59292143521044 149 L 99.59292143521044 148 M 99.59292143521044 53 L 99.59292143521044 52 M 100.45894683899488 64.5 L 100.45894683899488 65.5 M 100.45894683899488 67.5 L 100.45894683899488 68.5 M 100.45894683899488 69.5 L 100.45894683899488 70.5 M 100.45894683899488 72.5 L 100.45894683899488 73.5 M 100.45894683899488 75.5 L 100.45894683899488 76.5 M 100.45894683899488 77.5 L 100.45894683899488 78.5 M 100.45894683899488 80.5 L 100.45894683899488 81.5 M 100.45894683899488 83.5 L 100.45894683899488 84.5 M 100.45894683899488 85.5 L 100.45894683899488 86.5 M 100.45894683899488 91.5 L 100.45894683899488 92.5 M 100.45894683899488 99.5 L 100.45894683899488 100.5 M 100.45894683899488 107.5 L 100.45894683899488 108.5 M 100.45894683899488 114.5 L 100.45894683899488 116.5 M 100.45894683899488 122.5 L 100.45894683899488 124.5 M 100.45894683899488 130.5 L 100.45894683899488 132.5 M 100.45894683899488 138.5 L 100.45894683899488 140.5 M 100.45894683899488 146.5 L 100.45894683899488 147.5 M 102.19099764656376 106.5 L 102.19099764656376 107.5 M 102.19099764656376 113.5 L 102.19099764656376 115.5 M 102.19099764656376 121.5 L 102.19099764656376 122.5 M 102.19099764656376 129.5 L 102.19099764656376 130.5 M 102.19099764656376 137.5 L 102.19099764656376 138.5 M 102.19099764656376 145.5 L 102.19099764656376 146.5 M 106.52112466548594 102 L 106.52112466548594 101 M 106.52112466548594 94 L 106.52112466548594 93 M 106.52112466548594 86 L 106.52112466548594 85 M 110.85125168440814 55.5 L 110.85125168440814 56.5 " /></g></svg>