<svg viewBox="-9.600000000000001 -9.600000000000001 76.35767664977294 115.2" xmlns="http://www.w3.org/2000/svg"><path transform="scale(0.8660254037844386 0.5)" stroke="black" stroke-width="0.3" d="M 32 1 L 33 0 M 31 2 L 32 1 M 30 3 L 31 2 M 29 4 L 30 3 M 25 8 L 26 7 M 24 9 L 25 8 M 23 10 L 24 9 M 22 11 L 23 10 M 21 12 L 22 11 M 43 12 L 44 11 M 20 13 L 21 12 M 42 13 L 43 12 M 19 14 L 20 13 M 41 14 L 42 13 M 18 15 L 19 14 M 40 15 L 41 14 M 46 15 L 47 14 M 17 16 L 18 15 M 33 16 L 34 15 M 45 16 L 46 15 M 16 17 L 17 16 M 32 17 L 33 16 M 44 17 L 45 16 M 15 18 L 16 17 M 31 18 L 32 17 M 33 18 L 34 17 M 43 18 L 44 17 M 14 19 L 15 18 M 30 19 L 31 18 M 32 19 L 33 18 M 13 20 L 14 19 M 29 20 L 30 19 M 31 20 L 32 19 M 41 20 L 42 19 M 12 21 L 13 20 M 28 21 L 29 20 M 30 21 L 31 20 M 40 21 L 41 20 M 42 21 L 43 20 M 11 22 L 12 21 M 27 22 L 28 21 M 29 22 L 30 21 M 10 23 L 11 22 M 26 23 L 27 22 M 28 23 L 29 22 M 9 24 L 10 23 M 25 24 L 26 23 M 27 24 L 28 23 M 8 25 L 9 24 M 24 25 L 25 24 M 26 25 L 27 24 M 7 26 L 8 25 M 23 26 L 24 25 M 25 26 L 26 25 M 6 27 L 7 26 M 22 27 L 23 26 M 24 27 L 25 26 M 5 28 L 6 27 M 21 28 L 22 27 M 23 28 L 24 27 M 4 29 L 5 28 M 20 29 L 21 28 M 22 29 L 23 28 M 3 30 L 4 29 M 19 30 L 20 29 M 2 31 L 3 30 M 18 31 L 19 30 M 48 31 L 49 30 M 1 32 L 2 31 M 17 32 L 18 31 M 21 32 L 22 31 M 47 32 L 48 31 M 20 33 L 21 32 M 46 33 L 47 32 M 64 33 L 65 32 M 19 34 L 20 33 M 45 34 L 46 33 M 63 34 L 64 33 M 44 35 L 45 34 M 62 35 L 63 34 M 19 36 L 20 35 M 43 36 L 44 35 M 61 36 L 62 35 M 40 37 L 41 36 M 42 37 L 43 36 M 39 38 L 40 37 M 20 39 L 21 38 M 38 39 L 39 38 M 19 40 L 20 39 M 37 40 L 38 39 M 57 40 L 58 39 M 18 41 L 19 40 M 20 41 L 21 40 M 36 41 L 37 40 M 56 41 L 57 40 M 17 42 L 18 41 M 19 42 L 20 41 M 35 42 L 36 41 M 55 42 L 56 41 M 57 42 L 58 41 M 16 43 L 17 42 M 18 43 L 19 42 M 34 43 L 35 42 M 54 43 L 55 42 M 56 43 L 57 42 M 17 44 L 18 43 M 33 44 L 34 43 M 53 44 L 54 43 M 55 44 L 56 43 M 26 45 L 27 44 M 32 45 L 33 44 M 52 45 L 53 44 M 54 45 L 55 44 M 9 46 L 10 45 M 25 46 L 26 45 M 31 46 L 32 45 M 51 46 L 52 45 M 53 46 L 54 45 M 8 47 L 9 46 M 24 47 L 25 46 M 30 47 L 31 46 M 50 47 L 51 46 M 52 47 L 53 46 M 7 48 L 8 47 M 23 48 L 24 47 M 31 48 L 32 47 M 33 48 L 34 47 M 49 48 L 50 47 M 51 48 L 52 47 M 22 49 L 23 48 M 32 49 L 33 48 M 48 49 L 49 48 M 50 49 L 51 48 M 47 50 L 48 49 M 49 50 L 50 49 M 46 51 L 47 50 M 48 51 L 49 50 M 45 52 L 46 51 M 47 52 L 48 51 M 44 53 L 45 52 M 43 54 L 44 53 M 42 55 L 43 54 M 41 56 L 42 55 M 6 57 L 7 56 M 40 57 L 41 56 M 39 58 L 40 57 M 38 59 L 39 58 M 37 60 L 38 59 M 36 61 L 37 60 M 35 62 L 36 61 M 14 63 L 15 62 M 34 63 L 35 62 M 13 64 L 14 63 M 15 64 L 16 63 M 33 64 L 34 63 M 47 64 L 48 63 M 55 64 L 56 63 M 14 65 L 15 64 M 48 65 L 49 64 M 5 66 L 6 65 M 4 67 L 5 66 M 15 70 L 16 69 M 14 71 L 15 70 M 55 72 L 56 71 M 55 76 L 56 75 M 47 80 L 48 79 M 46 81 L 47 80 M 45 82 L 46 81 M 59 82 L 60 81 M 44 83 L 45 82 M 46 83 L 47 82 M 43 84 L 44 83 M 47 84 L 48 83 M 42 85 L 43 84 M 48 85 L 49 84 M 51 88 L 52 87 M 54 91 L 55 90 M 41 94 L 42 93 M 3 96 L 4 95 M 35 98 L 36 97 M 61 98 L 62 97 M 34 99 L 35 98 M 3 102 L 4 101 M 47 102 L 48 101 M 60 103 L 61 102 M 61 104 L 62 103 M 51 106 L 52 105 M 40 109 L 41 108 M 39 110 L 40 109 M 34 111 L 35 110 M 38 111 L 39 110 M 5 112 L 6 111 M 35 112 L 36 111 M 37 112 L 38 111 M 34 113 L 35 112 M 36 113 L 37 112 M 35 114 L 36 113 M 34 115 L 35 114 M 5 116 L 6 115 M 27 118 L 28 117 M 20 121 L 21 120 M 34 121 L 35 120 M 64 121 L 65 120 M 19 122 L 20 121 M 21 122 L 22 121 M 25 122 L 26 121 M 39 122 L 40 121 M 43 122 L 44 121 M 63 122 L 64 121 M 4 123 L 5 122 M 18 123 L 19 122 M 20 123 L 21 122 M 24 123 L 25 122 M 34 123 L 35 122 M 38 123 L 39 122 M 40 123 L 41 122 M 62 123 L 63 122 M 5 124 L 6 123 M 17 124 L 18 123 M 19 124 L 20 123 M 23 124 L 24 123 M 25 124 L 26 123 M 39 124 L 40 123 M 61 124 L 62 123 M 16 125 L 17 124 M 18 125 L 19 124 M 22 125 L 23 124 M 26 125 L 27 124 M 42 125 L 43 124 M 15 126 L 16 125 M 21 126 L 22 125 M 37 126 L 38 125 M 10 127 L 11 126 M 14 127 L 15 126 M 18 127 L 19 126 M 20 127 L 21 126 M 22 127 L 23 126 M 24 127 L 25 126 M 9 128 L 10 127 M 11 128 L 12 127 M 13 128 L 14 127 M 17 128 L 18 127 M 19 128 L 20 127 M 21 128 L 22 127 M 23 128 L 24 127 M 8 129 L 9 128 M 10 129 L 11 128 M 12 129 L 13 128 M 16 129 L 17 128 M 20 129 L 21 128 M 9 130 L 10 129 M 11 130 L 12 129 M 15 130 L 16 129 M 19 130 L 20 129 M 37 130 L 38 129 M 10 131 L 11 130 M 12 131 L 13 130 M 14 131 L 15 130 M 36 131 L 37 130 M 38 131 L 39 130 M 9 132 L 10 131 M 11 132 L 12 131 M 13 132 L 14 131 M 35 132 L 36 131 M 37 132 L 38 131 M 10 133 L 11 132 M 34 133 L 35 132 M 36 133 L 37 132 M 54 133 L 55 132 M 5 134 L 6 133 M 35 134 L 36 133 M 34 135 L 35 134 M 41 136 L 42 135 M 43 136 L 44 135 M 53 136 L 54 135 M 24 137 L 25 136 M 40 137 L 41 136 M 42 137 L 43 136 M 23 138 L 24 137 M 25 138 L 26 137 M 41 138 L 42 137 M 57 138 L 58 137 M 22 139 L 23 138 M 24 139 L 25 138 M 26 139 L 27 138 M 40 139 L 41 138 M 3 140 L 4 139 M 21 140 L 22 139 M 23 140 L 24 139 M 25 140 L 26 139 M 2 141 L 3 140 M 4 141 L 5 140 M 20 141 L 21 140 M 22 141 L 23 140 M 24 141 L 25 140 M 52 141 L 53 140 M 3 142 L 4 141 M 19 142 L 20 141 M 21 142 L 22 141 M 23 142 L 24 141 M 18 143 L 19 142 M 20 143 L 21 142 M 22 143 L 23 142 M 64 143 L 65 142 M 17 144 L 18 143 M 19 144 L 20 143 M 21 144 L 22 143 M 41 144 L 42 143 M 51 144 L 52 143 M 61 144 L 62 143 M 63 144 L 64 143 M 16 145 L 17 144 M 18 145 L 19 144 M 20 145 L 21 144 M 40 145 L 41 144 M 50 145 L 51 144 M 54 145 L 55 144 M 60 145 L 61 144 M 62 145 L 63 144 M 7 146 L 8 145 M 15 146 L 16 145 M 17 146 L 18 145 M 19 146 L 20 145 M 39 146 L 40 145 M 61 146 L 62 145 M 4 147 L 5 146 M 6 147 L 7 146 M 14 147 L 15 146 M 18 147 L 19 146 M 20 147 L 21 146 M 3 148 L 4 147 M 13 148 L 14 147 M 19 148 L 20 147 M 12 149 L 13 148 M 16 149 L 17 148 M 46 149 L 47 148 M 11 150 L 12 149 M 15 150 L 16 149 M 10 151 L 11 150 M 12 151 L 13 150 M 16 151 L 17 150 M 50 151 L 51 150 M 9 152 L 10 151 M 11 152 L 12 151 M 15 152 L 16 151 M 17 152 L 18 151 M 45 152 L 46 151 M 10 153 L 11 152 M 16 153 L 17 152 M 44 153 L 45 152 M 52 153 L 53 152 M 17 154 L 18 153 M 43 154 L 44 153 M 42 155 L 43 154 M 56 155 L 57 154 M 41 156 L 42 155 M 55 156 L 56 155 M 57 156 L 58 155 M 40 157 L 41 156 M 54 157 L 55 156 M 56 157 L 57 156 M 39 158 L 40 157 M 53 158 L 54 157 M 55 158 L 56 157 M 52 159 L 53 158 M 54 159 L 55 158 M 45 160 L 46 159 M 51 160 L 52 159 M 53 160 L 54 159 M 40 161 L 41 160 M 44 161 L 45 160 M 46 161 L 47 160 M 50 161 L 51 160 M 52 161 L 53 160 M 64 161 L 65 160 M 39 162 L 40 161 M 41 162 L 42 161 M 43 162 L 44 161 M 45 162 L 46 161 M 49 162 L 50 161 M 51 162 L 52 161 M 63 162 L 64 161 M 40 163 L 41 162 M 42 163 L 43 162 M 44 163 L 45 162 M 48 163 L 49 162 M 50 163 L 51 162 M 60 163 L 61 162 M 62 163 L 63 162 M 39 164 L 40 163 M 43 164 L 44 163 M 49 164 L 50 163 M 59 164 L 60 163 M 61 164 L 62 163 M 42 165 L 43 164 M 48 165 L 49 164 M 58 165 L 59 164 M 60 165 L 61 164 M 47 166 L 48 165 M 59 166 L 60 165 M 58 167 L 59 166 M 57 168 L 58 167 M 56 169 L 57 168 M 55 170 L 56 169 M 54 171 L 55 170 M 53 172 L 54 171 M 52 173 L 53 172 M 51 174 L 52 173 M 50 175 L 51 174 M 49 176 L 50 175 M 48 177 L 49 176 M 47 178 L 48 177 M 46 179 L 47 178 M 45 180 L 46 179 M 44 181 L 45 180 M 43 182 L 44 181 M 42 183 L 43 182 M 41 184 L 42 183 M 40 185 L 41 184 M 39 186 L 40 185 M 38 187 L 39 186 M 37 188 L 38 187 M 36 189 L 37 188 M 35 190 L 36 189 M 34 191 L 35 190 M 33 192 L 34 191 M 33 0 L 34 1 M 34 1 L 35 2 M 35 2 L 36 3 M 36 3 L 37 4 M 29 4 L 30 5 M 37 4 L 38 5 M 30 5 L 31 6 M 38 5 L 39 6 M 31 6 L 32 7 M 39 6 L 40 7 M 26 7 L 27 8 M 32 7 L 33 8 M 40 7 L 41 8 M 27 8 L 28 9 M 33 8 L 34 9 M 41 8 L 42 9 M 28 9 L 29 10 M 34 9 L 35 10 M 42 9 L 43 10 M 29 10 L 30 11 M 35 10 L 36 11 M 43 10 L 44 11 M 30 11 L 31 12 M 36 11 L 37 12 M 31 12 L 32 13 M 37 12 L 38 13 M 32 13 L 33 14 M 38 13 L 39 14 M 33 14 L 34 15 M 39 14 L 40 15 M 47 14 L 48 15 M 34 15 L 35 16 M 48 15 L 49 16 M 35 16 L 36 17 M 49 16 L 50 17 M 36 17 L 37 18 M 50 17 L 51 18 M 37 18 L 38 19 M 43 18 L 44 19 M 51 18 L 52 19 M 38 19 L 39 20 M 44 19 L 45 20 M 52 19 L 53 20 M 39 20 L 40 21 M 41 20 L 42 21 M 45 20 L 46 21 M 53 20 L 54 21 M 46 21 L 47 22 M 54 21 L 55 22 M 43 22 L 44 23 M 47 22 L 48 23 M 55 22 L 56 23 M 44 23 L 45 24 M 48 23 L 49 24 M 56 23 L 57 24 M 45 24 L 46 25 M 49 24 L 50 25 M 57 24 L 58 25 M 46 25 L 47 26 M 50 25 L 51 26 M 58 25 L 59 26 M 51 26 L 52 27 M 59 26 L 60 27 M 52 27 L 53 28 M 60 27 L 61 28 M 53 28 L 54 29 M 61 28 L 62 29 M 54 29 L 55 30 M 62 29 L 63 30 M 47 30 L 48 31 M 49 30 L 50 31 M 55 30 L 56 31 M 63 30 L 64 31 M 50 31 L 51 32 M 56 31 L 57 32 M 64 31 L 65 32 M 1 32 L 2 33 M 17 32 L 18 33 M 51 32 L 52 33 M 57 32 L 58 33 M 2 33 L 3 34 M 18 33 L 19 34 M 52 33 L 53 34 M 58 33 L 59 34 M 3 34 L 4 35 M 19 34 L 20 35 M 53 34 L 54 35 M 59 34 L 60 35 M 4 35 L 5 36 M 54 35 L 55 36 M 60 35 L 61 36 M 5 36 L 6 37 M 19 36 L 20 37 M 41 36 L 42 37 M 55 36 L 56 37 M 6 37 L 7 38 M 20 37 L 21 38 M 56 37 L 57 38 M 7 38 L 8 39 M 57 38 L 58 39 M 4 39 L 5 40 M 8 39 L 9 40 M 5 40 L 6 41 M 9 40 L 10 41 M 6 41 L 7 42 M 10 41 L 11 42 M 58 41 L 59 42 M 7 42 L 8 43 M 11 42 L 12 43 M 8 43 L 9 44 M 12 43 L 13 44 M 16 43 L 17 44 M 9 44 L 10 45 M 13 44 L 14 45 M 17 44 L 18 45 M 27 44 L 28 45 M 10 45 L 11 46 M 14 45 L 15 46 M 18 45 L 19 46 M 28 45 L 29 46 M 32 45 L 33 46 M 11 46 L 12 47 M 15 46 L 16 47 M 19 46 L 20 47 M 29 46 L 30 47 M 33 46 L 34 47 M 12 47 L 13 48 M 16 47 L 17 48 M 20 47 L 21 48 M 30 47 L 31 48 M 13 48 L 14 49 M 17 48 L 18 49 M 21 48 L 22 49 M 31 48 L 32 49 M 14 49 L 15 50 M 18 49 L 19 50 M 15 50 L 16 51 M 19 50 L 20 51 M 16 51 L 17 52 M 20 51 L 21 52 M 17 52 L 18 53 M 21 52 L 22 53 M 18 53 L 19 54 M 22 53 L 23 54 M 19 54 L 20 55 M 23 54 L 24 55 M 20 55 L 21 56 M 24 55 L 25 56 M 21 56 L 22 57 M 25 56 L 26 57 M 22 57 L 23 58 M 26 57 L 27 58 M 23 58 L 24 59 M 27 58 L 28 59 M 24 59 L 25 60 M 28 59 L 29 60 M 25 60 L 26 61 M 29 60 L 30 61 M 26 61 L 27 62 M 30 61 L 31 62 M 52 61 L 53 62 M 15 62 L 16 63 M 27 62 L 28 63 M 31 62 L 32 63 M 47 62 L 48 63 M 53 62 L 54 63 M 32 63 L 33 64 M 54 63 L 55 64 M 13 64 L 14 65 M 49 64 L 50 65 M 2 65 L 3 66 M 48 65 L 49 66 M 50 65 L 51 66 M 3 66 L 4 67 M 49 66 L 50 67 M 51 66 L 52 67 M 59 66 L 60 67 M 50 67 L 51 68 M 52 67 L 53 68 M 51 68 L 52 69 M 53 68 L 54 69 M 52 69 L 53 70 M 54 69 L 55 70 M 13 70 L 14 71 M 53 70 L 54 71 M 55 70 L 56 71 M 54 71 L 55 72 M 56 75 L 57 76 M 55 76 L 56 77 M 57 76 L 58 77 M 56 77 L 57 78 M 58 77 L 59 78 M 57 78 L 58 79 M 59 78 L 60 79 M 58 79 L 59 80 M 59 80 L 60 81 M 48 81 L 49 82 M 47 82 L 48 83 M 49 82 L 50 83 M 59 82 L 60 83 M 46 83 L 47 84 M 50 83 L 51 84 M 49 84 L 50 85 M 51 84 L 52 85 M 48 85 L 49 86 M 50 85 L 51 86 M 52 85 L 53 86 M 49 86 L 50 87 M 51 86 L 52 87 M 53 86 L 54 87 M 50 87 L 51 88 M 54 87 L 55 88 M 55 88 L 56 89 M 56 89 L 57 90 M 55 90 L 56 91 M 54 91 L 55 92 M 56 91 L 57 92 M 55 92 L 56 93 M 56 93 L 57 94 M 60 97 L 61 98 M 3 100 L 4 101 M 34 101 L 35 102 M 46 101 L 47 102 M 61 102 L 62 103 M 48 103 L 49 104 M 60 103 L 61 104 M 49 104 L 50 105 M 50 105 L 51 106 M 4 109 L 5 110 M 5 110 L 6 111 M 35 110 L 36 111 M 4 111 L 5 112 M 54 111 L 55 112 M 55 112 L 56 113 M 36 113 L 37 114 M 56 113 L 57 114 M 35 114 L 36 115 M 37 114 L 38 115 M 57 114 L 58 115 M 4 115 L 5 116 M 34 115 L 35 116 M 36 115 L 37 116 M 38 115 L 39 116 M 58 115 L 59 116 M 35 116 L 36 117 M 37 116 L 38 117 M 39 116 L 40 117 M 36 117 L 37 118 M 38 117 L 39 118 M 40 117 L 41 118 M 27 118 L 28 119 M 37 118 L 38 119 M 39 118 L 40 119 M 41 118 L 42 119 M 59 118 L 60 119 M 38 119 L 39 120 M 40 119 L 41 120 M 42 119 L 43 120 M 21 120 L 22 121 M 35 120 L 36 121 M 39 120 L 40 121 M 41 120 L 42 121 M 43 120 L 44 121 M 26 121 L 27 122 M 36 121 L 37 122 M 42 121 L 43 122 M 5 122 L 6 123 M 35 122 L 36 123 M 37 122 L 38 123 M 41 122 L 42 123 M 4 123 L 5 124 M 26 123 L 27 124 M 34 123 L 35 124 M 36 123 L 37 124 M 40 123 L 41 124 M 42 123 L 43 124 M 60 123 L 61 124 M 25 124 L 26 125 M 35 124 L 36 125 M 37 124 L 38 125 M 39 124 L 40 125 M 41 124 L 42 125 M 18 125 L 19 126 M 22 125 L 23 126 M 36 125 L 37 126 M 11 126 L 12 127 M 8 129 L 9 130 M 12 129 L 13 130 M 38 129 L 39 130 M 9 132 L 10 133 M 39 132 L 40 133 M 55 132 L 56 133 M 4 133 L 5 134 M 40 133 L 41 134 M 54 133 L 55 134 M 56 133 L 57 134 M 41 134 L 42 135 M 55 134 L 56 135 M 57 134 L 58 135 M 44 135 L 45 136 M 54 135 L 55 136 M 56 135 L 57 136 M 58 135 L 59 136 M 25 136 L 26 137 M 39 136 L 40 137 M 45 136 L 46 137 M 53 136 L 54 137 M 55 136 L 56 137 M 57 136 L 58 137 M 59 136 L 60 137 M 46 137 L 47 138 M 54 137 L 55 138 M 56 137 L 57 138 M 60 137 L 61 138 M 47 138 L 48 139 M 55 138 L 56 139 M 57 138 L 58 139 M 61 138 L 62 139 M 4 139 L 5 140 M 40 139 L 41 140 M 48 139 L 49 140 M 56 139 L 57 140 M 58 139 L 59 140 M 62 139 L 63 140 M 41 140 L 42 141 M 49 140 L 50 141 M 53 140 L 54 141 M 59 140 L 60 141 M 63 140 L 64 141 M 2 141 L 3 142 M 42 141 L 43 142 M 50 141 L 51 142 M 52 141 L 53 142 M 54 141 L 55 142 M 60 141 L 61 142 M 64 141 L 65 142 M 39 142 L 40 143 M 43 142 L 44 143 M 51 142 L 52 143 M 53 142 L 54 143 M 55 142 L 56 143 M 61 142 L 62 143 M 40 143 L 41 144 M 42 143 L 43 144 M 44 143 L 45 144 M 54 143 L 55 144 M 56 143 L 57 144 M 43 144 L 44 145 M 45 144 L 46 145 M 57 144 L 58 145 M 8 145 L 9 146 M 44 145 L 45 146 M 46 145 L 47 146 M 50 145 L 51 146 M 52 145 L 53 146 M 54 145 L 55 146 M 58 145 L 59 146 M 60 145 L 61 146 M 5 146 L 6 147 M 9 146 L 10 147 M 17 146 L 18 147 M 21 146 L 22 147 M 45 146 L 46 147 M 47 146 L 48 147 M 51 146 L 52 147 M 53 146 L 54 147 M 55 146 L 56 147 M 59 146 L 60 147 M 6 147 L 7 148 M 10 147 L 11 148 M 18 147 L 19 148 M 20 147 L 21 148 M 22 147 L 23 148 M 46 147 L 47 148 M 48 147 L 49 148 M 52 147 L 53 148 M 56 147 L 57 148 M 3 148 L 4 149 M 7 148 L 8 149 M 11 148 L 12 149 M 17 148 L 18 149 M 19 148 L 20 149 M 21 148 L 22 149 M 23 148 L 24 149 M 47 148 L 48 149 M 49 148 L 50 149 M 53 148 L 54 149 M 57 148 L 58 149 M 4 149 L 5 150 M 8 149 L 9 150 M 18 149 L 19 150 M 22 149 L 23 150 M 24 149 L 25 150 M 46 149 L 47 150 M 48 149 L 49 150 M 58 149 L 59 150 M 5 150 L 6 151 M 9 150 L 10 151 M 13 150 L 14 151 M 15 150 L 16 151 M 17 150 L 18 151 M 23 150 L 24 151 M 25 150 L 26 151 M 47 150 L 48 151 M 49 150 L 50 151 M 51 150 L 52 151 M 59 150 L 60 151 M 6 151 L 7 152 M 12 151 L 13 152 M 14 151 L 15 152 M 18 151 L 19 152 M 24 151 L 25 152 M 26 151 L 27 152 M 48 151 L 49 152 M 50 151 L 51 152 M 52 151 L 53 152 M 7 152 L 8 153 M 9 152 L 10 153 M 13 152 L 14 153 M 15 152 L 16 153 M 19 152 L 20 153 M 25 152 L 26 153 M 49 152 L 50 153 M 51 152 L 52 153 M 8 153 L 9 154 M 10 153 L 11 154 M 14 153 L 15 154 M 16 153 L 17 154 M 18 153 L 19 154 M 26 153 L 27 154 M 46 153 L 47 154 M 9 154 L 10 155 M 11 154 L 12 155 M 15 154 L 16 155 M 17 154 L 18 155 M 19 154 L 20 155 M 47 154 L 48 155 M 53 154 L 54 155 M 57 154 L 58 155 M 10 155 L 11 156 M 16 155 L 17 156 M 18 155 L 19 156 M 48 155 L 49 156 M 54 155 L 55 156 M 11 156 L 12 157 M 17 156 L 18 157 M 19 156 L 20 157 M 49 156 L 50 157 M 18 157 L 19 158 M 50 157 L 51 158 M 19 158 L 20 159 M 51 158 L 52 159 M 46 159 L 47 160 M 58 159 L 59 160 M 1 160 L 2 161 M 41 160 L 42 161 M 59 160 L 60 161 M 2 161 L 3 162 M 60 161 L 61 162 M 3 162 L 4 163 M 47 162 L 48 163 M 4 163 L 5 164 M 5 164 L 6 165 M 6 165 L 7 166 M 7 166 L 8 167 M 8 167 L 9 168 M 9 168 L 10 169 M 10 169 L 11 170 M 11 170 L 12 171 M 12 171 L 13 172 M 13 172 L 14 173 M 14 173 L 15 174 M 15 174 L 16 175 M 16 175 L 17 176 M 17 176 L 18 177 M 18 177 L 19 178 M 19 178 L 20 179 M 20 179 L 21 180 M 21 180 L 22 181 M 22 181 L 23 182 M 23 182 L 24 183 M 24 183 L 25 184 M 25 184 L 26 185 M 26 185 L 27 186 M 27 186 L 28 187 M 28 187 L 29 188 M 29 188 L 30 189 M 30 189 L 31 190 M 31 190 L 32 191 M 32 191 L 33 192 M 29 4 L 29 6 M 29 6 L 29 8 M 29 8 L 29 10 M 44 11 L 44 13 M 44 13 L 44 15 M 34 15 L 34 17 M 40 15 L 40 17 M 44 15 L 44 17 M 40 17 L 40 19 M 43 18 L 43 20 M 40 19 L 40 21 M 42 19 L 42 21 M 43 20 L 43 22 M 47 26 L 47 28 M 47 28 L 47 30 M 22 29 L 22 31 M 1 32 L 1 34 M 65 32 L 65 34 M 1 34 L 1 36 M 65 34 L 65 36 M 20 35 L 20 37 M 1 36 L 1 38 M 61 36 L 61 38 M 65 36 L 65 38 M 1 38 L 1 40 M 21 38 L 21 40 M 61 38 L 61 40 M 65 38 L 65 40 M 4 39 L 4 41 M 58 39 L 58 41 M 1 40 L 1 42 M 61 40 L 61 42 M 65 40 L 65 42 M 4 41 L 4 43 M 1 42 L 1 44 M 59 42 L 59 44 M 61 42 L 61 44 M 65 42 L 65 44 M 4 43 L 4 45 M 56 43 L 56 45 M 1 44 L 1 46 M 55 44 L 55 46 M 59 44 L 59 46 M 61 44 L 61 46 M 65 44 L 65 46 M 4 45 L 4 47 M 32 45 L 32 47 M 56 45 L 56 47 M 1 46 L 1 48 M 55 46 L 55 48 M 59 46 L 59 48 M 61 46 L 61 48 M 65 46 L 65 48 M 4 47 L 4 49 M 32 47 L 32 49 M 52 47 L 52 49 M 56 47 L 56 49 M 1 48 L 1 50 M 7 48 L 7 50 M 55 48 L 55 50 M 59 48 L 59 50 M 61 48 L 61 50 M 65 48 L 65 50 M 4 49 L 4 51 M 52 49 L 52 51 M 56 49 L 56 51 M 1 50 L 1 52 M 7 50 L 7 52 M 55 50 L 55 52 M 59 50 L 59 52 M 61 50 L 61 52 M 65 50 L 65 52 M 4 51 L 4 53 M 52 51 L 52 53 M 56 51 L 56 53 M 1 52 L 1 54 M 7 52 L 7 54 M 47 52 L 47 54 M 55 52 L 55 54 M 59 52 L 59 54 M 61 52 L 61 54 M 65 52 L 65 54 M 4 53 L 4 55 M 52 53 L 52 55 M 56 53 L 56 55 M 1 54 L 1 56 M 7 54 L 7 56 M 47 54 L 47 56 M 55 54 L 55 56 M 59 54 L 59 56 M 61 54 L 61 56 M 65 54 L 65 56 M 4 55 L 4 57 M 52 55 L 52 57 M 56 55 L 56 57 M 1 56 L 1 58 M 47 56 L 47 58 M 55 56 L 55 58 M 59 56 L 59 58 M 61 56 L 61 58 M 65 56 L 65 58 M 4 57 L 4 59 M 6 57 L 6 59 M 52 57 L 52 59 M 56 57 L 56 59 M 1 58 L 1 60 M 47 58 L 47 60 M 55 58 L 55 60 M 59 58 L 59 60 M 61 58 L 61 60 M 65 58 L 65 60 M 4 59 L 4 61 M 6 59 L 6 61 M 52 59 L 52 61 M 56 59 L 56 61 M 1 60 L 1 62 M 47 60 L 47 62 M 55 60 L 55 62 M 59 60 L 59 62 M 61 60 L 61 62 M 65 60 L 65 62 M 4 61 L 4 63 M 6 61 L 6 63 M 56 61 L 56 63 M 1 62 L 1 64 M 47 62 L 47 64 M 55 62 L 55 64 M 59 62 L 59 64 M 61 62 L 61 64 M 65 62 L 65 64 M 4 63 L 4 65 M 6 63 L 6 65 M 16 63 L 16 65 M 28 63 L 28 65 M 48 63 L 48 65 M 1 64 L 1 66 M 13 64 L 13 66 M 33 64 L 33 66 M 47 64 L 47 66 M 59 64 L 59 66 M 61 64 L 61 66 M 65 64 L 65 66 M 2 65 L 2 67 M 4 65 L 4 67 M 14 65 L 14 67 M 16 65 L 16 67 M 28 65 L 28 67 M 48 65 L 48 67 M 1 66 L 1 68 M 13 66 L 13 68 M 33 66 L 33 68 M 47 66 L 47 68 M 61 66 L 61 68 M 65 66 L 65 68 M 2 67 L 2 69 M 4 67 L 4 69 M 14 67 L 14 69 M 16 67 L 16 69 M 28 67 L 28 69 M 48 67 L 48 69 M 60 67 L 60 69 M 1 68 L 1 70 M 13 68 L 13 70 M 33 68 L 33 70 M 47 68 L 47 70 M 61 68 L 61 70 M 65 68 L 65 70 M 2 69 L 2 71 M 4 69 L 4 71 M 14 69 L 14 71 M 28 69 L 28 71 M 48 69 L 48 71 M 60 69 L 60 71 M 1 70 L 1 72 M 33 70 L 33 72 M 47 70 L 47 72 M 61 70 L 61 72 M 65 70 L 65 72 M 2 71 L 2 73 M 4 71 L 4 73 M 28 71 L 28 73 M 48 71 L 48 73 M 56 71 L 56 73 M 60 71 L 60 73 M 1 72 L 1 74 M 33 72 L 33 74 M 47 72 L 47 74 M 55 72 L 55 74 M 61 72 L 61 74 M 65 72 L 65 74 M 2 73 L 2 75 M 4 73 L 4 75 M 28 73 L 28 75 M 48 73 L 48 75 M 56 73 L 56 75 M 60 73 L 60 75 M 1 74 L 1 76 M 33 74 L 33 76 M 47 74 L 47 76 M 55 74 L 55 76 M 61 74 L 61 76 M 65 74 L 65 76 M 2 75 L 2 77 M 4 75 L 4 77 M 28 75 L 28 77 M 48 75 L 48 77 M 60 75 L 60 77 M 1 76 L 1 78 M 33 76 L 33 78 M 47 76 L 47 78 M 61 76 L 61 78 M 65 76 L 65 78 M 2 77 L 2 79 M 4 77 L 4 79 M 28 77 L 28 79 M 48 77 L 48 79 M 60 77 L 60 79 M 1 78 L 1 80 M 33 78 L 33 80 M 47 78 L 47 80 M 61 78 L 61 80 M 65 78 L 65 80 M 2 79 L 2 81 M 4 79 L 4 81 M 28 79 L 28 81 M 48 79 L 48 81 M 60 79 L 60 81 M 1 80 L 1 82 M 33 80 L 33 82 M 61 80 L 61 82 M 65 80 L 65 82 M 2 81 L 2 83 M 4 81 L 4 83 M 28 81 L 28 83 M 60 81 L 60 83 M 1 82 L 1 84 M 33 82 L 33 84 M 59 82 L 59 84 M 61 82 L 61 84 M 65 82 L 65 84 M 2 83 L 2 85 M 4 83 L 4 85 M 28 83 L 28 85 M 46 83 L 46 85 M 48 83 L 48 85 M 60 83 L 60 85 M 1 84 L 1 86 M 33 84 L 33 86 M 47 84 L 47 86 M 59 84 L 59 86 M 61 84 L 61 86 M 65 84 L 65 86 M 2 85 L 2 87 M 4 85 L 4 87 M 28 85 L 28 87 M 42 85 L 42 87 M 46 85 L 46 87 M 48 85 L 48 87 M 60 85 L 60 87 M 1 86 L 1 88 M 33 86 L 33 88 M 47 86 L 47 88 M 59 86 L 59 88 M 61 86 L 61 88 M 65 86 L 65 88 M 2 87 L 2 89 M 4 87 L 4 89 M 28 87 L 28 89 M 42 87 L 42 89 M 46 87 L 46 89 M 48 87 L 48 89 M 52 87 L 52 89 M 60 87 L 60 89 M 1 88 L 1 90 M 33 88 L 33 90 M 47 88 L 47 90 M 51 88 L 51 90 M 59 88 L 59 90 M 61 88 L 61 90 M 65 88 L 65 90 M 2 89 L 2 91 M 4 89 L 4 91 M 28 89 L 28 91 M 42 89 L 42 91 M 46 89 L 46 91 M 48 89 L 48 91 M 52 89 L 52 91 M 60 89 L 60 91 M 1 90 L 1 92 M 33 90 L 33 92 M 47 90 L 47 92 M 51 90 L 51 92 M 57 90 L 57 92 M 59 90 L 59 92 M 61 90 L 61 92 M 65 90 L 65 92 M 2 91 L 2 93 M 4 91 L 4 93 M 28 91 L 28 93 M 42 91 L 42 93 M 46 91 L 46 93 M 48 91 L 48 93 M 52 91 L 52 93 M 54 91 L 54 93 M 60 91 L 60 93 M 1 92 L 1 94 M 33 92 L 33 94 M 47 92 L 47 94 M 51 92 L 51 94 M 57 92 L 57 94 M 59 92 L 59 94 M 61 92 L 61 94 M 65 92 L 65 94 M 2 93 L 2 95 M 4 93 L 4 95 M 28 93 L 28 95 M 46 93 L 46 95 M 48 93 L 48 95 M 52 93 L 52 95 M 54 93 L 54 95 M 60 93 L 60 95 M 1 94 L 1 96 M 33 94 L 33 96 M 41 94 L 41 96 M 47 94 L 47 96 M 51 94 L 51 96 M 59 94 L 59 96 M 61 94 L 61 96 M 65 94 L 65 96 M 2 95 L 2 97 M 28 95 L 28 97 M 46 95 L 46 97 M 48 95 L 48 97 M 52 95 L 52 97 M 54 95 L 54 97 M 60 95 L 60 97 M 1 96 L 1 98 M 3 96 L 3 98 M 33 96 L 33 98 M 41 96 L 41 98 M 47 96 L 47 98 M 51 96 L 51 98 M 59 96 L 59 98 M 61 96 L 61 98 M 65 96 L 65 98 M 2 97 L 2 99 M 28 97 L 28 99 M 36 97 L 36 99 M 46 97 L 46 99 M 48 97 L 48 99 M 52 97 L 52 99 M 54 97 L 54 99 M 62 97 L 62 99 M 1 98 L 1 100 M 3 98 L 3 100 M 33 98 L 33 100 M 41 98 L 41 100 M 47 98 L 47 100 M 51 98 L 51 100 M 59 98 L 59 100 M 61 98 L 61 100 M 65 98 L 65 100 M 2 99 L 2 101 M 28 99 L 28 101 M 34 99 L 34 101 M 36 99 L 36 101 M 46 99 L 46 101 M 48 99 L 48 101 M 52 99 L 52 101 M 54 99 L 54 101 M 62 99 L 62 101 M 1 100 L 1 102 M 3 100 L 3 102 M 33 100 L 33 102 M 41 100 L 41 102 M 47 100 L 47 102 M 51 100 L 51 102 M 59 100 L 59 102 M 61 100 L 61 102 M 65 100 L 65 102 M 2 101 L 2 103 M 4 101 L 4 103 M 28 101 L 28 103 M 34 101 L 34 103 M 36 101 L 36 103 M 48 101 L 48 103 M 52 101 L 52 103 M 54 101 L 54 103 M 62 101 L 62 103 M 1 102 L 1 104 M 33 102 L 33 104 M 35 102 L 35 104 M 41 102 L 41 104 M 51 102 L 51 104 M 59 102 L 59 104 M 65 102 L 65 104 M 2 103 L 2 105 M 4 103 L 4 105 M 28 103 L 28 105 M 34 103 L 34 105 M 36 103 L 36 105 M 52 103 L 52 105 M 54 103 L 54 105 M 60 103 L 60 105 M 1 104 L 1 106 M 33 104 L 33 106 M 35 104 L 35 106 M 41 104 L 41 106 M 51 104 L 51 106 M 59 104 L 59 106 M 61 104 L 61 106 M 65 104 L 65 106 M 2 105 L 2 107 M 4 105 L 4 107 M 28 105 L 28 107 M 34 105 L 34 107 M 36 105 L 36 107 M 54 105 L 54 107 M 60 105 L 60 107 M 1 106 L 1 108 M 33 106 L 33 108 M 35 106 L 35 108 M 41 106 L 41 108 M 59 106 L 59 108 M 61 106 L 61 108 M 65 106 L 65 108 M 2 107 L 2 109 M 4 107 L 4 109 M 28 107 L 28 109 M 34 107 L 34 109 M 36 107 L 36 109 M 54 107 L 54 109 M 60 107 L 60 109 M 1 108 L 1 110 M 33 108 L 33 110 M 35 108 L 35 110 M 59 108 L 59 110 M 61 108 L 61 110 M 65 108 L 65 110 M 2 109 L 2 111 M 4 109 L 4 111 M 28 109 L 28 111 M 34 109 L 34 111 M 36 109 L 36 111 M 54 109 L 54 111 M 60 109 L 60 111 M 1 110 L 1 112 M 33 110 L 33 112 M 59 110 L 59 112 M 61 110 L 61 112 M 65 110 L 65 112 M 2 111 L 2 113 M 4 111 L 4 113 M 6 111 L 6 113 M 28 111 L 28 113 M 34 111 L 34 113 M 60 111 L 60 113 M 1 112 L 1 114 M 5 112 L 5 114 M 33 112 L 33 114 M 59 112 L 59 114 M 61 112 L 61 114 M 65 112 L 65 114 M 2 113 L 2 115 M 4 113 L 4 115 M 6 113 L 6 115 M 28 113 L 28 115 M 60 113 L 60 115 M 1 114 L 1 116 M 5 114 L 5 116 M 33 114 L 33 116 M 59 114 L 59 116 M 61 114 L 61 116 M 65 114 L 65 116 M 2 115 L 2 117 M 6 115 L 6 117 M 28 115 L 28 117 M 34 115 L 34 117 M 60 115 L 60 117 M 1 116 L 1 118 M 33 116 L 33 118 M 59 116 L 59 118 M 61 116 L 61 118 M 65 116 L 65 118 M 2 117 L 2 119 M 6 117 L 6 119 M 28 117 L 28 119 M 34 117 L 34 119 M 60 117 L 60 119 M 1 118 L 1 120 M 27 118 L 27 120 M 33 118 L 33 120 M 61 118 L 61 120 M 65 118 L 65 120 M 2 119 L 2 121 M 6 119 L 6 121 M 34 119 L 34 121 M 60 119 L 60 121 M 1 120 L 1 122 M 27 120 L 27 122 M 33 120 L 33 122 M 35 120 L 35 122 M 61 120 L 61 122 M 2 121 L 2 123 M 6 121 L 6 123 M 22 121 L 22 123 M 34 121 L 34 123 M 40 121 L 40 123 M 44 121 L 44 123 M 60 121 L 60 123 M 1 122 L 1 124 M 27 122 L 27 124 M 33 122 L 33 124 M 43 122 L 43 124 M 61 122 L 61 124 M 2 123 L 2 125 M 4 123 L 4 125 M 6 123 L 6 125 M 22 123 L 22 125 M 34 123 L 34 125 M 38 123 L 38 125 M 40 123 L 40 125 M 44 123 L 44 125 M 1 124 L 1 126 M 5 124 L 5 126 M 25 124 L 25 126 M 27 124 L 27 126 M 33 124 L 33 126 M 39 124 L 39 126 M 2 125 L 2 127 M 4 125 L 4 127 M 6 125 L 6 127 M 26 125 L 26 127 M 34 125 L 34 127 M 42 125 L 42 127 M 44 125 L 44 127 M 1 126 L 1 128 M 5 126 L 5 128 M 19 126 L 19 128 M 23 126 L 23 128 M 25 126 L 25 128 M 27 126 L 27 128 M 33 126 L 33 128 M 37 126 L 37 128 M 39 126 L 39 128 M 2 127 L 2 129 M 4 127 L 4 129 M 6 127 L 6 129 M 12 127 L 12 129 M 26 127 L 26 129 M 34 127 L 34 129 M 42 127 L 42 129 M 44 127 L 44 129 M 1 128 L 1 130 M 5 128 L 5 130 M 19 128 L 19 130 M 25 128 L 25 130 M 27 128 L 27 130 M 33 128 L 33 130 M 37 128 L 37 130 M 39 128 L 39 130 M 2 129 L 2 131 M 4 129 L 4 131 M 6 129 L 6 131 M 8 129 L 8 131 M 26 129 L 26 131 M 34 129 L 34 131 M 42 129 L 42 131 M 44 129 L 44 131 M 1 130 L 1 132 M 5 130 L 5 132 M 9 130 L 9 132 M 13 130 L 13 132 M 25 130 L 25 132 M 27 130 L 27 132 M 33 130 L 33 132 M 39 130 L 39 132 M 2 131 L 2 133 M 4 131 L 4 133 M 6 131 L 6 133 M 8 131 L 8 133 M 26 131 L 26 133 M 34 131 L 34 133 M 42 131 L 42 133 M 44 131 L 44 133 M 1 132 L 1 134 M 5 132 L 5 134 M 25 132 L 25 134 M 27 132 L 27 134 M 33 132 L 33 134 M 39 132 L 39 134 M 2 133 L 2 135 M 4 133 L 4 135 M 8 133 L 8 135 M 10 133 L 10 135 M 26 133 L 26 135 M 34 133 L 34 135 M 42 133 L 42 135 M 44 133 L 44 135 M 54 133 L 54 135 M 1 134 L 1 136 M 25 134 L 25 136 M 27 134 L 27 136 M 33 134 L 33 136 M 39 134 L 39 136 M 2 135 L 2 137 M 4 135 L 4 137 M 8 135 L 8 137 M 10 135 L 10 137 M 26 135 L 26 137 M 1 136 L 1 138 M 27 136 L 27 138 M 33 136 L 33 138 M 39 136 L 39 138 M 53 136 L 53 138 M 2 137 L 2 139 M 4 137 L 4 139 M 8 137 L 8 139 M 10 137 L 10 139 M 40 137 L 40 139 M 1 138 L 1 140 M 27 138 L 27 140 M 33 138 L 33 140 M 39 138 L 39 140 M 53 138 L 53 140 M 57 138 L 57 140 M 2 139 L 2 141 M 8 139 L 8 141 M 10 139 L 10 141 M 1 140 L 1 142 M 5 140 L 5 142 M 27 140 L 27 142 M 33 140 L 33 142 M 39 140 L 39 142 M 8 141 L 8 143 M 10 141 L 10 143 M 52 141 L 52 143 M 1 142 L 1 144 M 3 142 L 3 144 M 5 142 L 5 144 M 27 142 L 27 144 M 33 142 L 33 144 M 39 142 L 39 144 M 65 142 L 65 144 M 8 143 L 8 145 M 10 143 L 10 145 M 52 143 L 52 145 M 1 144 L 1 146 M 3 144 L 3 146 M 5 144 L 5 146 M 27 144 L 27 146 M 33 144 L 33 146 M 39 144 L 39 146 M 65 144 L 65 146 M 10 145 L 10 147 M 50 145 L 50 147 M 54 145 L 54 147 M 60 145 L 60 147 M 1 146 L 1 148 M 3 146 L 3 148 M 27 146 L 27 148 M 33 146 L 33 148 M 39 146 L 39 148 M 61 146 L 61 148 M 65 146 L 65 148 M 20 147 L 20 149 M 50 147 L 50 149 M 54 147 L 54 149 M 60 147 L 60 149 M 1 148 L 1 150 M 17 148 L 17 150 M 19 148 L 19 150 M 27 148 L 27 150 M 33 148 L 33 150 M 39 148 L 39 150 M 61 148 L 61 150 M 65 148 L 65 150 M 12 149 L 12 151 M 20 149 L 20 151 M 46 149 L 46 151 M 60 149 L 60 151 M 1 150 L 1 152 M 27 150 L 27 152 M 33 150 L 33 152 M 39 150 L 39 152 M 61 150 L 61 152 M 65 150 L 65 152 M 10 151 L 10 153 M 12 151 L 12 153 M 18 151 L 18 153 M 20 151 L 20 153 M 46 151 L 46 153 M 50 151 L 50 153 M 1 152 L 1 154 M 27 152 L 27 154 M 33 152 L 33 154 M 39 152 L 39 154 M 53 152 L 53 154 M 61 152 L 61 154 M 65 152 L 65 154 M 12 153 L 12 155 M 20 153 L 20 155 M 52 153 L 52 155 M 1 154 L 1 156 M 33 154 L 33 156 M 39 154 L 39 156 M 53 154 L 53 156 M 61 154 L 61 156 M 65 154 L 65 156 M 12 155 L 12 157 M 20 155 L 20 157 M 52 155 L 52 157 M 58 155 L 58 157 M 1 156 L 1 158 M 33 156 L 33 158 M 39 156 L 39 158 M 53 156 L 53 158 M 61 156 L 61 158 M 65 156 L 65 158 M 20 157 L 20 159 M 52 157 L 52 159 M 58 157 L 58 159 M 1 158 L 1 160 M 33 158 L 33 160 M 39 158 L 39 160 M 61 158 L 61 160 M 65 158 L 65 160 M 58 159 L 58 161 M 33 160 L 33 162 M 39 160 L 39 162 M 47 160 L 47 162 M 61 160 L 61 162 M 42 161 L 42 163 M 58 161 L 58 163 M 33 162 L 33 164 M 39 162 L 39 164 M 47 162 L 47 164 M 42 163 L 42 165 M 58 163 L 58 165 M 33 164 L 33 166 M 47 164 L 47 166 M 33 166 L 33 168 M 33 168 L 33 170 M 33 170 L 33 172 M 33 172 L 33 174 M 33 174 L 33 176 M 33 176 L 33 178 M 33 178 L 33 180 M 33 180 L 33 182 M 33 182 L 33 184 M 33 184 L 33 186 M 33 186 L 33 188 M 33 188 L 33 190 M 33 190 L 33 192" /></svg>