<svg viewBox="-12.8 -12.8 138.18330249197703 153.6" xmlns="http://www.w3.org/2000/svg"><g stroke="black" stroke-width="0.4" stroke-linecap="round"><path d="M 27.712812921102035 18.5 L 42.43524478543749 10 M 45.033320996790806 9.5 L 43.30127018922193 10.5 M 27.712812921102035 19.5 L 19.918584287042087 24 M 17.32050807568877 26.5 L 20.784609690826528 24.5 M 45.89934640057525 10 L 46.76537180435968 9.5 M 21.650635094610966 26 L 27.712812921102035 22.5 M 18.186533479473212 29 L 17.32050807568877 29.5 M 17.32050807568877 30.5 L 18.186533479473212 30 M 30.31088913245535 23 L 31.17691453623979 22.5 M 18.186533479473212 31 L 16.454482671904334 32 M 16.454482671904334 33 L 17.32050807568877 32.5 M 51.96152422706631 12.5 L 53.693575034635195 11.5 M 59.75575286112626 9 L 52.827549630850754 13 M 35.50704155516198 23 L 33.77499074759311 24 M 17.32050807568877 33.5 L 16.454482671904334 34 M 60.6217782649107 9.5 L 61.48780366869514 9 M 63.21985447626402 9 L 62.35382907247958 9.5 M 18.186533479473212 35 L 17.32050807568877 35.5 M 16.454482671904334 37 L 18.186533479473212 36 M 64.08587988004845 9.5 L 64.9519052838329 9 M 29.444863728670914 30.5 L 28.578838324886473 31 M 25.980762113533157 32.5 L 23.38268590217984 34 M 20.784609690826528 35.5 L 18.186533479473212 37 M 17.32050807568877 37.5 L 16.454482671904334 38 M 19.05255888325765 37.5 L 20.784609690826528 36.5 M 66.68395609140177 10 L 67.54998149518622 9.5 M 19.05255888325765 40.5 L 17.32050807568877 41.5 M 41.569219381653056 28.5 L 43.30127018922193 27.5 M 61.48780366869514 17 L 66.68395609140177 14 M 68.41600689897065 13 L 71.01408311032397 11.5 M 43.30127018922193 28.5 L 42.43524478543749 29 M 19.05255888325765 42.5 L 18.186533479473212 43 M 17.32050807568877 43.5 L 16.454482671904334 44 M 16.454482671904334 45 L 18.186533479473212 44 M 66.68395609140177 17 L 64.08587988004845 18.5 M 18.186533479473212 45 L 16.454482671904334 46 M 17.32050807568877 47.5 L 16.454482671904334 48 M 71.01408311032397 18.5 L 67.54998149518622 20.5 M 47.63139720814412 32 L 46.76537180435968 32.5 M 37.23909236273086 38 L 25.980762113533157 44.5 M 19.918584287042087 48 L 19.05255888325765 48.5 M 18.186533479473212 49 L 17.32050807568877 49.5 M 17.32050807568877 50.5 L 18.186533479473212 50 M 46.76537180435968 33.5 L 47.63139720814412 33 M 24.24871130596428 47.5 L 22.516660498395403 48.5 M 20.784609690826528 49.5 L 19.918584287042087 50 M 22.516660498395403 49.5 L 23.38268590217984 49 M 81.40638795573723 16.5 L 79.67433714816835 17.5 M 78.80831174438391 18 L 77.94228634059948 18.5 M 19.05255888325765 52.5 L 18.186533479473212 53 M 32.042939940024226 46 L 43.30127018922193 39.5 M 53.693575034635195 33.5 L 56.29165124598851 32 M 78.80831174438391 19 L 79.67433714816835 18.5 M 80.5403625519528 18 L 82.27241335952166 17 M 81.40638795573723 18.5 L 80.5403625519528 19 M 76.2102355330306 21.5 L 72.74613391789285 23.5 M 53.693575034635195 34.5 L 43.30127018922193 40.5 M 32.042939940024226 47 L 31.17691453623979 47.5 M 26.846787517317598 50 L 25.11473670974872 51 M 19.918584287042087 54 L 19.05255888325765 54.5 M 18.186533479473212 56 L 19.05255888325765 55.5 M 76.2102355330306 23.5 L 74.47818472546172 24.5 M 19.05255888325765 56.5 L 17.32050807568877 57.5 M 17.32050807568877 58.5 L 18.186533479473212 58 M 25.980762113533157 53.5 L 27.712812921102035 52.5 M 18.186533479473212 59 L 17.32050807568877 59.5 M 16.454482671904334 61 L 18.186533479473212 60 M 59.75575286112626 37 L 57.157676649772945 38.5 M 17.32050807568877 61.5 L 16.454482671904334 62 M 16.454482671904334 63 L 17.32050807568877 62.5 M 31.17691453623979 54.5 L 32.042939940024226 54 M 32.90896534380867 53.5 L 33.77499074759311 53 M 34.64101615137754 52.5 L 36.373066958946424 51.5 M 41.569219381653056 48.5 L 47.63139720814412 45 M 78.80831174438391 27 L 83.13843876330611 24.5 M 85.73651497465941 23 L 86.60254037844386 22.5 M 56.29165124598851 41 L 48.49742261192856 45.5 M 45.89934640057525 47 L 43.30127018922193 48.5 M 40.703193977868615 50 L 37.23909236273086 52 M 33.77499074759311 54 L 32.90896534380867 54.5 M 32.042939940024226 55 L 30.31088913245535 56 M 17.32050807568877 63.5 L 16.454482671904334 64 M 31.17691453623979 56.5 L 33.77499074759311 55 M 41.569219381653056 50.5 L 43.30127018922193 49.5 M 56.29165124598851 43 L 48.49742261192856 47.5 M 47.63139720814412 48 L 45.033320996790806 49.5 M 25.980762113533157 60.5 L 25.11473670974872 61 M 18.186533479473212 65 L 17.32050807568877 65.5 M 17.32050807568877 66.5 L 18.186533479473212 66 M 41.569219381653056 52.5 L 45.033320996790806 50.5 M 45.89934640057525 50 L 56.29165124598851 44 M 60.6217782649107 42.5 L 58.023702053557386 44 M 45.033320996790806 51.5 L 44.167295593006365 52 M 18.186533479473212 67 L 17.32050807568877 67.5 M 32.90896534380867 59.5 L 33.77499074759311 59 M 37.23909236273086 57 L 40.703193977868615 55 M 41.569219381653056 54.5 L 43.30127018922193 53.5 M 44.167295593006365 53 L 45.033320996790806 52.5 M 84.00446416709055 30 L 89.20061658979718 27 M 56.29165124598851 47 L 45.89934640057525 53 M 43.30127018922193 54.5 L 41.569219381653056 55.5 M 36.373066958946424 58.5 L 34.64101615137754 59.5 M 32.90896534380867 60.5 L 31.17691453623979 61.5 M 19.05255888325765 68.5 L 18.186533479473212 69 M 29.444863728670914 63.5 L 30.31088913245535 63 M 31.17691453623979 62.5 L 53.693575034635195 49.5 M 54.55960043841963 49 L 56.29165124598851 48 M 19.918584287042087 70 L 19.05255888325765 70.5 M 94.39676901250381 28 L 95.26279441628824 27.5 M 95.26279441628824 28.5 L 94.39676901250381 29 M 71.8801085141084 43 L 72.74613391789285 42.5 M 96.12881982007268 30 L 74.47818472546172 42.5 M 71.8801085141084 44 L 71.01408311032397 44.5 M 17.32050807568877 76.5 L 19.05255888325765 75.5 M 62.35382907247958 50.5 L 64.9519052838329 49 M 87.4685657822283 36 L 95.26279441628824 31.5 M 96.12881982007268 32 L 95.26279441628824 32.5 M 77.94228634059948 42.5 L 74.47818472546172 44.5 M 65.81793068761733 49.5 L 64.08587988004845 50.5 M 95.26279441628824 33.5 L 96.12881982007268 33 M 96.12881982007268 34 L 90.06664199358161 37.5 M 87.4685657822283 39 L 79.67433714816835 43.5 M 69.28203230275508 50.5 L 71.01408311032397 49.5 M 16.454482671904334 83 L 17.32050807568877 82.5 M 90.06664199358161 40.5 L 94.39676901250381 38 M 95.26279441628824 38.5 L 91.7986928011505 40.5 M 78.80831174438391 48 L 77.94228634059948 48.5 M 17.32050807568877 83.5 L 16.454482671904334 84 M 69.28203230275508 54.5 L 71.01408311032397 53.5 M 84.00446416709055 46 L 90.06664199358161 42.5 M 79.67433714816835 49.5 L 77.94228634059948 50.5 M 71.01408311032397 54.5 L 70.14805770653953 55 M 64.08587988004845 58.5 L 62.35382907247958 59.5 M 53.693575034635195 64.5 L 31.17691453623979 77.5 M 29.444863728670914 79.5 L 54.55960043841963 65 M 89.20061658979718 45 L 94.39676901250381 42 M 90.93266739736605 45 L 84.00446416709055 49 M 71.01408311032397 56.5 L 70.14805770653953 57 M 84.00446416709055 50 L 84.87048957087498 49.5 M 91.7986928011505 45.5 L 92.66471820493493 45 M 95.26279441628824 44.5 L 91.7986928011505 46.5 M 82.27241335952166 52 L 81.40638795573723 52.5 M 38.97114317029974 77 L 38.1051177665153 77.5 M 19.05255888325765 88.5 L 18.186533479473212 89 M 17.32050807568877 89.5 L 16.454482671904334 90 M 16.454482671904334 91 L 17.32050807568877 90.5 M 38.97114317029974 78 L 42.43524478543749 76 M 71.8801085141084 59 L 77.07626093681503 56 M 90.06664199358161 48.5 L 90.93266739736605 48 M 91.7986928011505 47.5 L 93.53074360871936 46.5 M 95.26279441628824 46.5 L 94.39676901250381 47 M 17.32050807568877 91.5 L 16.454482671904334 92 M 16.454482671904334 93 L 17.32050807568877 92.5 M 52.827549630850754 72 L 61.48780366869514 67 M 62.35382907247958 67.5 L 52.827549630850754 73 M 36.373066958946424 82.5 L 35.50704155516198 83 M 71.8801085141084 63 L 72.74613391789285 62.5 M 46.76537180435968 78.5 L 43.30127018922193 80.5 M 19.05255888325765 94.5 L 18.186533479473212 95 M 44.167295593006365 81 L 45.033320996790806 80.5 M 84.87048957087498 57.5 L 90.06664199358161 54.5 M 81.40638795573723 60.5 L 77.94228634059948 62.5 M 46.76537180435968 80.5 L 45.89934640057525 81 M 40.703193977868615 84 L 39.837168574084174 84.5 M 19.918584287042087 96 L 19.05255888325765 96.5 M 17.32050807568877 98.5 L 18.186533479473212 98 M 94.39676901250381 54 L 95.26279441628824 53.5 M 95.26279441628824 54.5 L 94.39676901250381 55 M 93.53074360871936 55.5 L 92.66471820493493 56 M 81.40638795573723 62.5 L 79.67433714816835 63.5 M 50.22947341949744 80.5 L 48.49742261192856 81.5 M 18.186533479473212 100 L 19.05255888325765 99.5 M 27.712812921102035 94.5 L 28.578838324886473 94 M 48.49742261192856 82.5 L 50.22947341949744 81.5 M 79.67433714816835 64.5 L 81.40638795573723 63.5 M 92.66471820493493 57 L 93.53074360871936 56.5 M 95.26279441628824 56.5 L 92.66471820493493 58 M 78.80831174438391 66 L 77.94228634059948 66.5 M 29.444863728670914 94.5 L 28.578838324886473 95 M 19.05255888325765 101.5 L 19.918584287042087 101 M 46.76537180435968 85.5 L 48.49742261192856 84.5 M 92.66471820493493 59 L 93.53074360871936 58.5 M 95.26279441628824 58.5 L 93.53074360871936 59.5 M 77.07626093681503 69 L 73.61215932167728 71 M 48.49742261192856 85.5 L 47.63139720814412 86 M 28.578838324886473 98 L 29.444863728670914 97.5 M 49.363448015713 86 L 50.22947341949744 85.5 M 55.42562584220407 82.5 L 71.8801085141084 73 M 92.66471820493493 61 L 94.39676901250381 60 M 94.39676901250381 61 L 92.66471820493493 62 M 72.74613391789285 73.5 L 62.35382907247958 79.5 M 61.48780366869514 80 L 55.42562584220407 83.5 M 51.96152422706631 85.5 L 51.09549882328188 86 M 22.516660498395403 102.5 L 20.784609690826528 103.5 M 49.363448015713 88 L 50.22947341949744 87.5 M 53.693575034635195 85.5 L 62.35382907247958 80.5 M 92.66471820493493 63 L 93.53074360871936 62.5 M 73.61215932167728 75 L 69.28203230275508 77.5 M 63.21985447626402 81 L 55.42562584220407 85.5 M 49.363448015713 89 L 48.49742261192856 89.5 M 49.363448015713 90 L 50.22947341949744 89.5 M 55.42562584220407 86.5 L 56.29165124598851 86 M 77.94228634059948 73.5 L 79.67433714816835 72.5 M 50.22947341949744 90.5 L 49.363448015713 91 M 48.49742261192856 92.5 L 49.363448015713 92 M 66.68395609140177 83 L 62.35382907247958 85.5 M 50.22947341949744 92.5 L 49.363448015713 93 M 48.49742261192856 94.5 L 50.22947341949744 93.5 M 63.21985447626402 86 L 67.54998149518622 83.5 M 77.94228634059948 77.5 L 79.67433714816835 76.5 M 79.67433714816835 77.5 L 69.28203230275508 83.5 M 50.22947341949744 94.5 L 49.363448015713 95 M 40.703193977868615 101 L 41.569219381653056 100.5 M 69.28203230275508 84.5 L 80.5403625519528 78 M 92.66471820493493 71 L 93.53074360871936 70.5 M 81.40638795573723 78.5 L 71.8801085141084 84 M 51.96152422706631 95.5 L 51.09549882328188 96 M 40.703193977868615 103 L 41.569219381653056 102.5 M 53.693575034635195 95.5 L 54.55960043841963 95 M 72.74613391789285 84.5 L 79.67433714816835 80.5 M 80.5403625519528 80 L 82.27241335952166 79 M 81.40638795573723 80.5 L 80.5403625519528 81 M 54.55960043841963 96 L 53.693575034635195 96.5 M 93.53074360871936 75.5 L 92.66471820493493 76 M 53.693575034635195 98.5 L 51.96152422706631 99.5 M 40.703193977868615 107 L 41.569219381653056 106.5 M 93.53074360871936 76.5 L 94.39676901250381 76 M 95.26279441628824 76.5 L 92.66471820493493 78 M 38.1051177665153 110.5 L 38.97114317029974 110 M 92.66471820493493 79 L 94.39676901250381 78 M 95.26279441628824 78.5 L 94.39676901250381 79 M 93.53074360871936 79.5 L 92.66471820493493 80 M 40.703193977868615 110 L 39.837168574084174 110.5 M 35.50704155516198 114 L 36.373066958946424 113.5 M 39.837168574084174 111.5 L 40.703193977868615 111 M 42.43524478543749 110 L 43.30127018922193 109.5 M 94.39676901250381 80 L 95.26279441628824 79.5 M 96.12881982007268 80 L 95.26279441628824 80.5 M 43.30127018922193 110.5 L 42.43524478543749 111 M 40.703193977868615 112 L 39.837168574084174 112.5 M 38.1051177665153 114.5 L 41.569219381653056 112.5 M 42.43524478543749 112 L 43.30127018922193 111.5 M 45.033320996790806 110.5 L 45.89934640057525 110 M 49.363448015713 108 L 50.22947341949744 107.5 M 51.09549882328188 107 L 51.96152422706631 106.5 M 56.29165124598851 104 L 62.35382907247958 100.5 M 76.2102355330306 92.5 L 79.67433714816835 90.5 M 94.39676901250381 82 L 95.26279441628824 81.5 M 94.39676901250381 83 L 92.66471820493493 84 M 80.5403625519528 91 L 77.07626093681503 93 M 54.55960043841963 106 L 52.827549630850754 107 M 51.96152422706631 107.5 L 51.09549882328188 108 M 50.22947341949744 108.5 L 49.363448015713 109 M 45.89934640057525 111 L 45.033320996790806 111.5 M 43.30127018922193 112.5 L 42.43524478543749 113 M 45.033320996790806 112.5 L 45.89934640057525 112 M 51.09549882328188 109 L 51.96152422706631 108.5 M 55.42562584220407 106.5 L 56.29165124598851 106 M 57.157676649772945 105.5 L 58.023702053557386 105 M 77.07626093681503 94 L 80.5403625519528 92 M 92.66471820493493 85 L 94.39676901250381 84 M 96.12881982007268 84 L 95.26279441628824 84.5 M 60.6217782649107 104.5 L 58.88972745734183 105.5 M 58.023702053557386 106 L 57.157676649772945 106.5 M 51.96152422706631 109.5 L 51.09549882328188 110 M 45.89934640057525 113 L 45.033320996790806 113.5 M 52.827549630850754 110 L 60.6217782649107 105.5 M 61.48780366869514 105 L 62.35382907247958 104.5 M 95.26279441628824 85.5 L 96.12881982007268 85 M 96.12881982007268 86 L 95.26279441628824 86.5 M 60.6217782649107 106.5 L 58.023702053557386 108 M 51.96152422706631 111.5 L 51.09549882328188 112 M 50.22947341949744 112.5 L 49.363448015713 113 M 47.63139720814412 115 L 48.49742261192856 114.5 M 49.363448015713 114 L 50.22947341949744 113.5 M 63.21985447626402 106 L 67.54998149518622 103.5 M 95.26279441628824 87.5 L 96.12881982007268 87 M 94.39676901250381 89 L 93.53074360871936 89.5 M 54.55960043841963 112 L 53.693575034635195 112.5 M 50.22947341949744 114.5 L 49.363448015713 115 M 51.09549882328188 115 L 51.96152422706631 114.5 M 53.693575034635195 113.5 L 54.55960043841963 113 M 55.42562584220407 112.5 L 56.29165124598851 112 M 93.53074360871936 90.5 L 95.26279441628824 89.5 M 96.12881982007268 90 L 95.26279441628824 90.5 M 94.39676901250381 91 L 93.53074360871936 91.5 M 58.023702053557386 112 L 57.157676649772945 112.5 M 56.29165124598851 113 L 55.42562584220407 113.5 M 54.55960043841963 114 L 53.693575034635195 114.5 M 51.96152422706631 115.5 L 51.09549882328188 116 M 51.09549882328188 117 L 51.96152422706631 116.5 M 55.42562584220407 114.5 L 56.29165124598851 114 M 57.157676649772945 113.5 L 58.023702053557386 113 M 58.88972745734183 112.5 L 60.6217782649107 111.5 M 92.66471820493493 93 L 93.53074360871936 92.5 M 94.39676901250381 92 L 96.12881982007268 91 M 96.12881982007268 92 L 95.26279441628824 92.5 M 60.6217782649107 112.5 L 58.88972745734183 113.5 M 58.023702053557386 114 L 57.157676649772945 114.5 M 53.693575034635195 117.5 L 54.55960043841963 117 M 58.88972745734183 114.5 L 60.6217782649107 113.5 M 62.35382907247958 112.5 L 68.41600689897065 109 M 76.2102355330306 104.5 L 79.67433714816835 102.5 M 92.66471820493493 95 L 96.12881982007268 93 M 96.12881982007268 94 L 92.66471820493493 96 M 80.5403625519528 103 L 77.07626093681503 105 M 71.8801085141084 108 L 69.28203230275508 109.5 M 64.08587988004845 112.5 L 63.21985447626402 113 M 59.75575286112626 115 L 58.023702053557386 116 M 56.29165124598851 117 L 55.42562584220407 117.5 M 57.157676649772945 117.5 L 58.023702053557386 117 M 58.88972745734183 116.5 L 59.75575286112626 116 M 63.21985447626402 114 L 64.08587988004845 113.5 M 64.9519052838329 113 L 66.68395609140177 112 M 77.07626093681503 106 L 80.5403625519528 104 M 81.40638795573723 103.5 L 83.13843876330611 102.5 M 84.87048957087498 101.5 L 89.20061658979718 99 M 92.66471820493493 97 L 96.12881982007268 95 M 96.12881982007268 96 L 84.87048957087498 102.5 M 83.13843876330611 103.5 L 81.40638795573723 104.5 M 69.28203230275508 111.5 L 67.54998149518622 112.5 M 66.68395609140177 113 L 64.9519052838329 114 M 64.08587988004845 114.5 L 63.21985447626402 115 M 60.6217782649107 116.5 L 58.88972745734183 117.5 M 61.48780366869514 117 L 62.35382907247958 116.5 M 64.9519052838329 115 L 66.68395609140177 114 M 67.54998149518622 113.5 L 69.28203230275508 112.5 M 70.14805770653953 112 L 71.8801085141084 111 M 81.40638795573723 105.5 L 83.13843876330611 104.5 M 84.87048957087498 103.5 L 90.06664199358161 100.5 M 91.7986928011505 99.5 L 96.12881982007268 97 M 95.26279441628824 98.5 L 84.87048957087498 104.5 M 83.13843876330611 105.5 L 81.40638795573723 106.5 M 71.8801085141084 112 L 70.14805770653953 113 M 69.28203230275508 113.5 L 67.54998149518622 114.5 M 64.08587988004845 116.5 L 63.21985447626402 117 M 64.9519052838329 117 L 66.68395609140177 116 M 70.14805770653953 114 L 71.8801085141084 113 M 92.66471820493493 101 L 95.26279441628824 99.5 M 95.26279441628824 100.5 L 92.66471820493493 102 M 69.28203230275508 115.5 L 67.54998149518622 116.5 M 70.14805770653953 116 L 79.67433714816835 110.5 M 81.40638795573723 109.5 L 83.13843876330611 108.5 M 84.87048957087498 107.5 L 94.39676901250381 102 M 93.53074360871936 103.5 L 89.20061658979718 106 M 81.40638795573723 111.5 L 83.13843876330611 110.5 M 84.87048957087498 109.5 L 92.66471820493493 105 M 90.06664199358161 107.5 L 84.87048957087498 110.5 M 83.13843876330611 111.5 L 80.5403625519528 113 M 84.00446416709055 112 L 84.87048957087498 111.5 M 82.27241335952166 17 L 81.40638795573723 16.5 M 67.54998149518622 9.5 L 71.01408311032397 11.5 M 81.40638795573723 18.5 L 80.5403625519528 18 M 79.67433714816835 17.5 L 71.01408311032397 12.5 M 66.68395609140177 10 L 64.9519052838329 9 M 63.21985447626402 9 L 64.08587988004845 9.5 M 71.01408311032397 13.5 L 78.80831174438391 18 M 79.67433714816835 18.5 L 80.5403625519528 19 M 86.60254037844386 22.5 L 95.26279441628824 27.5 M 95.26279441628824 28.5 L 68.41600689897065 13 M 62.35382907247958 9.5 L 61.48780366869514 9 M 59.75575286112626 9 L 60.6217782649107 9.5 M 94.39676901250381 29 L 96.12881982007268 30 M 89.20061658979718 27 L 66.68395609140177 14 M 83.13843876330611 24.5 L 88.33459118601273 27.5 M 95.26279441628824 31.5 L 96.12881982007268 32 M 96.12881982007268 33 L 95.26279441628824 32.5 M 76.2102355330306 21.5 L 71.01408311032397 18.5 M 66.68395609140177 17 L 70.14805770653953 19 M 76.2102355330306 22.5 L 81.40638795573723 25.5 M 95.26279441628824 33.5 L 96.12881982007268 34 M 53.693575034635195 11.5 L 54.55960043841963 12 M 84.00446416709055 30 L 61.48780366869514 17 M 46.76537180435968 9.5 L 52.827549630850754 13 M 95.26279441628824 38.5 L 94.39676901250381 38 M 45.89934640057525 10 L 45.033320996790806 9.5 M 90.06664199358161 37.5 L 87.4685657822283 36 M 43.30127018922193 10.5 L 42.43524478543749 10 M 94.39676901250381 42 L 91.7986928011505 40.5 M 87.4685657822283 39 L 90.06664199358161 40.5 M 90.06664199358161 42.5 L 91.7986928011505 43.5 M 95.26279441628824 46.5 L 94.39676901250381 46 M 93.53074360871936 45.5 L 92.66471820493493 45 M 92.66471820493493 47 L 91.7986928011505 46.5 M 90.06664199358161 45.5 L 89.20061658979718 45 M 90.93266739736605 48 L 90.06664199358161 47.5 M 84.00446416709055 46 L 77.94228634059948 42.5 M 94.39676901250381 53 L 95.26279441628824 53.5 M 95.26279441628824 54.5 L 94.39676901250381 54 M 74.47818472546172 42.5 L 56.29165124598851 32 M 71.8801085141084 42 L 73.61215932167728 43 M 84.00446416709055 49 L 84.87048957087498 49.5 M 93.53074360871936 55.5 L 92.66471820493493 55 M 84.00446416709055 50 L 74.47818472546172 44.5 M 73.61215932167728 44 L 71.8801085141084 43 M 27.712812921102035 18.5 L 35.50704155516198 23 M 43.30127018922193 27.5 L 53.693575034635195 33.5 M 57.157676649772945 35.5 L 79.67433714816835 48.5 M 81.40638795573723 49.5 L 82.27241335952166 50 M 93.53074360871936 56.5 L 94.39676901250381 57 M 95.26279441628824 58.5 L 94.39676901250381 58 M 77.94228634059948 48.5 L 71.01408311032397 44.5 M 53.693575034635195 34.5 L 43.30127018922193 28.5 M 27.712812921102035 20.5 L 33.77499074759311 24 M 41.569219381653056 28.5 L 47.63139720814412 32 M 71.8801085141084 46 L 77.07626093681503 49 M 92.66471820493493 58 L 93.53074360871936 58.5 M 94.39676901250381 60 L 93.53074360871936 59.5 M 82.27241335952166 53 L 81.40638795573723 52.5 M 79.67433714816835 51.5 L 77.94228634059948 50.5 M 71.01408311032397 46.5 L 57.157676649772945 38.5 M 46.76537180435968 32.5 L 30.31088913245535 23 M 27.712812921102035 22.5 L 46.76537180435968 33.5 M 77.94228634059948 51.5 L 81.40638795573723 53.5 M 93.53074360871936 61.5 L 92.66471820493493 61 M 71.01408311032397 48.5 L 58.023702053557386 41 M 56.29165124598851 41 L 57.157676649772945 41.5 M 56.29165124598851 43 L 57.157676649772945 43.5 M 58.023702053557386 44 L 69.28203230275508 50.5 M 82.27241335952166 58 L 83.13843876330611 58.5 M 68.41600689897065 51 L 56.29165124598851 44 M 19.918584287042087 24 L 20.784609690826528 24.5 M 68.41600689897065 53 L 64.08587988004845 50.5 M 29.444863728670914 30.5 L 21.650635094610966 26 M 19.05255888325765 25.5 L 43.30127018922193 39.5 M 56.29165124598851 47 L 62.35382907247958 50.5 M 69.28203230275508 54.5 L 70.14805770653953 55 M 61.48780366869514 51 L 56.29165124598851 48 M 17.32050807568877 26.5 L 37.23909236273086 38 M 70.14805770653953 57 L 71.01408311032397 57.5 M 92.66471820493493 70 L 93.53074360871936 70.5 M 79.67433714816835 63.5 L 77.94228634059948 62.5 M 77.07626093681503 62 L 71.8801085141084 59 M 36.373066958946424 38.5 L 25.980762113533157 32.5 M 18.186533479473212 29 L 25.11473670974872 33 M 54.55960043841963 50 L 61.48780366869514 54 M 79.67433714816835 64.5 L 81.40638795573723 65.5 M 18.186533479473212 30 L 17.32050807568877 29.5 M 17.32050807568877 30.5 L 18.186533479473212 31 M 23.38268590217984 34 L 33.77499074759311 40 M 45.89934640057525 47 L 47.63139720814412 48 M 54.55960043841963 52 L 61.48780366869514 56 M 71.8801085141084 62 L 77.07626093681503 65 M 77.94228634059948 65.5 L 81.40638795573723 67.5 M 94.39676901250381 76 L 93.53074360871936 75.5 M 81.40638795573723 68.5 L 77.94228634059948 66.5 M 77.07626093681503 66 L 71.8801085141084 63 M 68.41600689897065 61 L 64.08587988004845 58.5 M 32.90896534380867 40.5 L 23.38268590217984 35 M 16.454482671904334 32 L 17.32050807568877 32.5 M 93.53074360871936 76.5 L 94.39676901250381 77 M 95.26279441628824 78.5 L 94.39676901250381 78 M 68.41600689897065 63 L 62.35382907247958 59.5 M 45.033320996790806 49.5 L 43.30127018922193 48.5 M 20.784609690826528 35.5 L 16.454482671904334 33 M 16.454482671904334 34 L 18.186533479473212 35 M 43.30127018922193 49.5 L 45.033320996790806 50.5 M 62.35382907247958 60.5 L 71.8801085141084 66 M 72.74613391789285 66.5 L 79.67433714816835 70.5 M 92.66471820493493 78 L 93.53074360871936 78.5 M 18.186533479473212 36 L 17.32050807568877 35.5 M 16.454482671904334 36 L 18.186533479473212 37 M 19.05255888325765 37.5 L 28.578838324886473 43 M 44.167295593006365 52 L 45.033320996790806 52.5 M 94.39676901250381 81 L 95.26279441628824 81.5 M 32.042939940024226 46 L 27.712812921102035 43.5 M 17.32050807568877 37.5 L 16.454482671904334 37 M 16.454482671904334 38 L 17.32050807568877 38.5 M 27.712812921102035 44.5 L 32.042939940024226 47 M 73.61215932167728 71 L 77.94228634059948 73.5 M 92.66471820493493 82 L 94.39676901250381 83 M 95.26279441628824 83.5 L 96.12881982007268 84 M 96.12881982007268 85 L 95.26279441628824 84.5 M 43.30127018922193 54.5 L 42.43524478543749 54 M 31.17691453623979 47.5 L 19.05255888325765 40.5 M 16.454482671904334 40 L 17.32050807568877 40.5 M 92.66471820493493 84 L 93.53074360871936 84.5 M 95.26279441628824 85.5 L 96.12881982007268 86 M 96.12881982007268 87 L 95.26279441628824 86.5 M 82.27241335952166 79 L 81.40638795573723 78.5 M 80.5403625519528 78 L 79.67433714816835 77.5 M 72.74613391789285 73.5 L 71.8801085141084 73 M 62.35382907247958 67.5 L 61.48780366869514 67 M 40.703193977868615 55 L 37.23909236273086 53 M 19.05255888325765 42.5 L 17.32050807568877 41.5 M 17.32050807568877 42.5 L 25.980762113533157 47.5 M 73.61215932167728 75 L 77.94228634059948 77.5 M 81.40638795573723 80.5 L 80.5403625519528 80 M 53.693575034635195 64.5 L 40.703193977868615 57 M 25.980762113533157 48.5 L 24.24871130596428 47.5 M 16.454482671904334 44 L 18.186533479473212 45 M 25.980762113533157 49.5 L 26.846787517317598 50 M 32.90896534380867 53.5 L 33.77499074759311 54 M 79.67433714816835 80.5 L 80.5403625519528 81 M 93.53074360871936 88.5 L 94.39676901250381 89 M 96.12881982007268 91 L 95.26279441628824 90.5 M 94.39676901250381 90 L 93.53074360871936 89.5 M 23.38268590217984 49 L 22.516660498395403 48.5 M 18.186533479473212 46 L 16.454482671904334 45 M 16.454482671904334 46 L 18.186533479473212 47 M 19.918584287042087 48 L 25.11473670974872 51 M 26.846787517317598 52 L 32.042939940024226 55 M 94.39676901250381 91 L 96.12881982007268 92 M 74.47818472546172 80.5 L 69.28203230275508 77.5 M 36.373066958946424 58.5 L 34.64101615137754 57.5 M 20.784609690826528 49.5 L 18.186533479473212 48 M 16.454482671904334 48 L 17.32050807568877 48.5 M 18.186533479473212 49 L 22.516660498395403 51.5 M 25.980762113533157 53.5 L 30.31088913245535 56 M 95.26279441628824 93.5 L 96.12881982007268 94 M 95.26279441628824 94.5 L 92.66471820493493 93 M 33.77499074759311 59 L 31.17691453623979 57.5 M 18.186533479473212 50 L 16.454482671904334 49 M 17.32050807568877 50.5 L 19.918584287042087 52 M 31.17691453623979 58.5 L 32.90896534380867 59.5 M 94.39676901250381 95 L 96.12881982007268 96 M 93.53074360871936 95.5 L 92.66471820493493 95 M 52.827549630850754 72 L 47.63139720814412 69 M 32.90896534380867 60.5 L 31.17691453623979 59.5 M 19.918584287042087 53 L 19.05255888325765 52.5 M 17.32050807568877 52.5 L 19.918584287042087 54 M 46.76537180435968 69.5 L 52.827549630850754 73 M 71.8801085141084 84 L 72.74613391789285 84.5 M 93.53074360871936 96.5 L 95.26279441628824 97.5 M 69.28203230275508 83.5 L 62.35382907247958 79.5 M 19.918584287042087 55 L 18.186533479473212 54 M 19.05255888325765 55.5 L 19.918584287042087 56 M 61.48780366869514 80 L 62.35382907247958 80.5 M 63.21985447626402 81 L 66.68395609140177 83 M 67.54998149518622 83.5 L 69.28203230275508 84.5 M 79.67433714816835 90.5 L 80.5403625519528 91 M 92.66471820493493 98 L 95.26279441628824 99.5 M 30.31088913245535 63 L 25.980762113533157 60.5 M 19.05255888325765 56.5 L 18.186533479473212 56 M 25.11473670974872 61 L 29.444863728670914 63.5 M 91.7986928011505 99.5 L 94.39676901250381 101 M 90.06664199358161 99.5 L 89.20061658979718 99 M 18.186533479473212 58 L 17.32050807568877 57.5 M 17.32050807568877 58.5 L 18.186533479473212 59 M 76.2102355330306 92.5 L 77.07626093681503 93 M 92.66471820493493 102 L 93.53074360871936 102.5 M 77.07626093681503 94 L 76.2102355330306 93.5 M 63.21985447626402 86 L 62.35382907247958 85.5 M 18.186533479473212 60 L 17.32050807568877 59.5 M 39.837168574084174 73.5 L 55.42562584220407 82.5 M 91.7986928011505 103.5 L 92.66471820493493 104 M 55.42562584220407 83.5 L 50.22947341949744 80.5 M 46.76537180435968 78.5 L 42.43524478543749 76 M 17.32050807568877 61.5 L 16.454482671904334 61 M 16.454482671904334 62 L 17.32050807568877 62.5 M 56.29165124598851 86 L 55.42562584220407 85.5 M 48.49742261192856 81.5 L 46.76537180435968 80.5 M 17.32050807568877 63.5 L 16.454482671904334 63 M 16.454482671904334 64 L 18.186533479473212 65 M 36.373066958946424 75.5 L 38.97114317029974 77 M 45.033320996790806 80.5 L 45.89934640057525 81 M 46.76537180435968 81.5 L 48.49742261192856 82.5 M 53.693575034635195 85.5 L 55.42562584220407 86.5 M 89.20061658979718 106 L 90.06664199358161 106.5 M 51.96152422706631 85.5 L 44.167295593006365 81 M 43.30127018922193 80.5 L 38.97114317029974 78 M 38.1051177665153 77.5 L 35.50704155516198 76 M 18.186533479473212 66 L 16.454482671904334 65 M 17.32050807568877 66.5 L 18.186533479473212 67 M 34.64101615137754 76.5 L 48.49742261192856 84.5 M 50.22947341949744 85.5 L 51.09549882328188 86 M 79.67433714816835 102.5 L 80.5403625519528 103 M 49.363448015713 86 L 48.49742261192856 85.5 M 19.05255888325765 68.5 L 17.32050807568877 67.5 M 17.32050807568877 68.5 L 19.918584287042087 70 M 46.76537180435968 85.5 L 47.63139720814412 86 M 49.363448015713 88 L 48.49742261192856 87.5 M 19.918584287042087 71 L 18.186533479473212 70 M 19.05255888325765 71.5 L 19.918584287042087 72 M 31.17691453623979 78.5 L 40.703193977868615 84 M 49.363448015713 89 L 50.22947341949744 89.5 M 51.96152422706631 90.5 L 53.693575034635195 91.5 M 76.2102355330306 104.5 L 77.07626093681503 105 M 77.07626093681503 106 L 76.2102355330306 105.5 M 49.363448015713 90 L 48.49742261192856 89.5 M 39.837168574084174 84.5 L 36.373066958946424 82.5 M 29.444863728670914 79.5 L 35.50704155516198 83 M 48.49742261192856 90.5 L 49.363448015713 91 M 84.00446416709055 112 L 83.13843876330611 111.5 M 54.55960043841963 95 L 53.693575034635195 94.5 M 50.22947341949744 92.5 L 49.363448015713 92 M 19.05255888325765 75.5 L 19.918584287042087 76 M 48.49742261192856 92.5 L 49.363448015713 93 M 51.96152422706631 94.5 L 53.693575034635195 95.5 M 53.693575034635195 96.5 L 51.96152422706631 95.5 M 50.22947341949744 94.5 L 48.49742261192856 93.5 M 46.76537180435968 92.5 L 40.703193977868615 89 M 17.32050807568877 76.5 L 19.918584287042087 78 M 40.703193977868615 90 L 46.76537180435968 93.5 M 48.49742261192856 94.5 L 49.363448015713 95 M 50.22947341949744 95.5 L 51.09549882328188 96 M 77.94228634059948 111.5 L 80.5403625519528 113 M 53.693575034635195 98.5 L 51.96152422706631 97.5 M 69.28203230275508 109.5 L 66.68395609140177 108 M 63.21985447626402 106 L 62.35382907247958 105.5 M 61.48780366869514 105 L 60.6217782649107 104.5 M 53.693575034635195 100.5 L 50.22947341949744 98.5 M 70.14805770653953 112 L 69.28203230275508 111.5 M 58.88972745734183 105.5 L 58.023702053557386 105 M 56.29165124598851 105 L 57.157676649772945 105.5 M 58.023702053557386 106 L 58.88972745734183 106.5 M 69.28203230275508 112.5 L 70.14805770653953 113 M 71.8801085141084 114 L 72.74613391789285 114.5 M 70.14805770653953 114 L 69.28203230275508 113.5 M 67.54998149518622 112.5 L 66.68395609140177 112 M 57.157676649772945 106.5 L 56.29165124598851 106 M 17.32050807568877 83.5 L 16.454482671904334 83 M 16.454482671904334 84 L 17.32050807568877 84.5 M 53.693575034635195 105.5 L 55.42562584220407 106.5 M 57.157676649772945 107.5 L 58.023702053557386 108 M 66.68395609140177 113 L 67.54998149518622 113.5 M 70.14805770653953 116 L 69.28203230275508 115.5 M 67.54998149518622 114.5 L 66.68395609140177 114 M 64.9519052838329 113 L 64.08587988004845 112.5 M 16.454482671904334 86 L 17.32050807568877 86.5 M 40.703193977868615 100 L 41.569219381653056 100.5 M 51.96152422706631 106.5 L 52.827549630850754 107 M 62.35382907247958 112.5 L 63.21985447626402 113 M 64.08587988004845 113.5 L 64.9519052838329 114 M 67.54998149518622 116.5 L 66.68395609140177 116 M 64.9519052838329 115 L 64.08587988004845 114.5 M 63.21985447626402 114 L 62.35382907247958 113.5 M 51.09549882328188 107 L 50.22947341949744 106.5 M 29.444863728670914 94.5 L 28.578838324886473 94 M 19.918584287042087 89 L 19.05255888325765 88.5 M 18.186533479473212 89 L 19.918584287042087 90 M 27.712812921102035 94.5 L 28.578838324886473 95 M 29.444863728670914 95.5 L 33.77499074759311 98 M 41.569219381653056 102.5 L 46.76537180435968 105.5 M 50.22947341949744 107.5 L 51.09549882328188 108 M 58.023702053557386 112 L 58.88972745734183 112.5 M 59.75575286112626 113 L 60.6217782649107 113.5 M 62.35382907247958 114.5 L 63.21985447626402 115 M 64.9519052838329 117 L 64.08587988004845 116.5 M 58.88972745734183 113.5 L 58.023702053557386 113 M 57.157676649772945 112.5 L 56.29165124598851 112 M 52.827549630850754 110 L 51.96152422706631 109.5 M 51.09549882328188 109 L 50.22947341949744 108.5 M 49.363448015713 108 L 48.49742261192856 107.5 M 46.76537180435968 106.5 L 40.703193977868615 103 M 33.77499074759311 99 L 29.444863728670914 96.5 M 16.454482671904334 90 L 17.32050807568877 90.5 M 18.186533479473212 91 L 19.918584287042087 92 M 48.49742261192856 108.5 L 49.363448015713 109 M 50.22947341949744 109.5 L 51.09549882328188 110 M 54.55960043841963 112 L 55.42562584220407 112.5 M 56.29165124598851 113 L 57.157676649772945 113.5 M 58.023702053557386 114 L 58.88972745734183 114.5 M 62.35382907247958 116.5 L 63.21985447626402 117 M 61.48780366869514 117 L 60.6217782649107 116.5 M 59.75575286112626 116 L 58.023702053557386 115 M 57.157676649772945 114.5 L 56.29165124598851 114 M 55.42562584220407 113.5 L 54.55960043841963 113 M 53.693575034635195 112.5 L 51.96152422706631 111.5 M 37.23909236273086 103 L 36.373066958946424 102.5 M 28.578838324886473 98 L 27.712812921102035 97.5 M 22.516660498395403 94.5 L 20.784609690826528 93.5 M 17.32050807568877 91.5 L 16.454482671904334 91 M 16.454482671904334 92 L 17.32050807568877 92.5 M 40.703193977868615 106 L 46.76537180435968 109.5 M 50.22947341949744 111.5 L 51.09549882328188 112 M 51.96152422706631 112.5 L 53.693575034635195 113.5 M 54.55960043841963 114 L 55.42562584220407 114.5 M 58.023702053557386 116 L 58.88972745734183 116.5 M 58.88972745734183 117.5 L 58.023702053557386 117 M 53.693575034635195 114.5 L 51.96152422706631 113.5 M 46.76537180435968 110.5 L 45.89934640057525 110 M 37.23909236273086 105 L 36.373066958946424 104.5 M 19.918584287042087 95 L 19.05255888325765 94.5 M 17.32050807568877 93.5 L 16.454482671904334 93 M 18.186533479473212 95 L 19.918584287042087 96 M 43.30127018922193 109.5 L 45.033320996790806 110.5 M 48.49742261192856 112.5 L 50.22947341949744 113.5 M 56.29165124598851 117 L 57.157676649772945 117.5 M 55.42562584220407 117.5 L 54.55960043841963 117 M 51.96152422706631 115.5 L 50.22947341949744 114.5 M 49.363448015713 114 L 48.49742261192856 113.5 M 45.89934640057525 112 L 43.30127018922193 110.5 M 42.43524478543749 110 L 40.703193977868615 109 M 19.918584287042087 97 L 19.05255888325765 96.5 M 16.454482671904334 96 L 17.32050807568877 96.5 M 18.186533479473212 97 L 19.05255888325765 97.5 M 40.703193977868615 110 L 42.43524478543749 111 M 43.30127018922193 111.5 L 45.033320996790806 112.5 M 48.49742261192856 114.5 L 51.09549882328188 116 M 51.96152422706631 116.5 L 53.693575034635195 117.5 M 51.09549882328188 117 L 43.30127018922193 112.5 M 42.43524478543749 112 L 40.703193977868615 111 M 39.837168574084174 110.5 L 38.1051177665153 109.5 M 19.918584287042087 99 L 17.32050807568877 97.5 M 17.32050807568877 98.5 L 19.05255888325765 99.5 M 38.1051177665153 110.5 L 39.837168574084174 111.5 M 40.703193977868615 112 L 42.43524478543749 113 M 39.837168574084174 112.5 L 38.1051177665153 111.5 M 19.918584287042087 101 L 17.32050807568877 99.5 M 18.186533479473212 101 L 19.918584287042087 102 M 37.23909236273086 113 L 36.373066958946424 112.5 M 22.516660498395403 104.5 L 20.784609690826528 103.5 M 19.918584287042087 103 L 19.05255888325765 102.5 M 19.918584287042087 104 L 22.516660498395403 105.5 M 36.373066958946424 113.5 L 38.1051177665153 114.5 M 35.50704155516198 114 L 22.516660498395403 106.5 M 16.454482671904334 96 L 16.454482671904334 90 M 16.454482671904334 86 L 16.454482671904334 83 M 16.454482671904334 65 L 16.454482671904334 61 M 16.454482671904334 49 L 16.454482671904334 44 M 16.454482671904334 40 L 16.454482671904334 32 M 17.32050807568877 26.5 L 17.32050807568877 31.5 M 17.32050807568877 35.5 L 17.32050807568877 52.5 M 17.32050807568877 57.5 L 17.32050807568877 60.5 M 17.32050807568877 65.5 L 17.32050807568877 99.5 M 18.186533479473212 101 L 18.186533479473212 100 M 18.186533479473212 97 L 18.186533479473212 95 M 18.186533479473212 91 L 18.186533479473212 89 M 18.186533479473212 70 L 18.186533479473212 69 M 18.186533479473212 57 L 18.186533479473212 56 M 18.186533479473212 54 L 18.186533479473212 53 M 18.186533479473212 48 L 18.186533479473212 43 M 18.186533479473212 41 L 18.186533479473212 37 M 19.05255888325765 37.5 L 19.05255888325765 40.5 M 19.05255888325765 48.5 L 19.05255888325765 49.5 M 19.05255888325765 54.5 L 19.05255888325765 55.5 M 19.05255888325765 70.5 L 19.05255888325765 71.5 M 19.05255888325765 96.5 L 19.05255888325765 98.5 M 19.05255888325765 101.5 L 19.05255888325765 102.5 M 19.918584287042087 104 L 19.918584287042087 50 M 19.918584287042087 25 L 19.918584287042087 24 M 20.784609690826528 35.5 L 20.784609690826528 36.5 M 20.784609690826528 93.5 L 20.784609690826528 103.5 M 21.650635094610966 27 L 21.650635094610966 26 M 22.516660498395403 48.5 L 22.516660498395403 106.5 M 23.38268590217984 35 L 23.38268590217984 34 M 25.11473670974872 61 L 25.11473670974872 51 M 25.980762113533157 44.5 L 25.980762113533157 49.5 M 25.980762113533157 53.5 L 25.980762113533157 60.5 M 26.846787517317598 52 L 26.846787517317598 50 M 27.712812921102035 18.5 L 27.712812921102035 20.5 M 27.712812921102035 43.5 L 27.712812921102035 44.5 M 27.712812921102035 94.5 L 27.712812921102035 97.5 M 28.578838324886473 98 L 28.578838324886473 95 M 29.444863728670914 63.5 L 29.444863728670914 79.5 M 29.444863728670914 94.5 L 29.444863728670914 97.5 M 30.31088913245535 63 L 30.31088913245535 56 M 30.31088913245535 24 L 30.31088913245535 23 M 31.17691453623979 47.5 L 31.17691453623979 54.5 M 31.17691453623979 56.5 L 31.17691453623979 61.5 M 31.17691453623979 62.5 L 31.17691453623979 77.5 M 32.042939940024226 55 L 32.042939940024226 54 M 32.042939940024226 47 L 32.042939940024226 46 M 32.90896534380867 53.5 L 32.90896534380867 54.5 M 32.90896534380867 59.5 L 32.90896534380867 60.5 M 33.77499074759311 99 L 33.77499074759311 98 M 33.77499074759311 59 L 33.77499074759311 55 M 33.77499074759311 54 L 33.77499074759311 53 M 34.64101615137754 52.5 L 34.64101615137754 59.5 M 35.50704155516198 114 L 35.50704155516198 83 M 36.373066958946424 51.5 L 36.373066958946424 58.5 M 36.373066958946424 82.5 L 36.373066958946424 113.5 M 37.23909236273086 113 L 37.23909236273086 103 M 37.23909236273086 57 L 37.23909236273086 52 M 38.1051177665153 109.5 L 38.1051177665153 110.5 M 38.1051177665153 111.5 L 38.1051177665153 114.5 M 39.837168574084174 84.5 L 39.837168574084174 110.5 M 39.837168574084174 111.5 L 39.837168574084174 112.5 M 40.703193977868615 112 L 40.703193977868615 111 M 40.703193977868615 110 L 40.703193977868615 84 M 40.703193977868615 55 L 40.703193977868615 50 M 41.569219381653056 48.5 L 41.569219381653056 52.5 M 41.569219381653056 54.5 L 41.569219381653056 55.5 M 41.569219381653056 100.5 L 41.569219381653056 102.5 M 42.43524478543749 113 L 42.43524478543749 112 M 42.43524478543749 111 L 42.43524478543749 110 M 42.43524478543749 80 L 42.43524478543749 76 M 43.30127018922193 27.5 L 43.30127018922193 28.5 M 43.30127018922193 39.5 L 43.30127018922193 40.5 M 43.30127018922193 48.5 L 43.30127018922193 49.5 M 43.30127018922193 53.5 L 43.30127018922193 54.5 M 43.30127018922193 109.5 L 43.30127018922193 110.5 M 43.30127018922193 111.5 L 43.30127018922193 112.5 M 44.167295593006365 53 L 44.167295593006365 52 M 45.033320996790806 49.5 L 45.033320996790806 50.5 M 45.033320996790806 51.5 L 45.033320996790806 52.5 M 45.033320996790806 70.5 L 45.033320996790806 76.5 M 45.033320996790806 80.5 L 45.033320996790806 81.5 M 45.033320996790806 110.5 L 45.033320996790806 111.5 M 45.033320996790806 112.5 L 45.033320996790806 113.5 M 45.89934640057525 113 L 45.89934640057525 112 M 45.89934640057525 111 L 45.89934640057525 110 M 45.89934640057525 82 L 45.89934640057525 81 M 45.89934640057525 53 L 45.89934640057525 50 M 45.89934640057525 47 L 45.89934640057525 46 M 46.76537180435968 32.5 L 46.76537180435968 33.5 M 46.76537180435968 80.5 L 46.76537180435968 81.5 M 46.76537180435968 85.5 L 46.76537180435968 106.5 M 46.76537180435968 109.5 L 46.76537180435968 110.5 M 47.63139720814412 115 L 47.63139720814412 86 M 47.63139720814412 48 L 47.63139720814412 45 M 47.63139720814412 33 L 47.63139720814412 32 M 48.49742261192856 45.5 L 48.49742261192856 47.5 M 48.49742261192856 81.5 L 48.49742261192856 83.5 M 48.49742261192856 85.5 L 48.49742261192856 87.5 M 48.49742261192856 89.5 L 48.49742261192856 90.5 M 48.49742261192856 92.5 L 48.49742261192856 93.5 M 48.49742261192856 94.5 L 48.49742261192856 114.5 M 49.363448015713 115 L 49.363448015713 114 M 49.363448015713 113 L 49.363448015713 109 M 49.363448015713 108 L 49.363448015713 95 M 49.363448015713 94 L 49.363448015713 93 M 49.363448015713 92 L 49.363448015713 90 M 49.363448015713 89 L 49.363448015713 86 M 50.22947341949744 80.5 L 50.22947341949744 81.5 M 50.22947341949744 85.5 L 50.22947341949744 87.5 M 50.22947341949744 89.5 L 50.22947341949744 90.5 M 50.22947341949744 92.5 L 50.22947341949744 93.5 M 50.22947341949744 94.5 L 50.22947341949744 107.5 M 50.22947341949744 108.5 L 50.22947341949744 112.5 M 50.22947341949744 113.5 L 50.22947341949744 114.5 M 51.09549882328188 117 L 51.09549882328188 116 M 51.09549882328188 115 L 51.09549882328188 112 M 51.09549882328188 110 L 51.09549882328188 109 M 51.09549882328188 108 L 51.09549882328188 107 M 51.09549882328188 96 L 51.09549882328188 86 M 51.96152422706631 85.5 L 51.96152422706631 95.5 M 51.96152422706631 97.5 L 51.96152422706631 99.5 M 51.96152422706631 106.5 L 51.96152422706631 109.5 M 51.96152422706631 111.5 L 51.96152422706631 114.5 M 51.96152422706631 115.5 L 51.96152422706631 116.5 M 52.827549630850754 110 L 52.827549630850754 107 M 52.827549630850754 81 L 52.827549630850754 73 M 53.693575034635195 33.5 L 53.693575034635195 34.5 M 53.693575034635195 49.5 L 53.693575034635195 64.5 M 53.693575034635195 85.5 L 53.693575034635195 94.5 M 53.693575034635195 95.5 L 53.693575034635195 105.5 M 53.693575034635195 112.5 L 53.693575034635195 113.5 M 53.693575034635195 114.5 L 53.693575034635195 117.5 M 54.55960043841963 117 L 54.55960043841963 114 M 54.55960043841963 113 L 54.55960043841963 112 M 54.55960043841963 96 L 54.55960043841963 95 M 54.55960043841963 65 L 54.55960043841963 49 M 55.42562584220407 83.5 L 55.42562584220407 84.5 M 55.42562584220407 86.5 L 55.42562584220407 106.5 M 55.42562584220407 112.5 L 55.42562584220407 113.5 M 55.42562584220407 114.5 L 55.42562584220407 117.5 M 56.29165124598851 117 L 56.29165124598851 114 M 56.29165124598851 113 L 56.29165124598851 112 M 56.29165124598851 106 L 56.29165124598851 86 M 56.29165124598851 48 L 56.29165124598851 47 M 56.29165124598851 44 L 56.29165124598851 43 M 56.29165124598851 41 L 56.29165124598851 32 M 57.157676649772945 35.5 L 57.157676649772945 38.5 M 57.157676649772945 41.5 L 57.157676649772945 43.5 M 57.157676649772945 105.5 L 57.157676649772945 106.5 M 57.157676649772945 112.5 L 57.157676649772945 113.5 M 57.157676649772945 114.5 L 57.157676649772945 117.5 M 58.023702053557386 117 L 58.023702053557386 116 M 58.023702053557386 115 L 58.023702053557386 114 M 58.023702053557386 113 L 58.023702053557386 112 M 58.023702053557386 108 L 58.023702053557386 107 M 58.023702053557386 106 L 58.023702053557386 105 M 58.023702053557386 44 L 58.023702053557386 41 M 58.88972745734183 105.5 L 58.88972745734183 106.5 M 58.88972745734183 112.5 L 58.88972745734183 113.5 M 58.88972745734183 114.5 L 58.88972745734183 115.5 M 58.88972745734183 116.5 L 58.88972745734183 117.5 M 59.75575286112626 116 L 59.75575286112626 115 M 60.6217782649107 50.5 L 60.6217782649107 53.5 M 60.6217782649107 104.5 L 60.6217782649107 112.5 M 60.6217782649107 113.5 L 60.6217782649107 116.5 M 61.48780366869514 117 L 61.48780366869514 105 M 61.48780366869514 81 L 61.48780366869514 80 M 61.48780366869514 67 L 61.48780366869514 51 M 62.35382907247958 50.5 L 62.35382907247958 59.5 M 62.35382907247958 60.5 L 62.35382907247958 67.5 M 62.35382907247958 85.5 L 62.35382907247958 105.5 M 62.35382907247958 112.5 L 62.35382907247958 116.5 M 63.21985447626402 117 L 63.21985447626402 115 M 63.21985447626402 114 L 63.21985447626402 113 M 63.21985447626402 106 L 63.21985447626402 86 M 63.21985447626402 85 L 63.21985447626402 81 M 64.08587988004845 50.5 L 64.08587988004845 58.5 M 64.08587988004845 61.5 L 64.08587988004845 77.5 M 64.08587988004845 112.5 L 64.08587988004845 113.5 M 64.08587988004845 114.5 L 64.08587988004845 116.5 M 64.9519052838329 117 L 64.9519052838329 115 M 64.9519052838329 114 L 64.9519052838329 113 M 66.68395609140177 116 L 66.68395609140177 114 M 66.68395609140177 113 L 66.68395609140177 112 M 66.68395609140177 108 L 66.68395609140177 104 M 66.68395609140177 17 L 66.68395609140177 14 M 67.54998149518622 83.5 L 67.54998149518622 103.5 M 67.54998149518622 112.5 L 67.54998149518622 113.5 M 67.54998149518622 114.5 L 67.54998149518622 116.5 M 68.41600689897065 63 L 68.41600689897065 51 M 69.28203230275508 50.5 L 69.28203230275508 54.5 M 69.28203230275508 77.5 L 69.28203230275508 83.5 M 69.28203230275508 84.5 L 69.28203230275508 109.5 M 69.28203230275508 111.5 L 69.28203230275508 112.5 M 69.28203230275508 113.5 L 69.28203230275508 115.5 M 70.14805770653953 116 L 70.14805770653953 114 M 70.14805770653953 113 L 70.14805770653953 112 M 70.14805770653953 57 L 70.14805770653953 55 M 71.01408311032397 11.5 L 71.01408311032397 14.5 M 71.01408311032397 44.5 L 71.01408311032397 46.5 M 71.01408311032397 48.5 L 71.01408311032397 57.5 M 71.8801085141084 114 L 71.8801085141084 84 M 71.8801085141084 73 L 71.8801085141084 66 M 71.8801085141084 63 L 71.8801085141084 62 M 71.8801085141084 59 L 71.8801085141084 46 M 71.8801085141084 43 L 71.8801085141084 42 M 72.74613391789285 66.5 L 72.74613391789285 73.5 M 72.74613391789285 84.5 L 72.74613391789285 114.5 M 73.61215932167728 75 L 73.61215932167728 71 M 73.61215932167728 44 L 73.61215932167728 43 M 74.47818472546172 42.5 L 74.47818472546172 44.5 M 76.2102355330306 21.5 L 76.2102355330306 23.5 M 76.2102355330306 92.5 L 76.2102355330306 93.5 M 76.2102355330306 104.5 L 76.2102355330306 105.5 M 77.07626093681503 106 L 77.07626093681503 105 M 77.07626093681503 94 L 77.07626093681503 93 M 77.07626093681503 66 L 77.07626093681503 65 M 77.07626093681503 62 L 77.07626093681503 49 M 77.94228634059948 48.5 L 77.94228634059948 50.5 M 77.94228634059948 51.5 L 77.94228634059948 62.5 M 77.94228634059948 65.5 L 77.94228634059948 66.5 M 77.94228634059948 73.5 L 77.94228634059948 77.5 M 79.67433714816835 18.5 L 79.67433714816835 19.5 M 79.67433714816835 48.5 L 79.67433714816835 51.5 M 79.67433714816835 63.5 L 79.67433714816835 64.5 M 79.67433714816835 70.5 L 79.67433714816835 77.5 M 79.67433714816835 80.5 L 79.67433714816835 90.5 M 79.67433714816835 92.5 L 79.67433714816835 102.5 M 79.67433714816835 104.5 L 79.67433714816835 110.5 M 80.5403625519528 113 L 80.5403625519528 104 M 80.5403625519528 103 L 80.5403625519528 92 M 80.5403625519528 91 L 80.5403625519528 81 M 80.5403625519528 79 L 80.5403625519528 78 M 80.5403625519528 20 L 80.5403625519528 19 M 81.40638795573723 18.5 L 81.40638795573723 20.5 M 81.40638795573723 49.5 L 81.40638795573723 52.5 M 81.40638795573723 53.5 L 81.40638795573723 65.5 M 81.40638795573723 67.5 L 81.40638795573723 68.5 M 81.40638795573723 80.5 L 81.40638795573723 104.5 M 81.40638795573723 105.5 L 81.40638795573723 111.5 M 82.27241335952166 79 L 82.27241335952166 58 M 82.27241335952166 53 L 82.27241335952166 50 M 82.27241335952166 21 L 82.27241335952166 17 M 83.13843876330611 58.5 L 83.13843876330611 111.5 M 84.00446416709055 112 L 84.00446416709055 50 M 84.87048957087498 49.5 L 84.87048957087498 111.5 M 87.4685657822283 39 L 87.4685657822283 36 M 90.06664199358161 37.5 L 90.06664199358161 40.5 M 90.06664199358161 45.5 L 90.06664199358161 54.5 M 90.06664199358161 99.5 L 90.06664199358161 100.5 M 90.06664199358161 106.5 L 90.06664199358161 107.5 M 90.93266739736605 48 L 90.93266739736605 45 M 91.7986928011505 43.5 L 91.7986928011505 47.5 M 92.66471820493493 105 L 92.66471820493493 104 M 92.66471820493493 103 L 92.66471820493493 100 M 92.66471820493493 98 L 92.66471820493493 47 M 93.53074360871936 45.5 L 93.53074360871936 55.5 M 93.53074360871936 58.5 L 93.53074360871936 60.5 M 93.53074360871936 61.5 L 93.53074360871936 62.5 M 93.53074360871936 70.5 L 93.53074360871936 75.5 M 93.53074360871936 78.5 L 93.53074360871936 82.5 M 93.53074360871936 84.5 L 93.53074360871936 93.5 M 93.53074360871936 95.5 L 93.53074360871936 96.5 M 93.53074360871936 98.5 L 93.53074360871936 99.5 M 93.53074360871936 100.5 L 93.53074360871936 101.5 M 93.53074360871936 102.5 L 93.53074360871936 103.5 M 94.39676901250381 102 L 94.39676901250381 101 M 94.39676901250381 100 L 94.39676901250381 99 M 94.39676901250381 98 L 94.39676901250381 97 M 94.39676901250381 95 L 94.39676901250381 94 M 94.39676901250381 92 L 94.39676901250381 90 M 94.39676901250381 89 L 94.39676901250381 83 M 94.39676901250381 82 L 94.39676901250381 80 M 94.39676901250381 79 L 94.39676901250381 77 M 94.39676901250381 76 L 94.39676901250381 60 M 94.39676901250381 59 L 94.39676901250381 57 M 94.39676901250381 55 L 94.39676901250381 42 M 95.26279441628824 27.5 L 95.26279441628824 29.5 M 95.26279441628824 38.5 L 95.26279441628824 44.5 M 95.26279441628824 46.5 L 95.26279441628824 100.5 M 96.12881982007268 97 L 96.12881982007268 84 M 96.12881982007268 80 L 96.12881982007268 30 " /></g></svg>