<svg viewBox="-9.600000000000001 -9.600000000000001 76.35767664977294 115.2" xmlns="http://www.w3.org/2000/svg"><path transform="scale(0.8660254037844386 0.5)" stroke="black" stroke-width="0.3" stroke-linecap="round" d="M 24 21 L 17 28 M 28 25 L 21 32 M 34 27 L 33 28 M 35 28 L 34 29 M 35 30 L 34 31 M 4 61 L 2 63 M 45 24 L 43 26 M 28 41 L 21 48 M 48 27 L 46 29 M 41 38 L 32 47 M 25 54 L 24 55 M 23 56 L 20 59 M 19 62 L 16 65 M 47 36 L 46 37 M 13 70 L 12 71 M 46 43 L 37 52 M 48 45 L 47 46 M 35 58 L 32 61 M 32 63 L 31 64 M 14 81 L 13 82 M 20 79 L 19 80 M 8 91 L 6 93 M 46 55 L 31 70 M 9 92 L 7 94 M 10 93 L 8 95 M 20 85 L 19 86 M 11 94 L 9 96 M 39 70 L 31 78 M 20 89 L 9 100 M 20 91 L 12 99 M 9 104 L 7 106 M 33 82 L 32 83 M 20 97 L 12 105 M 38 81 L 36 83 M 33 86 L 32 87 M 20 99 L 13 106 M 38 83 L 36 85 M 34 87 L 27 94 M 17 104 L 14 107 M 19 106 L 16 109 M 37 90 L 36 91 M 37 92 L 31 98 M 21 108 L 19 110 M 14 115 L 13 116 M 36 97 L 32 101 M 19 116 L 16 119 M 41 100 L 37 104 M 23 124 L 22 125 M 45 104 L 37 112 M 24 125 L 23 126 M 45 108 L 37 116 M 35 118 L 32 121 M 22 131 L 20 133 M 36 119 L 32 123 M 30 125 L 23 132 M 25 132 L 22 135 M 28 131 L 25 134 M 22 137 L 11 148 M 38 123 L 37 124 M 29 134 L 26 137 M 37 128 L 31 134 M 26 139 L 25 140 M 29 140 L 27 142 M 24 147 L 17 154 M 64 109 L 56 117 M 24 151 L 17 158 M 52 127 L 39 140 M 25 154 L 20 159 M 46 135 L 43 138 M 25 156 L 20 161 M 47 136 L 44 139 M 39 144 L 38 145 M 64 121 L 56 129 M 36 149 L 32 153 M 56 131 L 47 140 M 40 149 L 38 151 M 43 150 L 42 151 M 56 139 L 47 148 M 42 153 L 36 159 M 33 162 L 29 166 M 47 152 L 44 155 M 36 165 L 32 169 M 50 153 L 40 163 M 50 157 L 40 167 M 42 167 L 32 177 M 48 27 L 45 24 M 46 29 L 43 26 M 46 37 L 43 34 M 35 28 L 34 27 M 34 29 L 33 28 M 46 43 L 41 38 M 34 31 L 33 30 M 28 25 L 24 21 M 47 46 L 46 45 M 21 32 L 17 28 M 37 52 L 32 47 M 20 37 L 17 34 M 39 62 L 35 58 M 20 43 L 19 42 M 33 60 L 32 59 M 21 48 L 20 47 M 32 61 L 25 54 M 32 63 L 24 55 M 31 64 L 23 56 M 31 70 L 20 59 M 38 81 L 33 76 M 20 63 L 19 62 M 64 109 L 38 83 M 36 83 L 32 79 M 31 78 L 27 74 M 36 85 L 33 82 M 20 69 L 16 65 M 37 90 L 34 87 M 33 86 L 32 85 M 37 92 L 33 88 M 20 77 L 16 73 M 13 70 L 4 61 M 45 104 L 41 100 M 20 79 L 12 71 M 56 117 L 45 106 M 40 101 L 37 98 M 19 80 L 2 63 M 49 112 L 45 108 M 39 102 L 37 100 M 49 114 L 44 109 M 38 103 L 37 102 M 31 98 L 27 94 M 19 86 L 13 80 M 13 82 L 2 71 M 56 129 L 49 122 M 56 131 L 52 127 M 35 112 L 32 109 M 35 114 L 32 111 M 36 119 L 32 115 M 11 94 L 10 93 M 9 92 L 8 91 M 38 123 L 37 122 M 34 119 L 33 118 M 30 117 L 20 107 M 19 106 L 17 104 M 12 99 L 11 98 M 9 96 L 8 95 M 7 94 L 6 93 M 47 136 L 46 135 M 9 100 L 8 99 M 16 109 L 14 107 M 13 106 L 12 105 M 44 139 L 43 138 M 30 127 L 29 126 M 7 106 L 6 105 M 43 144 L 39 140 M 24 125 L 23 124 M 50 153 L 47 150 M 39 142 L 38 141 M 31 134 L 30 133 M 29 132 L 28 131 M 23 126 L 22 125 M 16 119 L 14 117 M 13 116 L 11 114 M 25 132 L 24 131 M 43 152 L 39 148 M 29 138 L 27 136 M 23 132 L 22 131 M 44 155 L 42 153 M 27 138 L 26 137 M 28 141 L 26 139 M 22 135 L 20 133 M 27 142 L 22 137 M 32 153 L 29 150 M 40 163 L 36 159 M 33 156 L 24 147 M 40 167 L 36 163 M 33 160 L 24 151 M 36 165 L 33 162 M 25 154 L 23 152 M 32 169 L 29 166 M 17 154 L 11 148 M 20 159 L 18 157 M 20 161 L 18 159 M 17 158 L 11 152 M 32 177 L 29 174 M 2 63 L 2 71 M 6 93 L 6 105 M 7 106 L 7 94 M 8 95 L 8 99 M 9 104 L 9 96 M 9 94 L 9 92 M 11 152 L 11 148 M 11 114 L 11 94 M 12 99 L 12 105 M 13 116 L 13 106 M 13 82 L 13 80 M 13 72 L 13 70 M 14 107 L 14 117 M 16 65 L 16 73 M 16 109 L 16 119 M 17 158 L 17 154 M 17 34 L 17 28 M 18 157 L 18 159 M 19 116 L 19 106 M 19 86 L 19 80 M 19 42 L 19 36 M 20 37 L 20 47 M 20 59 L 20 107 M 20 133 L 20 139 M 20 159 L 20 161 M 21 48 L 21 32 M 22 125 L 22 131 M 22 135 L 22 137 M 23 132 L 23 126 M 24 55 L 24 57 M 24 125 L 24 131 M 24 147 L 24 151 M 25 156 L 25 154 M 25 134 L 25 132 M 26 137 L 26 139 M 27 138 L 27 136 M 27 94 L 27 74 M 28 25 L 28 41 M 28 131 L 28 135 M 29 174 L 29 166 M 29 150 L 29 126 M 30 117 L 30 133 M 31 134 L 31 98 M 31 78 L 31 70 M 32 47 L 32 59 M 32 77 L 32 89 M 32 101 L 32 123 M 32 133 L 32 153 M 32 169 L 32 177 M 33 162 L 33 160 M 33 156 L 33 152 M 33 118 L 33 116 M 33 88 L 33 86 M 33 30 L 33 28 M 34 29 L 34 31 M 34 117 L 34 119 M 35 118 L 35 112 M 35 30 L 35 28 M 36 83 L 36 85 M 36 97 L 36 119 M 36 149 L 36 159 M 36 163 L 36 165 M 37 128 L 37 90 M 37 60 L 37 52 M 38 81 L 38 83 M 38 123 L 38 151 M 39 148 L 39 140 M 39 70 L 39 62 M 40 163 L 40 167 M 42 151 L 42 153 M 42 165 L 42 167 M 43 152 L 43 138 M 43 34 L 43 26 M 44 35 L 44 41 M 44 139 L 44 155 M 45 108 L 45 104 M 46 29 L 46 37 M 46 43 L 46 55 M 47 152 L 47 136 M 47 46 L 47 36 M 48 27 L 48 45 M 49 122 L 49 112 M 50 153 L 50 157 M 56 117 L 56 129 M 56 131 L 56 139 M 64 109 L 64 121" /></svg>