<svg viewBox="-19.200000000000003 -19.200000000000003 150.98330249197704 230.4" xmlns="http://www.w3.org/2000/svg"><g stroke="black" stroke-width="0.4" stroke-linecap="round"><path d="M 36.373066958946424 12.5 L 31.17691453623979 15.5 M 29.444863728670914 16.5 L 24.24871130596428 19.5 M 22.516660498395403 20.5 L 17.32050807568877 23.5 M 15.588457268119894 24.5 L 10.392304845413264 27.5 M 8.660254037844386 28.5 L 7.794228634059947 29 M 53.693575034635195 6.5 L 51.96152422706631 7.5 M 50.22947341949744 8.5 L 45.033320996790806 11.5 M 43.30127018922193 12.5 L 39.837168574084174 14.5 M 9.526279441628825 33 L 11.258330249197702 32 M 41.569219381653056 14.5 L 46.76537180435968 11.5 M 48.49742261192856 10.5 L 53.693575034635195 7.5 M 55.42562584220407 6.5 L 57.157676649772945 5.5 M 50.22947341949744 12.5 L 49.363448015713 13 M 37.23909236273086 20 L 36.373066958946424 20.5 M 30.31088913245535 24 L 29.444863728670914 24.5 M 23.38268590217984 28 L 22.516660498395403 28.5 M 10.392304845413264 35.5 L 7.794228634059947 37 M 12.990381056766578 37 L 14.722431864335457 36 M 13.856406460551018 37.5 L 12.990381056766578 38 M 13.856406460551018 40.5 L 14.722431864335457 40 M 21.650635094610966 36 L 22.516660498395403 35.5 M 28.578838324886473 32 L 29.444863728670914 31.5 M 13.856406460551018 42.5 L 14.722431864335457 42 M 13.856406460551018 43.5 L 8.660254037844386 46.5 M 13.856406460551018 44.5 L 16.454482671904334 43 M 17.32050807568877 43.5 L 15.588457268119894 44.5 M 11.258330249197702 47 L 9.526279441628825 48 M 11.258330249197702 48 L 12.12435565298214 47.5 M 62.35382907247958 19.5 L 61.48780366869514 20 M 49.363448015713 27 L 48.49742261192856 27.5 M 42.43524478543749 31 L 41.569219381653056 31.5 M 35.50704155516198 35 L 34.64101615137754 35.5 M 28.578838324886473 39 L 27.712812921102035 39.5 M 20.784609690826528 43.5 L 19.918584287042087 44 M 42.43524478543749 32 L 43.30127018922193 31.5 M 49.363448015713 28 L 50.22947341949744 27.5 M 11.258330249197702 52 L 13.856406460551018 50.5 M 14.722431864335457 50 L 15.588457268119894 49.5 M 18.186533479473212 48 L 19.05255888325765 47.5 M 21.650635094610966 46 L 22.516660498395403 45.5 M 21.650635094610966 47 L 19.918584287042087 48 M 17.32050807568877 49.5 L 14.722431864335457 51 M 13.856406460551018 51.5 L 12.990381056766578 52 M 9.526279441628825 59 L 10.392304845413264 58.5 M 34.64101615137754 44.5 L 35.50704155516198 44 M 37.23909236273086 43 L 42.43524478543749 40 M 44.167295593006365 39 L 49.363448015713 36 M 51.09549882328188 35 L 56.29165124598851 32 M 34.64101615137754 45.5 L 30.31088913245535 48 M 11.258330249197702 59 L 10.392304845413264 59.5 M 8.660254037844386 60.5 L 7.794228634059947 61 M 30.31088913245535 49 L 32.90896534380867 47.5 M 33.77499074759311 47 L 34.64101615137754 46.5 M 56.29165124598851 35 L 51.09549882328188 38 M 49.363448015713 39 L 44.167295593006365 42 M 42.43524478543749 43 L 37.23909236273086 46 M 32.90896534380867 48.5 L 32.042939940024226 49 M 51.09549882328188 39 L 56.29165124598851 36 M 56.29165124598851 37 L 51.09549882328188 40 M 60.6217782649107 35.5 L 61.48780366869514 35 M 76.2102355330306 27.5 L 75.34421012924616 28 M 34.64101615137754 51.5 L 33.77499074759311 52 M 32.042939940024226 53 L 30.31088913245535 54 M 31.17691453623979 54.5 L 32.042939940024226 54 M 32.90896534380867 53.5 L 34.64101615137754 52.5 M 35.50704155516198 52 L 38.97114317029974 50 M 40.703193977868615 49 L 45.89934640057525 46 M 59.75575286112626 38 L 60.6217782649107 37.5 M 71.01408311032397 32.5 L 66.68395609140177 35 M 11.258330249197702 68 L 14.722431864335457 66 M 61.48780366869514 39 L 62.35382907247958 38.5 M 67.54998149518622 35.5 L 71.01408311032397 33.5 M 37.23909236273086 54 L 35.50704155516198 55 M 33.77499074759311 56 L 32.90896534380867 56.5 M 15.588457268119894 66.5 L 14.722431864335457 67 M 13.856406460551018 67.5 L 12.990381056766578 68 M 30.31088913245535 59 L 31.17691453623979 58.5 M 32.042939940024226 58 L 32.90896534380867 57.5 M 33.77499074759311 57 L 38.97114317029974 54 M 40.703193977868615 53 L 41.569219381653056 52.5 M 3.4641016151377544 78.5 L 7.794228634059947 76 M 9.526279441628825 75 L 10.392304845413264 74.5 M 30.31088913245535 63 L 31.17691453623979 62.5 M 32.042939940024226 62 L 32.90896534380867 61.5 M 45.033320996790806 54.5 L 45.89934640057525 54 M 56.29165124598851 49 L 51.09549882328188 52 M 49.363448015713 53 L 47.63139720814412 54 M 19.05255888325765 71.5 L 19.918584287042087 71 M 20.784609690826528 70.5 L 21.650635094610966 70 M 48.49742261192856 54.5 L 49.363448015713 54 M 51.09549882328188 53 L 56.29165124598851 50 M 33.77499074759311 67 L 38.97114317029974 64 M 40.703193977868615 63 L 41.569219381653056 62.5 M 66.68395609140177 48 L 69.28203230275508 46.5 M 77.07626093681503 42 L 77.94228634059948 41.5 M 77.94228634059948 42.5 L 77.07626093681503 43 M 90.06664199358161 36.5 L 90.93266739736605 36 M 101.32497224277931 31 L 99.59292143521044 32 M 69.28203230275508 49.5 L 65.81793068761733 51.5 M 14.722431864335457 81 L 13.856406460551018 81.5 M 31.17691453623979 72.5 L 32.042939940024226 72 M 32.90896534380867 71.5 L 35.50704155516198 70 M 37.23909236273086 69 L 42.43524478543749 66 M 44.167295593006365 65 L 45.033320996790806 64.5 M 45.89934640057525 64 L 47.63139720814412 63 M 66.68395609140177 52 L 72.74613391789285 48.5 M 99.59292143521044 34 L 94.39676901250381 37 M 92.66471820493493 38 L 87.4685657822283 41 M 71.8801085141084 50 L 66.68395609140177 53 M 47.63139720814412 64 L 44.167295593006365 66 M 42.43524478543749 67 L 37.23909236273086 70 M 35.50704155516198 71 L 31.17691453623979 73.5 M 16.454482671904334 82 L 14.722431864335457 83 M 11.258330249197702 86 L 12.12435565298214 85.5 M 12.990381056766578 85 L 13.856406460551018 84.5 M 30.31088913245535 75 L 31.17691453623979 74.5 M 47.63139720814412 65 L 48.49742261192856 64.5 M 99.59292143521044 35 L 100.45894683899488 34.5 M 72.74613391789285 51.5 L 68.41600689897065 54 M 33.77499074759311 74 L 32.90896534380867 74.5 M 14.722431864335457 85 L 13.856406460551018 85.5 M 47.63139720814412 67 L 50.22947341949744 65.5 M 73.61215932167728 52 L 74.47818472546172 51.5 M 83.13843876330611 46.5 L 88.33459118601273 43.5 M 94.39676901250381 40 L 99.59292143521044 37 M 14.722431864335457 87 L 13.856406460551018 87.5 M 3.4641016151377544 94.5 L 6.928203230275509 92.5 M 30.31088913245535 79 L 35.50704155516198 76 M 37.23909236273086 75 L 42.43524478543749 72 M 44.167295593006365 71 L 48.49742261192856 68.5 M 51.09549882328188 67 L 51.96152422706631 66.5 M 75.34421012924616 53 L 77.94228634059948 51.5 M 83.13843876330611 48.5 L 88.33459118601273 45.5 M 96.12881982007268 41 L 101.32497224277931 38 M 103.05702305034819 37 L 103.92304845413263 36.5 M 47.63139720814412 70 L 45.89934640057525 71 M 45.033320996790806 71.5 L 44.167295593006365 72 M 42.43524478543749 73 L 37.23909236273086 76 M 35.50704155516198 77 L 32.90896534380867 78.5 M 7.794228634059947 93 L 5.196152422706632 94.5 M 32.042939940024226 80 L 32.90896534380867 79.5 M 52.827549630850754 68 L 53.693575034635195 67.5 M 73.61215932167728 58 L 75.34421012924616 57 M 78.80831174438391 55 L 79.67433714816835 54.5 M 85.73651497465941 51 L 86.60254037844386 50.5 M 92.66471820493493 47 L 93.53074360871936 46.5 M 45.033320996790806 75.5 L 44.167295593006365 76 M 42.43524478543749 77 L 37.23909236273086 80 M 35.50704155516198 81 L 32.042939940024226 83 M 31.17691453623979 83.5 L 30.31088913245535 84 M 32.90896534380867 83.5 L 35.50704155516198 82 M 37.23909236273086 81 L 41.569219381653056 78.5 M 44.167295593006365 77 L 45.033320996790806 76.5 M 68.41600689897065 63 L 74.47818472546172 59.5 M 80.5403625519528 56 L 85.73651497465941 53 M 87.4685657822283 52 L 92.66471820493493 49 M 68.41600689897065 65 L 69.28203230275508 64.5 M 78.80831174438391 59 L 84.00446416709055 56 M 85.73651497465941 55 L 87.4685657822283 54 M 96.12881982007268 49 L 101.32497224277931 46 M 103.05702305034819 45 L 103.92304845413263 44.5 M 77.07626093681503 61 L 76.2102355330306 61.5 M 14.722431864335457 97 L 13.856406460551018 97.5 M 3.4641016151377544 103.5 L 2.598076211353316 104 M 12.990381056766578 99 L 15.588457268119894 97.5 M 80.5403625519528 60 L 83.13843876330611 58.5 M 83.13843876330611 59.5 L 82.27241335952166 60 M 71.8801085141084 66 L 67.54998149518622 68.5 M 46.76537180435968 80.5 L 45.89934640057525 81 M 16.454482671904334 98 L 14.722431864335457 99 M 12.990381056766578 101 L 13.856406460551018 100.5 M 31.17691453623979 90.5 L 32.90896534380867 89.5 M 41.569219381653056 84.5 L 42.43524478543749 84 M 45.033320996790806 82.5 L 45.89934640057525 82 M 47.63139720814412 81 L 48.49742261192856 80.5 M 84.87048957087498 59.5 L 87.4685657822283 58 M 89.20061658979718 57 L 94.39676901250381 54 M 96.12881982007268 53 L 101.32497224277931 50 M 103.05702305034819 49 L 103.92304845413263 48.5 M 103.92304845413263 49.5 L 103.05702305034819 50 M 101.32497224277931 51 L 96.12881982007268 54 M 94.39676901250381 55 L 89.20061658979718 58 M 87.4685657822283 59 L 84.87048957087498 60.5 M 14.722431864335457 101 L 13.856406460551018 101.5 M 4.330127018922193 107 L 3.4641016151377544 107.5 M 84.87048957087498 61.5 L 88.33459118601273 59.5 M 90.06664199358161 58.5 L 95.26279441628824 55.5 M 96.99484522385713 54.5 L 102.19099764656376 51.5 M 103.92304845413263 50.5 L 108.25317547305482 48 M 78.80831174438391 66 L 76.2102355330306 67.5 M 2.598076211353316 111 L 6.928203230275509 108.5 M 31.17691453623979 94.5 L 32.90896534380867 93.5 M 41.569219381653056 88.5 L 42.43524478543749 88 M 45.033320996790806 86.5 L 45.89934640057525 86 M 47.63139720814412 85 L 48.49742261192856 84.5 M 82.27241335952166 66 L 80.5403625519528 67 M 78.80831174438391 68 L 76.2102355330306 69.5 M 7.794228634059947 109 L 3.4641016151377544 111.5 M 27.712812921102035 98.5 L 28.578838324886473 98 M 30.31088913245535 97 L 31.17691453623979 96.5 M 81.40638795573723 67.5 L 83.13843876330611 66.5 M 31.17691453623979 97.5 L 30.31088913245535 98 M 19.918584287042087 104 L 19.05255888325765 104.5 M 8.660254037844386 111.5 L 10.392304845413264 110.5 M 89.20061658979718 66 L 88.33459118601273 66.5 M 83.13843876330611 69.5 L 81.40638795573723 70.5 M 80.5403625519528 71 L 76.2102355330306 73.5 M 31.17691453623979 99.5 L 30.31088913245535 100 M 11.258330249197702 111 L 10.392304845413264 111.5 M 8.660254037844386 112.5 L 6.06217782649107 114 M 13.856406460551018 110.5 L 14.722431864335457 110 M 73.61215932167728 76 L 75.34421012924616 75 M 76.2102355330306 74.5 L 80.5403625519528 72 M 88.33459118601273 67.5 L 89.20061658979718 67 M 99.59292143521044 62 L 96.99484522385713 63.5 M 95.26279441628824 64.5 L 90.06664199358161 67.5 M 88.33459118601273 68.5 L 84.87048957087498 70.5 M 82.27241335952166 72 L 81.40638795573723 72.5 M 68.41600689897065 81 L 73.61215932167728 78 M 78.80831174438391 75 L 83.13843876330611 72.5 M 84.00446416709055 72 L 89.20061658979718 69 M 90.93266739736605 68 L 96.12881982007268 65 M 97.86087062764156 64 L 100.45894683899488 62.5 M 108.25317547305482 59 L 103.92304845413263 61.5 M 102.19099764656376 62.5 L 100.45894683899488 63.5 M 83.13843876330611 73.5 L 82.27241335952166 74 M 81.40638795573723 74.5 L 79.67433714816835 75.5 M 77.94228634059948 76.5 L 72.74613391789285 79.5 M 10.392304845413264 116.5 L 12.12435565298214 115.5 M 12.990381056766578 115 L 13.856406460551018 114.5 M 14.722431864335457 114 L 15.588457268119894 113.5 M 73.61215932167728 80 L 75.34421012924616 79 M 77.94228634059948 77.5 L 78.80831174438391 77 M 80.5403625519528 76 L 82.27241335952166 75 M 84.00446416709055 74 L 89.20061658979718 71 M 90.93266739736605 70 L 96.12881982007268 67 M 97.86087062764156 66 L 100.45894683899488 64.5 M 92.66471820493493 70 L 90.93266739736605 71 M 83.13843876330611 75.5 L 81.40638795573723 76.5 M 80.5403625519528 77 L 79.67433714816835 77.5 M 71.8801085141084 82 L 67.54998149518622 84.5 M 16.454482671904334 114 L 14.722431864335457 115 M 30.31088913245535 107 L 32.90896534380867 105.5 M 41.569219381653056 100.5 L 42.43524478543749 100 M 45.033320996790806 98.5 L 45.89934640057525 98 M 47.63139720814412 97 L 48.49742261192856 96.5 M 68.41600689897065 85 L 75.34421012924616 81 M 84.87048957087498 75.5 L 87.4685657822283 74 M 89.20061658979718 73 L 94.39676901250381 70 M 96.12881982007268 69 L 101.32497224277931 66 M 108.25317547305482 63 L 107.38715006927039 63.5 M 102.19099764656376 66.5 L 99.59292143521044 68 M 89.20061658979718 74 L 88.33459118601273 74.5 M 84.87048957087498 76.5 L 83.13843876330611 77.5 M 80.5403625519528 79 L 79.67433714816835 79.5 M 6.06217782649107 122 L 3.4641016151377544 123.5 M 68.41600689897065 87 L 73.61215932167728 84 M 81.40638795573723 79.5 L 83.13843876330611 78.5 M 84.00446416709055 78 L 89.20061658979718 75 M 90.93266739736605 74 L 96.12881982007268 71 M 97.86087062764156 70 L 100.45894683899488 68.5 M 104.78907385791707 66 L 107.38715006927039 64.5 M 109.11920087683926 64.5 L 105.65509926170151 66.5 M 2.598076211353316 127 L 6.928203230275509 124.5 M 30.31088913245535 111 L 32.90896534380867 109.5 M 41.569219381653056 104.5 L 42.43524478543749 104 M 45.033320996790806 102.5 L 45.89934640057525 102 M 47.63139720814412 101 L 48.49742261192856 100.5 M 102.19099764656376 70.5 L 100.45894683899488 71.5 M 83.13843876330611 81.5 L 81.40638795573723 82.5 M 7.794228634059947 125 L 3.4641016151377544 127.5 M 84.00446416709055 82 L 89.20061658979718 79 M 90.93266739736605 78 L 96.12881982007268 75 M 97.86087062764156 74 L 98.726896031426 73.5 M 100.45894683899488 72.5 L 103.05702305034819 71 M 97.86087062764156 75 L 96.99484522385713 75.5 M 95.26279441628824 76.5 L 90.06664199358161 79.5 M 88.33459118601273 80.5 L 85.73651497465941 82 M 84.87048957087498 82.5 L 83.13843876330611 83.5 M 33.77499074759311 112 L 32.90896534380867 112.5 M 20.784609690826528 119.5 L 19.05255888325765 120.5 M 8.660254037844386 127.5 L 12.12435565298214 125.5 M 20.784609690826528 120.5 L 21.650635094610966 120 M 33.77499074759311 113 L 34.64101615137754 112.5 M 98.726896031426 75.5 L 103.05702305034819 73 M 103.92304845413263 73.5 L 98.726896031426 76.5 M 96.99484522385713 77.5 L 91.7986928011505 80.5 M 90.06664199358161 81.5 L 87.4685657822283 83 M 24.24871130596428 119.5 L 23.38268590217984 120 M 11.258330249197702 127 L 10.392304845413264 127.5 M 73.61215932167728 92 L 74.47818472546172 91.5 M 90.93266739736605 83 L 90.06664199358161 83.5 M 82.27241335952166 88 L 81.40638795573723 88.5 M 68.41600689897065 97 L 73.61215932167728 94 M 78.80831174438391 91 L 82.27241335952166 89 M 109.11920087683926 74.5 L 105.65509926170151 76.5 M 97.86087062764156 81 L 96.99484522385713 81.5 M 85.73651497465941 88 L 83.13843876330611 89.5 M 77.07626093681503 93 L 72.74613391789285 95.5 M 12.990381056766578 131 L 13.856406460551018 130.5 M 14.722431864335457 130 L 15.588457268119894 129.5 M 73.61215932167728 96 L 77.94228634059948 93.5 M 104.78907385791707 78 L 109.11920087683926 75.5 M 103.92304845413263 79.5 L 98.726896031426 82.5 M 96.99484522385713 83.5 L 87.4685657822283 89 M 85.73651497465941 90 L 84.00446416709055 91 M 83.13843876330611 91.5 L 81.40638795573723 92.5 M 71.8801085141084 98 L 67.54998149518622 100.5 M 17.32050807568877 129.5 L 14.722431864335457 131 M 30.31088913245535 123 L 32.90896534380867 121.5 M 41.569219381653056 116.5 L 42.43524478543749 116 M 45.033320996790806 114.5 L 45.89934640057525 114 M 47.63139720814412 113 L 48.49742261192856 112.5 M 68.41600689897065 101 L 73.61215932167728 98 M 82.27241335952166 93 L 84.00446416709055 92 M 84.87048957087498 91.5 L 86.60254037844386 90.5 M 96.12881982007268 85 L 96.99484522385713 84.5 M 107.38715006927039 79.5 L 103.92304845413263 81.5 M 102.19099764656376 82.5 L 98.726896031426 84.5 M 97.86087062764156 85 L 96.99484522385713 85.5 M 87.4685657822283 91 L 86.60254037844386 91.5 M 85.73651497465941 92 L 83.13843876330611 93.5 M 49.363448015713 113 L 48.49742261192856 113.5 M 42.43524478543749 117 L 41.569219381653056 117.5 M 29.444863728670914 124.5 L 28.578838324886473 125 M 8.660254037844386 136.5 L 3.4641016151377544 139.5 M 29.444863728670914 125.5 L 30.31088913245535 125 M 42.43524478543749 118 L 43.30127018922193 117.5 M 87.4685657822283 92 L 88.33459118601273 91.5 M 90.93266739736605 90 L 96.12881982007268 87 M 97.86087062764156 86 L 98.726896031426 85.5 M 104.78907385791707 82 L 109.11920087683926 79.5 M 103.92304845413263 83.5 L 98.726896031426 86.5 M 96.99484522385713 87.5 L 91.7986928011505 90.5 M 90.06664199358161 91.5 L 87.4685657822283 93 M 30.31088913245535 127 L 31.17691453623979 126.5 M 32.042939940024226 126 L 32.90896534380867 125.5 M 41.569219381653056 120.5 L 42.43524478543749 120 M 45.033320996790806 118.5 L 45.89934640057525 118 M 47.63139720814412 117 L 48.49742261192856 116.5 M 20.784609690826528 135.5 L 19.05255888325765 136.5 M 8.660254037844386 143.5 L 11.258330249197702 142 M 20.784609690826528 136.5 L 21.650635094610966 136 M 73.61215932167728 106 L 78.80831174438391 103 M 84.00446416709055 100 L 85.73651497465941 99 M 96.99484522385713 92.5 L 97.86087062764156 92 M 86.60254037844386 99.5 L 84.87048957087498 100.5 M 74.47818472546172 106.5 L 73.61215932167728 107 M 12.12435565298214 142.5 L 10.392304845413264 143.5 M 42.43524478543749 126 L 43.30127018922193 125.5 M 73.61215932167728 108 L 75.34421012924616 107 M 90.93266739736605 99 L 90.06664199358161 99.5 M 82.27241335952166 104 L 77.94228634059948 106.5 M 38.97114317029974 130 L 41.569219381653056 128.5 M 44.167295593006365 127 L 45.033320996790806 126.5 M 45.89934640057525 126 L 47.63139720814412 125 M 68.41600689897065 113 L 73.61215932167728 110 M 90.06664199358161 100.5 L 90.93266739736605 100 M 97.86087062764156 97 L 96.99484522385713 97.5 M 86.60254037844386 103.5 L 83.13843876330611 105.5 M 47.63139720814412 126 L 44.167295593006365 128 M 42.43524478543749 129 L 39.837168574084174 130.5 M 15.588457268119894 144.5 L 13.856406460551018 145.5 M 12.990381056766578 147 L 13.856406460551018 146.5 M 14.722431864335457 146 L 16.454482671904334 145 M 104.78907385791707 94 L 109.11920087683926 91.5 M 103.92304845413263 95.5 L 98.726896031426 98.5 M 96.99484522385713 99.5 L 87.4685657822283 105 M 85.73651497465941 106 L 84.00446416709055 107 M 83.13843876330611 107.5 L 81.40638795573723 108.5 M 71.8801085141084 114 L 67.54998149518622 116.5 M 17.32050807568877 145.5 L 14.722431864335457 147 M 30.31088913245535 139 L 31.17691453623979 138.5 M 32.042939940024226 138 L 32.90896534380867 137.5 M 38.97114317029974 134 L 39.837168574084174 133.5 M 47.63139720814412 129 L 48.49742261192856 128.5 M 68.41600689897065 117 L 73.61215932167728 114 M 82.27241335952166 109 L 84.00446416709055 108 M 84.87048957087498 107.5 L 86.60254037844386 106.5 M 96.12881982007268 101 L 96.99484522385713 100.5 M 107.38715006927039 95.5 L 103.92304845413263 97.5 M 102.19099764656376 98.5 L 98.726896031426 100.5 M 97.86087062764156 101 L 96.99484522385713 101.5 M 87.4685657822283 107 L 86.60254037844386 107.5 M 85.73651497465941 108 L 83.13843876330611 109.5 M 29.444863728670914 140.5 L 28.578838324886473 141 M 29.444863728670914 141.5 L 30.31088913245535 141 M 87.4685657822283 108 L 88.33459118601273 107.5 M 90.93266739736605 106 L 96.12881982007268 103 M 97.86087062764156 102 L 98.726896031426 101.5 M 104.78907385791707 98 L 109.11920087683926 95.5 M 103.92304845413263 99.5 L 98.726896031426 102.5 M 97.86087062764156 103 L 91.7986928011505 106.5 M 90.06664199358161 107.5 L 87.4685657822283 109 M 30.31088913245535 143 L 31.17691453623979 142.5 M 32.042939940024226 142 L 32.90896534380867 141.5 M 38.97114317029974 138 L 39.837168574084174 137.5 M 48.49742261192856 132.5 L 49.363448015713 132 M 51.09549882328188 131 L 56.29165124598851 128 M 82.27241335952166 114 L 81.40638795573723 114.5 M 56.29165124598851 129 L 53.693575034635195 130.5 M 52.827549630850754 131 L 51.09549882328188 132 M 73.61215932167728 120 L 75.34421012924616 119 M 55.42562584220407 131.5 L 54.55960043841963 132 M 40.703193977868615 140 L 39.837168574084174 140.5 M 20.784609690826528 151.5 L 19.05255888325765 152.5 M 20.784609690826528 152.5 L 21.650635094610966 152 M 40.703193977868615 141 L 41.569219381653056 140.5 M 54.55960043841963 133 L 55.42562584220407 132.5 M 58.88972745734183 130.5 L 60.6217782649107 129.5 M 83.13843876330611 116.5 L 84.87048957087498 115.5 M 74.47818472546172 122.5 L 73.61215932167728 123 M 49.363448015713 138 L 51.09549882328188 137 M 90.93266739736605 115 L 90.06664199358161 115.5 M 84.00446416709055 119 L 77.94228634059948 122.5 M 51.09549882328188 139 L 52.827549630850754 138 M 68.41600689897065 129 L 73.61215932167728 126 M 84.87048957087498 119.5 L 85.73651497465941 119 M 90.06664199358161 116.5 L 90.93266739736605 116 M 58.023702053557386 136 L 56.29165124598851 137 M 55.42562584220407 137.5 L 53.693575034635195 138.5 M 52.827549630850754 139 L 49.363448015713 141 M 45.89934640057525 143 L 43.30127018922193 144.5 M 104.78907385791707 110 L 109.11920087683926 107.5 M 103.92304845413263 111.5 L 98.726896031426 114.5 M 96.99484522385713 115.5 L 90.93266739736605 119 M 90.06664199358161 119.5 L 87.4685657822283 121 M 86.60254037844386 121.5 L 84.87048957087498 122.5 M 84.00446416709055 123 L 81.40638795573723 124.5 M 56.29165124598851 139 L 53.693575034635195 140.5 M 52.827549630850754 141 L 51.09549882328188 142 M 30.31088913245535 155 L 31.17691453623979 154.5 M 32.042939940024226 154 L 32.90896534380867 153.5 M 38.97114317029974 150 L 39.837168574084174 149.5 M 48.49742261192856 144.5 L 49.363448015713 144 M 51.09549882328188 143 L 56.29165124598851 140 M 92.66471820493493 119 L 93.53074360871936 118.5 M 107.38715006927039 111.5 L 103.92304845413263 113.5 M 102.19099764656376 114.5 L 98.726896031426 116.5 M 97.86087062764156 117 L 96.99484522385713 117.5 M 95.26279441628824 118.5 L 90.93266739736605 121 M 58.88972745734183 139.5 L 55.42562584220407 141.5 M 53.693575034635195 142.5 L 48.49742261192856 145.5 M 29.444863728670914 156.5 L 28.578838324886473 157 M 29.444863728670914 157.5 L 30.31088913245535 157 M 49.363448015713 146 L 54.55960043841963 143 M 56.29165124598851 142 L 59.75575286112626 140 M 87.4685657822283 124 L 89.20061658979718 123 M 104.78907385791707 114 L 109.11920087683926 111.5 M 103.92304845413263 115.5 L 98.726896031426 118.5 M 96.99484522385713 119.5 L 91.7986928011505 122.5 M 90.06664199358161 123.5 L 87.4685657822283 125 M 30.31088913245535 159 L 31.17691453623979 158.5 M 32.042939940024226 158 L 32.90896534380867 157.5 M 38.97114317029974 154 L 39.837168574084174 153.5 M 48.49742261192856 148.5 L 49.363448015713 148 M 71.8801085141084 136 L 70.14805770653953 137 M 67.54998149518622 138.5 L 62.35382907247958 141.5 M 62.35382907247958 143.5 L 61.48780366869514 144 M 55.42562584220407 147.5 L 54.55960043841963 148 M 39.837168574084174 157.5 L 43.30127018922193 155.5 M 44.167295593006365 155 L 48.49742261192856 152.5 M 49.363448015713 152 L 54.55960043841963 149 M 56.29165124598851 148 L 61.48780366869514 145 M 90.93266739736605 129 L 90.06664199358161 129.5 M 84.00446416709055 133 L 81.40638795573723 134.5 M 80.5403625519528 135 L 79.67433714816835 135.5 M 49.363448015713 153 L 44.167295593006365 156 M 41.569219381653056 157.5 L 38.97114317029974 159 M 63.21985447626402 146 L 67.54998149518622 143.5 M 82.27241335952166 136 L 81.40638795573723 136.5 M 69.28203230275508 143.5 L 64.08587988004845 146.5 M 75.34421012924616 141 L 77.07626093681503 140 M 99.59292143521044 128 L 98.726896031426 128.5 M 96.99484522385713 129.5 L 91.7986928011505 132.5 M 90.06664199358161 133.5 L 87.4685657822283 135 M 84.00446416709055 137 L 79.67433714816835 139.5 M 71.8801085141084 144 L 70.14805770653953 145 M 56.29165124598851 153 L 51.09549882328188 156 M 50.22947341949744 156.5 L 44.167295593006365 160 M 43.30127018922193 160.5 L 42.43524478543749 161 M 44.167295593006365 161 L 48.49742261192856 158.5 M 51.09549882328188 157 L 56.29165124598851 154 M 66.68395609140177 148 L 70.14805770653953 146 M 79.67433714816835 140.5 L 84.87048957087498 137.5 M 85.73651497465941 137 L 90.93266739736605 134 M 92.66471820493493 133 L 97.86087062764156 130 M 99.59292143521044 129 L 100.45894683899488 128.5 M 104.78907385791707 126 L 109.11920087683926 123.5 M 103.92304845413263 127.5 L 100.45894683899488 129.5 M 91.7986928011505 134.5 L 90.93266739736605 135 M 84.87048957087498 138.5 L 81.40638795573723 140.5 M 71.01408311032397 146.5 L 67.54998149518622 148.5 M 48.49742261192856 159.5 L 44.167295593006365 162 M 32.042939940024226 169 L 31.17691453623979 169.5 M 30.31088913245535 171 L 32.90896534380867 169.5 M 41.569219381653056 164.5 L 42.43524478543749 164 M 44.167295593006365 163 L 49.363448015713 160 M 85.73651497465941 139 L 90.93266739736605 136 M 92.66471820493493 135 L 97.86087062764156 132 M 99.59292143521044 131 L 100.45894683899488 130.5 M 107.38715006927039 127.5 L 103.92304845413263 129.5 M 102.19099764656376 130.5 L 98.726896031426 132.5 M 59.75575286112626 156 L 61.48780366869514 155 M 104.78907385791707 130 L 109.11920087683926 127.5 M 103.92304845413263 131.5 L 99.59292143521044 134 M 96.99484522385713 135.5 L 91.7986928011505 138.5 M 90.06664199358161 139.5 L 84.87048957087498 142.5 M 71.8801085141084 151 L 75.34421012924616 149 M 85.73651497465941 143 L 90.93266739736605 140 M 92.66471820493493 139 L 97.86087062764156 136 M 99.59292143521044 135 L 100.45894683899488 134.5 M 76.2102355330306 149.5 L 72.74613391789285 151.5 M 80.5403625519528 149 L 77.94228634059948 150.5 M 66.68395609140177 157 L 64.08587988004845 158.5 M 67.54998149518622 157.5 L 71.8801085141084 155 M 103.92304845413263 139.5 L 100.45894683899488 141.5 M 91.7986928011505 146.5 L 90.93266739736605 147 M 84.87048957087498 150.5 L 81.40638795573723 152.5 M 69.28203230275508 159.5 L 67.54998149518622 160.5 M 91.7986928011505 148.5 L 90.93266739736605 149 M 84.87048957087498 152.5 L 84.00446416709055 153 M 82.27241335952166 154 L 81.40638795573723 154.5 M 70.14805770653953 162 L 71.8801085141084 161 M 77.94228634059948 157.5 L 78.80831174438391 157 M 80.5403625519528 156 L 84.87048957087498 153.5 M 90.93266739736605 150 L 91.7986928011505 149.5 M 100.45894683899488 144.5 L 103.05702305034819 143 M 104.78907385791707 142 L 109.11920087683926 139.5 M 91.7986928011505 150.5 L 90.93266739736605 151 M 84.87048957087498 154.5 L 81.40638795573723 156.5 M 80.5403625519528 157 L 79.67433714816835 157.5 M 77.94228634059948 158.5 L 72.74613391789285 161.5 M 85.73651497465941 155 L 90.93266739736605 152 M 92.66471820493493 151 L 97.86087062764156 148 M 99.59292143521044 147 L 100.45894683899488 146.5 M 107.38715006927039 143.5 L 103.92304845413263 145.5 M 102.19099764656376 146.5 L 98.726896031426 148.5 M 86.60254037844386 156.5 L 87.4685657822283 156 M 98.726896031426 149.5 L 103.05702305034819 147 M 104.78907385791707 146 L 109.11920087683926 143.5 M 98.726896031426 151.5 L 103.05702305034819 149 M 104.78907385791707 148 L 109.11920087683926 145.5 M 100.45894683899488 157.5 L 95.26279441628824 160.5 M 93.53074360871936 161.5 L 88.33459118601273 164.5 M 86.60254037844386 165.5 L 81.40638795573723 168.5 M 57.157676649772945 5.5 L 101.32497224277931 31 M 55.42562584220407 6.5 L 99.59292143521044 32 M 98.726896031426 32.5 L 56.29165124598851 8 M 55.42562584220407 7.5 L 53.693575034635195 6.5 M 53.693575034635195 7.5 L 99.59292143521044 34 M 100.45894683899488 34.5 L 103.92304845413263 36.5 M 103.05702305034819 37 L 99.59292143521044 35 M 52.827549630850754 8 L 51.96152422706631 7.5 M 101.32497224277931 38 L 99.59292143521044 37 M 51.09549882328188 9 L 50.22947341949744 8.5 M 48.49742261192856 10.5 L 94.39676901250381 37 M 93.53074360871936 37.5 L 92.66471820493493 37 M 91.7986928011505 36.5 L 74.47818472546172 26.5 M 67.54998149518622 22.5 L 49.363448015713 12 M 46.76537180435968 11.5 L 92.66471820493493 38 M 108.25317547305482 48 L 101.32497224277931 44 M 96.12881982007268 41 L 94.39676901250381 40 M 45.89934640057525 12 L 45.033320996790806 11.5 M 44.167295593006365 13 L 43.30127018922193 12.5 M 100.45894683899488 46.5 L 103.92304845413263 48.5 M 103.05702305034819 49 L 99.59292143521044 47 M 41.569219381653056 14.5 L 87.4685657822283 41 M 103.05702305034819 50 L 103.92304845413263 50.5 M 103.05702305034819 51 L 97.86087062764156 48 M 86.60254037844386 41.5 L 85.73651497465941 41 M 84.87048957087498 40.5 L 82.27241335952166 39 M 81.40638795573723 38.5 L 80.5403625519528 38 M 76.2102355330306 35.5 L 36.373066958946424 12.5 M 71.01408311032397 33.5 L 88.33459118601273 43.5 M 101.32497224277931 51 L 102.19099764656376 51.5 M 96.12881982007268 49 L 93.53074360871936 47.5 M 66.68395609140177 35 L 77.94228634059948 41.5 M 103.05702305034819 57 L 102.19099764656376 56.5 M 96.12881982007268 53 L 90.93266739736605 50 M 77.07626093681503 42 L 31.17691453623979 15.5 M 32.042939940024226 17 L 52.827549630850754 29 M 77.07626093681503 43 L 83.13843876330611 46.5 M 96.12881982007268 54 L 96.99484522385713 54.5 M 96.12881982007268 55 L 89.20061658979718 51 M 77.94228634059948 44.5 L 75.34421012924616 43 M 74.47818472546172 42.5 L 73.61215932167728 42 M 69.28203230275508 39.5 L 60.6217782649107 34.5 M 56.29165124598851 32 L 29.444863728670914 16.5 M 56.29165124598851 33 L 59.75575286112626 35 M 60.6217782649107 35.5 L 69.28203230275508 40.5 M 70.14805770653953 41 L 72.74613391789285 42.5 M 78.80831174438391 46 L 79.67433714816835 46.5 M 80.5403625519528 47 L 83.13843876330611 48.5 M 94.39676901250381 55 L 96.12881982007268 56 M 102.19099764656376 59.5 L 103.05702305034819 60 M 104.78907385791707 61 L 108.25317547305482 63 M 109.11920087683926 64.5 L 107.38715006927039 63.5 M 103.92304845413263 61.5 L 103.05702305034819 61 M 87.4685657822283 52 L 86.60254037844386 51.5 M 69.28203230275508 41.5 L 66.68395609140177 40 M 59.75575286112626 36 L 56.29165124598851 34 M 56.29165124598851 35 L 65.81793068761733 40.5 M 95.26279441628824 57.5 L 96.12881982007268 58 M 102.19099764656376 61.5 L 107.38715006927039 64.5 M 87.4685657822283 54 L 85.73651497465941 53 M 65.81793068761733 41.5 L 61.48780366869514 39 M 59.75575286112626 38 L 55.42562584220407 35.5 M 56.29165124598851 37 L 65.81793068761733 42.5 M 99.59292143521044 62 L 100.45894683899488 62.5 M 105.65509926170151 66.5 L 104.78907385791707 66 M 89.20061658979718 57 L 85.73651497465941 55 M 51.09549882328188 35 L 24.24871130596428 19.5 M 25.11473670974872 21 L 45.89934640057525 33 M 89.20061658979718 58 L 90.06664199358161 58.5 M 95.26279441628824 61.5 L 96.12881982007268 62 M 100.45894683899488 64.5 L 104.78907385791707 67 M 102.19099764656376 66.5 L 101.32497224277931 66 M 97.86087062764156 64 L 96.99484522385713 63.5 M 89.20061658979718 59 L 84.00446416709055 56 M 49.363448015713 36 L 22.516660498395403 20.5 M 49.363448015713 37 L 51.09549882328188 38 M 52.827549630850754 39 L 65.81793068761733 46.5 M 67.54998149518622 47.5 L 69.28203230275508 48.5 M 71.8801085141084 50 L 72.74613391789285 50.5 M 87.4685657822283 59 L 88.33459118601273 59.5 M 104.78907385791707 70 L 102.19099764656376 68.5 M 99.59292143521044 67 L 95.26279441628824 64.5 M 80.5403625519528 56 L 79.67433714816835 55.5 M 78.80831174438391 55 L 77.94228634059948 54.5 M 75.34421012924616 53 L 74.47818472546172 52.5 M 73.61215932167728 52 L 72.74613391789285 51.5 M 70.14805770653953 50 L 69.28203230275508 49.5 M 66.68395609140177 48 L 65.81793068761733 47.5 M 51.09549882328188 39 L 49.363448015713 38 M 49.363448015713 39 L 51.09549882328188 40 M 83.13843876330611 58.5 L 84.87048957087498 59.5 M 96.12881982007268 66 L 98.726896031426 67.5 M 99.59292143521044 68 L 100.45894683899488 68.5 M 102.19099764656376 69.5 L 103.92304845413263 70.5 M 103.05702305034819 71 L 102.19099764656376 70.5 M 97.86087062764156 68 L 96.12881982007268 67 M 84.87048957087498 60.5 L 83.13843876330611 59.5 M 82.27241335952166 60 L 84.87048957087498 61.5 M 103.92304845413263 73.5 L 103.05702305034819 73 M 97.86087062764156 70 L 96.12881982007268 69 M 80.5403625519528 60 L 75.34421012924616 57 M 66.68395609140177 52 L 65.81793068761733 51.5 M 44.167295593006365 39 L 17.32050807568877 23.5 M 18.186533479473212 25 L 19.918584287042087 26 M 20.784609690826528 26.5 L 26.846787517317598 30 M 27.712812921102035 30.5 L 38.97114317029974 37 M 45.89934640057525 41 L 65.81793068761733 52.5 M 66.68395609140177 53 L 68.41600689897065 54 M 105.65509926170151 76.5 L 104.78907385791707 76 M 96.12881982007268 71 L 94.39676901250381 70 M 90.93266739736605 68 L 90.06664199358161 67.5 M 89.20061658979718 67 L 88.33459118601273 66.5 M 78.80831174438391 61 L 73.61215932167728 58 M 67.54998149518622 54.5 L 45.89934640057525 42 M 42.43524478543749 40 L 15.588457268119894 24.5 M 42.43524478543749 41 L 44.167295593006365 42 M 45.89934640057525 43 L 56.29165124598851 49 M 73.61215932167728 59 L 78.80831174438391 62 M 88.33459118601273 67.5 L 89.20061658979718 68 M 91.7986928011505 69.5 L 93.53074360871936 70.5 M 105.65509926170151 77.5 L 109.11920087683926 79.5 M 107.38715006927039 79.5 L 103.92304845413263 77.5 M 97.86087062764156 74 L 96.99484522385713 73.5 M 90.93266739736605 70 L 88.33459118601273 68.5 M 78.80831174438391 63 L 73.61215932167728 60 M 82.27241335952166 66 L 83.13843876330611 66.5 M 89.20061658979718 70 L 90.93266739736605 71 M 97.86087062764156 75 L 98.726896031426 75.5 M 98.726896031426 76.5 L 96.99484522385713 75.5 M 53.693575034635195 51.5 L 67.54998149518622 59.5 M 80.5403625519528 67 L 81.40638795573723 67.5 M 96.99484522385713 76.5 L 97.86087062764156 77 M 104.78907385791707 82 L 103.92304845413263 81.5 M 96.99484522385713 77.5 L 95.26279441628824 76.5 M 90.93266739736605 74 L 89.20061658979718 73 M 84.87048957087498 70.5 L 83.13843876330611 69.5 M 80.5403625519528 68 L 79.67433714816835 67.5 M 37.23909236273086 43 L 10.392304845413264 27.5 M 11.258330249197702 29 L 32.042939940024226 41 M 43.30127018922193 47.5 L 51.09549882328188 52 M 103.92304845413263 83.5 L 102.19099764656376 82.5 M 89.20061658979718 75 L 87.4685657822283 74 M 84.00446416709055 72 L 81.40638795573723 70.5 M 78.80831174438391 69 L 77.94228634059948 68.5 M 76.2102355330306 67.5 L 68.41600689897065 63 M 67.54998149518622 62.5 L 42.43524478543749 48 M 35.50704155516198 44 L 8.660254037844386 28.5 M 7.794228634059947 29 L 34.64101615137754 44.5 M 35.50704155516198 45 L 37.23909236273086 46 M 41.569219381653056 48.5 L 67.54998149518622 63.5 M 68.41600689897065 64 L 75.34421012924616 68 M 81.40638795573723 71.5 L 83.13843876330611 72.5 M 98.726896031426 82.5 L 97.86087062764156 82 M 90.93266739736605 78 L 90.06664199358161 77.5 M 84.00446416709055 74 L 83.13843876330611 73.5 M 81.40638795573723 72.5 L 80.5403625519528 72 M 79.67433714816835 71.5 L 78.80831174438391 71 M 76.2102355330306 69.5 L 75.34421012924616 69 M 68.41600689897065 65 L 67.54998149518622 64.5 M 40.703193977868615 49 L 38.97114317029974 48 M 34.64101615137754 45.5 L 11.258330249197702 32 M 38.97114317029974 49 L 47.63139720814412 54 M 82.27241335952166 74 L 84.87048957087498 75.5 M 98.726896031426 84.5 L 96.99484522385713 83.5 M 91.7986928011505 80.5 L 90.06664199358161 79.5 M 84.87048957087498 76.5 L 83.13843876330611 75.5 M 82.27241335952166 75 L 81.40638795573723 74.5 M 45.89934640057525 54 L 38.97114317029974 50 M 14.722431864335457 36 L 9.526279441628825 33 M 41.569219381653056 52.5 L 45.033320996790806 54.5 M 88.33459118601273 79.5 L 89.20061658979718 80 M 96.12881982007268 84 L 96.99484522385713 84.5 M 97.86087062764156 85 L 98.726896031426 85.5 M 98.726896031426 86.5 L 97.86087062764156 86 M 96.99484522385713 85.5 L 96.12881982007268 85 M 90.93266739736605 82 L 88.33459118601273 80.5 M 84.00446416709055 78 L 83.13843876330611 77.5 M 81.40638795573723 76.5 L 80.5403625519528 76 M 79.67433714816835 75.5 L 78.80831174438391 75 M 76.2102355330306 73.5 L 67.54998149518622 68.5 M 40.703193977868615 53 L 37.23909236273086 51 M 32.90896534380867 48.5 L 32.042939940024226 48 M 13.856406460551018 37.5 L 10.392304845413264 35.5 M 12.990381056766578 38 L 30.31088913245535 48 M 31.17691453623979 48.5 L 32.042939940024226 49 M 68.41600689897065 70 L 76.2102355330306 74.5 M 96.99484522385713 87.5 L 96.12881982007268 87 M 90.93266739736605 84 L 90.06664199358161 83.5 M 80.5403625519528 78 L 79.67433714816835 77.5 M 78.80831174438391 77 L 75.34421012924616 75 M 38.97114317029974 54 L 35.50704155516198 52 M 34.64101615137754 51.5 L 33.77499074759311 51 M 30.31088913245535 49 L 13.856406460551018 39.5 M 7.794228634059947 37 L 12.990381056766578 40 M 13.856406460551018 40.5 L 19.918584287042087 44 M 22.516660498395403 45.5 L 29.444863728670914 49.5 M 35.50704155516198 53 L 37.23909236273086 54 M 74.47818472546172 75.5 L 77.07626093681503 77 M 77.94228634059948 77.5 L 78.80831174438391 78 M 79.67433714816835 78.5 L 80.5403625519528 79 M 81.40638795573723 79.5 L 83.13843876330611 80.5 M 85.73651497465941 82 L 87.4685657822283 83 M 90.06664199358161 84.5 L 90.93266739736605 85 M 105.65509926170151 93.5 L 109.11920087683926 95.5 M 107.38715006927039 95.5 L 103.92304845413263 93.5 M 91.7986928011505 86.5 L 90.93266739736605 86 M 84.87048957087498 82.5 L 81.40638795573723 80.5 M 80.5403625519528 80 L 79.67433714816835 79.5 M 76.2102355330306 77.5 L 73.61215932167728 76 M 29.444863728670914 50.5 L 21.650635094610966 46 M 19.05255888325765 44.5 L 8.660254037844386 38.5 M 21.650635094610966 47 L 32.042939940024226 53 M 83.13843876330611 83.5 L 81.40638795573723 82.5 M 78.80831174438391 81 L 75.34421012924616 79 M 74.47818472546172 78.5 L 73.61215932167728 78 M 47.63139720814412 63 L 45.89934640057525 62 M 19.05255888325765 46.5 L 15.588457268119894 44.5 M 13.856406460551018 44.5 L 19.05255888325765 47.5 M 19.918584287042087 48 L 30.31088913245535 54 M 32.90896534380867 55.5 L 34.64101615137754 56.5 M 48.49742261192856 64.5 L 67.54998149518622 75.5 M 72.74613391789285 78.5 L 73.61215932167728 79 M 81.40638795573723 83.5 L 82.27241335952166 84 M 96.99484522385713 92.5 L 97.86087062764156 93 M 104.78907385791707 98 L 103.92304845413263 97.5 M 91.7986928011505 90.5 L 90.93266739736605 90 M 78.80831174438391 83 L 75.34421012924616 81 M 73.61215932167728 80 L 72.74613391789285 79.5 M 52.827549630850754 68 L 51.09549882328188 67 M 47.63139720814412 65 L 46.76537180435968 64.5 M 33.77499074759311 57 L 32.90896534380867 56.5 M 19.05255888325765 48.5 L 18.186533479473212 48 M 41.569219381653056 62.5 L 45.033320996790806 64.5 M 85.73651497465941 88 L 87.4685657822283 89 M 103.92304845413263 99.5 L 102.19099764656376 98.5 M 90.06664199358161 91.5 L 84.87048957087498 88.5 M 78.80831174438391 85 L 70.14805770653953 80 M 67.54998149518622 78.5 L 45.033320996790806 65.5 M 44.167295593006365 65 L 40.703193977868615 63 M 32.042939940024226 58 L 31.17691453623979 57.5 M 17.32050807568877 49.5 L 10.392304845413264 45.5 M 9.526279441628825 46 L 11.258330249197702 47 M 12.12435565298214 47.5 L 15.588457268119894 49.5 M 38.97114317029974 63 L 67.54998149518622 79.5 M 69.28203230275508 80.5 L 71.8801085141084 82 M 73.61215932167728 83 L 78.80831174438391 86 M 85.73651497465941 90 L 86.60254037844386 90.5 M 87.4685657822283 91 L 88.33459118601273 91.5 M 96.99484522385713 96.5 L 97.86087062764156 97 M 98.726896031426 98.5 L 97.86087062764156 98 M 87.4685657822283 92 L 86.60254037844386 91.5 M 83.13843876330611 89.5 L 73.61215932167728 84 M 68.41600689897065 81 L 67.54998149518622 80.5 M 42.43524478543749 66 L 38.97114317029974 64 M 30.31088913245535 59 L 19.05255888325765 52.5 M 14.722431864335457 50 L 11.258330249197702 48 M 8.660254037844386 46.5 L 7.794228634059947 46 M 9.526279441628825 48 L 13.856406460551018 50.5 M 14.722431864335457 51 L 32.90896534380867 61.5 M 84.00446416709055 91 L 84.87048957087498 91.5 M 85.73651497465941 92 L 87.4685657822283 93 M 98.726896031426 100.5 L 96.99484522385713 99.5 M 84.00446416709055 92 L 83.13843876330611 91.5 M 32.042939940024226 62 L 13.856406460551018 51.5 M 12.990381056766578 52 L 31.17691453623979 62.5 M 96.12881982007268 100 L 96.99484522385713 100.5 M 97.86087062764156 101 L 98.726896031426 101.5 M 98.726896031426 102.5 L 97.86087062764156 102 M 96.99484522385713 101.5 L 96.12881982007268 101 M 83.13843876330611 93.5 L 82.27241335952166 93 M 81.40638795573723 92.5 L 78.80831174438391 91 M 68.41600689897065 85 L 67.54998149518622 84.5 M 44.167295593006365 71 L 39.837168574084174 68.5 M 30.31088913245535 63 L 11.258330249197702 52 M 9.526279441628825 52 L 11.258330249197702 53 M 38.97114317029974 69 L 44.167295593006365 72 M 97.86087062764156 104 L 96.12881982007268 103 M 90.93266739736605 100 L 90.06664199358161 99.5 M 78.80831174438391 93 L 68.41600689897065 87 M 42.43524478543749 72 L 38.1051177665153 69.5 M 37.23909236273086 69 L 33.77499074759311 67 M 32.90896534380867 67.5 L 37.23909236273086 70 M 68.41600689897065 88 L 77.94228634059948 93.5 M 90.06664199358161 100.5 L 90.93266739736605 101 M 105.65509926170151 109.5 L 109.11920087683926 111.5 M 107.38715006927039 111.5 L 103.92304845413263 109.5 M 91.7986928011505 102.5 L 90.93266739736605 102 M 86.60254037844386 99.5 L 85.73651497465941 99 M 45.033320996790806 75.5 L 41.569219381653056 73.5 M 35.50704155516198 70 L 32.90896534380867 68.5 M 40.703193977868615 74 L 44.167295593006365 76 M 84.87048957087498 100.5 L 84.00446416709055 100 M 44.167295593006365 77 L 39.837168574084174 74.5 M 7.794228634059947 57 L 11.258330249197702 59 M 38.97114317029974 75 L 42.43524478543749 77 M 48.49742261192856 80.5 L 67.54998149518622 91.5 M 104.78907385791707 114 L 103.92304845413263 113.5 M 91.7986928011505 106.5 L 90.93266739736605 106 M 73.61215932167728 96 L 72.74613391789285 95.5 M 47.63139720814412 81 L 45.89934640057525 80 M 37.23909236273086 75 L 32.90896534380867 72.5 M 32.042939940024226 72 L 31.17691453623979 71.5 M 10.392304845413264 59.5 L 9.526279441628825 59 M 32.042939940024226 73 L 37.23909236273086 76 M 45.89934640057525 81 L 67.54998149518622 93.5 M 71.01408311032397 95.5 L 72.74613391789285 96.5 M 85.73651497465941 104 L 87.4685657822283 105 M 103.92304845413263 115.5 L 102.19099764656376 114.5 M 90.06664199358161 107.5 L 84.00446416709055 104 M 73.61215932167728 98 L 70.14805770653953 96 M 67.54998149518622 94.5 L 45.89934640057525 82 M 35.50704155516198 76 L 31.17691453623979 73.5 M 11.258330249197702 62 L 8.660254037844386 60.5 M 7.794228634059947 61 L 11.258330249197702 63 M 42.43524478543749 81 L 67.54998149518622 95.5 M 69.28203230275508 96.5 L 71.8801085141084 98 M 85.73651497465941 106 L 86.60254037844386 106.5 M 87.4685657822283 107 L 88.33459118601273 107.5 M 98.726896031426 114.5 L 96.99484522385713 113.5 M 87.4685657822283 108 L 86.60254037844386 107.5 M 83.13843876330611 105.5 L 82.27241335952166 105 M 81.40638795573723 104.5 L 77.94228634059948 102.5 M 68.41600689897065 97 L 67.54998149518622 96.5 M 47.63139720814412 85 L 42.43524478543749 82 M 30.31088913245535 75 L 11.258330249197702 64 M 14.722431864335457 67 L 20.784609690826528 70.5 M 33.77499074759311 78 L 37.23909236273086 80 M 84.00446416709055 107 L 84.87048957087498 107.5 M 85.73651497465941 108 L 87.4685657822283 109 M 98.726896031426 116.5 L 96.99484522385713 115.5 M 84.00446416709055 108 L 83.13843876330611 107.5 M 79.67433714816835 105.5 L 77.07626093681503 104 M 45.89934640057525 86 L 42.43524478543749 84 M 37.23909236273086 81 L 32.90896534380867 78.5 M 19.918584287042087 71 L 13.856406460551018 67.5 M 12.990381056766578 68 L 19.05255888325765 71.5 M 32.90896534380867 79.5 L 45.033320996790806 86.5 M 96.12881982007268 116 L 97.86087062764156 117 M 98.726896031426 118.5 L 96.99484522385713 117.5 M 83.13843876330611 109.5 L 82.27241335952166 109 M 81.40638795573723 108.5 L 75.34421012924616 105 M 68.41600689897065 101 L 67.54998149518622 100.5 M 30.31088913245535 79 L 11.258330249197702 68 M 96.99484522385713 119.5 L 95.26279441628824 118.5 M 90.93266739736605 116 L 90.06664199358161 115.5 M 75.34421012924616 107 L 74.47818472546172 106.5 M 42.43524478543749 88 L 33.77499074759311 83 M 32.90896534380867 83.5 L 41.569219381653056 88.5 M 90.06664199358161 116.5 L 90.93266739736605 117 M 93.53074360871936 118.5 L 94.39676901250381 119 M 105.65509926170151 125.5 L 109.11920087683926 127.5 M 107.38715006927039 127.5 L 103.92304845413263 125.5 M 93.53074360871936 119.5 L 92.66471820493493 119 M 91.7986928011505 118.5 L 90.93266739736605 118 M 11.258330249197702 73 L 12.990381056766578 74 M 13.856406460551018 74.5 L 30.31088913245535 84 M 90.06664199358161 118.5 L 90.93266739736605 119 M 96.99484522385713 122.5 L 97.86087062764156 123 M 82.27241335952166 115 L 81.40638795573723 114.5 M 7.794228634059947 73 L 12.990381056766578 76 M 48.49742261192856 96.5 L 67.54998149518622 107.5 M 81.40638795573723 115.5 L 83.13843876330611 116.5 M 89.20061658979718 120 L 90.93266739736605 121 M 104.78907385791707 130 L 103.92304845413263 129.5 M 91.7986928011505 122.5 L 88.33459118601273 120.5 M 47.63139720814412 97 L 45.89934640057525 96 M 12.990381056766578 77 L 9.526279441628825 75 M 10.392304845413264 76.5 L 12.990381056766578 78 M 83.13843876330611 118.5 L 87.4685657822283 121 M 96.99484522385713 126.5 L 97.86087062764156 127 M 99.59292143521044 128 L 100.45894683899488 128.5 M 103.92304845413263 131.5 L 102.19099764656376 130.5 M 99.59292143521044 129 L 98.726896031426 128.5 M 97.86087062764156 128 L 96.99484522385713 127.5 M 90.06664199358161 123.5 L 89.20061658979718 123 M 86.60254037844386 121.5 L 83.13843876330611 119.5 M 73.61215932167728 114 L 70.14805770653953 112 M 67.54998149518622 110.5 L 45.89934640057525 98 M 12.990381056766578 79 L 7.794228634059947 76 M 14.722431864335457 81 L 31.17691453623979 90.5 M 42.43524478543749 97 L 67.54998149518622 111.5 M 69.28203230275508 112.5 L 71.8801085141084 114 M 99.59292143521044 131 L 96.99484522385713 129.5 M 87.4685657822283 124 L 84.87048957087498 122.5 M 81.40638795573723 120.5 L 75.34421012924616 117 M 68.41600689897065 113 L 67.54998149518622 112.5 M 47.63139720814412 101 L 42.43524478543749 98 M 13.856406460551018 81.5 L 12.990381056766578 81 M 14.722431864335457 83 L 32.90896534380867 93.5 M 84.00446416709055 123 L 87.4685657822283 125 M 90.06664199358161 126.5 L 90.93266739736605 127 M 98.726896031426 132.5 L 97.86087062764156 132 M 79.67433714816835 121.5 L 75.34421012924616 119 M 45.89934640057525 102 L 42.43524478543749 100 M 3.4641016151377544 78.5 L 13.856406460551018 84.5 M 14.722431864335457 85 L 31.17691453623979 94.5 M 32.90896534380867 95.5 L 45.033320996790806 102.5 M 99.59292143521044 134 L 100.45894683899488 134.5 M 99.59292143521044 135 L 96.12881982007268 133 M 81.40638795573723 124.5 L 73.61215932167728 120 M 68.41600689897065 117 L 67.54998149518622 116.5 M 13.856406460551018 85.5 L 12.990381056766578 85 M 12.12435565298214 85.5 L 12.990381056766578 86 M 14.722431864335457 87 L 31.17691453623979 96.5 M 73.61215932167728 121 L 77.94228634059948 123.5 M 97.86087062764156 136 L 96.99484522385713 135.5 M 92.66471820493493 133 L 91.7986928011505 132.5 M 90.93266739736605 132 L 90.06664199358161 131.5 M 74.47818472546172 122.5 L 73.61215932167728 122 M 42.43524478543749 104 L 32.90896534380867 98.5 M 30.31088913245535 97 L 13.856406460551018 87.5 M 12.990381056766578 87 L 11.258330249197702 86 M 11.258330249197702 87 L 12.990381056766578 88 M 13.856406460551018 88.5 L 30.31088913245535 98 M 32.90896534380867 99.5 L 41.569219381653056 104.5 M 79.67433714816835 126.5 L 80.5403625519528 127 M 90.06664199358161 132.5 L 91.7986928011505 133.5 M 103.05702305034819 140 L 103.92304845413263 140.5 M 105.65509926170151 141.5 L 109.11920087683926 143.5 M 107.38715006927039 143.5 L 103.05702305034819 141 M 92.66471820493493 135 L 91.7986928011505 134.5 M 90.93266739736605 134 L 90.06664199358161 133.5 M 31.17691453623979 99.5 L 28.578838324886473 98 M 27.712812921102035 98.5 L 30.31088913245535 100 M 73.61215932167728 125 L 77.94228634059948 127.5 M 103.05702305034819 142 L 106.52112466548594 144 M 48.49742261192856 112.5 L 67.54998149518622 123.5 M 84.00446416709055 133 L 87.4685657822283 135 M 104.78907385791707 146 L 103.92304845413263 145.5 M 92.66471820493493 139 L 91.7986928011505 138.5 M 77.94228634059948 130.5 L 71.8801085141084 127 M 67.54998149518622 124.5 L 48.49742261192856 113.5 M 47.63139720814412 113 L 45.89934640057525 112 M 48.49742261192856 114.5 L 53.693575034635195 117.5 M 54.55960043841963 118 L 62.35382907247958 122.5 M 63.21985447626402 123 L 67.54998149518622 125.5 M 71.01408311032397 127.5 L 76.2102355330306 130.5 M 77.07626093681503 131 L 77.94228634059948 131.5 M 100.45894683899488 144.5 L 103.92304845413263 146.5 M 104.78907385791707 148 L 100.45894683899488 145.5 M 90.93266739736605 140 L 90.06664199358161 139.5 M 85.73651497465941 137 L 81.40638795573723 134.5 M 77.94228634059948 132.5 L 70.14805770653953 128 M 67.54998149518622 126.5 L 45.89934640057525 114 M 3.4641016151377544 90.5 L 12.990381056766578 96 M 14.722431864335457 97 L 27.712812921102035 104.5 M 42.43524478543749 113 L 48.49742261192856 116.5 M 81.40638795573723 135.5 L 84.87048957087498 137.5 M 100.45894683899488 146.5 L 101.32497224277931 147 M 99.59292143521044 147 L 97.86087062764156 146 M 85.73651497465941 139 L 84.87048957087498 138.5 M 81.40638795573723 136.5 L 80.5403625519528 136 M 79.67433714816835 135.5 L 77.94228634059948 134.5 M 68.41600689897065 129 L 67.54998149518622 128.5 M 47.63139720814412 117 L 42.43524478543749 114 M 30.31088913245535 107 L 27.712812921102035 105.5 M 13.856406460551018 97.5 L 12.990381056766578 97 M 14.722431864335457 99 L 32.90896534380867 109.5 M 98.726896031426 148.5 L 97.86087062764156 148 M 45.89934640057525 118 L 42.43524478543749 116 M 12.990381056766578 99 L 5.196152422706632 94.5 M 3.4641016151377544 94.5 L 13.856406460551018 100.5 M 14.722431864335457 101 L 19.918584287042087 104 M 32.90896534380867 111.5 L 42.43524478543749 117 M 43.30127018922193 117.5 L 45.033320996790806 118.5 M 96.99484522385713 148.5 L 98.726896031426 149.5 M 85.73651497465941 143 L 84.87048957087498 142.5 M 81.40638795573723 140.5 L 80.5403625519528 140 M 79.67433714816835 139.5 L 48.49742261192856 121.5 M 42.43524478543749 118 L 41.569219381653056 117.5 M 33.77499074759311 113 L 32.90896534380867 112.5 M 30.31088913245535 111 L 19.05255888325765 104.5 M 13.856406460551018 101.5 L 12.990381056766578 101 M 48.49742261192856 122.5 L 55.42562584220407 126.5 M 56.29165124598851 127 L 58.023702053557386 128 M 58.88972745734183 128.5 L 61.48780366869514 130 M 62.35382907247958 130.5 L 69.28203230275508 134.5 M 70.14805770653953 135 L 74.47818472546172 137.5 M 75.34421012924616 138 L 77.07626093681503 139 M 77.94228634059948 139.5 L 79.67433714816835 140.5 M 96.12881982007268 150 L 98.726896031426 151.5 M 56.29165124598851 128 L 48.49742261192856 123.5 M 42.43524478543749 120 L 32.90896534380867 114.5 M 32.90896534380867 115.5 L 41.569219381653056 120.5 M 58.88972745734183 130.5 L 61.48780366869514 132 M 70.14805770653953 137 L 74.47818472546172 139.5 M 92.66471820493493 151 L 91.7986928011505 150.5 M 75.34421012924616 141 L 70.14805770653953 138 M 69.28203230275508 137.5 L 67.54998149518622 136.5 M 61.48780366869514 133 L 58.023702053557386 131 M 47.63139720814412 125 L 45.89934640057525 124 M 54.55960043841963 130 L 55.42562584220407 130.5 M 67.54998149518622 137.5 L 69.28203230275508 138.5 M 43.30127018922193 125.5 L 45.033320996790806 126.5 M 66.68395609140177 139 L 69.28203230275508 140.5 M 93.53074360871936 154.5 L 94.39676901250381 155 M 51.09549882328188 131 L 45.033320996790806 127.5 M 44.167295593006365 127 L 42.43524478543749 126 M 19.05255888325765 112.5 L 14.722431864335457 110 M 12.990381056766578 109 L 3.4641016151377544 103.5 M 2.598076211353316 104 L 12.990381056766578 110 M 13.856406460551018 110.5 L 19.05255888325765 113.5 M 42.43524478543749 127 L 48.49742261192856 130.5 M 49.363448015713 131 L 51.09549882328188 132 M 58.023702053557386 136 L 61.48780366869514 138 M 71.8801085141084 144 L 77.07626093681503 147 M 80.5403625519528 150 L 79.67433714816835 149.5 M 69.28203230275508 143.5 L 64.08587988004845 140.5 M 49.363448015713 132 L 42.43524478543749 128 M 19.05255888325765 114.5 L 3.4641016151377544 105.5 M 4.330127018922193 107 L 19.05255888325765 115.5 M 31.17691453623979 122.5 L 41.569219381653056 128.5 M 42.43524478543749 129 L 48.49742261192856 132.5 M 56.29165124598851 137 L 61.48780366869514 140 M 63.21985447626402 141 L 67.54998149518622 143.5 M 70.14805770653953 145 L 77.07626093681503 149 M 78.80831174438391 150 L 80.5403625519528 151 M 82.27241335952166 152 L 84.00446416709055 153 M 95.26279441628824 160.5 L 94.39676901250381 160 M 85.73651497465941 155 L 84.87048957087498 154.5 M 81.40638795573723 152.5 L 80.5403625519528 152 M 77.94228634059948 150.5 L 69.28203230275508 145.5 M 62.35382907247958 141.5 L 55.42562584220407 137.5 M 30.31088913245535 123 L 19.05255888325765 116.5 M 14.722431864335457 114 L 10.392304845413264 111.5 M 3.4641016151377544 107.5 L 2.598076211353316 107 M 8.660254037844386 111.5 L 13.856406460551018 114.5 M 14.722431864335457 115 L 32.90896534380867 125.5 M 54.55960043841963 138 L 58.023702053557386 140 M 82.27241335952166 154 L 83.13843876330611 154.5 M 81.40638795573723 154.5 L 77.07626093681503 152 M 73.61215932167728 150 L 71.8801085141084 149 M 64.9519052838329 145 L 60.6217782649107 142.5 M 57.157676649772945 140.5 L 56.29165124598851 140 M 52.827549630850754 138 L 51.09549882328188 137 M 38.97114317029974 130 L 32.90896534380867 126.5 M 32.042939940024226 126 L 30.31088913245535 125 M 29.444863728670914 124.5 L 21.650635094610966 120 M 20.784609690826528 119.5 L 12.990381056766578 115 M 8.660254037844386 113.5 L 12.12435565298214 115.5 M 20.784609690826528 120.5 L 28.578838324886473 125 M 29.444863728670914 125.5 L 31.17691453623979 126.5 M 55.42562584220407 140.5 L 56.29165124598851 141 M 81.40638795573723 156.5 L 80.5403625519528 156 M 72.74613391789285 151.5 L 71.8801085141084 151 M 67.54998149518622 148.5 L 66.68395609140177 148 M 64.08587988004845 146.5 L 63.21985447626402 146 M 56.29165124598851 142 L 55.42562584220407 141.5 M 51.09549882328188 139 L 49.363448015713 138 M 30.31088913245535 127 L 19.05255888325765 120.5 M 3.4641016151377544 111.5 L 2.598076211353316 111 M 6.06217782649107 114 L 10.392304845413264 116.5 M 49.363448015713 139 L 52.827549630850754 141 M 60.6217782649107 145.5 L 63.21985447626402 147 M 77.94228634059948 155.5 L 78.80831174438391 156 M 79.67433714816835 157.5 L 77.94228634059948 156.5 M 54.55960043841963 143 L 53.693575034635195 142.5 M 38.97114317029974 134 L 32.90896534380867 130.5 M 49.363448015713 141 L 51.09549882328188 142 M 58.88972745734183 146.5 L 63.21985447626402 149 M 88.33459118601273 164.5 L 87.4685657822283 164 M 51.09549882328188 143 L 49.363448015713 142 M 32.90896534380867 133.5 L 39.837168574084174 137.5 M 49.363448015713 143 L 51.09549882328188 144 M 54.55960043841963 146 L 55.42562584220407 146.5 M 56.29165124598851 148 L 54.55960043841963 147 M 50.22947341949744 144.5 L 49.363448015713 144 M 38.97114317029974 138 L 32.90896534380867 134.5 M 39.837168574084174 139.5 L 49.363448015713 145 M 49.363448015713 146 L 48.49742261192856 145.5 M 40.703193977868615 141 L 39.837168574084174 140.5 M 12.12435565298214 125.5 L 12.990381056766578 126 M 53.693575034635195 149.5 L 63.21985447626402 155 M 67.54998149518622 157.5 L 71.8801085141084 160 M 72.74613391789285 161.5 L 70.14805770653953 160 M 69.28203230275508 159.5 L 67.54998149518622 158.5 M 63.21985447626402 156 L 59.75575286112626 154 M 49.363448015713 148 L 39.837168574084174 142.5 M 32.042939940024226 138 L 31.17691453623979 137.5 M 19.05255888325765 130.5 L 11.258330249197702 126 M 6.06217782649107 124 L 10.392304845413264 126.5 M 11.258330249197702 127 L 15.588457268119894 129.5 M 39.837168574084174 143.5 L 48.49742261192856 148.5 M 51.96152422706631 150.5 L 56.29165124598851 153 M 81.40638795573723 168.5 L 80.5403625519528 168 M 70.14805770653953 162 L 69.28203230275508 161.5 M 67.54998149518622 160.5 L 66.68395609140177 160 M 64.08587988004845 158.5 L 63.21985447626402 158 M 59.75575286112626 156 L 56.29165124598851 154 M 30.31088913245535 139 L 19.05255888325765 132.5 M 18.186533479473212 132 L 17.32050807568877 131.5 M 14.722431864335457 130 L 10.392304845413264 127.5 M 3.4641016151377544 123.5 L 2.598076211353316 123 M 8.660254037844386 127.5 L 13.856406460551018 130.5 M 14.722431864335457 131 L 32.90896534380867 141.5 M 32.042939940024226 142 L 30.31088913245535 141 M 29.444863728670914 140.5 L 21.650635094610966 136 M 20.784609690826528 135.5 L 12.990381056766578 131 M 20.784609690826528 136.5 L 28.578838324886473 141 M 29.444863728670914 141.5 L 31.17691453623979 142.5 M 39.837168574084174 147.5 L 48.49742261192856 152.5 M 30.31088913245535 143 L 19.05255888325765 136.5 M 3.4641016151377544 127.5 L 2.598076211353316 127 M 47.63139720814412 154 L 51.09549882328188 156 M 51.09549882328188 157 L 49.363448015713 156 M 38.97114317029974 150 L 32.90896534380867 146.5 M 45.89934640057525 155 L 49.363448015713 157 M 44.167295593006365 155 L 32.90896534380867 148.5 M 8.660254037844386 134.5 L 7.794228634059947 134 M 32.90896534380867 149.5 L 39.837168574084174 153.5 M 42.43524478543749 155 L 44.167295593006365 156 M 48.49742261192856 159.5 L 47.63139720814412 159 M 42.43524478543749 156 L 39.837168574084174 154.5 M 38.97114317029974 154 L 32.90896534380867 150.5 M 8.660254037844386 139.5 L 12.990381056766578 142 M 42.43524478543749 159 L 44.167295593006365 160 M 44.167295593006365 161 L 42.43524478543749 160 M 32.042939940024226 154 L 31.17691453623979 153.5 M 19.05255888325765 146.5 L 12.990381056766578 143 M 12.12435565298214 142.5 L 11.258330249197702 142 M 31.17691453623979 154.5 L 38.97114317029974 159 M 42.43524478543749 161 L 44.167295593006365 162 M 44.167295593006365 163 L 42.43524478543749 162 M 30.31088913245535 155 L 19.05255888325765 148.5 M 14.722431864335457 146 L 10.392304845413264 143.5 M 3.4641016151377544 139.5 L 2.598076211353316 139 M 8.660254037844386 143.5 L 13.856406460551018 146.5 M 14.722431864335457 147 L 32.90896534380867 157.5 M 32.042939940024226 158 L 30.31088913245535 157 M 29.444863728670914 156.5 L 21.650635094610966 152 M 20.784609690826528 151.5 L 12.990381056766578 147 M 20.784609690826528 152.5 L 28.578838324886473 157 M 29.444863728670914 157.5 L 31.17691453623979 158.5 M 32.90896534380867 159.5 L 41.569219381653056 164.5 M 30.31088913245535 159 L 19.05255888325765 152.5 M 27.712812921102035 163.5 L 19.05255888325765 158.5 M 8.660254037844386 155.5 L 12.990381056766578 158 M 31.17691453623979 168.5 L 32.042939940024226 169 M 20.784609690826528 163.5 L 12.990381056766578 159 M 20.784609690826528 164.5 L 27.712812921102035 168.5 M 30.31088913245535 171 L 27.712812921102035 169.5 M 2.598076211353316 139 L 2.598076211353316 127 M 2.598076211353316 123 L 2.598076211353316 111 M 2.598076211353316 107 L 2.598076211353316 104 M 3.4641016151377544 78.5 L 3.4641016151377544 90.5 M 3.4641016151377544 94.5 L 3.4641016151377544 103.5 M 3.4641016151377544 105.5 L 3.4641016151377544 107.5 M 3.4641016151377544 111.5 L 3.4641016151377544 123.5 M 3.4641016151377544 127.5 L 3.4641016151377544 139.5 M 4.330127018922193 107 L 4.330127018922193 106 M 6.06217782649107 124 L 6.06217782649107 114 M 7.794228634059947 134 L 7.794228634059947 125 M 7.794228634059947 113 L 7.794228634059947 109 M 7.794228634059947 73 L 7.794228634059947 61 M 7.794228634059947 57 L 7.794228634059947 29 M 8.660254037844386 38.5 L 8.660254037844386 46.5 M 8.660254037844386 93.5 L 8.660254037844386 96.5 M 8.660254037844386 111.5 L 8.660254037844386 113.5 M 8.660254037844386 127.5 L 8.660254037844386 139.5 M 8.660254037844386 143.5 L 8.660254037844386 155.5 M 9.526279441628825 143 L 9.526279441628825 140 M 9.526279441628825 97 L 9.526279441628825 94 M 9.526279441628825 77 L 9.526279441628825 75 M 9.526279441628825 61 L 9.526279441628825 59 M 9.526279441628825 52 L 9.526279441628825 48 M 9.526279441628825 36 L 9.526279441628825 33 M 10.392304845413264 27.5 L 10.392304845413264 29.5 M 10.392304845413264 59.5 L 10.392304845413264 61.5 M 10.392304845413264 76.5 L 10.392304845413264 77.5 M 10.392304845413264 94.5 L 10.392304845413264 97.5 M 10.392304845413264 116.5 L 10.392304845413264 126.5 M 10.392304845413264 140.5 L 10.392304845413264 142.5 M 11.258330249197702 128 L 11.258330249197702 127 M 11.258330249197702 112 L 11.258330249197702 111 M 11.258330249197702 87 L 11.258330249197702 86 M 11.258330249197702 73 L 11.258330249197702 68 M 11.258330249197702 64 L 11.258330249197702 52 M 11.258330249197702 46 L 11.258330249197702 45 M 11.258330249197702 30 L 11.258330249197702 29 M 12.12435565298214 47.5 L 12.12435565298214 48.5 M 12.12435565298214 115.5 L 12.12435565298214 125.5 M 12.12435565298214 142.5 L 12.12435565298214 144.5 M 12.990381056766578 159 L 12.990381056766578 147 M 12.990381056766578 143 L 12.990381056766578 131 M 12.990381056766578 127 L 12.990381056766578 115 M 12.990381056766578 110 L 12.990381056766578 101 M 12.990381056766578 97 L 12.990381056766578 88 M 12.990381056766578 87 L 12.990381056766578 85 M 12.990381056766578 81 L 12.990381056766578 74 M 12.990381056766578 40 L 12.990381056766578 37 M 13.856406460551018 30.5 L 13.856406460551018 31.5 M 13.856406460551018 39.5 L 13.856406460551018 40.5 M 13.856406460551018 41.5 L 13.856406460551018 43.5 M 13.856406460551018 44.5 L 13.856406460551018 47.5 M 13.856406460551018 51.5 L 13.856406460551018 52.5 M 13.856406460551018 67.5 L 13.856406460551018 68.5 M 13.856406460551018 74.5 L 13.856406460551018 81.5 M 13.856406460551018 85.5 L 13.856406460551018 87.5 M 13.856406460551018 88.5 L 13.856406460551018 97.5 M 13.856406460551018 101.5 L 13.856406460551018 110.5 M 14.722431864335457 110 L 14.722431864335457 101 M 14.722431864335457 98 L 14.722431864335457 89 M 14.722431864335457 87 L 14.722431864335457 85 M 14.722431864335457 81 L 14.722431864335457 75 M 17.32050807568877 23.5 L 17.32050807568877 25.5 M 17.32050807568877 49.5 L 17.32050807568877 52.5 M 17.32050807568877 67.5 L 17.32050807568877 68.5 M 17.32050807568877 82.5 L 17.32050807568877 84.5 M 17.32050807568877 98.5 L 17.32050807568877 100.5 M 17.32050807568877 114.5 L 17.32050807568877 116.5 M 17.32050807568877 129.5 L 17.32050807568877 132.5 M 17.32050807568877 145.5 L 17.32050807568877 148.5 M 18.186533479473212 149 L 18.186533479473212 146 M 18.186533479473212 133 L 18.186533479473212 130 M 18.186533479473212 117 L 18.186533479473212 115 M 18.186533479473212 101 L 18.186533479473212 99 M 18.186533479473212 85 L 18.186533479473212 83 M 18.186533479473212 69 L 18.186533479473212 68 M 18.186533479473212 53 L 18.186533479473212 48 M 18.186533479473212 26 L 18.186533479473212 25 M 19.05255888325765 44.5 L 19.05255888325765 53.5 M 19.05255888325765 68.5 L 19.05255888325765 69.5 M 19.05255888325765 83.5 L 19.05255888325765 85.5 M 19.05255888325765 99.5 L 19.05255888325765 101.5 M 19.05255888325765 104.5 L 19.05255888325765 113.5 M 19.05255888325765 114.5 L 19.05255888325765 117.5 M 19.05255888325765 120.5 L 19.05255888325765 133.5 M 19.05255888325765 136.5 L 19.05255888325765 149.5 M 19.05255888325765 152.5 L 19.05255888325765 158.5 M 19.918584287042087 48 L 19.918584287042087 44 M 19.918584287042087 27 L 19.918584287042087 26 M 20.784609690826528 26.5 L 20.784609690826528 27.5 M 20.784609690826528 159.5 L 20.784609690826528 164.5 M 21.650635094610966 153 L 21.650635094610966 152 M 21.650635094610966 137 L 21.650635094610966 136 M 21.650635094610966 121 L 21.650635094610966 120 M 21.650635094610966 47 L 21.650635094610966 46 M 21.650635094610966 36 L 21.650635094610966 35 M 22.516660498395403 44.5 L 22.516660498395403 45.5 M 22.516660498395403 134.5 L 22.516660498395403 135.5 M 23.38268590217984 152 L 23.38268590217984 151 M 23.38268590217984 120 L 23.38268590217984 119 M 23.38268590217984 104 L 23.38268590217984 102 M 23.38268590217984 88 L 23.38268590217984 86 M 23.38268590217984 56 L 23.38268590217984 55 M 24.24871130596428 19.5 L 24.24871130596428 21.5 M 25.11473670974872 22 L 25.11473670974872 21 M 26.846787517317598 31 L 26.846787517317598 30 M 27.712812921102035 30.5 L 27.712812921102035 31.5 M 27.712812921102035 98.5 L 27.712812921102035 105.5 M 27.712812921102035 163.5 L 27.712812921102035 169.5 M 29.444863728670914 48.5 L 29.444863728670914 50.5 M 30.31088913245535 171 L 30.31088913245535 159 M 30.31088913245535 158 L 30.31088913245535 157 M 30.31088913245535 155 L 30.31088913245535 143 M 30.31088913245535 142 L 30.31088913245535 141 M 30.31088913245535 139 L 30.31088913245535 127 M 30.31088913245535 126 L 30.31088913245535 125 M 30.31088913245535 123 L 30.31088913245535 111 M 30.31088913245535 107 L 30.31088913245535 100 M 30.31088913245535 98 L 30.31088913245535 97 M 30.31088913245535 84 L 30.31088913245535 79 M 30.31088913245535 75 L 30.31088913245535 63 M 30.31088913245535 59 L 30.31088913245535 54 M 30.31088913245535 49 L 30.31088913245535 48 M 31.17691453623979 15.5 L 31.17691453623979 17.5 M 31.17691453623979 54.5 L 31.17691453623979 58.5 M 31.17691453623979 62.5 L 31.17691453623979 72.5 M 31.17691453623979 73.5 L 31.17691453623979 74.5 M 31.17691453623979 83.5 L 31.17691453623979 90.5 M 31.17691453623979 94.5 L 31.17691453623979 96.5 M 31.17691453623979 97.5 L 31.17691453623979 99.5 M 31.17691453623979 126.5 L 31.17691453623979 138.5 M 31.17691453623979 142.5 L 31.17691453623979 154.5 M 31.17691453623979 158.5 L 31.17691453623979 169.5 M 32.042939940024226 169 L 32.042939940024226 158 M 32.042939940024226 154 L 32.042939940024226 142 M 32.042939940024226 138 L 32.042939940024226 126 M 32.042939940024226 83 L 32.042939940024226 80 M 32.042939940024226 74 L 32.042939940024226 73 M 32.042939940024226 72 L 32.042939940024226 62 M 32.042939940024226 61 L 32.042939940024226 54 M 32.042939940024226 53 L 32.042939940024226 49 M 32.042939940024226 42 L 32.042939940024226 41 M 32.042939940024226 18 L 32.042939940024226 17 M 32.90896534380867 47.5 L 32.90896534380867 48.5 M 32.90896534380867 53.5 L 32.90896534380867 71.5 M 32.90896534380867 78.5 L 32.90896534380867 79.5 M 32.90896534380867 83.5 L 32.90896534380867 89.5 M 32.90896534380867 93.5 L 32.90896534380867 105.5 M 32.90896534380867 109.5 L 32.90896534380867 121.5 M 32.90896534380867 125.5 L 32.90896534380867 137.5 M 32.90896534380867 141.5 L 32.90896534380867 153.5 M 32.90896534380867 157.5 L 32.90896534380867 169.5 M 33.77499074759311 115 L 33.77499074759311 113 M 33.77499074759311 67 L 33.77499074759311 57 M 33.77499074759311 52 L 33.77499074759311 47 M 34.64101615137754 44.5 L 34.64101615137754 45.5 M 34.64101615137754 46.5 L 34.64101615137754 51.5 M 34.64101615137754 52.5 L 34.64101615137754 56.5 M 34.64101615137754 79.5 L 34.64101615137754 80.5 M 34.64101615137754 112.5 L 34.64101615137754 115.5 M 35.50704155516198 82 L 35.50704155516198 81 M 35.50704155516198 77 L 35.50704155516198 76 M 35.50704155516198 71 L 35.50704155516198 70 M 35.50704155516198 56 L 35.50704155516198 44 M 37.23909236273086 81 L 37.23909236273086 80 M 37.23909236273086 76 L 37.23909236273086 75 M 37.23909236273086 70 L 37.23909236273086 69 M 37.23909236273086 46 L 37.23909236273086 43 M 38.97114317029974 159 L 38.97114317029974 154 M 38.97114317029974 150 L 38.97114317029974 138 M 38.97114317029974 134 L 38.97114317029974 130 M 38.97114317029974 64 L 38.97114317029974 54 M 38.97114317029974 50 L 38.97114317029974 45 M 38.97114317029974 38 L 38.97114317029974 37 M 39.837168574084174 130.5 L 39.837168574084174 133.5 M 39.837168574084174 137.5 L 39.837168574084174 149.5 M 39.837168574084174 153.5 L 39.837168574084174 157.5 M 40.703193977868615 143 L 40.703193977868615 141 M 40.703193977868615 63 L 40.703193977868615 53 M 40.703193977868615 49 L 40.703193977868615 44 M 41.569219381653056 14.5 L 41.569219381653056 15.5 M 41.569219381653056 52.5 L 41.569219381653056 62.5 M 41.569219381653056 78.5 L 41.569219381653056 84.5 M 41.569219381653056 88.5 L 41.569219381653056 100.5 M 41.569219381653056 104.5 L 41.569219381653056 116.5 M 41.569219381653056 117.5 L 41.569219381653056 119.5 M 41.569219381653056 120.5 L 41.569219381653056 128.5 M 41.569219381653056 157.5 L 41.569219381653056 164.5 M 42.43524478543749 164 L 42.43524478543749 155 M 42.43524478543749 129 L 42.43524478543749 118 M 42.43524478543749 116 L 42.43524478543749 104 M 42.43524478543749 100 L 42.43524478543749 88 M 42.43524478543749 84 L 42.43524478543749 77 M 42.43524478543749 73 L 42.43524478543749 72 M 42.43524478543749 67 L 42.43524478543749 66 M 42.43524478543749 43 L 42.43524478543749 40 M 43.30127018922193 117.5 L 43.30127018922193 125.5 M 44.167295593006365 163 L 44.167295593006365 162 M 44.167295593006365 161 L 44.167295593006365 160 M 44.167295593006365 156 L 44.167295593006365 155 M 44.167295593006365 128 L 44.167295593006365 127 M 44.167295593006365 77 L 44.167295593006365 76 M 44.167295593006365 72 L 44.167295593006365 71 M 44.167295593006365 66 L 44.167295593006365 65 M 44.167295593006365 42 L 44.167295593006365 39 M 45.033320996790806 11.5 L 45.033320996790806 12.5 M 45.033320996790806 54.5 L 45.033320996790806 64.5 M 45.033320996790806 71.5 L 45.033320996790806 75.5 M 45.033320996790806 76.5 L 45.033320996790806 82.5 M 45.033320996790806 86.5 L 45.033320996790806 98.5 M 45.033320996790806 102.5 L 45.033320996790806 114.5 M 45.033320996790806 118.5 L 45.033320996790806 126.5 M 45.89934640057525 130 L 45.89934640057525 129 M 45.89934640057525 126 L 45.89934640057525 118 M 45.89934640057525 114 L 45.89934640057525 102 M 45.89934640057525 98 L 45.89934640057525 86 M 45.89934640057525 82 L 45.89934640057525 71 M 45.89934640057525 66 L 45.89934640057525 65 M 45.89934640057525 64 L 45.89934640057525 54 M 45.89934640057525 46 L 45.89934640057525 41 M 45.89934640057525 34 L 45.89934640057525 33 M 46.76537180435968 96.5 L 46.76537180435968 98.5 M 46.76537180435968 129.5 L 46.76537180435968 130.5 M 47.63139720814412 131 L 47.63139720814412 130 M 47.63139720814412 129 L 47.63139720814412 126 M 47.63139720814412 125 L 47.63139720814412 117 M 47.63139720814412 115 L 47.63139720814412 101 M 47.63139720814412 97 L 47.63139720814412 85 M 47.63139720814412 81 L 47.63139720814412 70 M 47.63139720814412 65 L 47.63139720814412 64 M 47.63139720814412 63 L 47.63139720814412 54 M 48.49742261192856 10.5 L 48.49742261192856 12.5 M 48.49742261192856 54.5 L 48.49742261192856 64.5 M 48.49742261192856 68.5 L 48.49742261192856 80.5 M 48.49742261192856 84.5 L 48.49742261192856 96.5 M 48.49742261192856 100.5 L 48.49742261192856 112.5 M 48.49742261192856 113.5 L 48.49742261192856 114.5 M 48.49742261192856 116.5 L 48.49742261192856 128.5 M 48.49742261192856 130.5 L 48.49742261192856 131.5 M 48.49742261192856 132.5 L 48.49742261192856 144.5 M 48.49742261192856 145.5 L 48.49742261192856 147.5 M 48.49742261192856 148.5 L 48.49742261192856 152.5 M 48.49742261192856 158.5 L 48.49742261192856 159.5 M 49.363448015713 160 L 49.363448015713 156 M 49.363448015713 153 L 49.363448015713 146 M 49.363448015713 144 L 49.363448015713 131 M 49.363448015713 54 L 49.363448015713 53 M 49.363448015713 39 L 49.363448015713 36 M 49.363448015713 13 L 49.363448015713 12 M 50.22947341949744 115.5 L 50.22947341949744 116.5 M 51.09549882328188 157 L 51.09549882328188 156 M 51.09549882328188 143 L 51.09549882328188 142 M 51.09549882328188 140 L 51.09549882328188 139 M 51.09549882328188 137 L 51.09549882328188 131 M 51.09549882328188 69 L 51.09549882328188 67 M 51.09549882328188 53 L 51.09549882328188 52 M 51.09549882328188 40 L 51.09549882328188 39 M 51.09549882328188 38 L 51.09549882328188 35 M 51.96152422706631 7.5 L 51.96152422706631 8.5 M 51.96152422706631 52.5 L 51.96152422706631 53.5 M 52.827549630850754 141 L 52.827549630850754 139 M 52.827549630850754 138 L 52.827549630850754 131 M 52.827549630850754 126 L 52.827549630850754 125 M 52.827549630850754 70 L 52.827549630850754 68 M 52.827549630850754 54 L 52.827549630850754 52 M 52.827549630850754 30 L 52.827549630850754 29 M 53.693575034635195 38.5 L 53.693575034635195 39.5 M 53.693575034635195 51.5 L 53.693575034635195 54.5 M 53.693575034635195 67.5 L 53.693575034635195 70.5 M 53.693575034635195 117.5 L 53.693575034635195 118.5 M 53.693575034635195 125.5 L 53.693575034635195 126.5 M 53.693575034635195 130.5 L 53.693575034635195 140.5 M 54.55960043841963 149 L 54.55960043841963 143 M 54.55960043841963 138 L 54.55960043841963 130 M 54.55960043841963 127 L 54.55960043841963 126 M 54.55960043841963 119 L 54.55960043841963 118 M 55.42562584220407 6.5 L 55.42562584220407 8.5 M 55.42562584220407 126.5 L 55.42562584220407 127.5 M 55.42562584220407 129.5 L 55.42562584220407 137.5 M 55.42562584220407 141.5 L 55.42562584220407 146.5 M 56.29165124598851 154 L 56.29165124598851 153 M 56.29165124598851 148 L 56.29165124598851 142 M 56.29165124598851 140 L 56.29165124598851 139 M 56.29165124598851 137 L 56.29165124598851 127 M 56.29165124598851 50 L 56.29165124598851 49 M 56.29165124598851 37 L 56.29165124598851 36 M 56.29165124598851 35 L 56.29165124598851 32 M 56.29165124598851 9 L 56.29165124598851 8 M 57.157676649772945 8.5 L 57.157676649772945 9.5 M 57.157676649772945 35.5 L 57.157676649772945 36.5 M 57.157676649772945 119.5 L 57.157676649772945 120.5 M 58.023702053557386 136 L 58.023702053557386 128 M 58.88972745734183 128.5 L 58.88972745734183 130.5 M 59.75575286112626 156 L 59.75575286112626 154 M 59.75575286112626 36 L 59.75575286112626 35 M 60.6217782649107 34.5 L 60.6217782649107 35.5 M 60.6217782649107 140.5 L 60.6217782649107 142.5 M 61.48780366869514 145 L 61.48780366869514 143 M 61.48780366869514 140 L 61.48780366869514 133 M 61.48780366869514 132 L 61.48780366869514 130 M 62.35382907247958 19.5 L 62.35382907247958 20.5 M 62.35382907247958 122.5 L 62.35382907247958 123.5 M 62.35382907247958 130.5 L 62.35382907247958 141.5 M 63.21985447626402 158 L 63.21985447626402 156 M 63.21985447626402 155 L 63.21985447626402 146 M 63.21985447626402 124 L 63.21985447626402 123 M 63.21985447626402 40 L 63.21985447626402 39 M 64.08587988004845 146.5 L 64.08587988004845 158.5 M 65.81793068761733 40.5 L 65.81793068761733 47.5 M 65.81793068761733 51.5 L 65.81793068761733 52.5 M 65.81793068761733 124.5 L 65.81793068761733 125.5 M 66.68395609140177 160 L 66.68395609140177 148 M 66.68395609140177 53 L 66.68395609140177 52 M 66.68395609140177 48 L 66.68395609140177 40 M 67.54998149518622 22.5 L 67.54998149518622 23.5 M 67.54998149518622 54.5 L 67.54998149518622 64.5 M 67.54998149518622 68.5 L 67.54998149518622 80.5 M 67.54998149518622 84.5 L 67.54998149518622 96.5 M 67.54998149518622 100.5 L 67.54998149518622 112.5 M 67.54998149518622 116.5 L 67.54998149518622 128.5 M 67.54998149518622 133.5 L 67.54998149518622 138.5 M 67.54998149518622 148.5 L 67.54998149518622 157.5 M 67.54998149518622 158.5 L 67.54998149518622 160.5 M 68.41600689897065 137 L 68.41600689897065 134 M 68.41600689897065 129 L 68.41600689897065 117 M 68.41600689897065 113 L 68.41600689897065 101 M 68.41600689897065 97 L 68.41600689897065 88 M 68.41600689897065 87 L 68.41600689897065 85 M 68.41600689897065 81 L 68.41600689897065 70 M 68.41600689897065 65 L 68.41600689897065 64 M 68.41600689897065 63 L 68.41600689897065 54 M 69.28203230275508 39.5 L 69.28203230275508 40.5 M 69.28203230275508 41.5 L 69.28203230275508 49.5 M 69.28203230275508 134.5 L 69.28203230275508 146.5 M 69.28203230275508 159.5 L 69.28203230275508 161.5 M 70.14805770653953 162 L 70.14805770653953 160 M 70.14805770653953 145 L 70.14805770653953 138 M 70.14805770653953 137 L 70.14805770653953 135 M 70.14805770653953 50 L 70.14805770653953 41 M 71.01408311032397 32.5 L 71.01408311032397 33.5 M 71.8801085141084 160 L 71.8801085141084 151 M 71.8801085141084 149 L 71.8801085141084 147 M 71.8801085141084 144 L 71.8801085141084 139 M 71.8801085141084 50 L 71.8801085141084 49 M 72.74613391789285 42.5 L 72.74613391789285 51.5 M 72.74613391789285 79.5 L 72.74613391789285 81.5 M 72.74613391789285 95.5 L 72.74613391789285 97.5 M 72.74613391789285 149.5 L 72.74613391789285 150.5 M 72.74613391789285 151.5 L 72.74613391789285 161.5 M 73.61215932167728 126 L 73.61215932167728 114 M 73.61215932167728 110 L 73.61215932167728 96 M 73.61215932167728 94 L 73.61215932167728 91 M 73.61215932167728 84 L 73.61215932167728 80 M 73.61215932167728 78 L 73.61215932167728 73 M 73.61215932167728 60 L 73.61215932167728 42 M 74.47818472546172 26.5 L 74.47818472546172 27.5 M 74.47818472546172 42.5 L 74.47818472546172 52.5 M 74.47818472546172 122.5 L 74.47818472546172 125.5 M 74.47818472546172 129.5 L 74.47818472546172 130.5 M 74.47818472546172 137.5 L 74.47818472546172 139.5 M 75.34421012924616 141 L 75.34421012924616 138 M 75.34421012924616 119 L 75.34421012924616 107 M 75.34421012924616 81 L 75.34421012924616 79 M 75.34421012924616 75 L 75.34421012924616 74 M 75.34421012924616 69 L 75.34421012924616 68 M 75.34421012924616 57 L 75.34421012924616 43 M 76.2102355330306 35.5 L 76.2102355330306 36.5 M 76.2102355330306 67.5 L 76.2102355330306 69.5 M 76.2102355330306 73.5 L 76.2102355330306 74.5 M 76.2102355330306 130.5 L 76.2102355330306 131.5 M 77.07626093681503 152 L 77.07626093681503 150 M 77.07626093681503 149 L 77.07626093681503 139 M 77.07626093681503 132 L 77.07626093681503 131 M 77.07626093681503 43 L 77.07626093681503 42 M 77.94228634059948 41.5 L 77.94228634059948 42.5 M 77.94228634059948 44.5 L 77.94228634059948 54.5 M 77.94228634059948 93.5 L 77.94228634059948 102.5 M 77.94228634059948 106.5 L 77.94228634059948 118.5 M 77.94228634059948 122.5 L 77.94228634059948 134.5 M 77.94228634059948 139.5 L 77.94228634059948 150.5 M 77.94228634059948 152.5 L 77.94228634059948 158.5 M 78.80831174438391 156 L 78.80831174438391 153 M 78.80831174438391 93 L 78.80831174438391 91 M 78.80831174438391 87 L 78.80831174438391 75 M 78.80831174438391 71 L 78.80831174438391 59 M 78.80831174438391 55 L 78.80831174438391 46 M 79.67433714816835 46.5 L 79.67433714816835 55.5 M 79.67433714816835 67.5 L 79.67433714816835 71.5 M 79.67433714816835 75.5 L 79.67433714816835 77.5 M 79.67433714816835 78.5 L 79.67433714816835 79.5 M 79.67433714816835 126.5 L 79.67433714816835 135.5 M 79.67433714816835 139.5 L 79.67433714816835 140.5 M 79.67433714816835 153.5 L 79.67433714816835 157.5 M 80.5403625519528 168 L 80.5403625519528 156 M 80.5403625519528 152 L 80.5403625519528 140 M 80.5403625519528 136 L 80.5403625519528 127 M 80.5403625519528 80 L 80.5403625519528 79 M 80.5403625519528 78 L 80.5403625519528 76 M 80.5403625519528 72 L 80.5403625519528 68 M 80.5403625519528 67 L 80.5403625519528 60 M 80.5403625519528 56 L 80.5403625519528 47 M 80.5403625519528 39 L 80.5403625519528 38 M 81.40638795573723 38.5 L 81.40638795573723 39.5 M 81.40638795573723 67.5 L 81.40638795573723 70.5 M 81.40638795573723 71.5 L 81.40638795573723 72.5 M 81.40638795573723 74.5 L 81.40638795573723 75.5 M 81.40638795573723 76.5 L 81.40638795573723 79.5 M 81.40638795573723 80.5 L 81.40638795573723 82.5 M 81.40638795573723 83.5 L 81.40638795573723 88.5 M 81.40638795573723 92.5 L 81.40638795573723 104.5 M 81.40638795573723 108.5 L 81.40638795573723 114.5 M 81.40638795573723 115.5 L 81.40638795573723 120.5 M 81.40638795573723 124.5 L 81.40638795573723 134.5 M 81.40638795573723 135.5 L 81.40638795573723 136.5 M 81.40638795573723 140.5 L 81.40638795573723 154.5 M 81.40638795573723 156.5 L 81.40638795573723 168.5 M 82.27241335952166 154 L 82.27241335952166 152 M 82.27241335952166 115 L 82.27241335952166 109 M 82.27241335952166 105 L 82.27241335952166 93 M 82.27241335952166 89 L 82.27241335952166 84 M 82.27241335952166 66 L 82.27241335952166 60 M 82.27241335952166 40 L 82.27241335952166 39 M 83.13843876330611 46.5 L 83.13843876330611 48.5 M 83.13843876330611 58.5 L 83.13843876330611 59.5 M 83.13843876330611 66.5 L 83.13843876330611 69.5 M 83.13843876330611 72.5 L 83.13843876330611 73.5 M 83.13843876330611 75.5 L 83.13843876330611 80.5 M 83.13843876330611 83.5 L 83.13843876330611 89.5 M 83.13843876330611 91.5 L 83.13843876330611 92.5 M 83.13843876330611 93.5 L 83.13843876330611 105.5 M 83.13843876330611 107.5 L 83.13843876330611 108.5 M 83.13843876330611 109.5 L 83.13843876330611 118.5 M 84.00446416709055 153 L 84.00446416709055 151 M 84.00446416709055 133 L 84.00446416709055 123 M 84.00446416709055 104 L 84.00446416709055 100 M 84.00446416709055 82 L 84.00446416709055 78 M 84.00446416709055 74 L 84.00446416709055 72 M 84.87048957087498 40.5 L 84.87048957087498 41.5 M 84.87048957087498 59.5 L 84.87048957087498 60.5 M 84.87048957087498 61.5 L 84.87048957087498 70.5 M 84.87048957087498 73.5 L 84.87048957087498 75.5 M 84.87048957087498 81.5 L 84.87048957087498 82.5 M 84.87048957087498 100.5 L 84.87048957087498 104.5 M 84.87048957087498 115.5 L 84.87048957087498 120.5 M 84.87048957087498 137.5 L 84.87048957087498 138.5 M 84.87048957087498 142.5 L 84.87048957087498 154.5 M 85.73651497465941 155 L 85.73651497465941 143 M 85.73651497465941 139 L 85.73651497465941 137 M 85.73651497465941 119 L 85.73651497465941 108 M 85.73651497465941 107 L 85.73651497465941 106 M 85.73651497465941 99 L 85.73651497465941 92 M 85.73651497465941 91 L 85.73651497465941 90 M 85.73651497465941 89 L 85.73651497465941 82 M 85.73651497465941 75 L 85.73651497465941 73 M 85.73651497465941 57 L 85.73651497465941 55 M 85.73651497465941 53 L 85.73651497465941 47 M 85.73651497465941 42 L 85.73651497465941 41 M 86.60254037844386 41.5 L 86.60254037844386 42.5 M 86.60254037844386 46.5 L 86.60254037844386 51.5 M 86.60254037844386 72.5 L 86.60254037844386 74.5 M 86.60254037844386 99.5 L 86.60254037844386 103.5 M 86.60254037844386 121.5 L 86.60254037844386 123.5 M 86.60254037844386 138.5 L 86.60254037844386 141.5 M 86.60254037844386 154.5 L 86.60254037844386 165.5 M 87.4685657822283 164 L 87.4685657822283 154 M 87.4685657822283 141 L 87.4685657822283 138 M 87.4685657822283 135 L 87.4685657822283 125 M 87.4685657822283 121 L 87.4685657822283 109 M 87.4685657822283 108 L 87.4685657822283 107 M 87.4685657822283 105 L 87.4685657822283 93 M 87.4685657822283 92 L 87.4685657822283 91 M 87.4685657822283 89 L 87.4685657822283 83 M 87.4685657822283 59 L 87.4685657822283 58 M 87.4685657822283 52 L 87.4685657822283 46 M 87.4685657822283 43 L 87.4685657822283 41 M 88.33459118601273 43.5 L 88.33459118601273 45.5 M 88.33459118601273 59.5 L 88.33459118601273 68.5 M 88.33459118601273 79.5 L 88.33459118601273 80.5 M 88.33459118601273 88.5 L 88.33459118601273 90.5 M 88.33459118601273 104.5 L 88.33459118601273 106.5 M 88.33459118601273 137.5 L 88.33459118601273 140.5 M 88.33459118601273 153.5 L 88.33459118601273 164.5 M 89.20061658979718 80 L 89.20061658979718 59 M 89.20061658979718 58 L 89.20061658979718 57 M 90.06664199358161 58.5 L 90.06664199358161 67.5 M 90.06664199358161 77.5 L 90.06664199358161 79.5 M 90.06664199358161 81.5 L 90.06664199358161 87.5 M 90.06664199358161 91.5 L 90.06664199358161 103.5 M 90.06664199358161 107.5 L 90.06664199358161 120.5 M 90.06664199358161 123.5 L 90.06664199358161 133.5 M 90.93266739736605 152 L 90.93266739736605 140 M 90.93266739736605 136 L 90.93266739736605 134 M 90.93266739736605 132 L 90.93266739736605 127 M 90.93266739736605 121 L 90.93266739736605 119 M 90.93266739736605 118 L 90.93266739736605 106 M 90.93266739736605 102 L 90.93266739736605 90 M 90.93266739736605 86 L 90.93266739736605 82 M 90.93266739736605 78 L 90.93266739736605 74 M 90.93266739736605 72 L 90.93266739736605 71 M 90.93266739736605 70 L 90.93266739736605 68 M 91.7986928011505 36.5 L 91.7986928011505 37.5 M 91.7986928011505 80.5 L 91.7986928011505 86.5 M 91.7986928011505 90.5 L 91.7986928011505 102.5 M 91.7986928011505 106.5 L 91.7986928011505 118.5 M 91.7986928011505 122.5 L 91.7986928011505 132.5 M 91.7986928011505 133.5 L 91.7986928011505 134.5 M 91.7986928011505 138.5 L 91.7986928011505 150.5 M 92.66471820493493 151 L 92.66471820493493 139 M 92.66471820493493 135 L 92.66471820493493 133 M 92.66471820493493 120 L 92.66471820493493 118 M 92.66471820493493 71 L 92.66471820493493 70 M 92.66471820493493 49 L 92.66471820493493 37 M 93.53074360871936 37.5 L 93.53074360871936 47.5 M 93.53074360871936 85.5 L 93.53074360871936 88.5 M 93.53074360871936 101.5 L 93.53074360871936 104.5 M 93.53074360871936 117.5 L 93.53074360871936 118.5 M 93.53074360871936 134.5 L 93.53074360871936 137.5 M 93.53074360871936 150.5 L 93.53074360871936 161.5 M 94.39676901250381 160 L 94.39676901250381 150 M 94.39676901250381 137 L 94.39676901250381 134 M 94.39676901250381 104 L 94.39676901250381 101 M 94.39676901250381 88 L 94.39676901250381 85 M 94.39676901250381 55 L 94.39676901250381 54 M 94.39676901250381 40 L 94.39676901250381 37 M 95.26279441628824 55.5 L 95.26279441628824 64.5 M 95.26279441628824 75.5 L 95.26279441628824 76.5 M 95.26279441628824 84.5 L 95.26279441628824 87.5 M 95.26279441628824 100.5 L 95.26279441628824 103.5 M 95.26279441628824 149.5 L 95.26279441628824 160.5 M 96.12881982007268 150 L 96.12881982007268 149 M 96.12881982007268 103 L 96.12881982007268 100 M 96.12881982007268 87 L 96.12881982007268 84 M 96.12881982007268 77 L 96.12881982007268 69 M 96.12881982007268 67 L 96.12881982007268 55 M 96.12881982007268 54 L 96.12881982007268 53 M 96.12881982007268 49 L 96.12881982007268 41 M 96.99484522385713 54.5 L 96.99484522385713 63.5 M 96.99484522385713 73.5 L 96.99484522385713 75.5 M 96.99484522385713 76.5 L 96.99484522385713 83.5 M 96.99484522385713 85.5 L 96.99484522385713 99.5 M 96.99484522385713 101.5 L 96.99484522385713 115.5 M 96.99484522385713 117.5 L 96.99484522385713 129.5 M 97.86087062764156 148 L 97.86087062764156 136 M 97.86087062764156 132 L 97.86087062764156 130 M 97.86087062764156 128 L 97.86087062764156 123 M 97.86087062764156 104 L 97.86087062764156 101 M 97.86087062764156 98 L 97.86087062764156 97 M 97.86087062764156 93 L 97.86087062764156 85 M 97.86087062764156 82 L 97.86087062764156 77 M 97.86087062764156 75 L 97.86087062764156 70 M 97.86087062764156 66 L 97.86087062764156 64 M 98.726896031426 32.5 L 98.726896031426 33.5 M 98.726896031426 73.5 L 98.726896031426 75.5 M 98.726896031426 76.5 L 98.726896031426 82.5 M 98.726896031426 86.5 L 98.726896031426 98.5 M 98.726896031426 102.5 L 98.726896031426 114.5 M 98.726896031426 118.5 L 98.726896031426 128.5 M 98.726896031426 149.5 L 98.726896031426 151.5 M 99.59292143521044 147 L 99.59292143521044 135 M 99.59292143521044 131 L 99.59292143521044 129 M 99.59292143521044 37 L 99.59292143521044 32 M 100.45894683899488 62.5 L 100.45894683899488 64.5 M 100.45894683899488 68.5 L 100.45894683899488 72.5 M 100.45894683899488 128.5 L 100.45894683899488 130.5 M 100.45894683899488 134.5 L 100.45894683899488 146.5 M 100.45894683899488 150.5 L 100.45894683899488 157.5 M 101.32497224277931 51 L 101.32497224277931 50 M 101.32497224277931 47 L 101.32497224277931 38 M 101.32497224277931 35 L 101.32497224277931 31 M 102.19099764656376 51.5 L 102.19099764656376 62.5 M 102.19099764656376 66.5 L 102.19099764656376 70.5 M 103.05702305034819 149 L 103.05702305034819 147 M 103.05702305034819 143 L 103.05702305034819 140 M 103.05702305034819 73 L 103.05702305034819 71 M 103.05702305034819 61 L 103.05702305034819 51 M 103.05702305034819 50 L 103.05702305034819 49 M 103.05702305034819 45 L 103.05702305034819 37 M 103.92304845413263 36.5 L 103.92304845413263 44.5 M 103.92304845413263 48.5 L 103.92304845413263 49.5 M 103.92304845413263 50.5 L 103.92304845413263 61.5 M 103.92304845413263 70.5 L 103.92304845413263 79.5 M 103.92304845413263 81.5 L 103.92304845413263 95.5 M 103.92304845413263 97.5 L 103.92304845413263 111.5 M 103.92304845413263 113.5 L 103.92304845413263 127.5 M 103.92304845413263 129.5 L 103.92304845413263 141.5 M 103.92304845413263 145.5 L 103.92304845413263 146.5 M 104.78907385791707 148 L 104.78907385791707 146 M 104.78907385791707 142 L 104.78907385791707 130 M 104.78907385791707 126 L 104.78907385791707 114 M 104.78907385791707 110 L 104.78907385791707 98 M 104.78907385791707 94 L 104.78907385791707 82 M 104.78907385791707 78 L 104.78907385791707 76 M 104.78907385791707 70 L 104.78907385791707 66 M 105.65509926170151 66.5 L 105.65509926170151 76.5 M 108.25317547305482 64 L 108.25317547305482 63 M 108.25317547305482 59 L 108.25317547305482 48 M 109.11920087683926 64.5 L 109.11920087683926 75.5 M 109.11920087683926 79.5 L 109.11920087683926 91.5 M 109.11920087683926 95.5 L 109.11920087683926 107.5 M 109.11920087683926 111.5 L 109.11920087683926 123.5 M 109.11920087683926 127.5 L 109.11920087683926 139.5 M 109.11920087683926 143.5 L 109.11920087683926 145.5 " /></g></svg>