<svg viewBox="-9.600000000000001 -9.600000000000001 76.35767664977294 115.2" xmlns="http://www.w3.org/2000/svg"><path transform="scale(0.8660254037844386 0.5)" stroke="black" stroke-width="0.3" stroke-linecap="round" d="M 30 7 L 7 30 M 32 9 L 9 32 M 24 23 L 22 25 M 13 34 L 12 35 M 40 9 L 25 24 M 25 26 L 24 27 M 18 35 L 16 37 M 22 33 L 19 36 M 12 43 L 7 48 M 27 30 L 26 31 M 23 34 L 20 37 M 12 45 L 10 47 M 7 50 L 5 52 M 12 47 L 11 48 M 31 30 L 29 32 M 23 38 L 22 39 M 29 34 L 26 37 M 24 39 L 23 40 M 29 36 L 26 39 M 10 55 L 9 56 M 24 43 L 23 44 M 26 43 L 25 44 M 26 45 L 25 46 M 10 61 L 8 63 M 53 22 L 36 39 M 52 25 L 51 26 M 29 48 L 27 50 M 16 61 L 15 62 M 50 29 L 24 55 M 6 73 L 3 76 M 44 37 L 39 42 M 55 28 L 54 29 M 39 44 L 38 45 M 19 64 L 18 65 M 51 34 L 48 37 M 6 81 L 4 83 M 55 36 L 54 37 M 42 49 L 30 61 M 50 43 L 45 48 M 21 72 L 19 74 M 57 38 L 53 42 M 46 49 L 45 50 M 42 57 L 39 60 M 12 87 L 10 89 M 54 47 L 53 48 M 37 64 L 32 69 M 58 45 L 41 62 M 40 63 L 38 65 M 59 46 L 50 55 M 41 64 L 34 71 M 19 88 L 18 89 M 59 52 L 50 61 M 41 70 L 34 77 M 21 90 L 20 91 M 19 92 L 18 93 M 12 99 L 11 100 M 62 51 L 52 61 M 22 91 L 20 93 M 18 95 L 17 96 M 38 77 L 30 85 M 23 92 L 20 95 M 58 59 L 56 61 M 22 95 L 20 97 M 11 106 L 10 107 M 23 96 L 21 98 M 60 61 L 58 63 M 25 96 L 23 98 M 50 73 L 41 82 M 25 98 L 23 100 M 56 69 L 39 86 M 35 90 L 30 95 M 8 117 L 4 121 M 30 97 L 29 98 M 58 71 L 41 88 M 27 102 L 26 103 M 62 71 L 60 73 M 9 124 L 8 125 M 65 72 L 60 77 M 41 96 L 36 101 M 33 106 L 31 108 M 36 109 L 33 112 M 10 147 L 8 149 M 65 94 L 64 95 M 13 146 L 11 148 M 12 149 L 10 151 M 20 143 L 16 147 M 12 153 L 10 155 M 24 145 L 23 146 M 30 145 L 29 146 M 19 156 L 17 158 M 32 145 L 31 146 M 64 123 L 58 129 M 61 128 L 58 131 M 27 164 L 25 166 M 43 154 L 40 157 M 27 178 L 25 180 M 61 146 L 58 149 M 57 150 L 43 164 M 55 158 L 52 161 M 52 163 L 46 169 M 55 162 L 40 177 M 57 164 L 40 181 M 58 165 L 33 190 M 53 22 L 40 9 M 55 28 L 52 25 M 54 29 L 51 26 M 32 9 L 30 7 M 57 38 L 55 36 M 54 37 L 51 34 M 59 46 L 58 45 M 62 51 L 59 48 M 53 42 L 48 37 M 50 43 L 44 37 M 53 48 L 50 45 M 53 50 L 50 47 M 31 30 L 24 23 M 60 61 L 58 59 M 51 52 L 50 51 M 50 53 L 46 49 M 45 48 L 39 42 M 36 39 L 25 28 M 24 27 L 22 25 M 58 63 L 56 61 M 45 50 L 39 44 M 65 72 L 62 69 M 42 49 L 29 36 M 23 34 L 22 33 M 58 71 L 56 69 M 24 39 L 23 38 M 26 43 L 18 35 M 29 48 L 24 43 M 41 62 L 39 60 M 28 49 L 13 34 M 41 64 L 40 63 M 27 50 L 12 35 M 9 32 L 7 30 M 38 65 L 37 64 M 30 61 L 24 55 M 34 71 L 32 69 M 24 61 L 7 44 M 24 63 L 8 47 M 41 82 L 40 81 M 13 54 L 7 48 M 34 77 L 32 75 M 24 69 L 15 60 M 41 88 L 39 86 M 18 65 L 15 62 M 10 57 L 9 56 M 7 54 L 5 52 M 24 75 L 21 72 M 13 64 L 10 61 M 41 96 L 35 90 M 30 85 L 19 74 M 13 68 L 8 63 M 36 101 L 30 95 M 61 128 L 60 127 M 33 100 L 30 97 M 7 74 L 5 72 M 29 98 L 19 88 M 18 89 L 16 87 M 8 79 L 7 78 M 36 109 L 33 106 M 27 100 L 25 98 M 23 96 L 22 95 M 8 81 L 3 76 M 27 102 L 26 101 M 12 87 L 6 81 M 31 108 L 18 95 M 33 112 L 17 96 M 10 89 L 4 83 M 13 100 L 12 99 M 13 102 L 11 100 M 32 129 L 29 126 M 24 121 L 17 114 M 10 107 L 4 101 M 55 158 L 52 155 M 8 111 L 3 106 M 57 164 L 55 162 M 51 166 L 50 165 M 31 146 L 30 145 M 9 124 L 8 123 M 32 149 L 29 146 M 8 125 L 4 121 M 43 164 L 41 162 M 24 147 L 20 143 M 24 153 L 17 146 M 27 158 L 24 155 M 16 147 L 9 140 M 27 164 L 19 156 M 13 150 L 12 149 M 11 148 L 10 147 M 25 166 L 12 153 M 10 151 L 8 149 M 17 162 L 10 155 M 27 182 L 25 180 M 33 190 L 4 161 M 3 106 L 3 76 M 4 83 L 4 101 M 4 121 L 4 161 M 5 72 L 5 52 M 7 78 L 7 48 M 7 44 L 7 30 M 8 47 L 8 81 M 8 105 L 8 123 M 8 125 L 8 149 M 9 140 L 9 124 M 9 62 L 9 56 M 9 46 L 9 32 M 10 51 L 10 57 M 10 89 L 10 107 M 10 141 L 10 147 M 10 151 L 10 155 M 11 148 L 11 142 M 11 106 L 11 100 M 12 35 L 12 49 M 12 87 L 12 99 M 12 149 L 12 153 M 13 150 L 13 144 M 13 102 L 13 54 M 15 62 L 15 60 M 16 87 L 16 147 M 17 162 L 17 158 M 17 114 L 17 96 M 18 65 L 18 89 M 18 93 L 18 95 M 19 96 L 19 92 M 19 88 L 19 74 M 20 91 L 20 97 M 20 117 L 20 143 M 21 72 L 21 66 M 22 25 L 22 33 M 22 93 L 22 95 M 23 100 L 23 96 M 23 38 L 23 34 M 24 27 L 24 39 M 24 55 L 24 79 M 24 121 L 24 155 M 25 180 L 25 166 M 25 98 L 25 94 M 25 28 L 25 24 M 26 29 L 26 39 M 26 43 L 26 47 M 26 99 L 26 103 M 27 182 L 27 158 M 27 104 L 27 100 M 27 52 L 27 50 M 28 49 L 28 51 M 29 146 L 29 126 M 29 98 L 29 84 M 29 50 L 29 48 M 29 36 L 29 32 M 30 61 L 30 85 M 30 95 L 30 97 M 30 127 L 30 145 M 32 9 L 32 17 M 32 69 L 32 75 M 32 129 L 32 149 M 33 190 L 33 112 M 33 106 L 33 100 M 34 41 L 34 45 M 34 71 L 34 77 M 35 90 L 35 80 M 36 39 L 36 43 M 36 101 L 36 109 M 38 73 L 38 77 M 39 86 L 39 72 M 39 64 L 39 60 M 39 44 L 39 42 M 40 71 L 40 81 M 40 157 L 40 181 M 41 162 L 41 156 M 41 96 L 41 88 M 41 82 L 41 70 M 41 64 L 41 62 M 42 49 L 42 57 M 43 164 L 43 154 M 45 50 L 45 48 M 46 169 L 46 171 M 48 37 L 48 41 M 50 29 L 50 35 M 50 43 L 50 55 M 50 61 L 50 73 M 51 166 L 51 164 M 51 52 L 51 48 M 51 34 L 51 26 M 52 59 L 52 61 M 52 155 L 52 163 M 53 48 L 53 42 M 53 26 L 53 22 M 54 29 L 54 37 M 54 47 L 54 49 M 55 162 L 55 152 M 55 36 L 55 28 M 56 61 L 56 69 M 57 164 L 57 150 M 57 46 L 57 38 M 58 63 L 58 71 M 58 129 L 58 131 M 58 149 L 58 165 M 59 52 L 59 46 M 60 61 L 60 77 M 61 146 L 61 126 M 62 51 L 62 71 M 64 95 L 64 123 M 65 94 L 65 72" /></svg>